<svg width="40" height="40" viewBox="0 0 40 40" fill="none" xmlns="http://www.w3.org/2000/svg">
<path d="M31.667 18.3334H11.9003L17.9503 11.0667C18.2332 10.7264 18.3693 10.2876 18.3287 9.84685C18.2881 9.40614 18.074 8.99962 17.7337 8.71672C17.3933 8.43382 16.9545 8.29772 16.5138 8.33835C16.0731 8.37898 15.6666 8.59302 15.3837 8.93339L7.05033 18.9334C6.99426 19.0129 6.94412 19.0965 6.90033 19.1834C6.90033 19.2667 6.90033 19.3167 6.78366 19.4001C6.70811 19.5912 6.66856 19.7946 6.66699 20.0001C6.66856 20.2055 6.70811 20.409 6.78366 20.6001C6.78366 20.6834 6.78366 20.7334 6.90033 20.8167C6.94412 20.9036 6.99426 20.9872 7.05033 21.0667L15.3837 31.0667C15.5404 31.2549 15.7366 31.4062 15.9584 31.5099C16.1802 31.6136 16.4221 31.6671 16.667 31.6667C17.0564 31.6675 17.4338 31.5319 17.7337 31.2834C17.9024 31.1435 18.0419 30.9716 18.1442 30.7777C18.2464 30.5838 18.3094 30.3716 18.3296 30.1533C18.3497 29.935 18.3265 29.7149 18.2615 29.5056C18.1964 29.2962 18.0907 29.1018 17.9503 28.9334L11.9003 21.6667H31.667C32.109 21.6667 32.5329 21.4911 32.8455 21.1786C33.1581 20.866 33.3337 20.4421 33.3337 20.0001C33.3337 19.558 33.1581 19.1341 32.8455 18.8215C32.5329 18.509 32.109 18.3334 31.667 18.3334Z" fill="white"/>
</svg>
