<svg width="40" height="40" viewBox="0 0 40 40" fill="none" xmlns="http://www.w3.org/2000/svg">
<path d="M8.74967 6.66675H31.2497C32.6332 6.66666 33.9644 7.196 34.9701 8.1462C35.9757 9.0964 36.5797 10.3954 36.658 11.7767L36.6663 12.0834V27.9167C36.6664 29.3003 36.1371 30.6315 35.1869 31.6371C34.2367 32.6428 32.9377 33.2467 31.5563 33.3251L31.2497 33.3334H8.74967C7.36611 33.3335 6.03496 32.8042 5.02929 31.854C4.02362 30.9038 3.41967 29.6048 3.34134 28.2234L3.33301 27.9167V12.0834C3.33292 10.6999 3.86226 9.3687 4.81246 8.36303C5.76266 7.35736 7.06166 6.75341 8.44301 6.67508L8.74967 6.66675H31.2497H8.74967ZM34.1663 15.6217L20.583 22.7717C20.4296 22.8528 20.2611 22.901 20.088 22.9133C19.915 22.9257 19.7413 22.9019 19.578 22.8434L19.418 22.7734L5.83301 15.6234V27.9167C5.83304 28.6487 6.10829 29.3539 6.60414 29.8924C7.09999 30.4309 7.78017 30.7632 8.50967 30.8234L8.74967 30.8334H31.2497C31.9819 30.8334 32.6874 30.5579 33.2259 30.0617C33.7644 29.5655 34.0965 28.8849 34.1563 28.1551L34.1663 27.9167V15.6217ZM31.2497 9.16675H8.74967C8.01769 9.16678 7.31248 9.44203 6.77402 9.93788C6.23557 10.4337 5.90324 11.1139 5.84301 11.8434L5.83301 12.0834V12.7984L19.9997 20.2534L34.1663 12.7967V12.0834C34.1663 11.3512 33.8908 10.6457 33.3946 10.1072C32.8984 9.56874 32.2178 9.23658 31.488 9.17675L31.2497 9.16675Z" fill="white"/>
</svg>
