<svg width="62" height="62" viewBox="0 0 62 62" fill="none" xmlns="http://www.w3.org/2000/svg">
<g clip-path="url(#clip0)">
<path d="M30.9997 51.6668C42.4138 51.6668 51.6663 42.4143 51.6663 31.0002C51.6663 19.5861 42.4138 10.3335 30.9997 10.3335C19.5856 10.3335 10.333 19.5861 10.333 31.0002C10.3461 42.4087 19.5911 51.6537 30.9997 51.6668ZM12.3997 31.0002C12.4052 29.5203 12.5884 28.0465 12.9446 26.61L21.5246 33.8363L17.9367 44.2216C14.3927 40.7351 12.3982 35.9716 12.3997 31.0002ZM35.1592 23.6922C35.3056 24.0337 35.6239 24.2704 35.9933 24.3118L47.0951 25.5585L38.6008 32.7131C38.2739 32.9886 38.1503 33.4367 38.2895 33.8408L41.8002 44.0016L31.2504 41.3643C31.086 41.3234 30.9134 41.3234 30.7489 41.3643L20.1991 44.0016L23.7098 33.8408C23.8491 33.4367 23.7255 32.9886 23.3985 32.7131L14.9043 25.5585L26.0061 24.3118C26.3754 24.2704 26.6938 24.0337 26.8401 23.6922L30.9997 13.9895L35.1592 23.6922ZM20.2178 46.1273L30.9997 43.4319L41.7816 46.1273C35.3394 50.7576 26.66 50.7576 20.2178 46.1273ZM44.0627 44.2216L40.4748 33.8363L49.0548 26.61C50.6325 32.9503 48.7328 39.6523 44.0627 44.2216ZM48.0487 23.5862L36.8218 22.3253L32.6016 12.4814C39.395 13.0763 45.3205 17.3362 48.0487 23.5862ZM29.3977 12.4814L25.1776 22.3253L13.9507 23.5862C16.6788 17.3362 22.6043 13.0763 29.3977 12.4814Z" fill="black"/>
<path d="M5.16699 31.0003C5.16699 45.2677 16.733 56.8337 31.0003 56.8337C45.2677 56.8337 56.8337 45.2677 56.8337 31.0003C56.8337 16.733 45.2677 5.16699 31.0003 5.16699C16.7395 5.18314 5.18314 16.7395 5.16699 31.0003ZM31.0003 7.23366C44.1264 7.23366 54.767 17.8743 54.767 31.0003C54.767 44.1264 44.1264 54.767 31.0003 54.767C17.8743 54.767 7.23366 44.1264 7.23366 31.0003C7.2488 17.8803 17.8803 7.2488 31.0003 7.23366Z" fill="black"/>
<path d="M27.5731 37.1471L30.0212 37.963C29.9909 38.0502 29.9723 38.1411 29.9667 38.2334V39.2667C29.9667 39.8374 30.4294 40.3001 31 40.3001C31.5707 40.3001 32.0334 39.8374 32.0334 39.2667V38.634L33.7731 39.2138C34.0884 39.3187 34.4346 39.2657 34.704 39.0715C34.9734 38.8772 35.1334 38.5654 35.1334 38.2334V33.0667C35.1334 32.6222 34.8488 32.2271 34.427 32.0864L28.9334 30.2553V26.2335L33.0667 27.6115V28.9334C33.0667 29.5041 33.5294 29.9667 34.1 29.9667C34.6707 29.9667 35.1334 29.5041 35.1334 28.9334V26.8667C35.1334 26.4222 34.8488 26.0271 34.427 25.8864L32.0334 25.0887V23.7667C32.0334 23.1961 31.5707 22.7334 31 22.7334C30.4294 22.7334 29.9667 23.1961 29.9667 23.7667V24.3994L28.227 23.8197C27.9116 23.7148 27.5655 23.7677 27.2961 23.962C27.0266 24.1563 26.8667 24.4681 26.8667 24.8001V31.0001C26.8667 31.4446 27.1513 31.8397 27.5731 31.9804L33.0667 33.8115V36.8L28.9334 35.422V35.1334C28.9334 34.5627 28.4707 34.1001 27.9 34.1001C27.3294 34.1001 26.8667 34.5627 26.8667 35.1334V36.1667C26.8667 36.6112 27.1513 37.0063 27.5731 37.1471Z" fill="black"/>
<path d="M1.03333 8.26667C3.8856 8.2702 6.19647 10.5811 6.2 13.4333C6.2 14.004 6.66268 14.4667 7.23333 14.4667C7.80399 14.4667 8.26667 14.004 8.26667 13.4333C8.2702 10.5811 10.5811 8.2702 13.4333 8.26667C14.004 8.26667 14.4667 7.80399 14.4667 7.23333C14.4667 6.66268 14.004 6.2 13.4333 6.2C10.5811 6.19647 8.2702 3.8856 8.26667 1.03333C8.26667 0.462679 7.80399 0 7.23333 0C6.66268 0 6.2 0.462679 6.2 1.03333C6.19647 3.8856 3.8856 6.19647 1.03333 6.2C0.462679 6.2 0 6.66268 0 7.23333C0 7.80399 0.462679 8.26667 1.03333 8.26667ZM7.23333 4.75596C7.84536 5.77062 8.69605 6.62131 9.71071 7.23333C8.69605 7.84536 7.84536 8.69605 7.23333 9.71071C6.62131 8.69605 5.77062 7.84536 4.75596 7.23333C5.77062 6.62131 6.62131 5.77062 7.23333 4.75596Z" fill="black"/>
<path d="M54.7665 47.5332C54.1959 47.5332 53.7332 47.9959 53.7332 48.5665C53.7297 51.4188 51.4188 53.7297 48.5665 53.7332C47.9959 53.7332 47.5332 54.1959 47.5332 54.7665C47.5332 55.3372 47.9959 55.7999 48.5665 55.7999C51.4188 55.8034 53.7297 58.1143 53.7332 60.9665C53.7332 61.5372 54.1959 61.9999 54.7665 61.9999C55.3372 61.9999 55.7999 61.5372 55.7999 60.9665C55.8034 58.1143 58.1143 55.8034 60.9665 55.7999C61.5372 55.7999 61.9999 55.3372 61.9999 54.7665C61.9999 54.1959 61.5372 53.7332 60.9665 53.7332C58.1143 53.7297 55.8034 51.4188 55.7999 48.5665C55.7999 47.9959 55.3372 47.5332 54.7665 47.5332ZM57.2439 54.7665C56.2292 55.3786 55.3786 56.2292 54.7665 57.2439C54.1545 56.2292 53.3038 55.3786 52.2892 54.7665C53.3038 54.1545 54.1545 53.3038 54.7665 52.2892C55.3786 53.3038 56.2292 54.1545 57.2439 54.7665Z" fill="black"/>
</g>
<defs>
<clipPath id="clip0">
<rect width="62" height="62" fill="white"/>
</clipPath>
</defs>
</svg>
