<svg width="67" height="67" viewBox="0 0 67 67" fill="none" xmlns="http://www.w3.org/2000/svg">
<g clip-path="url(#clip0)">
<path d="M36.1587 26.4386L33.1123 23.8641L33.5063 19.8947C33.5497 19.4564 33.3445 19.0395 32.9707 18.8065C32.5969 18.5735 32.1321 18.5729 31.7576 18.805L28.3676 20.9066L24.7145 19.3056C24.3109 19.1286 23.8511 19.1949 23.5139 19.4784C23.1766 19.7621 23.0324 20.2042 23.1376 20.6318L24.0889 24.5054L21.4374 27.4847C21.1444 27.8138 21.0652 28.2718 21.2306 28.6802C21.396 29.0885 21.7719 29.3622 22.2112 29.3944L26.1892 29.6868L28.2036 33.1297C28.4119 33.4856 28.7857 33.6981 29.193 33.6981C29.2206 33.6981 29.2487 33.6971 29.2765 33.6953C29.7158 33.664 30.0922 33.3914 30.2588 32.9834L31.766 29.2904L35.6632 28.4384C36.0934 28.344 36.4264 28.0198 36.5323 27.5924C36.6381 27.165 36.495 26.7229 36.1587 26.4386ZM30.9353 27.472C30.5657 27.5528 30.2598 27.8103 30.117 28.1602L29.0662 30.7347L27.6615 28.3339C27.4705 28.0082 27.1319 27.7972 26.7545 27.7692L23.9813 27.5654L25.8302 25.4878C26.0813 25.2054 26.1774 24.8176 26.0873 24.4504L25.4242 21.75L27.9703 22.8659C28.3165 23.018 28.7153 22.9898 29.0374 22.7904L31.4009 21.3251L31.1264 24.0921C31.0889 24.4685 31.239 24.839 31.528 25.0833L33.6518 26.878L30.9353 27.472Z" fill="black"/>
<path d="M64.3755 50.6219L61.1191 47.7455C60.2885 47.0121 59.0227 46.9967 58.1746 47.7098L58.0285 47.8327C57.8846 47.3139 57.6216 46.823 57.2357 46.4074C56.7642 45.8995 56.1655 45.5521 55.506 45.3958C55.8864 44.2275 55.6405 42.8921 54.7471 41.9296C54.1117 41.2451 53.2477 40.8491 52.3144 40.8147C52.2863 40.8136 52.2584 40.814 52.2304 40.8136C52.2732 39.9076 51.9673 38.9858 51.303 38.2701C50.6754 37.594 49.8247 37.2001 48.9045 37.1572C48.9875 36.2066 48.6847 35.2259 47.986 34.4734C47.3506 33.7888 46.4866 33.3929 45.5533 33.3584C44.6198 33.3232 43.7291 33.655 43.0449 34.2906L42.5811 34.7213C41.9075 34.2351 41.1015 33.959 40.2455 33.9308C40.1377 33.9272 40.0305 33.9287 39.9238 33.9329L40.2713 32.7731C40.8946 30.693 41.2825 26.922 41.271 27.1243C41.3046 27.1405 41.3376 27.1574 41.372 27.1727C41.8501 27.386 42.3653 27.492 42.8784 27.492C43.4666 27.492 44.0521 27.3527 44.5753 27.0756C45.6644 26.4991 46.4374 25.2938 46.4989 24.0765C46.5574 22.918 46.0119 21.895 44.9629 21.1959C44.5138 20.8968 43.9073 21.018 43.6081 21.467C43.309 21.916 43.4304 22.5225 43.8794 22.8218C44.3459 23.1326 44.5707 23.5215 44.5475 23.9778C44.5205 24.5146 44.1476 25.0911 43.6611 25.3487C43.215 25.585 42.6429 25.6001 42.1679 25.3881C41.8645 25.2529 41.4713 24.9651 41.3208 24.3628C40.8726 22.5688 41.9004 20.7882 43.0903 18.7267C45.2457 14.9923 47.928 10.3451 42.3131 3.70846L39.9878 0.959889C39.5194 0.406223 38.8635 0.0687368 38.1409 0.00932665C37.4183 -0.0500835 36.7161 0.17578 36.1636 0.645565C34.6654 1.91948 33.8866 3.84848 34.08 5.80548L34.196 6.97955C34.2556 7.58163 34.0237 8.17312 33.5775 8.578L34.8365 10.075C35.7759 9.25454 36.2634 8.03074 36.1404 6.78732L36.0243 5.61325C35.8938 4.29366 36.419 2.99305 37.4292 2.13409C37.5832 2.0031 37.7785 1.93976 37.9808 1.95665C38.1823 1.97313 38.3652 2.06735 38.496 2.22177L40.8213 4.97034C45.5487 10.5582 43.5325 14.0516 41.3979 17.7498C41.0639 18.3283 40.7274 18.9122 40.4229 19.5042C39.6156 16.73 38.2645 14.1508 36.3963 11.9297L31.9248 6.61328L31.95 6.59221C32.3088 6.29045 32.5286 5.86712 32.5689 5.40008C32.6092 4.93291 32.4653 4.47817 32.1635 4.11949L30.7348 2.4208C30.4331 2.06199 30.0097 1.84214 29.5427 1.80184C29.0756 1.76166 28.6209 1.90535 28.262 2.20711L5.68388 21.1965C4.94335 21.8193 4.84756 22.9284 5.47032 23.6692L6.89904 25.3679C7.2008 25.7267 7.62413 25.9466 8.0913 25.9869C8.14286 25.9913 8.19416 25.9935 8.24519 25.9935C8.65753 25.9935 9.05272 25.85 9.37176 25.5815L9.39702 25.5601L11.0763 27.5569C10.6034 27.9212 9.98706 28.0466 9.40866 27.8881L8.2711 27.5759C6.37495 27.0553 4.34205 27.4979 2.83376 28.76C2.27774 29.2255 1.93659 29.8794 1.87339 30.6019C1.81005 31.3242 2.03225 32.0275 2.49902 32.5825L4.81641 35.3377C10.4118 41.9907 15.4448 40.1302 19.4889 38.635C21.314 37.9602 22.9356 37.3609 24.3915 37.5711C24.6618 37.6471 24.9337 37.7189 25.2077 37.7852C25.2529 37.8028 25.2979 37.821 25.3428 37.8406C25.9111 38.0903 26.1284 38.5265 26.2107 38.8483C26.3395 39.3521 26.2281 39.9135 25.9201 40.3135C25.5843 40.7496 24.9532 41.0193 24.4194 40.9561C23.9657 40.902 23.6203 40.6149 23.3924 40.1027C23.1732 39.6097 22.596 39.3881 22.1027 39.6071C21.6097 39.8263 21.3878 40.4037 21.607 40.8967C22.1193 42.0486 23.0358 42.7587 24.1875 42.8963C24.3147 42.9114 24.4428 42.9189 24.5715 42.9189C25.6683 42.9188 26.7952 42.3794 27.4679 41.5056C28.1442 40.6276 28.3818 39.4532 28.1035 38.3645C28.0971 38.3396 28.0894 38.3154 28.0824 38.2908C28.971 38.3909 29.8723 38.4435 30.7835 38.4435C31.7594 38.4435 32.7466 38.3851 33.7388 38.2667L33.8253 38.2564C33.3804 38.7871 33.034 39.3972 32.8101 40.051L28.9698 49.4972L8.48479 65.2486C8.1532 65.5035 8.02064 65.9415 8.15542 66.3375C8.29008 66.7336 8.66198 67 9.08034 67H32.2911C32.5547 67 32.8071 66.8935 32.991 66.7048L34.2837 65.3775C34.6602 64.991 34.6521 64.3724 34.2655 63.9959C33.879 63.6195 33.2604 63.6275 32.884 64.0141L31.8789 65.0462H11.9537L30.3712 50.885C30.3848 50.8745 30.3969 50.8631 30.4098 50.8521C30.4185 50.8447 30.4276 50.8375 30.4361 50.8296C30.4672 50.8011 30.4961 50.771 30.5228 50.7393C30.5281 50.733 30.5329 50.7264 30.538 50.7198C30.5623 50.6895 30.5846 50.6579 30.6049 50.6252C30.6087 50.6191 30.6129 50.6132 30.6165 50.6069C30.6395 50.5679 30.6594 50.5277 30.6767 50.4864C30.6779 50.4836 30.6796 50.4811 30.6806 50.4784L34.6315 40.7602C34.6391 40.7415 34.6462 40.7226 34.6526 40.7035C34.8445 40.1324 35.1796 39.6108 35.6216 39.1946L38.4276 36.5536C38.9095 36.1001 39.5308 35.8619 40.181 35.8836C40.7949 35.9039 41.3592 36.1579 41.7698 36.599L41.8742 36.7112L41.8743 36.7113L41.8745 36.7115L45.3067 40.3979C45.3068 40.398 45.3069 40.3982 45.3069 40.3983C45.3071 40.3984 45.3072 40.3985 45.3073 40.3987L45.3074 40.3988C45.3077 40.3991 45.3078 40.3993 45.3081 40.3996C45.3084 40.3999 45.3086 40.4001 45.3089 40.4004L45.7952 40.9226C46.0001 41.1427 46.1066 41.4335 46.0955 41.7413C46.0836 42.0718 45.9402 42.3811 45.6919 42.6118L45.1262 43.1374C44.7348 43.501 44.1787 43.5697 43.7468 43.3496C43.7356 43.3434 43.7238 43.3383 43.7121 43.3325C43.6119 43.2769 43.519 43.2052 43.4372 43.1174L42.0125 41.5848C41.5034 41.0371 40.8077 40.7216 40.0538 40.6965C39.2814 40.6713 38.5412 40.9513 37.9725 41.4865C37.9195 41.5365 37.8727 41.5916 37.8326 41.6509C37.7325 41.799 37.6745 41.9725 37.6662 42.1525C37.6645 42.1884 37.6649 42.2247 37.6672 42.2611C37.6674 42.2624 37.6674 42.2637 37.6674 42.265C37.6721 42.3392 37.6753 42.4126 37.6773 42.4856C37.6783 42.5267 37.6782 42.5674 37.6785 42.6082C37.6787 42.6396 37.6793 42.6712 37.6789 42.7023C37.6783 42.7544 37.6765 42.806 37.6745 42.8574C37.6739 42.8761 37.6734 42.8948 37.6725 42.9135C37.6696 42.9716 37.6655 43.0293 37.6608 43.0865C37.6602 43.094 37.6596 43.1016 37.659 43.109C37.6562 43.1335 37.654 43.158 37.6531 43.1826C37.5619 44.0871 37.235 44.8966 36.6638 45.6379C36.3344 46.0653 36.414 46.6788 36.8414 47.008C37.2686 47.3372 37.8822 47.2577 38.2115 46.8303C38.5499 46.3911 38.8274 45.9285 39.0454 45.4446L47.3549 56.8096L47.1566 56.9763C47.0326 57.0189 46.9149 57.0867 46.8123 57.1811C46.1218 57.8165 45.2766 58.2446 44.3654 58.4216L38.2476 58.8612C38.0089 58.8784 37.7847 58.9825 37.6178 59.154L36.056 60.7575C35.6795 61.1441 35.6876 61.7627 36.0741 62.1391C36.264 62.324 36.5099 62.4162 36.7557 62.4162C37.0099 62.4162 37.264 62.3175 37.4555 62.1209L38.7581 60.7834L44.5613 60.3665C44.5724 60.3657 44.5833 60.3635 44.5943 60.3623C44.6195 60.7122 44.7242 61.0592 44.9168 61.3724L47.1925 65.0735C47.5365 65.6331 48.1056 66.014 48.7539 66.1187C48.874 66.1382 48.9944 66.1478 49.1141 66.1478C49.6412 66.1478 50.1555 65.963 50.5651 65.6184L64.3339 54.0384C64.8365 53.6157 65.1292 52.9966 65.1374 52.3399C65.1455 51.6828 64.8676 51.0569 64.3755 50.6219ZM18.8116 36.8024C14.8061 38.2832 11.0229 39.6817 6.31201 34.0803L3.99462 31.325C3.86454 31.1702 3.80252 30.9741 3.82018 30.7725C3.83785 30.571 3.93298 30.3885 4.08818 30.2588C5.10509 29.4078 6.47584 29.1094 7.75434 29.4603L8.8919 29.7725C10.09 30.1011 11.3708 29.832 12.336 29.0545L13.8686 30.8768C15.7412 33.1034 18.0572 34.8799 20.6596 36.1514C20.0401 36.3484 19.4231 36.5763 18.8116 36.8024ZM38.3994 32.2122L37.6617 34.6738C37.4607 34.8092 37.2686 34.9611 37.0883 35.1307L36.1536 36.0104L33.5073 36.3266C26.3939 37.1765 19.6109 34.6689 15.3638 29.6191L10.8925 24.3027L12.638 22.8346C13.051 22.4873 13.1041 21.871 12.7568 21.4581C12.4097 21.0451 11.7932 20.9916 11.3803 21.3391L8.88745 23.4356C8.88732 23.4358 8.88719 23.4359 8.88706 23.4359C8.88693 23.436 8.88679 23.4362 8.88666 23.4363L8.26639 23.958L7.09363 22.5637L29.3677 3.83042L30.5405 5.22486L29.9211 5.74581C29.9207 5.7462 29.9202 5.74646 29.9198 5.74673C29.9194 5.74699 29.919 5.74751 29.9186 5.74777L14.904 18.3757C14.4911 18.7231 14.4378 19.3393 14.7852 19.7522C15.1323 20.1652 15.7485 20.2181 16.1617 19.8712L30.4298 7.87083L34.9011 13.1873C39.1483 18.2373 40.456 25.3495 38.3994 32.2122ZM54.7568 47.2569C55.1584 47.2718 55.5303 47.4422 55.8037 47.7368C56.2698 48.239 56.3337 48.9916 55.9714 49.5628L51.7147 53.1429C51.2562 53.1814 50.8109 53.0123 50.4925 52.6694C49.9284 52.0617 49.9637 51.1082 50.571 50.5438L51.1877 49.9708C51.3004 49.8886 51.4094 49.8 51.5132 49.7037L53.8956 47.4905C54.1505 47.3283 54.4473 47.2468 54.7568 47.2569ZM51.2508 43.0814C51.5189 42.8765 51.8435 42.7661 52.1836 42.7661C52.2029 42.7661 52.2225 42.7664 52.2419 42.7671C52.6536 42.7824 53.0347 42.957 53.315 43.2589C53.8933 43.8816 53.8571 44.859 53.2345 45.4374L52.6718 45.9602C52.5594 46.0421 52.4508 46.1302 52.3473 46.2264L49.962 48.4423C49.7 48.6102 49.3941 48.6957 49.0769 48.6833C48.6652 48.6679 48.2841 48.4934 48.0038 48.1915C47.4635 47.6094 47.4599 46.718 47.97 46.1318C48.0033 46.1031 48.0365 46.0742 48.0688 46.0442L51.1201 43.2095C51.1652 43.1677 51.2085 43.125 51.2508 43.0814ZM46.0727 38.3536L43.9715 36.0967L44.3747 35.722C44.6764 35.4417 45.0693 35.2984 45.481 35.3109C45.8926 35.3262 46.2737 35.5007 46.554 35.8026C47.1323 36.4254 47.096 37.4028 46.4734 37.9813L46.0727 38.3536ZM46.456 44.569L47.0218 44.0432C47.6527 43.4573 48.0172 42.6648 48.048 41.8122C48.0749 41.0718 47.8445 40.3645 47.3965 39.7928L47.6916 39.5187C47.9933 39.2384 48.3854 39.0915 48.7979 39.1075C49.2094 39.1228 49.5905 39.2974 49.8708 39.5993C50.4114 40.1816 50.4146 41.0734 49.9041 41.6598C49.871 41.6883 49.8381 41.7168 49.8059 41.7467L46.7546 44.5813C46.7095 44.6233 46.6658 44.6663 46.6234 44.71C46.3938 44.8856 46.1224 44.9905 45.836 45.0168C46.0547 44.8944 46.2639 44.7474 46.456 44.569ZM39.6271 42.9296C39.63 42.856 39.6326 42.7824 39.6333 42.7081C39.6614 42.6975 39.6902 42.6883 39.7192 42.6805C39.8065 42.6571 39.8972 42.6465 39.9888 42.6497C40.2188 42.6573 40.4293 42.7519 40.5816 42.9156L42.0063 44.4481C42.152 44.6049 42.3108 44.743 42.4792 44.8623C42.6361 45.2308 42.8532 45.5658 43.1277 45.8615C43.7632 46.5461 44.6271 46.942 45.5605 46.9766C45.5887 46.9775 45.6165 46.9778 45.6445 46.9782C45.6019 47.884 45.9078 48.8056 46.5719 49.521C47.048 50.0339 47.6523 50.3847 48.318 50.543C47.9291 51.7051 48.1697 53.0394 49.0604 53.9988C49.309 54.2665 49.5958 54.4891 49.9079 54.6625L48.8536 55.5492L39.6271 42.9296ZM63.0762 52.5428L49.3074 64.1228C49.2156 64.2003 49.1161 64.1978 49.0655 64.1897C49.0146 64.1815 48.9198 64.1524 48.8569 64.0501L46.5812 60.3488C46.5025 60.2207 46.5288 60.0574 46.6439 59.9606L59.4314 49.2057C59.4319 49.2053 59.4314 49.2056 59.4319 49.2053C59.4875 49.1584 59.5567 49.135 59.6258 49.135C59.6974 49.135 59.7688 49.1601 59.8252 49.21L63.0817 52.0864C63.1717 52.1659 63.1841 52.2644 63.1835 52.316C63.1831 52.3675 63.1682 52.4656 63.0762 52.5428Z" fill="black"/>
</g>
<defs>
<clipPath id="clip0">
<rect width="67" height="67" fill="white"/>
</clipPath>
</defs>
</svg>
