<svg width="30" height="25" viewBox="0 0 30 25" fill="none" xmlns="http://www.w3.org/2000/svg">
<g clip-path="url(#clip0)">
<path d="M10.168 4.89404C7.11837 4.86718 6.40657 0.631148 10.9451 0.040385C15.4836 -0.550378 16.4762 5.02159 15.1963 5.49151C13.9229 5.96815 10.168 4.89404 10.168 4.89404Z" fill="url(#paint0_linear)"/>
<path d="M20.061 4.89404C23.1106 4.86718 23.8224 0.631148 19.2839 0.040385C14.7454 -0.550378 13.7528 5.02159 15.0327 5.49151C16.3061 5.96815 20.061 4.89404 20.061 4.89404Z" fill="url(#paint1_linear)"/>
<path d="M24.632 4.69922H15.1893H14.6473H5.21103C4.38822 4.69922 3.77438 5.55851 3.97028 6.45137L7.64029 23.2545C7.86232 24.2749 8.68513 24.9933 9.62549 24.9933H14.6473H15.1893H20.211C21.1579 24.9933 21.9742 24.2749 22.1962 23.2545L25.8662 6.45137C26.0687 5.55851 25.4548 4.69922 24.632 4.69922Z" fill="url(#paint2_linear)"/>
<path opacity="0.4" d="M20.4977 24.4901H15.4759H14.9339H9.91213C8.96525 24.4901 8.14896 23.7717 7.92694 22.7513L4.25693 5.94816C4.19816 5.66621 4.21775 5.39097 4.30264 5.14258C4.01531 5.47824 3.86512 5.96159 3.97613 6.45837L7.64613 23.2615C7.86816 24.2819 8.69098 25.0003 9.63133 25.0003H14.6531H15.1951H20.2169C21.0397 25.0003 21.7711 24.4498 22.0911 23.6308C21.7058 24.1544 21.1311 24.4901 20.4977 24.4901Z" fill="#FFDF8B"/>
<mask id="mask0" mask-type="alpha" maskUnits="userSpaceOnUse" x="3" y="4" width="20" height="21">
<path d="M7.82314 8.07596L7.58152 4.69922H5.21103C4.38822 4.69922 3.77438 5.55851 3.97028 6.45137L7.64029 23.2545C7.86232 24.2749 8.68513 24.9933 9.62549 24.9933H14.6473H15.1893H20.211C21.1579 24.9933 21.9742 24.2749 22.1962 23.2545L22.6795 21.0392C14.8758 23.2545 5.32858 16.2057 7.82314 8.07596Z" fill="url(#paint3_linear)"/>
</mask>
<g mask="url(#mask0)">
<path opacity="0.4" d="M7.82314 8.07596L7.58152 4.69922H5.21103C4.38822 4.69922 3.77438 5.55851 3.97028 6.45137L7.64029 23.2545C7.86232 24.2749 8.68513 24.9933 9.62549 24.9933H14.6473H15.1893H20.211C21.1579 24.9933 21.9742 24.2749 22.1962 23.2545L22.6795 21.0392C14.8758 23.2545 5.32858 16.2057 7.82314 8.07596Z" fill="url(#paint4_linear)"/>
</g>
<mask id="mask1" mask-type="alpha" maskUnits="userSpaceOnUse" x="4" y="9" width="22" height="5">
<path d="M5.479 13.3394H24.3645L25.2722 9.2041H4.57129L5.479 13.3394Z" fill="url(#paint5_linear)"/>
</mask>
<g mask="url(#mask1)">
<path opacity="0.5" d="M5.479 13.3394H24.3645L25.2722 9.2041H4.57129L5.479 13.3394Z" fill="url(#paint6_linear)"/>
</g>
<mask id="mask2" mask-type="alpha" maskUnits="userSpaceOnUse" x="3" y="3" width="24" height="7">
<path d="M26.8063 8.18367V8.0964C20.1062 9.96938 4.25729 8.68045 3.96343 3.94092C3.44754 3.97448 3.03613 4.41084 3.03613 4.95461V8.18367C3.03613 8.74758 3.48019 9.19736 4.0222 9.19736H25.8202C26.3622 9.20408 26.8063 8.74758 26.8063 8.18367Z" fill="url(#paint7_linear)"/>
</mask>
<g mask="url(#mask2)">
<path opacity="0.2" d="M26.8063 8.18367V8.0964C20.1062 9.96938 4.25729 8.68045 3.96343 3.94092C3.44754 3.97448 3.03613 4.41084 3.03613 4.95461V8.18367C3.03613 8.74758 3.48019 9.19736 4.0222 9.19736H25.8202C26.3622 9.20408 26.8063 8.74758 26.8063 8.18367Z" fill="url(#paint8_linear)"/>
<path opacity="0.2" d="M25.8208 3.93408H4.02281C3.53957 3.93408 3.1347 4.28988 3.0498 4.76652C3.16082 4.72624 3.27836 4.69939 3.39591 4.69939H25.1939C25.7424 4.69939 26.18 5.15589 26.18 5.71308V8.94214C26.18 9.00927 26.1734 9.06969 26.1604 9.13011C26.5326 8.98242 26.8069 8.6199 26.8069 8.18354V4.95449C26.8069 4.39058 26.3628 3.93408 25.8208 3.93408Z" fill="#FFEBA2"/>
</g>
<mask id="mask3" mask-type="alpha" maskUnits="userSpaceOnUse" x="10" y="3" width="5" height="23">
<path d="M10.2588 3.93408L12.2375 25.0001H14.6406L12.4464 3.93408H10.2588Z" fill="url(#paint9_linear)"/>
</mask>
<g mask="url(#mask3)">
<path opacity="0.7" d="M10.2588 3.93408L12.2375 25.0001H14.6406L12.4464 3.93408H10.2588Z" fill="url(#paint10_linear)"/>
<path d="M15.1693 3.61182H14.8363H12.3613C11.8519 3.61182 11.4471 4.0616 11.4928 4.58523L13.2625 25.0001H14.8363H15.1693H16.7431L18.5128 4.58523C18.5585 4.0616 18.1536 3.61182 17.6443 3.61182H15.1693Z" fill="url(#paint11_linear)"/>
<path opacity="0.3" d="M17.644 3.61182H15.169H14.836H12.361C11.9235 3.61182 11.5643 3.94748 11.499 4.37712H13.9348H14.2679H16.7428C17.2522 4.37712 17.6571 4.82691 17.6113 5.35054L15.9069 25.0001H16.7428L18.5125 4.58523C18.5582 4.0616 18.1534 3.61182 17.644 3.61182Z" fill="#FFC15C"/>
<path opacity="0.1" d="M14.8294 25.0001H15.1625H16.7363L17.102 20.8111C14.4964 18.1056 11.6557 12.876 13.7585 3.61182H12.3545C11.8451 3.61182 11.4402 4.0616 11.4859 4.58523L13.2556 25.0001H14.8294Z" fill="#FF3200"/>
</g>
<path d="M30 19.4954C30 18.9383 29.8563 18.428 29.569 17.9783C29.2882 17.5352 28.8964 17.1928 28.4001 16.9579C27.9364 16.7363 27.414 16.6289 26.8459 16.6289C26.2908 16.6289 25.7749 16.7296 25.3178 16.9243C24.9521 17.0787 24.6452 17.2935 24.3905 17.5486V16.7162H21.7784H21.3931H20.8707H18.5068H18.2521H17.8929H15.5355V18.7369L14.3404 16.7162H11.7218V18.0454C11.4671 17.6829 11.1602 17.3808 10.801 17.1458C10.259 16.8034 9.64519 16.6289 8.95951 16.6289C8.27384 16.6289 7.65999 16.8034 7.11798 17.1458C6.66739 17.4345 6.3017 17.8306 6.0209 18.3139C5.83152 17.8507 5.53766 17.5352 5.27645 17.3405C4.72791 16.9243 3.99652 16.7229 3.0431 16.7229H0V20.8179V24.913V25.0003H26.8785C27.7601 25.0003 28.485 24.7787 29.0466 24.3491C29.6735 23.8657 30 23.1743 30 22.3418C30 21.6101 29.7388 20.9589 29.2425 20.4621C29.2098 20.4286 29.1837 20.4017 29.1511 20.3749H30.0065V19.4954H30Z" fill="url(#paint12_linear)"/>
<g opacity="0.3">
<path opacity="0.3" d="M0.927302 23.9397L0.855469 17.589L0.927302 17.4883H3.12147C3.88551 17.4883 4.46017 17.636 4.85199 17.9381C5.2438 18.2402 5.43971 18.6765 5.43971 19.2539C5.43971 19.5694 5.36135 19.8446 5.20462 20.0863C5.04789 20.328 4.82587 20.5025 4.54506 20.6166C4.86505 20.6972 5.11973 20.865 5.30257 21.1201C5.48542 21.3685 5.58338 21.6773 5.58338 22.0398C5.58338 22.6575 5.394 23.1274 5.00871 23.4496C4.62343 23.7718 4.07489 23.933 3.36309 23.9397H0.927302ZM2.22029 20.1937H3.17371C3.82674 20.1803 4.15325 19.9118 4.15325 19.3948C4.15325 19.0995 4.06836 18.8913 3.9051 18.7638C3.74184 18.6362 3.48063 18.5691 3.12147 18.5691H2.22029V20.1937ZM2.22029 21.1336V22.8723H3.33044C3.63736 22.8723 3.87245 22.7984 4.04223 22.6507C4.21202 22.5031 4.29691 22.2949 4.29691 22.0331C4.29691 21.4424 3.99652 21.1403 3.40227 21.1336H2.22029Z" fill="#FF3717"/>
<path opacity="0.3" d="M11.7151 20.865C11.7151 21.5028 11.6041 22.0533 11.3886 22.5366C11.1731 23.0132 10.8596 23.3825 10.4548 23.6443C10.0499 23.9061 9.57971 24.0337 9.05729 24.0337C8.53487 24.0337 8.07122 23.9061 7.66634 23.651C7.26147 23.3959 6.94148 23.0267 6.71946 22.55C6.49743 22.0734 6.37988 21.5229 6.37988 20.9053V20.5898C6.37988 19.952 6.4909 19.3948 6.71293 18.9115C6.93495 18.4281 7.24841 18.0589 7.65328 17.7971C8.05816 17.542 8.52181 17.4077 9.04423 17.4077C9.56665 17.4077 10.0303 17.5353 10.4352 17.7971C10.84 18.0522 11.1535 18.4281 11.3755 18.9115C11.5976 19.3948 11.7086 19.952 11.7086 20.5831V20.865H11.7151ZM10.4025 20.5696C10.4025 19.8916 10.285 19.3814 10.0499 19.0256C9.8148 18.6765 9.47522 18.4953 9.04423 18.4953C8.61323 18.4953 8.27366 18.6698 8.03857 19.0189C7.80348 19.368 7.68593 19.8715 7.6794 20.5428V20.8583C7.6794 21.5162 7.79695 22.0264 8.03204 22.3889C8.26713 22.7514 8.6067 22.9327 9.05076 22.9327C9.48175 22.9327 9.8148 22.7581 10.0499 22.4091C10.285 22.06 10.4025 21.5498 10.4025 20.8784V20.5696Z" fill="#FF3717"/>
<path opacity="0.3" d="M17.7821 23.9261L17.6646 24.0403L16.4891 23.9261L13.975 19.6834V23.9261L13.8574 24.0403L12.682 23.9261L12.5645 17.5956L12.682 17.4814H13.975L16.4957 21.7309L16.3781 17.5956L16.4957 17.4814H17.7821V23.9261Z" fill="#FF3717"/>
<path opacity="0.3" d="M23.6265 17.4951V21.7446C23.6265 22.4495 23.411 23.0067 22.98 23.4162C22.549 23.8257 21.9613 24.0338 21.2234 24.0338C20.492 24.0338 19.9108 23.8324 19.4798 23.4363C19.0488 23.0402 18.8268 22.4897 18.8202 21.7916L18.7354 17.5958L18.8202 17.4951H20.1132V21.7513C20.1132 22.1742 20.2112 22.483 20.4071 22.6777C20.603 22.8724 20.8773 22.9664 21.2234 22.9664C21.9482 22.9664 22.3205 22.577 22.327 21.7916L22.2421 17.5958L22.327 17.4951H23.6265Z" fill="#FF3717"/>
<path opacity="0.3" d="M27.9367 22.2479C27.9367 21.9996 27.8518 21.8049 27.6755 21.6706C27.5057 21.5363 27.1923 21.3954 26.7482 21.2477C26.2976 21.1 25.945 20.9523 25.6838 20.8046C24.972 20.4085 24.6128 19.8782 24.6128 19.2069C24.6128 18.8578 24.7108 18.549 24.9002 18.2737C25.0895 17.9985 25.3638 17.7904 25.723 17.636C26.0821 17.4816 26.4805 17.4077 26.9245 17.4077C27.3751 17.4077 27.7735 17.4883 28.1196 17.6561C28.4722 17.8239 28.74 18.0589 28.9359 18.361C29.1318 18.6631 29.2297 19.0122 29.2297 19.3948L29.1448 19.4955L27.9367 19.3948C27.9367 19.0994 27.8453 18.8712 27.6625 18.7034C27.4796 18.5422 27.2249 18.455 26.8984 18.455C26.585 18.455 26.3368 18.5221 26.1605 18.6631C25.9842 18.7973 25.8993 18.9786 25.8993 19.2069C25.8993 19.415 26.0038 19.5895 26.2062 19.7372C26.4087 19.8782 26.7156 20.0124 27.1139 20.1333C27.8518 20.3615 28.3873 20.6435 28.7204 20.9791C29.0534 21.3148 29.2232 21.7377 29.2232 22.2345C29.2232 22.7917 29.0208 23.2281 28.6094 23.5503C28.1979 23.8658 27.6429 24.0269 26.9507 24.0269C26.4674 24.0269 26.0299 23.9397 25.6316 23.7517C25.2332 23.5704 24.9328 23.3221 24.7238 23.0065C24.5279 22.7112 24.3386 22.3889 24.332 22.0063C24.332 21.9794 24.4169 21.9324 24.4169 21.9056H25.7164C25.7164 22.6172 26.1279 22.973 26.9572 22.973C27.2641 22.973 27.5057 22.9058 27.6755 22.7783C27.8518 22.6574 27.9367 22.4829 27.9367 22.2479Z" fill="#FF3717"/>
</g>
<path d="M0.848633 24.0399V17.5952H3.0428C3.80684 17.5952 4.3815 17.7429 4.77332 18.045C5.16513 18.3471 5.36104 18.7835 5.36104 19.3608C5.36104 19.6763 5.28268 19.9516 5.12595 20.1932C4.96922 20.4349 4.7472 20.6094 4.4664 20.7236C4.78638 20.8041 5.04106 20.972 5.2239 21.2271C5.40675 21.4755 5.50471 21.7843 5.50471 22.1468C5.50471 22.7644 5.31533 23.2343 4.93004 23.5565C4.54476 23.8788 3.99622 24.0399 3.28442 24.0466H0.848633V24.0399ZM2.14162 20.2939H3.09504C3.74807 20.2805 4.07458 20.012 4.07458 19.4951C4.07458 19.1997 3.98969 18.9916 3.82643 18.864C3.66317 18.7365 3.40196 18.6693 3.0428 18.6693H2.14162V20.2939ZM2.14162 21.2338V22.9725H3.25177C3.55869 22.9725 3.79378 22.8987 3.96357 22.751C4.13335 22.6033 4.21825 22.3952 4.21825 22.1333C4.21825 21.5426 3.91785 21.2405 3.3236 21.2338H2.14162Z" fill="#FFF9DB"/>
<path d="M11.6301 20.9586C11.6301 21.5964 11.5191 22.1469 11.3036 22.6302C11.0881 23.1069 10.7747 23.4761 10.3698 23.7379C9.96493 23.9997 9.49475 24.1273 8.97233 24.1273C8.44991 24.1273 7.98626 23.9997 7.58138 23.7446C7.17651 23.4895 6.85652 23.1203 6.63449 22.6437C6.41247 22.167 6.29492 21.6165 6.29492 20.9989V20.6767C6.29492 20.0389 6.40594 19.4817 6.62796 18.9984C6.84999 18.515 7.16345 18.1458 7.56832 17.884C7.9732 17.6289 8.43685 17.4946 8.95927 17.4946C9.48169 17.4946 9.94534 17.6222 10.3502 17.884C10.7551 18.1458 11.0685 18.515 11.2906 18.9984C11.5126 19.4817 11.6236 20.0389 11.6236 20.67V20.9586H11.6301ZM10.3176 20.67C10.3176 19.9919 10.2 19.4817 9.96493 19.1259C9.72984 18.7769 9.39026 18.5956 8.95927 18.5956C8.52827 18.5956 8.1887 18.7701 7.95361 19.1192C7.71852 19.4683 7.60097 19.9718 7.59444 20.6431V20.9586C7.59444 21.6165 7.71199 22.1267 7.94708 22.4893C8.18217 22.8518 8.52174 23.033 8.9658 23.033C9.39679 23.033 9.72984 22.8585 9.96493 22.5094C10.2 22.1603 10.3176 21.6501 10.3176 20.9788V20.67Z" fill="#FFF9DB"/>
<path d="M17.6704 24.0403H16.3775L13.8633 19.7975V24.0403H12.5703V17.5956H13.8633L16.384 21.845V17.5889H17.6704V24.0403Z" fill="#FFF9DB"/>
<path d="M23.5475 17.5889V21.8383C23.5475 22.5432 23.332 23.1004 22.901 23.5099C22.47 23.9194 21.8823 24.1275 21.1443 24.1275C20.413 24.1275 19.8318 23.9261 19.4008 23.5301C18.9698 23.134 18.7477 22.5835 18.7412 21.8853V17.5889H20.0342V21.845C20.0342 22.268 20.1322 22.5768 20.3281 22.7715C20.524 22.9661 20.7982 23.0601 21.1443 23.0601C21.8692 23.0601 22.2414 22.6708 22.2545 21.8853V17.5889H23.5475Z" fill="#FFF9DB"/>
<path d="M27.8581 22.3476C27.8581 22.0992 27.7732 21.9045 27.5969 21.7702C27.4271 21.636 27.1136 21.495 26.663 21.3473C26.2124 21.1996 25.8598 21.0519 25.5986 20.9042C24.8868 20.5081 24.5276 19.9778 24.5276 19.3065C24.5276 18.9574 24.6256 18.6486 24.815 18.3733C25.0043 18.0981 25.2786 17.89 25.6378 17.7356C25.9969 17.5812 26.3953 17.5073 26.8393 17.5073C27.2899 17.5073 27.6883 17.5879 28.0344 17.7557C28.387 17.9235 28.6548 18.1585 28.8507 18.4606C29.0466 18.7627 29.1445 19.1118 29.1445 19.4944H27.8515C27.8515 19.1991 27.7601 18.9708 27.5773 18.803C27.3944 18.6419 27.1397 18.5546 26.8132 18.5546C26.4998 18.5546 26.2516 18.6217 26.0753 18.7627C25.899 18.897 25.8141 19.0782 25.8141 19.3065C25.8141 19.5146 25.9186 19.6891 26.121 19.8368C26.3235 19.9778 26.6304 20.1121 27.0287 20.2329C27.7666 20.4611 28.3021 20.7431 28.6352 21.0788C28.9682 21.4144 29.138 21.8373 29.138 22.3341C29.138 22.8913 28.9356 23.3277 28.5242 23.6499C28.1127 23.9654 27.5577 24.1266 26.8655 24.1266C26.3822 24.1266 25.9447 24.0393 25.5464 23.8513C25.148 23.6701 24.8476 23.4217 24.6386 23.1061C24.4297 22.7906 24.3252 22.4214 24.3252 22.0052H25.6247C25.6247 22.7168 26.0361 23.0726 26.8655 23.0726C27.1724 23.0726 27.414 23.0054 27.5838 22.8779C27.7732 22.7571 27.8581 22.5758 27.8581 22.3476Z" fill="#FFF9DB"/>
<g opacity="0.5">
<path opacity="0.5" d="M0.731445 24.1746V17.73L0.85552 17.5957L2.92561 17.73C3.68965 17.73 4.26431 17.8777 4.65613 18.1798C5.04795 18.4818 5.24385 18.9182 5.24385 19.4955C5.24385 19.8111 5.16549 20.0863 5.00876 20.328C4.85204 20.5697 4.63001 20.7442 4.34921 20.8583C4.66919 20.9389 4.92387 21.1067 5.10672 21.3618C5.28956 21.6102 5.38752 21.919 5.38752 22.2815C5.38752 22.8991 5.19814 23.3691 4.81286 23.6913C4.42757 24.0068 3.87903 24.1679 3.16723 24.1746H0.731445ZM2.01791 20.4287H2.97132C3.62435 20.4153 3.95086 20.1467 3.95086 19.6298C3.95086 19.3344 3.86597 19.1263 3.70271 18.9988C3.53946 18.8712 3.27825 18.8041 2.91908 18.8041H2.01791V20.4287ZM2.01791 21.3685V23.1072H3.12805C3.43497 23.1072 3.67006 23.0334 3.83985 22.8857C4.00963 22.738 4.09453 22.5299 4.09453 22.2681C4.09453 21.6773 3.79414 21.3752 3.19988 21.3685H2.01791Z" fill="#FFFED6"/>
<path opacity="0.5" d="M11.513 21.1001C11.513 21.7379 11.4019 22.2884 11.1864 22.7717C10.9709 23.2484 10.6575 23.6176 10.2526 23.8794C9.84774 24.1412 9.37756 24.2688 8.85514 24.2688C8.33272 24.2688 7.86907 24.1412 7.46419 23.8861C7.05932 23.631 6.73934 23.2618 6.51731 22.7851C6.29528 22.3085 6.17773 21.758 6.17773 21.1404V20.8115C6.17773 20.1737 6.28875 19.6165 6.51078 19.1332C6.73281 18.6498 7.04626 18.2806 7.45113 18.0188C7.85601 17.7637 8.31966 17.6294 8.84208 17.6294C9.3645 17.6294 9.82815 17.7569 10.233 18.0188C10.6379 18.2739 10.9514 18.6498 11.1734 19.1332C11.3954 19.6165 11.5064 20.1737 11.5064 20.8047V21.1001H11.513ZM10.2004 20.8047C10.2004 20.1267 10.0828 19.6165 9.84774 19.2607C9.61265 18.9116 9.27308 18.7304 8.84208 18.7304C8.41108 18.7304 8.07151 18.9049 7.83642 19.254C7.60133 19.6031 7.48379 20.1066 7.47726 20.7779V21.0934C7.47726 21.7513 7.5948 22.2615 7.82989 22.624C8.06498 22.9865 8.40455 23.1678 8.84861 23.1678C9.27961 23.1678 9.61265 22.9932 9.84774 22.6442C10.0828 22.2951 10.2004 21.7849 10.2004 21.1136V20.8047Z" fill="#FFFED6"/>
<path opacity="0.5" d="M17.5467 24.1746H16.2603L13.7461 19.9319L13.8637 24.0404L13.7461 24.1746H12.4531V17.73L12.5707 17.5957L13.7461 17.73L16.2668 21.9794V17.73L16.3843 17.5957L17.5533 17.73L17.6708 24.0404L17.5467 24.1746Z" fill="#FFFED6"/>
<path opacity="0.5" d="M23.4244 17.73V21.9794C23.4244 22.6843 23.2089 23.2415 22.7779 23.651C22.3469 24.0605 21.7592 24.2686 21.0213 24.2686C20.2899 24.2686 19.7087 24.0672 19.2777 23.6712C18.8467 23.2751 18.6247 22.7246 18.6182 22.0264V17.73L18.7357 17.5957L19.9112 17.73V21.9861C19.9112 22.4091 20.0091 22.7179 20.205 22.9126C20.4009 23.1073 20.6752 23.2012 21.0213 23.2012C21.7462 23.2012 22.1184 22.8119 22.1314 22.0197V17.73L22.249 17.5957L23.4244 17.73Z" fill="#FFFED6"/>
<path opacity="0.5" d="M27.7402 22.4828C27.7402 22.2344 27.6553 22.0397 27.479 21.9055C27.3092 21.7712 26.9958 21.6302 26.5517 21.4825C26.1011 21.3348 25.7485 21.1872 25.4873 21.0395C24.7755 20.6434 24.4163 20.113 24.4163 19.4417C24.4163 19.0926 24.5143 18.7838 24.7036 18.5086C24.893 18.2333 25.1673 18.0252 25.5264 17.8708C25.8856 17.7164 26.284 17.6426 26.728 17.6426C27.1786 17.6426 27.5769 17.7231 27.9231 17.891C28.2757 18.0588 28.5434 18.2938 28.7393 18.5959C28.9222 18.8845 29.1377 19.1396 29.1507 19.4954C29.1507 19.5156 29.0332 19.6095 29.0332 19.6297H27.7402C27.7402 19.3343 27.6488 19.1061 27.4659 18.9382C27.2831 18.7771 27.0284 18.6898 26.7019 18.6898C26.3884 18.6898 26.1403 18.757 25.964 18.8979C25.7877 19.0322 25.7028 19.2135 25.7028 19.4417C25.7028 19.6498 25.8072 19.8244 26.0097 19.9721C26.2121 20.113 26.519 20.2473 26.9174 20.3681C27.6553 20.5964 28.1908 20.8783 28.5238 21.214C28.8569 21.5497 29.0267 21.9726 29.0267 22.4694C29.0267 23.0266 28.8242 23.4629 28.4128 23.7852C28.0014 24.1007 27.4463 24.2618 26.7541 24.2618C26.2709 24.2618 25.8334 24.1745 25.435 23.9866C25.0367 23.8053 24.7363 23.5569 24.5273 23.2414C24.3184 22.9259 24.2139 22.5566 24.2139 22.1404L24.3314 22.0062L25.5069 22.1404C25.5069 22.852 25.9183 23.2078 26.7476 23.2078C27.0545 23.2078 27.2961 23.1407 27.4659 23.0131C27.6488 22.8923 27.7402 22.7111 27.7402 22.4828Z" fill="#FFFED6"/>
</g>
<path opacity="0.2" d="M28.4001 16.9642C27.9364 16.7427 27.414 16.6353 26.8459 16.6353C26.2908 16.6353 25.7749 16.736 25.3178 16.9306C24.9521 17.085 24.6452 17.2999 24.3905 17.555V16.7225H21.7784H21.3931H20.8707H18.5068H18.2521H17.8929H15.5355V18.7432L14.3404 16.7225H11.7218V18.0517C11.4671 17.6892 11.1602 17.3871 10.801 17.1522C10.259 16.8098 9.64519 16.6353 8.95951 16.6353C8.27384 16.6353 7.65999 16.8098 7.11798 17.1522C6.66739 17.4408 6.3017 17.8369 6.0209 18.3203C5.83152 17.8571 5.53766 17.5415 5.27645 17.3469C4.72791 16.9306 3.99652 16.7292 3.0431 16.7292H0V17.8571C15.098 18.8909 24.0575 21.4553 29.36 24.0668C29.778 23.6103 30 23.0262 30 22.3482C30 21.6165 29.7388 20.9653 29.2425 20.4685C29.2098 20.4349 29.1837 20.4081 29.1511 20.3812H30.0065V19.5085C30.0065 18.9513 29.8629 18.4411 29.5755 17.9913C29.2882 17.5415 28.8964 17.1992 28.4001 16.9642Z" fill="#FFFED6"/>
</g>
<defs>
<linearGradient id="paint0_linear" x1="11.7126" y1="4.14437" x2="11.7126" y2="-1.73123" gradientUnits="userSpaceOnUse">
<stop offset="0.0233" stop-color="#FF2424"/>
<stop offset="0.1995" stop-color="#D11E1E"/>
<stop offset="0.4171" stop-color="#FF2424"/>
<stop offset="0.7487" stop-color="#FF6624"/>
<stop offset="1" stop-color="#FF2424"/>
</linearGradient>
<linearGradient id="paint1_linear" x1="18.5142" y1="5.27004" x2="18.5142" y2="-5.47492" gradientUnits="userSpaceOnUse">
<stop offset="0.0233" stop-color="#FF2424"/>
<stop offset="0.1995" stop-color="#D11E1E"/>
<stop offset="0.4171" stop-color="#FF2424"/>
<stop offset="0.7487" stop-color="#FF6624"/>
<stop offset="1" stop-color="#FF2424"/>
</linearGradient>
<linearGradient id="paint2_linear" x1="5.14397" y1="21.0289" x2="28.5827" y2="3.20986" gradientUnits="userSpaceOnUse">
<stop stop-color="#FFCA38"/>
<stop offset="0.1697" stop-color="#FF9C38"/>
<stop offset="0.2254" stop-color="#FF8D38"/>
<stop offset="0.6347" stop-color="#FFE738"/>
<stop offset="1" stop-color="#FFCA38"/>
</linearGradient>
<linearGradient id="paint3_linear" x1="7.54828" y1="24.3651" x2="13.897" y2="13.7322" gradientUnits="userSpaceOnUse">
<stop offset="0.2098" stop-color="white"/>
<stop offset="1"/>
</linearGradient>
<linearGradient id="paint4_linear" x1="7.54828" y1="24.3651" x2="13.897" y2="13.7322" gradientUnits="userSpaceOnUse">
<stop offset="0.2098" stop-color="#FF8300"/>
<stop offset="1" stop-color="#FFDD00"/>
</linearGradient>
<linearGradient id="paint5_linear" x1="14.9214" y1="9.60186" x2="14.9214" y2="11.3218" gradientUnits="userSpaceOnUse">
<stop offset="0.2098" stop-color="white"/>
<stop offset="1"/>
</linearGradient>
<linearGradient id="paint6_linear" x1="14.9214" y1="9.60186" x2="14.9214" y2="11.3218" gradientUnits="userSpaceOnUse">
<stop offset="0.2098" stop-color="#FF8300"/>
<stop offset="1" stop-color="#FFDD00"/>
</linearGradient>
<linearGradient id="paint7_linear" x1="14.2146" y1="9.93085" x2="18.739" y2="-10.4442" gradientUnits="userSpaceOnUse">
<stop offset="0.2098" stop-color="white"/>
<stop offset="1"/>
</linearGradient>
<linearGradient id="paint8_linear" x1="14.2146" y1="9.93085" x2="18.739" y2="-10.4442" gradientUnits="userSpaceOnUse">
<stop offset="0.2098" stop-color="#FF8300"/>
<stop offset="1" stop-color="#FFDD00"/>
</linearGradient>
<linearGradient id="paint9_linear" x1="12.3203" y1="14.4817" x2="11.3129" y2="14.5848" gradientUnits="userSpaceOnUse">
<stop offset="0.2098" stop-color="white"/>
<stop offset="1"/>
</linearGradient>
<linearGradient id="paint10_linear" x1="12.3203" y1="14.4817" x2="11.3129" y2="14.5848" gradientUnits="userSpaceOnUse">
<stop offset="0.2098" stop-color="#FF8300"/>
<stop offset="1" stop-color="#FFDD00"/>
</linearGradient>
<linearGradient id="paint11_linear" x1="15.2158" y1="0.586105" x2="13.7127" y2="26.4654" gradientUnits="userSpaceOnUse">
<stop offset="0.0233" stop-color="#FF2424"/>
<stop offset="0.1995" stop-color="#D11E1E"/>
<stop offset="0.4171" stop-color="#FF2424"/>
<stop offset="0.7487" stop-color="#FF6624"/>
<stop offset="1" stop-color="#FF2424"/>
</linearGradient>
<linearGradient id="paint12_linear" x1="15.0009" y1="25.7643" x2="15.0009" y2="9.29801" gradientUnits="userSpaceOnUse">
<stop stop-color="#FFCA38"/>
<stop offset="0.1697" stop-color="#FF9C38"/>
<stop offset="0.2254" stop-color="#FF8D38"/>
<stop offset="0.6347" stop-color="#FFE738"/>
<stop offset="1" stop-color="#FFCA38"/>
</linearGradient>
<clipPath id="clip0">
<rect width="30" height="25" fill="white"/>
</clipPath>
</defs>
</svg>
