<svg width="21" height="21" viewBox="0 0 21 21" fill="none" xmlns="http://www.w3.org/2000/svg">
<g clip-path="url(#clip0)">
<path d="M10.1305 0.668457C4.65201 0.668457 0.210938 5.10969 0.210938 10.5881C0.210938 16.0667 4.65201 20.5077 10.1305 20.5077C15.6091 20.5077 20.0501 16.0667 20.0501 10.5881C20.0501 5.10969 15.6091 0.668457 10.1305 0.668457ZM10.1305 15.5479C9.4457 15.5479 8.89059 14.993 8.89059 14.3079C8.89059 13.6231 9.4457 13.068 10.1305 13.068C10.8154 13.068 11.3705 13.6231 11.3705 14.3079C11.3705 14.993 10.8154 15.5479 10.1305 15.5479ZM11.3705 11.208H8.89059L8.27061 6.24823C8.27061 5.90585 8.54821 5.62826 8.89059 5.62826H11.3705C11.7129 5.62826 11.9905 5.90585 11.9905 6.24823L11.3705 11.208Z" fill="white"/>
</g>
<defs>
<clipPath id="clip0">
<rect width="19.8392" height="19.8392" fill="white" transform="translate(0.210938 0.668457)"/>
</clipPath>
</defs>
</svg>
