<svg width="20" height="19" viewBox="0 0 20 19" fill="none" xmlns="http://www.w3.org/2000/svg">
<path d="M13.1116 9.09867L9.1949 6.25153C9.05116 6.14734 8.86035 6.13165 8.7028 6.21262C8.544 6.29296 8.44482 6.45616 8.44482 6.63253V12.3249C8.44482 12.5032 8.544 12.6658 8.7028 12.7461C8.76996 12.78 8.8434 12.7969 8.91746 12.7969C9.01413 12.7969 9.11204 12.7662 9.1949 12.7053L13.1116 9.86067C13.2352 9.76966 13.3074 9.62906 13.3074 9.47967C13.3081 9.32777 13.234 9.1878 13.1116 9.09867Z" fill="white"/>
<path d="M10.0003 0.0371094C4.79059 0.0371094 0.568848 4.25885 0.568848 9.46856C0.568848 14.6764 4.79059 18.8969 10.0003 18.8969C15.2087 18.8969 19.4311 14.6758 19.4311 9.46856C19.4317 4.25885 15.2087 0.0371094 10.0003 0.0371094ZM10.0003 17.3233C5.66181 17.3233 2.14431 13.8077 2.14431 9.46856C2.14431 5.13132 5.66181 1.61132 10.0003 1.61132C14.3382 1.61132 17.855 5.1307 17.855 9.46856C17.8557 13.8077 14.3382 17.3233 10.0003 17.3233Z" fill="white"/>
</svg>
