<svg width="51" height="51" viewBox="0 0 51 51" fill="none" xmlns="http://www.w3.org/2000/svg">
<g clip-path="url(#clip0)">
<path d="M50.8164 40.0273L47.8543 31.4068C49.2821 28.488 50.0367 25.2419 50.0418 21.9758C50.0505 16.2968 47.8533 10.9271 43.8548 6.85611C39.8555 2.78426 34.5262 0.492148 28.8484 0.402201C22.961 0.309165 17.4271 2.54859 13.2667 6.70888C9.25504 10.7205 7.02996 16.009 6.95953 21.6605C3.00563 24.6374 0.671879 29.2787 0.679549 34.2362C0.683235 36.5561 1.20539 38.8622 2.19481 40.9475L0.154507 46.885C-0.196218 47.9057 0.0599777 49.014 0.823186 49.7772C1.36028 50.3144 2.06841 50.6004 2.79665 50.6004C3.10305 50.6004 3.41303 50.5498 3.71535 50.4459L9.65298 48.4056C11.7383 49.395 14.0444 49.9171 16.3643 49.9208C16.3726 49.9208 16.3806 49.9208 16.389 49.9208C21.4203 49.9206 26.0969 47.5267 29.063 43.4759C32.1496 43.3946 35.2035 42.6474 37.9644 41.2968L46.585 44.259C46.9442 44.3824 47.3126 44.4426 47.6766 44.4426C48.542 44.4426 49.3835 44.1027 50.0219 43.4642C50.9288 42.5573 51.2332 41.2403 50.8164 40.0273ZM16.3888 46.8851C16.3823 46.8851 16.3754 46.8851 16.369 46.8851C14.3156 46.882 12.2765 46.3758 10.4725 45.4214C10.1015 45.2252 9.66603 45.1913 9.26938 45.3275L3.18094 47.4196L5.27304 41.3313C5.40931 40.9345 5.37544 40.499 5.17921 40.1282C4.22475 38.3241 3.71854 36.2851 3.71535 34.2316C3.71027 30.9287 4.99513 27.798 7.24203 25.4538C7.97595 29.9279 10.1083 34.0507 13.4135 37.2972C16.6944 40.5197 20.8184 42.5714 25.2682 43.2422C22.9186 45.558 19.7514 46.8851 16.3888 46.8851ZM47.8752 41.3176C47.7888 41.404 47.6864 41.4275 47.5713 41.3879L38.3426 38.2167C38.1824 38.1616 38.0156 38.1343 37.8495 38.1343C37.6045 38.1343 37.3605 38.1936 37.1396 38.3105C34.5047 39.7045 31.5271 40.4438 28.5287 40.4483C28.5188 40.4483 28.5099 40.4483 28.5 40.4483C18.4531 40.4483 10.1543 32.2869 9.99514 22.2424C9.91495 17.1837 11.8392 12.4295 15.4133 8.85537C18.9874 5.28128 23.7425 3.35772 28.8004 3.4374C38.8546 3.59688 47.0216 11.911 47.0061 21.9711C47.0014 24.9695 46.2622 27.9471 44.8683 30.5819C44.6721 30.9528 44.6382 31.3883 44.7745 31.785L47.9456 41.0136C47.9851 41.1292 47.9614 41.2315 47.8752 41.3176Z" fill="#8F8F8F" fill-opacity="0.38"/>
<path d="M37.5424 13.8965H19.4573C18.619 13.8965 17.9395 14.5761 17.9395 15.4143C17.9395 16.2527 18.6191 16.9322 19.4573 16.9322H37.5424C38.3807 16.9322 39.0603 16.2526 39.0603 15.4143C39.0603 14.5761 38.3807 13.8965 37.5424 13.8965Z" fill="#8F8F8F" fill-opacity="0.38"/>
<path d="M37.5424 20.1392H19.4573C18.619 20.1392 17.9395 20.8188 17.9395 21.657C17.9395 22.4952 18.6191 23.1749 19.4573 23.1749H37.5424C38.3807 23.1749 39.0603 22.4952 39.0603 21.657C39.0603 20.8188 38.3807 20.1392 37.5424 20.1392Z" fill="#8F8F8F" fill-opacity="0.38"/>
<path d="M30.5805 26.3818H19.4568C18.6185 26.3818 17.939 27.0615 17.939 27.8997C17.939 28.738 18.6186 29.4175 19.4568 29.4175H30.5804C31.4187 29.4175 32.0983 28.7379 32.0983 27.8997C32.0983 27.0615 31.4188 26.3818 30.5805 26.3818Z" fill="#8F8F8F" fill-opacity="0.38"/>
</g>
<defs>
<clipPath id="clip0">
<rect width="51" height="51" fill="white"/>
</clipPath>
</defs>
</svg>
