<svg width="16" height="15" viewBox="0 0 16 15" fill="none" xmlns="http://www.w3.org/2000/svg">
<path d="M11.8846 5.19223H10.7308C10.7303 4.73334 10.5478 4.29338 10.2233 3.9689C9.89885 3.64442 9.45889 3.46192 9 3.46146V2.30762C9.76477 2.30853 10.4979 2.61274 11.0387 3.15351C11.5795 3.69429 11.8837 4.42747 11.8846 5.19223Z" fill="white"/>
<path d="M14.1923 5.19231H13.0385C13.0372 4.12162 12.6114 3.09513 11.8543 2.33803C11.0972 1.58094 10.0707 1.15507 9 1.15385V0C10.3766 0.00152703 11.6964 0.549062 12.6698 1.52248C13.6432 2.49589 14.1908 3.81569 14.1923 5.19231Z" fill="white"/>
<path d="M13.2743 15H13.1762C1.83971 14.3481 0.230091 4.78269 0.00509105 1.86346C-0.0300746 1.40582 0.117985 0.952944 0.416704 0.604457C0.715423 0.25597 1.14033 0.0404104 1.59798 0.00519289C1.64375 0.00173135 1.68971 5.40918e-07 1.73586 5.40918e-07H4.77625C5.00734 -0.000223169 5.23317 0.0689484 5.42449 0.198555C5.61582 0.328162 5.76382 0.512233 5.84932 0.726924L6.72624 2.88462C6.81068 3.09435 6.83163 3.32428 6.7865 3.54582C6.74137 3.76737 6.63215 3.97077 6.4724 4.13077L5.24355 5.37115C5.43472 6.4623 5.95685 7.46826 6.73913 8.2526C7.52141 9.03695 8.52599 9.56172 9.61663 9.75577L10.8686 8.51539C11.031 8.3574 11.2363 8.25072 11.4589 8.20866C11.6815 8.16659 11.9116 8.191 12.1205 8.27885L14.2955 9.15C14.5069 9.2382 14.6873 9.38736 14.8137 9.57846C14.9401 9.76957 15.0067 9.99397 15.0051 10.2231V13.2692C15.0051 13.7283 14.8227 14.1685 14.4982 14.4931C14.1736 14.8177 13.7334 15 13.2743 15ZM1.73586 1.15385C1.6601 1.15362 1.58503 1.16832 1.51495 1.1971C1.44487 1.22588 1.38114 1.26819 1.32741 1.3216C1.27367 1.37501 1.23099 1.43848 1.20178 1.50839C1.17258 1.5783 1.15743 1.65328 1.15721 1.72904C1.15721 1.74519 1.15778 1.76115 1.15894 1.77692C1.42432 5.19231 3.12625 13.2692 13.2397 13.8462C13.3924 13.8553 13.5425 13.8034 13.6569 13.702C13.7714 13.6005 13.8409 13.4577 13.8501 13.305L13.8512 13.2692V10.2231L11.6762 9.35192L10.0205 10.9962L9.74355 10.9615C4.72432 10.3327 4.04355 5.31346 4.04355 5.26154L4.00894 4.98462L5.6474 3.32885L4.78201 1.15385H1.73586Z" fill="white"/>
</svg>
