<svg width="10" height="17" viewBox="0 0 10 17" fill="none" xmlns="http://www.w3.org/2000/svg">
<path d="M7.41944 5.79669C7.17435 5.30651 6.86799 4.88875 6.50036 4.5434C6.14387 4.18691 5.68712 4.00867 5.13011 4.00867C4.55081 4.00867 4.12748 4.13121 3.86011 4.3763C3.59275 4.62138 3.45906 4.95559 3.45906 5.37892C3.45906 5.75769 3.58161 6.06962 3.82669 6.31471C4.08292 6.5598 4.41713 6.77146 4.82932 6.94971C5.24151 7.12795 5.68155 7.3062 6.14944 7.48444C6.6062 7.65154 7.06295 7.87992 7.5197 8.16957C7.97645 8.44808 8.35522 8.81571 8.65601 9.27246C8.9568 9.72921 9.10719 10.3085 9.10719 11.0103C9.10719 11.9461 8.82312 12.7092 8.25496 13.2997C7.69795 13.8901 6.90698 14.241 5.88208 14.3524L5.9155 16.0903H4.34472L4.37814 14.319C3.55375 14.163 2.82407 13.8066 2.18907 13.2495C1.55407 12.6925 1.08061 12.0297 0.768681 11.261L2.28933 10.2751C2.65696 11.0326 3.07472 11.6231 3.54261 12.0464C4.01051 12.4697 4.58423 12.6814 5.26379 12.6814C5.86537 12.6814 6.31098 12.5421 6.60063 12.2636C6.89027 11.9851 7.0351 11.5952 7.0351 11.0939C7.0351 10.6706 6.91255 10.3196 6.66747 10.0411C6.42238 9.76263 6.09931 9.52868 5.69826 9.3393C5.30835 9.14991 4.88502 8.97167 4.42827 8.80457C4.13862 8.7043 3.81555 8.57062 3.45906 8.40351C3.11371 8.22527 2.78507 8.00246 2.47315 7.7351C2.16122 7.46773 1.90499 7.13909 1.70447 6.74918C1.50394 6.34813 1.40368 5.87467 1.40368 5.32879C1.40368 4.84976 1.53179 4.40415 1.78802 3.99196C2.04424 3.57977 2.39516 3.23442 2.84078 2.95591C3.28639 2.6774 3.79884 2.49359 4.37814 2.40446L4.34472 0.549605H5.9155L5.89879 2.42118C6.68975 2.566 7.33589 2.87793 7.8372 3.35696C8.33851 3.82485 8.71171 4.3206 8.9568 4.84419L7.41944 5.79669Z" fill="white"/>
</svg>
