<svg width="12" height="13" viewBox="0 0 12 13" fill="none" xmlns="http://www.w3.org/2000/svg">
<path d="M5.92541 12.9128L3.13162 11.4022C2.33517 10.9725 1.66913 10.331 1.20498 9.54647C0.740839 8.76198 0.496114 7.86413 0.497073 6.94928V0.985802C0.497313 0.742552 0.592708 0.509334 0.762325 0.33733C0.931941 0.165325 1.16192 0.068587 1.4018 0.0683441H10.449C10.6889 0.068587 10.9189 0.165325 11.0885 0.33733C11.2581 0.509334 11.3535 0.742552 11.3537 0.985802V6.94928C11.3547 7.86413 11.11 8.76198 10.6458 9.54647C10.1817 10.331 9.51565 10.9725 8.71919 11.4022L5.92541 12.9128ZM1.4018 0.985802V6.94928C1.40104 7.69783 1.60133 8.43246 1.98116 9.07432C2.36099 9.71617 2.90602 10.241 3.55775 10.5925L5.92541 11.8728L8.29306 10.593C8.94486 10.2414 9.48993 9.71652 9.86977 9.07458C10.2496 8.43264 10.4498 7.69791 10.449 6.94928V0.985802H1.4018Z" fill="white"/>
</svg>
