<svg width="12" height="15" viewBox="0 0 12 15" fill="none" xmlns="http://www.w3.org/2000/svg">
<path d="M5.71697 14.2769L2.77464 12.686C1.93583 12.2334 1.23438 11.5578 0.745553 10.7316C0.25673 9.90541 -0.00100669 8.95982 2.95499e-06 7.99632V1.71575C0.000255205 1.45957 0.100723 1.21395 0.279358 1.0328C0.457994 0.85165 0.700202 0.749768 0.952831 0.749512H10.4811C10.7337 0.749768 10.9759 0.85165 11.1546 1.0328C11.3332 1.21395 11.4337 1.45957 11.4339 1.71575V7.99632C11.4349 8.95982 11.1772 9.90541 10.6884 10.7316C10.1996 11.5578 9.49811 12.2334 8.6593 12.686L5.71697 14.2769ZM0.952831 1.71575V7.99632C0.95204 8.78467 1.16298 9.55837 1.563 10.2343C1.96303 10.9103 2.53704 11.4631 3.22342 11.8333L5.71697 13.1816L8.21052 11.8337C8.89697 11.4635 9.47103 10.9107 9.87106 10.2346C10.2711 9.55855 10.482 8.78476 10.4811 7.99632V1.71575H0.952831Z" fill="white"/>
</svg>
