<svg width="9" height="16" viewBox="0 0 9 16" fill="none" xmlns="http://www.w3.org/2000/svg">
<path d="M6.54192 5.7985C6.30921 5.33308 6.01832 4.93641 5.66925 4.60849C5.33076 4.27 4.89707 4.10076 4.36817 4.10076C3.81813 4.10076 3.41617 4.21711 3.1623 4.44983C2.90843 4.68254 2.7815 4.99988 2.7815 5.40183C2.7815 5.76148 2.89785 6.05766 3.13056 6.29037C3.37385 6.52309 3.69119 6.72407 4.08257 6.89331C4.47395 7.06256 4.89178 7.2318 5.33605 7.40105C5.76974 7.55972 6.20343 7.77656 6.63712 8.05159C7.07082 8.31603 7.43046 8.6651 7.71607 9.0988C8.00167 9.53249 8.14447 10.0825 8.14447 10.7489C8.14447 11.6375 7.87473 12.3621 7.33526 12.9227C6.80637 13.4833 6.05534 13.8165 5.08218 13.9223L5.11391 15.5724H3.62243L3.65417 13.8906C2.87141 13.7425 2.17856 13.404 1.57562 12.8751C0.972681 12.3462 0.523122 11.7168 0.226942 10.9869L1.67082 10.0508C2.01989 10.7701 2.41656 11.3307 2.86083 11.7327C3.3051 12.1346 3.84986 12.3356 4.49511 12.3356C5.06631 12.3356 5.48943 12.2034 5.76445 11.939C6.03948 11.6745 6.17699 11.3043 6.17699 10.8283C6.17699 10.4263 6.06063 10.0931 5.82792 9.82867C5.5952 9.56422 5.28845 9.34209 4.90764 9.16226C4.53742 8.98244 4.13546 8.81319 3.70177 8.65453C3.42674 8.55933 3.11999 8.43239 2.7815 8.27372C2.45358 8.10448 2.14153 7.89292 1.84535 7.63905C1.54917 7.38518 1.30588 7.07314 1.11548 6.70291C0.925081 6.32211 0.82988 5.87255 0.82988 5.35423C0.82988 4.89939 0.951526 4.47627 1.19482 4.08489C1.43811 3.69351 1.77131 3.3656 2.19442 3.10115C2.61754 2.8367 3.10412 2.66217 3.65417 2.57755L3.62243 0.816334H5.11391L5.09805 2.59341C5.84907 2.73093 6.46259 3.02711 6.93859 3.48195C7.4146 3.92622 7.76895 4.39694 8.00167 4.8941L6.54192 5.7985Z" fill="white"/>
</svg>
