<svg width="14" height="13" viewBox="0 0 14 13" fill="none" xmlns="http://www.w3.org/2000/svg">
<path d="M11.5769 0.980469C12.1455 0.980469 12.6908 1.2081 13.0928 1.6133C13.4949 2.01849 13.7207 2.56806 13.7207 3.14109V10.0551C13.7207 10.6281 13.4949 11.1777 13.0928 11.5829C12.6908 11.9881 12.1455 12.2157 11.5769 12.2157H2.14386C1.57528 12.2157 1.02998 11.9881 0.627923 11.5829C0.225871 11.1777 0 10.6281 0 10.0551V3.14109C0 2.56806 0.225871 2.01849 0.627923 1.6133C1.02998 1.2081 1.57528 0.980469 2.14386 0.980469H11.5769ZM12.8632 4.40376L7.07818 7.83482C7.02349 7.86718 6.96236 7.88691 6.89919 7.89259C6.83602 7.89827 6.77238 7.88976 6.71287 7.86766L6.64255 7.83482L0.857546 4.40548V10.0551C0.857546 10.3989 0.993069 10.7286 1.2343 10.9717C1.47553 11.2149 1.80271 11.3514 2.14386 11.3514H11.5769C11.918 11.3514 12.2452 11.2149 12.4864 10.9717C12.7277 10.7286 12.8632 10.3989 12.8632 10.0551V4.40376ZM11.5769 1.84472H2.14386C1.80271 1.84472 1.47553 1.9813 1.2343 2.22442C0.993069 2.46753 0.857546 2.79727 0.857546 3.14109V3.40209L6.86037 6.96107L12.8632 3.40036V3.14109C12.8632 2.79727 12.7277 2.46753 12.4864 2.22442C12.2452 1.9813 11.918 1.84472 11.5769 1.84472Z" fill="white"/>
</svg>
