<svg width="14" height="11" viewBox="0 0 14 11" fill="none" xmlns="http://www.w3.org/2000/svg">
<path d="M11.4885 0.24585C12.0284 0.24585 12.5461 0.461993 12.9279 0.846731C13.3096 1.23147 13.5241 1.75329 13.5241 2.29739V8.8623C13.5241 9.40641 13.3096 9.92822 12.9279 10.313C12.5461 10.6977 12.0284 10.9138 11.4885 10.9138H2.53172C1.99184 10.9138 1.47407 10.6977 1.09232 10.313C0.710561 9.92822 0.496094 9.40641 0.496094 8.8623V2.29739C0.496094 1.75329 0.710561 1.23147 1.09232 0.846731C1.47407 0.461993 1.99184 0.24585 2.53172 0.24585H11.4885ZM12.7099 3.4963L7.21692 6.75415C7.16499 6.78487 7.10694 6.80361 7.04696 6.809C6.98698 6.81439 6.92656 6.80631 6.87005 6.78533L6.80328 6.75415L1.31034 3.49795V8.8623C1.31034 9.18877 1.43903 9.50186 1.66808 9.7327C1.89713 9.96354 2.20779 10.0932 2.53172 10.0932H11.4885C11.8124 10.0932 12.1231 9.96354 12.3521 9.7327C12.5812 9.50186 12.7099 9.18877 12.7099 8.8623V3.4963ZM11.4885 1.06646H2.53172C2.20779 1.06646 1.89713 1.19615 1.66808 1.42699C1.43903 1.65784 1.31034 1.97093 1.31034 2.29739V2.54521L7.0101 5.9245L12.7099 2.54357V2.29739C12.7099 1.97093 12.5812 1.65784 12.3521 1.42699C12.1231 1.19615 11.8124 1.06646 11.4885 1.06646Z" fill="white"/>
</svg>
