<svg width="15" height="15" viewBox="0 0 15 15" fill="none" xmlns="http://www.w3.org/2000/svg">
<path d="M11.7819 5.27389H10.6864C10.6859 4.83817 10.5126 4.42042 10.2045 4.11232C9.89644 3.80422 9.47869 3.63094 9.04297 3.6305V2.53491C9.76912 2.53578 10.4653 2.82463 10.9788 3.3381C11.4922 3.85157 11.7811 4.54774 11.7819 5.27389Z" fill="white"/>
<path d="M13.9731 5.27391H12.8775C12.8764 4.25728 12.472 3.28261 11.7531 2.56374C11.0343 1.84487 10.0596 1.4405 9.04297 1.43934V0.34375C10.3501 0.3452 11.6032 0.865092 12.5275 1.78936C13.4518 2.71363 13.9717 3.9668 13.9731 5.27391Z" fill="white"/>
<path d="M13.1002 14.5864H13.0071C2.24292 13.9674 0.714568 4.88498 0.500928 2.11313C0.467538 1.67859 0.608122 1.24858 0.89176 0.917689C1.1754 0.586796 1.57886 0.38212 2.01339 0.348681C2.05685 0.345394 2.10049 0.343751 2.14432 0.343751H5.0312C5.25062 0.343538 5.46506 0.409217 5.64672 0.532281C5.82839 0.655344 5.96891 0.830122 6.0501 1.03397L6.88275 3.08273C6.96292 3.28188 6.98282 3.50019 6.93997 3.71055C6.89711 3.92091 6.7934 4.11405 6.64172 4.26597L5.47492 5.44373C5.65643 6.47979 6.1522 7.43496 6.89499 8.1797C7.63777 8.92445 8.59163 9.42273 9.62721 9.60698L10.8159 8.42922C10.9701 8.27921 11.1651 8.17792 11.3765 8.13797C11.5879 8.09803 11.8063 8.12121 12.0046 8.20462L14.0698 9.03179C14.2706 9.11554 14.4419 9.25717 14.5619 9.43862C14.6819 9.62008 14.7452 9.83315 14.7436 10.0507V12.9431C14.7436 13.3789 14.5705 13.7969 14.2623 14.1051C13.9541 14.4133 13.5361 14.5864 13.1002 14.5864ZM2.14432 1.43934C2.07238 1.43913 2.0011 1.45308 1.93456 1.48041C1.86801 1.50774 1.8075 1.54791 1.75648 1.59863C1.70546 1.64934 1.66493 1.70961 1.6372 1.77599C1.60947 1.84237 1.59509 1.91356 1.59488 1.98549C1.59488 2.00083 1.59542 2.01599 1.59652 2.03096C1.84851 5.27391 3.4645 12.9431 13.0674 13.4909C13.2124 13.4995 13.3549 13.4503 13.4635 13.3539C13.5722 13.2576 13.6382 13.122 13.6469 12.977L13.648 12.9431V10.0507L11.5828 9.22352L10.0107 10.7847L9.74772 10.7519C4.9819 10.1548 4.3355 5.38895 4.3355 5.33965L4.30263 5.07671L5.85837 3.50453L5.03668 1.43934H2.14432Z" fill="white"/>
</svg>
