<svg width="33" height="33" viewBox="0 0 33 33" fill="none" xmlns="http://www.w3.org/2000/svg">
<g clip-path="url(#clip0)">
<path d="M16.5001 26.164C21.8375 26.164 26.1643 21.8372 26.1643 16.4999C26.1643 11.1625 21.8375 6.83569 16.5001 6.83569C11.1627 6.83569 6.83594 11.1625 6.83594 16.4999C6.83594 21.8372 11.1627 26.164 16.5001 26.164Z" fill="#F9F4F3"/>
<path d="M26.1642 16.4999C26.1642 11.1711 21.8287 6.83569 16.5 6.83569V26.1641C21.8287 26.164 26.1642 21.8286 26.1642 16.4999Z" fill="#F0E6E1"/>
<path d="M30.0354 16.5001C30.0354 18.337 29.668 20.0772 29.0105 21.6627L25.9002 23.2571L24.5439 19.8257C24.9694 18.7817 25.2014 17.6602 25.2014 16.5001L27.3189 14.3668L30.0354 16.5001Z" fill="#4D2E2E"/>
<path d="M8.47552 13.1742C8.03086 14.1991 7.79883 15.3398 7.79883 16.5L5.47117 17.8189L2.96484 16.5C2.96484 14.6631 3.33223 12.9036 3.98971 11.318L7.83563 10.3945L8.47552 13.1742Z" fill="#664747"/>
<path d="M13.1743 8.45623C12.0913 8.90102 11.1439 9.55837 10.3512 10.3512L8.02474 10.158L6.92871 6.92875C8.16621 5.69125 9.65514 4.68585 11.318 3.98962L13.8414 6.28035L13.1743 8.45623Z" fill="#664747"/>
<path d="M10.3507 22.6486L9.86854 26.1416L6.92826 26.0711C5.69076 24.8336 4.68535 23.3447 3.98926 21.6818L5.80174 19.0009L8.47513 19.8255C8.90052 20.889 9.53867 21.8365 10.3507 22.6486Z" fill="#664747"/>
<path d="M29.0099 11.318L27.0818 13.5628L24.5241 13.1742C24.0986 12.1107 23.4605 11.1633 22.6484 10.3512L22.8731 7.65168L26.0709 6.92871C27.3085 8.16621 28.3139 9.65501 29.0099 11.318Z" fill="#4D2E2E"/>
<path d="M26.0713 26.0712C24.8338 27.3086 23.3449 28.3141 21.682 28.9908L18.8066 27.4657L19.8257 24.5435C20.8893 24.0989 21.856 23.4607 22.6488 22.6487L25.1433 23.0205L26.0713 26.0712Z" fill="#4D2E2E"/>
<path d="M21.682 3.98958L22.1641 7.41527L19.8257 8.45619C18.8202 8.03086 17.6988 7.79883 16.4999 7.79883L15.0234 5.61825L16.4999 2.96484C18.3368 2.96484 20.0964 3.33223 21.682 3.98958Z" fill="#4D2E2E"/>
<path d="M16.4996 25.2013L18.4279 27.5605L16.4996 30.0353C14.6626 30.0353 12.9031 29.6679 11.3175 29.0104L10.1523 25.6689L13.1738 24.5438C14.1792 24.9693 15.3007 25.2013 16.4996 25.2013Z" fill="#664747"/>
<path d="M26.0717 6.92875L22.6493 10.3512C21.8566 9.53904 20.9091 8.88168 19.8262 8.45623L21.6825 3.98962C23.3453 4.68578 24.8342 5.69119 26.0717 6.92875Z" fill="#BF283F"/>
<path d="M30.0351 16.4999H25.2011C25.2011 15.3397 24.9691 14.1989 24.5244 13.1741L29.0102 11.3179C29.6677 12.9034 30.0351 14.663 30.0351 16.4999Z" fill="#BF283F"/>
<path d="M29.0099 21.6626C28.3332 23.3255 27.3277 24.8144 26.0709 26.0713L22.6484 22.6488C23.4413 21.856 24.0986 20.8892 24.5433 19.8257L29.0099 21.6626Z" fill="#BF283F"/>
<path d="M21.682 28.9911C20.0965 29.6679 18.3369 30.0353 16.5 30.0353V25.2013C17.6988 25.2013 18.801 24.9693 19.8257 24.5438L21.682 28.9911Z" fill="#BF283F"/>
<path d="M13.1743 24.5437L11.318 29.0103C9.65514 28.3142 8.16628 27.3087 6.92871 26.0713L10.3512 22.6488C11.1439 23.4608 12.0914 24.1183 13.1743 24.5437Z" fill="#D9415A"/>
<path d="M8.47552 19.8257L3.98971 21.682C3.33223 20.0965 2.96484 18.3369 2.96484 16.5H7.79883C7.79883 17.6601 8.03086 18.801 8.47552 19.8257Z" fill="#D9415A"/>
<path d="M16.5004 2.96484V7.79883C15.3209 7.79883 14.1801 8.03086 13.1747 8.45619L11.3184 3.98958C12.9039 3.33223 14.6635 2.96484 16.5004 2.96484Z" fill="#D9415A"/>
<path d="M10.3507 10.3511C9.53867 11.1632 8.90052 12.1106 8.47507 13.1741L3.98926 11.3179C4.68535 9.65496 5.69069 8.16615 6.92826 6.92859L10.3507 10.3511Z" fill="#D9415A"/>
<path d="M22.7846 1.32122L23.3942 3.71095L21.3151 4.8791C19.8262 4.27969 18.202 3.93164 16.5004 3.93164C14.7989 3.93164 13.1747 4.27969 11.6858 4.8791L9.60938 3.77405L10.2163 1.32129C12.1499 0.509115 14.2767 0 16.5004 0C18.7241 0 20.851 0.509115 22.7846 1.32122Z" fill="#FFEA80"/>
<path d="M21.3146 4.8791L23.3938 3.71095L22.7842 1.32122C20.8506 0.509115 18.7237 0 16.5 0V3.93164C18.2016 3.93164 19.8257 4.27969 21.3146 4.8791Z" fill="#FFCF40"/>
<path d="M33.0002 16.5C33.0002 18.7236 32.4911 20.8506 31.6788 22.7842L29.1001 23.9192L28.1211 21.3147C28.7205 19.8258 29.0686 18.2016 29.0686 16.5C29.0686 14.7985 28.7205 13.1742 28.1211 11.6854L29.0055 8.88123L31.6788 10.2159C32.4911 12.1495 33.0002 14.2763 33.0002 16.5Z" fill="#FFEA80"/>
<path d="M31.6784 10.2158L28.1207 11.6853C26.8253 8.63022 24.3695 6.17449 21.3145 4.87904L22.784 1.32117C26.8059 2.98412 30.0156 6.19382 31.6784 10.2158Z" fill="#FFAF40"/>
<path d="M22.7844 31.6787C20.8508 32.4908 18.7239 33.0001 16.5002 33.0001C14.2765 33.0001 12.1496 32.4908 10.216 31.6787L9.52246 28.9003L11.6856 28.121C13.1745 28.7204 14.7987 29.0684 16.5002 29.0684C18.2018 29.0684 19.8259 28.7204 21.3149 28.121L23.8038 28.9003L22.7844 31.6787Z" fill="#FFEA80"/>
<path d="M22.7842 31.6787L23.8035 28.9002L21.3146 28.121C19.8257 28.7204 18.2016 29.0684 16.5 29.0684V33.0001C18.7237 33.0001 20.8506 32.4908 22.7842 31.6787Z" fill="#FFCF40"/>
<path d="M31.6784 22.7841C30.0156 26.8059 26.8059 30.0157 22.784 31.6786L21.3145 28.1208C24.3695 26.8253 26.8253 24.3697 28.1207 21.3146L31.6784 22.7841Z" fill="#FFAF40"/>
<path d="M3.93164 16.5002C3.93164 18.2018 4.27969 19.8259 4.8791 21.3149L3.56387 23.7932L1.32135 22.7844C0.509115 20.8508 0 18.7238 0 16.5002C0 14.2765 0.509115 12.1496 1.32135 10.216L3.78456 9.76416L4.8791 11.6856C4.27969 13.1744 3.93164 14.7987 3.93164 16.5002Z" fill="#FFEA80"/>
<path d="M11.6853 28.1208L10.2158 31.6786C6.19382 30.0157 2.98412 26.8059 1.32129 22.7841L4.87904 21.3146C6.17448 24.3697 8.63021 26.8253 11.6853 28.1208Z" fill="#FFCF40"/>
<path d="M11.6853 4.87904C8.63021 6.17449 6.17448 8.63022 4.87904 11.6853L1.32129 10.2158C2.98412 6.19382 6.19382 2.98412 10.2158 1.32117L11.6853 4.87904Z" fill="#FFCF40"/>
<path d="M15.1327 16.0997C14.8853 16.0997 14.638 16.0053 14.4492 15.8164L13.0821 14.4493C12.7044 14.0717 12.7044 13.4598 13.0821 13.0822C13.4597 12.7045 14.0715 12.7045 14.4492 13.0822L15.8163 14.4493C16.1939 14.8269 16.1939 15.4388 15.8163 15.8164C15.6274 16.0053 15.3801 16.0997 15.1327 16.0997Z" fill="#4D2E2E"/>
<path d="M19.2342 20.201C18.9869 20.201 18.7395 20.1066 18.5507 19.9177L17.1836 18.5506C16.806 18.173 16.806 17.5611 17.1836 17.1835C17.5612 16.8059 18.1731 16.8059 18.5507 17.1835L19.9178 18.5506C20.2955 18.9282 20.2955 19.5401 19.9178 19.9177C19.729 20.1066 19.4816 20.201 19.2342 20.201Z" fill="#331A1A"/>
<path d="M17.8671 16.0997C17.6198 16.0997 17.3724 16.0053 17.1836 15.8164C16.806 15.4388 16.806 14.8269 17.1836 14.4493L18.5507 13.0822C18.9284 12.7045 19.5402 12.7045 19.9178 13.0822C20.2955 13.4598 20.2955 14.0717 19.9178 14.4493L18.5507 15.8164C18.3619 16.0053 18.1145 16.0997 17.8671 16.0997Z" fill="#331A1A"/>
<path d="M13.7656 20.201C13.5182 20.201 13.2708 20.1066 13.0821 19.9177C12.7044 19.5401 12.7044 18.9282 13.0821 18.5506L14.4492 17.1835C14.8268 16.8059 15.4387 16.8059 15.8163 17.1835C16.1939 17.5611 16.1939 18.173 15.8163 18.5506L14.4492 19.9177C14.2603 20.1066 14.0129 20.201 13.7656 20.201Z" fill="#4D2E2E"/>
<path d="M16.5 19.4004C14.9007 19.4004 13.5996 18.0993 13.5996 16.5C13.5996 14.9007 14.9007 13.5996 16.5 13.5996C18.0993 13.5996 19.4004 14.9007 19.4004 16.5C19.4004 18.0993 18.0993 19.4004 16.5 19.4004Z" fill="#664747"/>
<path d="M19.4004 16.5C19.4004 14.9007 18.0993 13.5996 16.5 13.5996V19.4004C18.0993 19.4004 19.4004 18.0993 19.4004 16.5Z" fill="#4D2E2E"/>
</g>
<defs>
<clipPath id="clip0">
<rect width="33" height="33" fill="white"/>
</clipPath>
</defs>
</svg>
