<svg width="36" height="36" viewBox="0 0 36 36" fill="none" xmlns="http://www.w3.org/2000/svg">
<g clip-path="url(#clip0)">
<path d="M17.6693 14.2404C17.727 13.8375 17.6942 13.4166 17.5512 13.0069C17.0741 11.6402 15.5743 10.9163 14.2071 11.3939C12.8408 11.8709 12.1174 13.3707 12.5944 14.7377C12.7371 15.1475 12.9735 15.4983 13.2697 15.7772C11.9241 16.267 11.2144 17.752 11.6878 19.108C12.1648 20.4746 13.6646 21.1981 15.0319 20.721C15.6913 20.4902 16.1995 20.0205 16.4966 19.4443C16.6491 20.4133 16.665 21.6372 15.8557 21.9196L17.6623 21.2886L19.4691 20.6584C18.6599 20.9406 17.9107 19.9736 17.4269 19.1193C18.0188 19.3867 18.7083 19.4376 19.3681 19.2073C20.7347 18.7302 21.4582 17.2302 20.981 15.8636C20.5067 14.5072 19.0273 13.7864 17.6693 14.2404Z" fill="#FF9100"/>
<path d="M7.76495 8.74224C7.78263 8.61782 7.77239 8.48755 7.728 8.36075C7.58072 7.93765 7.11628 7.71407 6.69318 7.86135C6.27009 8.00863 6.04651 8.47307 6.19379 8.89603C6.23805 9.02324 6.31129 9.13117 6.40288 9.21744C5.98656 9.36884 5.76697 9.82849 5.91372 10.2479C6.061 10.671 6.52543 10.8945 6.94853 10.7473C7.1523 10.6759 7.30995 10.5307 7.4014 10.3521C7.44859 10.652 7.45364 11.0305 7.20321 11.1182L7.76216 10.9231L8.3215 10.728C8.0712 10.8157 7.83925 10.5158 7.68945 10.2516C7.87235 10.3344 8.08583 10.3502 8.2896 10.279C8.71269 10.1317 8.9364 9.66725 8.78899 9.24416C8.64344 8.82505 8.18525 8.602 7.76495 8.74224Z" fill="#FF9100"/>
<path d="M24.8958 25.5554C24.8784 25.6795 24.8883 25.8097 24.9329 25.9369C25.0799 26.36 25.5448 26.5833 25.9677 26.4363C26.3908 26.2887 26.6141 25.8246 26.4671 25.4016C26.4225 25.2744 26.3492 25.1663 26.2582 25.0802C26.6738 24.9288 26.8939 24.4691 26.7469 24.0498C26.6 23.6267 26.1352 23.4028 25.7123 23.5504C25.5082 23.6216 25.3506 23.7669 25.2594 23.9456C25.2123 23.6453 25.2073 23.267 25.4573 23.1794L24.8984 23.3742L24.3394 23.5696C24.59 23.4815 24.8214 23.7819 24.9716 24.046C24.7886 23.963 24.5752 23.9475 24.3705 24.0188C23.9473 24.1658 23.7241 24.6305 23.8717 25.0536C24.0173 25.4722 24.4751 25.6962 24.8958 25.5554Z" fill="#FF9100"/>
<path d="M30.7094 27.3563C30.8192 27.1293 30.8341 26.8661 30.7505 26.6281L21.677 0.63841C21.5938 0.399546 21.4188 0.20375 21.1906 0.0946195C20.9642 -0.0151755 20.7017 -0.0303288 20.4629 0.0532802L2.34323 6.37925C1.84622 6.55205 1.58423 7.09585 1.75756 7.59271L10.8307 33.5829C10.914 33.8218 11.0887 34.0173 11.3168 34.1264C11.447 34.1902 11.5887 34.2213 11.7302 34.2213C11.8362 34.2213 11.9423 34.2039 12.0441 34.168L30.1647 27.8415C30.4037 27.7588 30.5996 27.5839 30.7094 27.3563ZM12.3162 32.0555L3.87025 7.86441L20.1918 2.16544L28.6381 26.357L12.3162 32.0555Z" fill="#FF9100"/>
<path d="M25.1694 2.41651C24.9964 1.91924 24.4511 1.65685 23.956 1.83085C23.4591 2.00365 23.1966 2.54744 23.3705 3.04431L32.1305 28.135L14.9099 34.1475C14.4129 34.3207 14.1506 34.8641 14.3239 35.361C14.4614 35.7543 14.8296 36.0001 15.2234 36.0001C15.3276 36.0001 15.4337 35.9839 15.5374 35.9468L33.6573 29.6203C34.1542 29.4477 34.4167 28.9037 34.243 28.4068L25.1694 2.41651Z" fill="#FF9100"/>
</g>
<defs>
<clipPath id="clip0">
<rect width="36" height="36" fill="white"/>
</clipPath>
</defs>
</svg>
