<svg width="36" height="36" viewBox="0 0 36 36" fill="none" xmlns="http://www.w3.org/2000/svg">
<g clip-path="url(#clip0)">
<path d="M35.971 18.0286C35.971 27.2354 29.0471 34.8255 20.1225 35.8757H20.1218C19.4254 35.9578 18.7178 35.9999 17.9996 35.9999C17.9582 35.9999 17.9168 35.9999 17.8754 35.9992C17.4142 35.9964 16.9565 35.9753 16.5044 35.9381C14.3548 35.7612 12.3127 35.206 10.444 34.3383C10.1856 34.2189 9.9315 34.094 9.68018 33.962C9.10594 33.6622 8.54996 33.3309 8.01433 32.9722C3.19857 29.7486 0.0283203 24.2589 0.0283203 18.0286C0.0283203 8.10366 8.0747 0.0572815 17.9996 0.0572815C27.9246 0.0572815 35.971 8.10366 35.971 18.0286Z" fill="#FFB64C"/>
<path d="M17.618 17.5409C17.618 17.5409 18.6165 21.6223 22.5258 20.2114C22.7435 20.1329 22.9861 20.221 23.0984 20.4234C23.2324 20.6651 23.1295 20.9697 22.8761 21.0799C21.4284 21.7092 17.0004 23.2956 15.2119 20.0693" fill="#3D322C"/>
<path d="M31.5229 7.99266L31.3025 7.3419L20.4727 10.6575L3.60352 22.6969L3.95662 24.4491C4.07105 25.0156 4.49506 25.4712 5.05245 25.62C7.88434 26.3761 7.79308 28.8499 8.01491 32.9721C8.55054 33.3308 9.10653 33.6622 9.68077 33.9619C9.93209 34.0939 10.1862 34.2189 10.4446 34.3382C12.3133 35.2059 14.3554 35.7612 16.505 35.9381C16.9571 35.9753 17.4148 35.9963 17.876 35.9992C17.9174 35.9999 17.9588 35.9999 18.0002 35.9999C18.7184 35.9999 19.426 35.9577 20.1224 35.8756C20.1484 35.6776 20.1392 35.4727 20.0922 35.2691L18.175 26.9728C17.9988 26.2104 18.3498 25.4234 19.0336 25.0437L25.6317 21.3862C26.0508 21.1539 26.2797 20.6835 26.2039 20.2104L25.6893 16.9832C25.4036 15.1938 26.2691 13.4171 27.8543 12.5381L30.2853 11.1903C31.4162 10.5634 31.9371 9.21766 31.5229 7.99266ZM21.8669 22.6512C19.4078 24.0145 17.4148 25.1195 16.0557 22.6674C15.3052 21.3139 16.6896 19.111 19.1487 17.7477C21.6064 16.3851 23.624 16.7017 24.3751 18.0559C25.7188 20.4799 24.3253 21.2886 21.8669 22.6512Z" fill="#231A16"/>
<path d="M33.894 4.63577L32.7735 5.25697C32.2629 5.54009 31.6194 5.3556 31.3363 4.84489L30.2871 2.95222C30.004 2.44158 30.1884 1.79812 30.6992 1.515L31.8196 0.8938C32.3303 0.610682 32.9737 0.795168 33.2568 1.30588L34.3061 3.19855C34.5892 3.70926 34.4047 4.35272 33.894 4.63577Z" fill="#231A16"/>
<path d="M3.73964 16.7481L1.83994 16.5488C1.10466 16.4717 0.42014 16.9335 0.216418 17.6441C0.0166273 18.341 0.335478 19.082 0.978725 19.4161L4.27688 21.1291" fill="#231A16"/>
<path d="M13.3057 10.1546L29.8754 0.970273L32.0607 4.91274L15.4909 14.0971L13.3057 10.1546Z" fill="#231A16"/>
<path d="M3.60289 22.6971C3.60289 22.6971 1.71274 19.8886 2.59495 15.7539C2.69358 15.2918 2.99256 14.8973 3.40583 14.6681L12.9446 9.38014C13.3891 9.13374 13.941 9.19594 14.3194 9.53522L15.1326 10.2642C15.5111 10.6034 16.0629 10.6657 16.5074 10.4193L27.7309 4.19724C28.566 3.73427 28.8678 2.68197 28.4048 1.84686C28.1854 1.45107 28.3283 0.952366 28.7241 0.73299L29.8609 0.1028C30.2567 -0.116577 30.7554 0.0263516 30.9747 0.422142L33.9859 5.85376L3.60289 22.6971Z" fill="#3D322C"/>
<path d="M17.8756 35.9994C17.4144 35.9966 16.9567 35.9756 16.5046 35.9384C14.3551 35.7615 12.3129 35.2062 10.4442 34.3385C10.1859 34.2192 9.93173 34.0942 9.68042 33.9622C9.63408 33.2869 9.6032 32.653 9.57161 32.0366C9.47543 30.09 9.39821 28.5533 8.94471 27.2504C8.39504 25.6744 7.35116 24.6593 5.75691 24.1552C5.61019 24.1089 5.49927 23.9867 5.46839 23.8351C5.46277 23.807 5.45996 23.779 5.45996 23.7516C5.45996 23.5992 5.5421 23.4553 5.67899 23.3802L12.8851 19.3851C13.7422 18.9098 14.8156 19.3893 15.0339 20.3447L18.3439 34.8201C18.4478 35.275 18.2589 35.7432 17.8756 35.9994Z" fill="#444444"/>
<path d="M17.4436 35.4035L16.505 35.9384C14.3555 35.7615 12.3133 35.2062 10.4446 34.3385C10.4432 34.321 10.4418 34.3034 10.4404 34.2866C10.3814 33.4954 10.3442 32.7597 10.3091 32.0493L10.3063 31.9995C10.2066 29.9959 10.128 28.4122 9.63871 27.0082C9.09325 25.4434 8.08096 24.3315 6.625 23.6962L13.2414 20.0282C13.4464 19.9145 13.6865 19.9039 13.8999 19.9994C14.1133 20.0949 14.2656 20.2802 14.3183 20.5084L17.6282 34.9837C17.6661 35.1501 17.5924 35.3192 17.4436 35.4035Z" fill="#5A5A5A"/>
<path d="M11.5613 25.5969C12.3006 25.5969 12.9 24.9975 12.9 24.2582C12.9 23.5189 12.3006 22.9196 11.5613 22.9196C10.822 22.9196 10.2227 23.5189 10.2227 24.2582C10.2227 24.9975 10.822 25.5969 11.5613 25.5969Z" fill="#3D322C"/>
<path d="M13.866 35.2933C14.6053 35.2933 15.2047 34.694 15.2047 33.9546C15.2047 33.2153 14.6053 32.616 13.866 32.616C13.1267 32.616 12.5273 33.2153 12.5273 33.9546C12.5273 34.694 13.1267 35.2933 13.866 35.2933Z" fill="#3D322C"/>
<path d="M8.23023 16.0506L7.20221 16.6205C6.71263 15.7373 5.59975 15.4183 4.71662 15.9079C3.8335 16.3974 3.51444 17.5103 4.00402 18.3935C4.4936 19.2766 5.60649 19.5956 6.48961 19.1061L9.11672 17.6497C9.55828 17.4049 9.71785 16.8485 9.47299 16.4069C9.2282 15.9654 8.67179 15.8058 8.23023 16.0506Z" fill="#231A16"/>
<path d="M11.0657 17.3657C11.0298 17.3856 10.9897 17.3991 10.9466 17.4047C10.7636 17.4284 10.5961 17.2993 10.5724 17.1163L10.0497 13.0757C10.026 12.8927 10.1555 12.7252 10.338 12.7015C10.5211 12.6778 10.6886 12.8069 10.7122 12.9899L11.235 17.0305C11.2531 17.1704 11.1819 17.3012 11.0657 17.3657Z" fill="#231A16"/>
<path d="M12.2346 16.7177C12.1987 16.7376 12.1587 16.7511 12.1156 16.7567C11.9325 16.7804 11.7651 16.6513 11.7414 16.4683L11.2186 12.4277C11.195 12.2447 11.3244 12.0772 11.507 12.0535C11.69 12.0298 11.8575 12.1589 11.8812 12.342L12.4039 16.3826C12.4221 16.5224 12.3509 16.6532 12.2346 16.7177Z" fill="#231A16"/>
<path d="M13.4036 16.0699C13.3677 16.0898 13.3276 16.1034 13.2845 16.109C13.1015 16.1326 12.934 16.0035 12.9104 15.8205L12.3876 11.7799C12.3638 11.5969 12.4934 11.4294 12.676 11.4057C12.859 11.3821 13.0265 11.5112 13.0501 11.6942L13.5729 15.7348C13.591 15.8746 13.5198 16.0055 13.4036 16.0699Z" fill="#231A16"/>
<path d="M14.5715 15.4221C14.5357 15.4419 14.4956 15.4555 14.4525 15.4611C14.2695 15.4848 14.102 15.3557 14.0783 15.1727L13.5555 11.1321C13.5318 10.949 13.6614 10.7815 13.8439 10.7579C14.0269 10.7342 14.1944 10.8633 14.2181 11.0463L14.7409 15.0869C14.759 15.2268 14.6878 15.3576 14.5715 15.4221Z" fill="#231A16"/>
</g>
<defs>
<clipPath id="clip0">
<rect width="36" height="36" fill="white"/>
</clipPath>
</defs>
</svg>
