<svg width="36" height="36" viewBox="0 0 36 36" fill="none" xmlns="http://www.w3.org/2000/svg">
<path d="M35.9883 17.9941C35.9892 19.3253 35.8428 20.6525 35.5518 21.9514C35.1019 23.9584 34.3078 25.8724 33.2046 27.6084C31.7771 29.8655 29.8655 31.7771 27.6084 33.2046C25.8724 34.3078 23.9584 35.1019 21.9514 35.5518C19.3453 36.1338 16.643 36.1338 14.0369 35.5518C12.0298 35.1019 10.1159 34.3078 8.37992 33.2046C6.12275 31.7771 4.21122 29.8655 2.78367 27.6084C1.68051 25.8724 0.886375 23.9584 0.436482 21.9514C-0.145494 19.3444 -0.145494 16.641 0.436482 14.034C1.18784 10.7144 2.864 7.6755 5.27093 5.26908C7.67786 2.86266 10.7171 1.18714 14.0369 0.436487C16.643 -0.145496 19.3453 -0.145496 21.9514 0.436487C25.2708 1.18797 28.3096 2.86376 30.7164 5.27005C33.1232 7.67633 34.7996 10.7148 35.5518 14.034C35.8429 15.3339 35.9893 16.662 35.9883 17.9941Z" fill="#FFB64C"/>
<path d="M17.9941 28.7607C23.9409 28.7607 28.7617 23.9399 28.7617 17.9932C28.7617 12.0464 23.9409 7.22559 17.9941 7.22559C12.0474 7.22559 7.22656 12.0464 7.22656 17.9932C7.22656 23.9399 12.0474 28.7607 17.9941 28.7607Z" fill="#FCF9F0"/>
<path d="M22.2863 20.329C22.8555 19.7598 23.1753 18.9878 23.1753 18.1828C23.1753 17.3779 22.8555 16.6059 22.2863 16.0367L17.994 11.7444L13.7017 16.0367C13.2291 16.5105 12.9263 17.1273 12.8405 17.7911C12.7547 18.4549 12.8907 19.1284 13.2273 19.7068C13.564 20.2853 14.0824 20.7363 14.7019 20.9896C15.3214 21.2429 16.0073 21.2843 16.6528 21.1074C16.5212 22.2209 16.1462 23.2918 15.5543 24.244H20.4346C19.8426 23.2918 19.4676 22.2209 19.3361 21.1074C19.8528 21.25 20.398 21.2531 20.9163 21.1163C21.4345 20.9796 21.9073 20.7079 22.2863 20.329Z" fill="#6A6A6A"/>
<path d="M21.9516 0.436487L20.9688 4.04688H15.0199L14.0371 0.436487C16.6432 -0.145496 19.3456 -0.145496 21.9516 0.436487Z" fill="#FF9100"/>
<path d="M21.9516 35.5518C19.3456 36.1337 16.6432 36.1337 14.0371 35.5518L15.0199 31.9385H20.9688L21.9516 35.5518Z" fill="#FF9100"/>
<path d="M33.205 8.3799L29.9588 10.2357L25.7529 6.02693L27.6058 2.78076C29.8646 4.20849 31.7772 6.12112 33.205 8.3799Z" fill="#FF9100"/>
<path d="M10.2352 29.9583L8.37945 33.2045C6.12229 31.7769 4.21075 29.8654 2.7832 27.6082L6.02938 25.7524L10.2352 29.9583Z" fill="#FF9100"/>
<path d="M35.9883 17.9943C35.9892 19.3255 35.8428 20.6527 35.5518 21.9516L31.9414 20.9688V15.0199L35.5518 14.0342C35.843 15.3341 35.9893 16.6622 35.9883 17.9943Z" fill="#FF9100"/>
<path d="M4.04687 15.0199V20.9688L0.436482 21.9516C-0.145494 19.3445 -0.145494 16.6412 0.436482 14.0342L4.04687 15.0199Z" fill="#FF9100"/>
<path d="M33.205 27.6082C31.7774 29.8654 29.8659 31.7769 27.6087 33.2045L25.7529 29.9583L29.9588 25.7524L33.205 27.6082Z" fill="#FF9100"/>
<path d="M10.2352 6.02693L6.02938 10.2357L2.7832 8.3799C4.21093 6.12112 6.12356 4.20849 8.38234 2.78076L10.2352 6.02693Z" fill="#FF9100"/>
</svg>
