<svg width="35" height="34" viewBox="0 0 35 34" fill="none" xmlns="http://www.w3.org/2000/svg">
<path d="M32.4889 6.63348L29.7047 4.49992L29.9357 1.06219C29.9637 0.650486 29.7416 0.313153 29.4244 0.135855C29.1079 -0.0421079 28.6957 -0.0593729 28.3429 0.169057L25.3939 2.08149L22.099 0.806535C21.3108 0.501077 20.5028 1.20828 20.7325 2.00181L21.6943 5.31736L19.4275 7.96688C18.8847 8.60103 19.3277 9.56655 20.1754 9.59908L23.7191 9.73521L25.612 12.6484C26.0666 13.3469 27.148 13.232 27.4413 12.4618L28.6697 9.22988L32.1068 8.38057C32.9292 8.17738 33.1554 7.14347 32.4889 6.63348Z" fill="#FED843"/>
<path d="M9.98047 28.0237H1.02539C0.459102 28.0237 0 28.4697 0 29.0198V33.0041C0 33.5542 0.459102 34.0001 1.02539 34.0001H9.98047C10.5468 34.0001 11.0059 33.5542 11.0059 33.0041V29.0198C11.0059 28.4697 10.5468 28.0237 9.98047 28.0237Z" fill="#FED843"/>
<path d="M18.5254 24.0393H9.98047C9.41418 24.0393 8.95508 24.4853 8.95508 25.0354V34H18.5254C19.0917 34 19.5508 33.554 19.5508 33.0039V25.0354C19.5508 24.4853 19.0917 24.0393 18.5254 24.0393Z" fill="#FFB64C"/>
<path d="M26.3867 20.0552H18.5254C17.9591 20.0552 17.5 20.5011 17.5 21.0512V34H26.3867C26.953 34 27.4121 33.5541 27.4121 33.004V21.0512C27.4121 20.5011 26.953 20.0552 26.3867 20.0552Z" fill="#FED843"/>
<path d="M33.9746 34H25.3613V17.0669C25.3613 16.5168 25.8204 16.0708 26.3867 16.0708H33.9746C34.5409 16.0708 35 16.5168 35 17.0669V33.004C35 33.5541 34.5409 34 33.9746 34Z" fill="#FFB64C"/>
<path d="M5.19531 22.0473C4.62902 22.0473 4.16992 21.6013 4.16992 21.0512C4.16992 19.4035 5.54989 18.063 7.24609 18.063H11.3477C11.9131 18.063 12.373 17.6162 12.373 17.067C12.373 15.4193 13.753 14.0788 15.4492 14.0788H19.5508C20.1162 14.0788 20.5762 13.632 20.5762 13.0827C20.5762 12.5326 21.0353 12.0867 21.6016 12.0867C22.1679 12.0867 22.627 12.5326 22.627 13.0827C22.627 14.7304 21.247 16.0709 19.5508 16.0709H15.4492C14.8838 16.0709 14.4238 16.5177 14.4238 17.067C14.4238 18.7146 13.0439 20.0551 11.3477 20.0551H7.24609C6.68069 20.0551 6.2207 20.502 6.2207 21.0512C6.2207 21.6013 5.7616 22.0473 5.19531 22.0473Z" fill="#EFE2DD"/>
<path d="M32.1069 8.38066L28.6698 9.22996L27.4414 12.4618C27.1481 13.2321 26.0667 13.347 25.6121 12.6484L23.7192 9.73529L29.4245 0.135986C29.7417 0.313284 29.9639 0.650614 29.9358 1.06232L29.7048 4.50003L32.4891 6.63358C33.1556 7.14356 32.9293 8.17746 32.1069 8.38066Z" fill="#FFB64C"/>
</svg>
