<svg width="35" height="35" viewBox="0 0 35 35" fill="none" xmlns="http://www.w3.org/2000/svg">
<path d="M25.4565 14.6774H4.00488V4.51611H25.4565V14.6774Z" fill="#F0BC5E"/>
<path d="M32.1774 8.46774V11.0238C32.1774 11.6696 31.8183 12.2501 31.2413 12.5384L30.3507 12.9839C29.3882 13.4654 28.7903 14.4324 28.7903 15.5085V17.5H27.6613V3.3871H28.2258C28.8485 3.3871 29.3548 2.88074 29.3548 2.25806V1.12903C29.3548 0.506356 28.8485 0 28.2258 0H1.12903C0.506356 0 0 0.506356 0 1.12903V2.25806C0 2.88074 0.506356 3.3871 1.12903 3.3871H1.69355V33.3064C1.69355 34.2401 2.4535 35 3.3871 35H25.9677C26.9013 35 27.6613 34.2401 27.6613 33.3064V26.5323H29.3548C30.9111 26.5323 32.1774 25.266 32.1774 23.7097V20.3226C32.1774 18.9598 31.2058 17.8195 29.9194 17.5571V15.5085C29.9194 14.8627 30.2785 14.2821 30.8554 13.9938L31.746 13.5484C32.7086 13.0668 33.3064 12.0999 33.3064 11.0238V8.46774H32.1774ZM27.6613 20.8871H28.7903V23.1452H27.6613V20.8871ZM1.12903 1.12903H28.2258L28.2264 2.25806H1.12903V1.12903ZM26.5323 3.3871V15.8065H2.82258V3.3871H26.5323ZM25.9677 33.871H3.3871C3.07562 33.871 2.82258 33.6174 2.82258 33.3064V16.9355H26.5323V33.3064C26.5323 33.6174 26.2792 33.871 25.9677 33.871ZM31.0484 20.3226V23.7097C31.0484 24.6433 30.2884 25.4032 29.3548 25.4032H27.6613V24.2742H28.7903C29.413 24.2742 29.9194 23.7678 29.9194 23.1452V20.8871C29.9194 20.2644 29.413 19.7581 28.7903 19.7581H27.6613V18.629H29.3548C30.2884 18.629 31.0484 19.389 31.0484 20.3226Z" fill="black"/>
<path d="M17.5 4.53369H18.629V14.6603H17.5V4.53369Z" fill="black"/>
<path d="M10.7256 4.52808H11.8546V14.6601H10.7256V4.52808Z" fill="black"/>
<path d="M7.33899 8.46772V7.9032H8.42971L6.81003 12.2211L7.86795 12.6175L9.59706 8.00547V6.77417H6.20996V8.46772H7.33899Z" fill="black"/>
<path d="M14.1124 7.9032H15.2031L13.5835 12.2211L14.6414 12.6175L16.3705 8.00547V6.77417H12.9834V8.46772H14.1124V7.9032Z" fill="black"/>
<path d="M20.8868 7.9032H21.9776L20.3579 12.2211L21.4158 12.6175L23.1449 8.00547V6.77417H19.7578V8.46772H20.8868V7.9032Z" fill="black"/>
<path d="M3.95117 32.7419H25.4028V22.5806H3.95117V32.7419ZM14.677 25.9677C17.0519 25.9677 18.7741 24.8924 19.4415 23.7096H20.6835C19.9861 25.6769 17.5409 27.0967 14.677 27.0967C11.8031 27.0967 9.36479 25.6791 8.6699 23.7096H9.91029C10.6474 25.0553 12.5325 25.9677 14.677 25.9677ZM11.3475 23.7096H18.0015C17.3165 24.3383 16.1266 24.8386 14.677 24.8386C13.1913 24.8386 12.0192 24.3328 11.3475 23.7096ZM10.7254 27.3365V28.3194C9.65008 27.6725 8.87884 26.7681 8.59162 25.7367C9.15365 26.3781 9.8808 26.9217 10.7254 27.3365ZM11.8544 27.7894C12.56 28.0151 13.3189 28.159 14.1125 28.2053V29.3338C13.3051 29.2809 12.5438 29.113 11.8544 28.8564V27.7894ZM15.2415 28.2053C16.034 28.1585 16.7928 28.0135 17.4996 27.7866V28.8564C16.8102 29.1138 16.0489 29.2809 15.2415 29.3338V28.2053ZM18.6286 27.3321C19.4721 26.9167 20.2009 26.3737 20.7629 25.7334C20.4762 26.7659 19.7053 27.672 18.6286 28.3194V27.3321ZM5.0802 23.7096H7.33827V24.8386C7.33827 27.9515 10.6305 30.4838 14.677 30.4838C18.7234 30.4838 22.0157 27.9515 22.0157 24.8386V23.7096H24.2738V31.6128H5.0802V23.7096Z" fill="black"/>
<path d="M23.7101 18.0645C22.7765 18.0645 22.0166 18.8244 22.0166 19.758C22.0166 20.6916 22.7765 21.4515 23.7101 21.4515C24.6437 21.4515 25.4037 20.6916 25.4037 19.758C25.4037 18.8244 24.6437 18.0645 23.7101 18.0645ZM23.7101 20.3225C23.3987 20.3225 23.1456 20.0689 23.1456 19.758C23.1456 19.4471 23.3987 19.1935 23.7101 19.1935C24.0216 19.1935 24.2747 19.4471 24.2747 19.758C24.2747 20.0689 24.0216 20.3225 23.7101 20.3225Z" fill="black"/>
<path d="M19.1935 21.4515C20.1272 21.4515 20.8871 20.6916 20.8871 19.758C20.8871 18.8244 20.1272 18.0645 19.1935 18.0645C18.2599 18.0645 17.5 18.8244 17.5 19.758C17.5 20.6916 18.2599 21.4515 19.1935 21.4515ZM19.1935 19.1935C19.505 19.1935 19.7581 19.4471 19.7581 19.758C19.7581 20.0689 19.505 20.3225 19.1935 20.3225C18.8821 20.3225 18.629 20.0689 18.629 19.758C18.629 19.4471 18.8821 19.1935 19.1935 19.1935Z" fill="black"/>
<path d="M11.8544 18.0645H3.95117V21.4515H11.8544V18.0645ZM8.4673 19.1935V20.3225H7.33827V19.1935H8.4673ZM5.0802 19.1935H6.20924V20.3225H5.0802V19.1935ZM10.7254 20.3225H9.59633V19.1935H10.7254V20.3225Z" fill="black"/>
<path d="M16.3705 18.0645H12.9834V21.4515H16.3705V18.0645ZM15.2415 20.3225H14.1124V19.1935H15.2415V20.3225Z" fill="black"/>
<path d="M32.7415 9.03224C31.4961 9.03224 30.4834 8.01953 30.4834 6.77418C30.4834 5.52882 31.4961 4.51611 32.7415 4.51611C33.9868 4.51611 34.9995 5.52882 34.9995 6.77418C34.9995 8.01953 33.9868 9.03224 32.7415 9.03224Z" fill="#F0BC5E"/>
</svg>
