<svg width="35" height="35" viewBox="0 0 35 35" fill="none" xmlns="http://www.w3.org/2000/svg">
<path d="M33.0094 14.9137C32.4707 14.5165 31.792 14.0204 31.7099 13.6962C31.7444 13.0688 31.9236 12.4579 32.2333 11.9112C32.7081 10.8215 33.198 9.69238 32.6533 8.75341C32.1086 7.81444 30.8699 7.66228 29.6784 7.53595C29.0609 7.53181 28.4525 7.38657 27.8996 7.11137C27.624 6.55653 27.4793 5.94584 27.4766 5.3263C27.3427 4.13474 27.2042 2.90208 26.2592 2.35117C25.3143 1.80026 24.1836 2.28269 23.0942 2.76355C22.5469 3.07322 21.9356 3.25233 21.3078 3.28707C20.9791 3.19883 20.4846 2.52615 20.0904 1.98744C19.3996 1.0561 18.622 0 17.499 0C16.376 0 15.5985 1.0561 14.9122 1.98744C14.5135 2.52765 14.0189 3.2049 13.6948 3.28857C13.0675 3.25077 12.4568 3.07186 11.9084 2.76505C10.8128 2.28262 9.68375 1.80176 8.74793 2.34354C7.81211 2.88532 7.6554 4.1271 7.52145 5.32623C7.5171 5.94363 7.37245 6.55196 7.0984 7.10523C6.54661 7.37652 5.94054 7.51904 5.32569 7.52218C4.13274 7.65607 2.89862 7.7946 2.34933 8.73964C1.80003 9.68467 2.28249 10.814 2.76331 11.9051C3.07409 12.4536 3.25326 13.0667 3.28679 13.6962C3.19855 14.0249 2.52593 14.5211 1.98726 14.9137C1.05601 15.5985 0 16.3777 0 17.5007C0 18.6238 1.05601 19.403 1.98883 20.0878C2.5275 20.485 3.20619 20.9811 3.28836 21.3053C3.25383 21.9327 3.07466 22.5436 2.76488 23.0903C2.29012 24.18 1.80017 25.3091 2.3449 26.2481C2.88963 27.1871 4.12831 27.3392 5.31977 27.4655C5.93733 27.4697 6.54576 27.6149 7.09862 27.8901C7.37423 28.445 7.51895 29.0557 7.52166 29.6752C7.65555 30.8668 7.79406 32.0994 8.73902 32.6503C9.68397 33.2012 10.8055 32.7051 11.8965 32.2303C12.4492 31.9241 13.0641 31.7472 13.6951 31.7129C14.0238 31.8012 14.5183 32.4738 14.9124 33.0126C15.5987 33.9439 16.3763 35 17.4993 35C18.6223 35 19.3998 33.9439 20.0861 33.0126C20.4848 32.4723 20.9794 31.7951 21.3035 31.7114C21.9312 31.747 22.5423 31.926 23.0899 32.2349C24.1794 32.7097 25.3085 33.1967 26.2458 32.6565C27.1831 32.1162 27.3383 30.8729 27.4723 29.6798C27.4766 29.0624 27.6213 28.4541 27.8953 27.9008C28.4481 27.6273 29.0559 27.4832 29.6726 27.4793C30.8656 27.3454 32.0997 27.2069 32.649 26.2619C33.1983 25.3168 32.7022 24.1952 32.229 23.1041C31.9192 22.5528 31.7421 21.9369 31.7116 21.3054C31.7999 20.9766 32.4725 20.4805 33.0112 20.0879C33.9424 19.4016 35 18.6224 35 17.5008C35 16.3792 33.9421 15.5985 33.0094 14.9137Z" fill="#FFB64C"/>
<path d="M12.9342 21.3058C12.6948 21.3058 12.4692 21.193 12.3256 21.0014L9.13011 16.7404V20.5449C9.13011 20.9651 8.78944 21.3058 8.36925 21.3058C7.94906 21.3058 7.6084 20.9651 7.6084 20.5449V14.4577C7.6084 14.0375 7.94906 13.6968 8.36925 13.6968C8.6087 13.6968 8.83424 13.8096 8.97789 14.0012L12.1734 18.2622V14.4577C12.1734 14.0375 12.514 13.6968 12.9342 13.6968C13.3544 13.6968 13.6951 14.0375 13.6951 14.4577V20.5449C13.6949 20.8723 13.4852 21.1628 13.1747 21.2662C13.0972 21.2925 13.016 21.3058 12.9342 21.3058Z" fill="#FAFAFA"/>
<path d="M19.021 21.3042H15.9777C15.5575 21.3042 15.2168 20.9636 15.2168 20.5433V14.4562C15.2168 14.036 15.5575 13.6953 15.9777 13.6953H19.021C19.4412 13.6953 19.7819 14.036 19.7819 14.4562C19.7819 14.8765 19.4412 15.2171 19.021 15.2171H16.7385V19.7825H19.021C19.4412 19.7825 19.7819 20.1232 19.7819 20.5434C19.7819 20.9636 19.4412 21.3042 19.021 21.3042Z" fill="#FAFAFA"/>
<path d="M19.021 18.2618H15.9777C15.5575 18.2618 15.2168 17.921 15.2168 17.5005C15.2168 17.0801 15.5575 16.7393 15.9777 16.7393H19.021C19.4412 16.7393 19.7819 17.0801 19.7819 17.5005C19.7819 17.921 19.4412 18.2618 19.021 18.2618Z" fill="#FAFAFA"/>
<path d="M26.6294 21.305C26.3015 21.3055 26.0102 21.0957 25.9067 20.7846L25.1078 18.3847L24.3089 20.7846C24.2117 21.1129 23.8987 21.3291 23.5572 21.3035C23.2192 21.2907 22.9304 21.0564 22.8481 20.7283L21.3265 14.6411C21.2248 14.2331 21.4731 13.8198 21.8811 13.7181C22.2891 13.6164 22.7023 13.8648 22.8041 14.2728L23.6912 17.8247L24.3865 15.7383C24.5673 15.3395 25.0372 15.1628 25.436 15.3436C25.611 15.423 25.7512 15.5632 25.8306 15.7383L26.526 17.8247L27.4131 14.2728C27.5148 13.8648 27.928 13.6164 28.336 13.7181C28.744 13.8198 28.9924 14.233 28.8907 14.6411L27.369 20.7283C27.2868 21.0564 26.9978 21.2907 26.66 21.3035L26.6294 21.305Z" fill="#FAFAFA"/>
</svg>
