<svg width="38" height="38" viewBox="0 0 38 38" fill="none" xmlns="http://www.w3.org/2000/svg">
<g clip-path="url(#clip0)">
<path d="M7.20703 26.2065C7.20703 32.7197 12.487 37.9996 19.0002 37.9996C25.5133 37.9996 30.7933 32.7197 30.7933 26.2065C30.7933 19.6548 27.5174 14.4134 29.7154 9.82717C29.7154 9.82717 26.207 10.4824 24.2416 15.7237C24.2416 15.7237 17.6898 9.17197 20.4272 -0.000427246C20.4272 -0.000427246 13.7588 2.62024 14.4562 11.1375C15.0543 18.4411 13.7588 19.6548 13.7588 19.6548C13.7588 13.7582 9.14874 11.1375 9.14874 11.1375C10.4829 18.3444 7.20703 20.31 7.20703 26.2065Z" fill="#FFB446"/>
<path d="M27.5128 28.9998C27.5128 33.9051 23.7252 38.0928 18.8207 37.9982C14.2052 37.9092 10.7712 34.3975 11.1382 29.8103C11.302 27.7629 12.858 24.446 15.3968 21.0883L17.0894 22.112C17.0347 17.9627 19.0002 12.4483 19.0002 12.4483C20.2913 18.2583 27.5128 19.7643 27.5128 28.9998Z" fill="#FFDC64"/>
<path d="M15.7243 24.8966C15.0691 28.8276 13.7588 30.2588 13.7588 32.7586C13.7588 35.3794 16.1055 38 19.0002 38C21.9158 38 24.2496 35.6178 24.2415 32.7022C24.2196 24.8716 19.6554 20.9656 19.6554 20.9656C20.3106 24.8966 18.3451 26.8621 18.3451 26.8621C17.5263 25.6341 15.7243 24.8966 15.7243 24.8966Z" fill="white"/>
</g>
<defs>
<clipPath id="clip0">
<rect width="38" height="38" fill="white"/>
</clipPath>
</defs>
</svg>
