<svg width="24" height="24" viewBox="0 0 24 24" fill="none" xmlns="http://www.w3.org/2000/svg">
<path d="M21.8438 4.124H16.4035C17.1168 3.10095 17.0182 1.67967 16.1062 0.767675C15.0827 -0.255892 13.4174 -0.255892 12.3939 0.767675C12.279 0.882572 12.1418 1.04894 12 1.33034C11.8583 1.04894 11.7211 0.882572 11.6062 0.767675C10.5827 -0.255892 8.91741 -0.255892 7.89394 0.767675C6.98198 1.67967 6.88336 3.1009 7.59656 4.124H2.15625C0.967312 4.124 0 5.09136 0 6.28036V7.96794C0 8.92818 0.630984 9.74352 1.5 10.0218V21.8436C1.5 23.0326 2.46731 24 3.65625 24H10.5H13.5H20.3438C21.5327 24 22.5 23.0326 22.5 21.8436V10.0218C23.369 9.74347 24 8.92813 24 7.96794V6.28036C24 5.09136 23.0327 4.124 21.8438 4.124ZM12.75 8.62423H11.25V5.62408H12.75V8.62423ZM12.9264 3.48909C13.1581 2.1566 13.4249 1.85804 13.4545 1.82837C13.6739 1.60903 13.962 1.49938 14.25 1.49938C14.5381 1.49938 14.8262 1.60903 15.0456 1.82837C15.4842 2.26705 15.4842 2.98076 15.0456 3.41943C15.0161 3.44892 14.7193 3.7142 13.397 3.94544C13.2045 3.9791 13.0167 4.00728 12.8434 4.03057C12.8662 3.86125 12.8936 3.67773 12.9264 3.48909ZM8.95448 1.82837C9.17381 1.60903 9.46191 1.49938 9.75 1.49938C10.0381 1.49938 10.3262 1.60903 10.5455 1.82837C10.575 1.85786 10.8403 2.15464 11.0715 3.477C11.1052 3.66948 11.1333 3.85736 11.1566 4.03067C10.9873 4.00784 10.8038 3.98037 10.6152 3.94755C9.28275 3.71589 8.9842 3.44911 8.95453 3.41943C8.51587 2.9808 8.51587 2.26705 8.95448 1.82837ZM1.5 6.28036C1.5 5.91847 1.79438 5.62408 2.15625 5.62408H9.75V8.62423H2.25H2.15625C1.79438 8.62423 1.5 8.32984 1.5 7.96794V6.28036ZM3 21.8436V10.1243H9.75V22.4999H3.65625C3.29437 22.4999 3 22.2055 3 21.8436ZM11.25 22.4999V10.1243H12.75V22.4999H11.25ZM21 21.8436C21 22.2055 20.7056 22.4999 20.3438 22.4999H14.25V10.1243H21V21.8436ZM22.5 7.96794C22.5 8.32984 22.2056 8.62423 21.8438 8.62423H21.75H14.25V5.62408H21.8438C22.2056 5.62408 22.5 5.91847 22.5 6.28036V7.96794Z" fill="#D9534F"/>
</svg>
