<svg height="512" viewBox="0 0 512 512" width="512" xmlns="http://www.w3.org/2000/svg"><g><g><g><path d="m496 148v284h-480v-284a19.994 19.994 0 0 1 20-20h440a19.994 19.994 0 0 1 20 20z" fill="#d80027"/><path d="m496 432v44a19.994 19.994 0 0 1 -20 20h-440a19.994 19.994 0 0 1 -20-20v-44z" fill="#e0e0e2"/><circle cx="256" cy="288" fill="#e0e0e2" r="80"/><path d="m240 320v-64l48 32z" fill="#d80027"/></g><g fill="#ffda44"><path d="m256 16 14.107 28.584 31.544 4.583-22.826 22.249 5.389 31.417-28.214-14.833-28.214 14.833 5.389-31.417-22.826-22.249 31.544-4.583z"/><path d="m125 16 14.107 28.584 31.544 4.583-22.826 22.249 5.389 31.417-28.214-14.833-28.214 14.833 5.389-31.417-22.826-22.249 31.544-4.583z"/><path d="m386 16 14.107 28.584 31.544 4.583-22.826 22.249 5.389 31.417-28.214-14.833-28.214 14.833 5.389-31.417-22.826-22.249 31.544-4.583z"/></g></g><g><path d="m476 120h-440a28.031 28.031 0 0 0 -28 28v328a28.031 28.031 0 0 0 28 28h440a28.031 28.031 0 0 0 28-28v-328a28.031 28.031 0 0 0 -28-28zm12 356a12.01 12.01 0 0 1 -12 12h-440a12.01 12.01 0 0 1 -12-12v-36h464zm0-52h-464v-276a12.01 12.01 0 0 1 12-12h440a12.01 12.01 0 0 1 12 12z"/><path d="m256 376a88 88 0 1 0 -88-88 88.1 88.1 0 0 0 88 88zm0-160a72 72 0 1 1 -72 72 72.081 72.081 0 0 1 72-72z"/><path d="m236.225 327.053a8 8 0 0 0 8.212-.4l48-32a8 8 0 0 0 0-13.312l-48-32a8 8 0 0 0 -12.437 6.659v64a8 8 0 0 0 4.225 7.053zm11.775-56.105 25.578 17.052-25.578 17.052z"/><path d="m440 456h-320a8 8 0 0 0 -16 0h-32a8 8 0 0 0 0 16h32a8 8 0 0 0 16 0h320a8 8 0 0 0 0-16z"/><path d="m224.579 74.209-4.679 27.271a8 8 0 0 0 11.608 8.434l24.492-12.876 24.491 12.876a8 8 0 0 0 11.609-8.434l-4.678-27.271 19.813-19.309a8 8 0 0 0 -4.435-13.65l-27.382-3.979-12.244-24.812a8 8 0 0 0 -14.348 0l-12.245 24.812-27.381 3.979a8 8 0 0 0 -4.435 13.65zm18.464-21.709a8 8 0 0 0 6.024-4.376l6.933-14.048 6.933 14.048a8 8 0 0 0 6.024 4.376l15.5 2.253-11.216 10.935a8 8 0 0 0 -2.3 7.081l2.649 15.439-13.866-7.289a8 8 0 0 0 -7.446 0l-13.866 7.289 2.649-15.439a8 8 0 0 0 -2.3-7.081l-11.22-10.935z"/><path d="m93.579 74.209-4.679 27.271a8 8 0 0 0 11.608 8.434l24.492-12.876 24.491 12.876a8 8 0 0 0 11.609-8.434l-4.678-27.271 19.813-19.309a8 8 0 0 0 -4.435-13.65l-27.382-3.979-12.244-24.812a8 8 0 0 0 -14.348 0l-12.245 24.812-27.381 3.979a8 8 0 0 0 -4.435 13.65zm18.464-21.709a8 8 0 0 0 6.024-4.376l6.933-14.048 6.933 14.048a8 8 0 0 0 6.024 4.376l15.5 2.253-11.216 10.935a8 8 0 0 0 -2.3 7.081l2.649 15.439-13.866-7.289a8 8 0 0 0 -7.446 0l-13.866 7.289 2.649-15.439a8 8 0 0 0 -2.3-7.081l-11.22-10.935z"/><path d="m354.579 74.209-4.679 27.271a8 8 0 0 0 11.608 8.434l24.492-12.876 24.491 12.876a8 8 0 0 0 11.609-8.434l-4.678-27.271 19.813-19.309a8 8 0 0 0 -4.435-13.65l-27.382-3.979-12.244-24.812a8 8 0 0 0 -14.348 0l-12.245 24.812-27.381 3.979a8 8 0 0 0 -4.435 13.65zm18.464-21.709a8 8 0 0 0 6.024-4.376l6.933-14.048 6.933 14.048a8 8 0 0 0 6.024 4.376l15.5 2.253-11.216 10.935a8 8 0 0 0 -2.3 7.081l2.649 15.439-13.866-7.289a8 8 0 0 0 -7.446 0l-13.866 7.289 2.649-15.439a8 8 0 0 0 -2.3-7.081l-11.22-10.935z"/></g></g></svg>