<svg width="33" height="33" viewBox="0 0 33 33" fill="none" xmlns="http://www.w3.org/2000/svg">
<g clip-path="url(#clip0)">
<path d="M29.4491 4.62061H19.3577C19.0116 4.62061 18.7309 4.90122 18.7309 5.2474C18.7309 5.59358 19.0116 5.8742 19.3577 5.8742H29.4491C30.486 5.8742 31.3295 6.71774 31.3295 7.75458V25.3048C31.3295 26.3417 30.486 27.1852 29.4491 27.1852H3.62519C2.58834 27.1852 1.7448 26.3417 1.7448 25.3048V7.75458C1.7448 6.71774 2.58834 5.8742 3.62519 5.8742H13.7166C14.0628 5.8742 14.3434 5.59358 14.3434 5.2474C14.3434 4.90122 14.0628 4.62061 13.7166 4.62061H3.62519C1.89711 4.62061 0.491211 6.02651 0.491211 7.75458V25.3048C0.491211 27.0329 1.89711 28.4388 3.62519 28.4388H29.4491C31.1772 28.4388 32.5831 27.0329 32.5831 25.3048V7.75458C32.5831 6.02651 31.1772 4.62061 29.4491 4.62061Z" fill="black"/>
<path d="M3.24902 8.00521V25.054C3.24902 25.4002 3.52964 25.6808 3.87582 25.6808H29.1983C29.5445 25.6808 29.8251 25.4002 29.8251 25.054V8.00521C29.8251 7.65903 29.5445 7.37842 29.1983 7.37842H3.87582C3.52964 7.37842 3.24902 7.65903 3.24902 8.00521ZM12.9643 24.4272V8.63201H20.1098V24.4272H12.9643ZM28.5715 24.4272H21.3634V8.63201H28.5715V24.4272ZM4.50261 8.63201H11.7108V24.4272H4.50261V8.63201Z" fill="black"/>
<path d="M10.324 13.1108C10.2082 12.9335 10.0108 12.8267 9.79909 12.8267H6.41439C6.06821 12.8267 5.7876 13.1073 5.7876 13.4535C5.7876 13.7996 6.06821 14.0803 6.41439 14.0803H8.8389L6.5207 19.3538C6.38142 19.6707 6.5254 20.0405 6.84224 20.1799C6.92435 20.2159 7.00991 20.233 7.09415 20.233C7.33522 20.233 7.56506 20.0932 7.6683 19.8583L10.3729 13.7057C10.4581 13.5119 10.4397 13.2882 10.324 13.1108Z" fill="black"/>
<path d="M23.2747 14.0803H25.6993L23.3811 19.3538C23.2418 19.6707 23.3857 20.0405 23.7026 20.1799C23.7847 20.2159 23.8703 20.233 23.9545 20.233C24.1956 20.233 24.4254 20.0932 24.5286 19.8583L27.2332 13.7057C27.3184 13.5119 27.3 13.2882 27.1843 13.1108C27.0686 12.9335 26.8712 12.8267 26.6594 12.8267H23.2747C22.9286 12.8267 22.6479 13.1073 22.6479 13.4535C22.6479 13.7996 22.9286 14.0803 23.2747 14.0803Z" fill="black"/>
<path d="M18.7541 13.1108C18.6384 12.9335 18.441 12.8267 18.2293 12.8267H14.8446C14.4984 12.8267 14.2178 13.1073 14.2178 13.4535C14.2178 13.7996 14.4984 14.0803 14.8446 14.0803H17.2691L14.9509 19.3538C14.8116 19.6707 14.9556 20.0405 15.2724 20.1799C15.3545 20.2159 15.4401 20.233 15.5243 20.233C15.7654 20.233 15.9952 20.0932 16.0985 19.8583L18.803 13.7057C18.8883 13.5119 18.8698 13.2882 18.7541 13.1108Z" fill="black"/>
<path d="M16.537 5.8742C16.7018 5.8742 16.8635 5.80713 16.9801 5.69054C17.0967 5.57396 17.1637 5.41225 17.1637 5.2474C17.1637 5.08255 17.0967 4.92084 16.9801 4.80426C16.8635 4.68767 16.7018 4.62061 16.537 4.62061C16.3721 4.62061 16.2104 4.68767 16.0938 4.80426C15.9772 4.92084 15.9102 5.08255 15.9102 5.2474C15.9102 5.41225 15.9772 5.57396 16.0938 5.69054C16.2104 5.80713 16.3721 5.8742 16.537 5.8742Z" fill="black"/>
</g>
<defs>
<clipPath id="clip0">
<rect width="32.0919" height="32.0919" fill="white" transform="translate(0.491211 0.483398)"/>
</clipPath>
</defs>
</svg>
