<?xml version="1.0" encoding="UTF-8" standalone="no"?>
<!-- Created with Inkscape (http://www.inkscape.org/) -->

<svg
   xmlns:dc="http://purl.org/dc/elements/1.1/"
   xmlns:cc="http://creativecommons.org/ns#"
   xmlns:rdf="http://www.w3.org/1999/02/22-rdf-syntax-ns#"
   xmlns:svg="http://www.w3.org/2000/svg"
   xmlns="http://www.w3.org/2000/svg"
   xmlns:sodipodi="http://sodipodi.sourceforge.net/DTD/sodipodi-0.dtd"
   xmlns:inkscape="http://www.inkscape.org/namespaces/inkscape"
   width="135.53947mm"
   height="93.784592mm"
   viewBox="0 0 135.53947 93.784592"
   version="1.1"
   id="svg8"
   inkscape:version="0.92.3 (2405546, 2018-03-11)"
   sodipodi:docname="live.svg">
  <defs
     id="defs2" />
  <sodipodi:namedview
     id="base"
     pagecolor="#ffffff"
     bordercolor="#666666"
     borderopacity="1.0"
     inkscape:pageopacity="0.0"
     inkscape:pageshadow="2"
     inkscape:zoom="0.35"
     inkscape:cx="568.99396"
     inkscape:cy="23.070491"
     inkscape:document-units="mm"
     inkscape:current-layer="layer1"
     showgrid="false"
     fit-margin-top="0"
     fit-margin-left="0"
     fit-margin-right="0"
     fit-margin-bottom="0"
     inkscape:window-width="1920"
     inkscape:window-height="1010"
     inkscape:window-x="0"
     inkscape:window-y="0"
     inkscape:window-maximized="1" />
  <metadata
     id="metadata5">
    <rdf:RDF>
      <cc:Work
         rdf:about="">
        <dc:format>image/svg+xml</dc:format>
        <dc:type
           rdf:resource="http://purl.org/dc/dcmitype/StillImage" />
        <dc:title></dc:title>
      </cc:Work>
    </rdf:RDF>
  </metadata>
  <g
     inkscape:label="Layer 1"
     inkscape:groupmode="layer"
     id="layer1"
     transform="translate(195.52548,-65.688525)">
    <g
       id="g826"
       transform="translate(89.958333,130.02381)">
      <path
         style="fill:#c9e0e4;stroke-width:0.26458332"
         d="m -245.23094,29.353327 -28.17812,-0.134025 -1.71979,-0.590825 c -5.27551,-1.812372 -9.02739,-5.866987 -9.96158,-10.765342 -0.52417,-2.748484 -0.52468,-67.934409 -5.5e-4,-70.661196 1.1131,-5.790848 6.12618,-10.363034 12.32651,-11.242398 2.04216,-0.289631 108.53153,-0.421089 110.22191,-0.136065 6.20038,1.045478 11.14466,5.539445 12.20364,11.092186 0.5261,2.758551 0.5261,68.457749 0,71.2163 -1.0804,5.665009 -6.47837,10.422598 -12.6066,11.11102 -1.93201,0.217035 -47.11524,0.277625 -82.28542,0.110345 z m 6.56167,-32.330349 c 0.38963,-0.3896254 0.41675,-2.1776742 0.0436,-2.8748936 -0.25659,-0.4794435 -0.60386,-0.5117729 -5.4972,-0.5117729 h -5.22331 l -1.83789,1.8520832 -1.83789,1.8520832 h 7.01759 c 5.10535,0 7.10411,-0.086516 7.33509,-0.3174999 z m 6.99238,-3.3143136 2.05637,-2.0443136 -0.004,-8.8697488 -0.004,-8.869748 -2.24516,2.278293 -2.24516,2.278295 v 8.635767 c -1e-5,4.7496724 0.0867,8.635769 0.19258,8.635769 0.10592,0 1.11795,-0.9199403 2.24896,-2.0443136 z M -250.25802,-20.37419 v -8.863542 l -2.11666,2.104253 -2.11667,2.104252 v 8.863541 8.8635416 l 2.11667,-2.1042523 2.11666,-2.1042523 z m 32.01458,9.848402 v -3.103766 l -0.78234,0.788662 -0.78234,0.788662 0.6976,2.3151041 c 0.38368,1.2733072 0.73574,2.3151041 0.78234,2.3151041 0.0466,0 0.0847,-1.3966957 0.0847,-3.1037662 z m -1.39738,-7.801258 c 0.79393,-0.784066 1.39738,-1.616974 1.39738,-1.928714 0,-0.93911 -3.18358,-11.878566 -3.51892,-12.091725 -0.69107,-0.439296 -1.44777,-0.159221 -2.5191,0.932386 l -1.12112,1.142339 2.03735,6.662869 c 1.12054,3.664577 2.10253,6.66287 2.18219,6.66287 0.0797,0 0.77366,-0.621012 1.54222,-1.380025 z m -12.30144,-11.511316 c 0.98591,-0.978363 1.79257,-1.921402 1.79257,-2.095646 0,-0.855114 -3.23216,-0.711618 -3.70095,0.164312 -0.3044,0.568791 -0.36876,3.710175 -0.076,3.710175 0.10549,0 0.99846,-0.800478 1.98438,-1.778841 z m -21.61002,-2.39736 c -0.25475,-0.254752 -0.93907,0.209468 -0.93907,0.637029 0,0.40717 0.0464,0.404183 0.53079,-0.03417 0.29193,-0.264197 0.47566,-0.535482 0.40828,-0.602859 z"
         id="path840"
         inkscape:connector-curvature="0" />
      <path
         style="fill:#bad3d9;stroke-width:0.26458332"
         d="m -273.02525,29.076199 c -5.95661,-0.884465 -10.97487,-5.555352 -12.06573,-11.230514 -0.5237,-2.724557 -0.5237,-67.919189 0,-70.643746 0.96422,-5.016339 4.98537,-9.243838 10.359,-10.890592 1.51965,-0.465697 3.96803,-0.486491 57.28229,-0.486491 h 55.69479 l 1.77018,0.61164 c 5.01252,1.731947 8.75247,5.795018 9.6458,10.479166 0.5261,2.758551 0.5261,68.457749 0,71.2163 -0.86846,4.553735 -4.55797,8.619257 -9.50495,10.473636 l -1.64644,0.61717 -55.03334,0.03572 c -30.26833,0.01965 -55.69405,-0.06238 -56.5016,-0.182293 z m 34.45421,-31.9090205 c 0.33773,-0.3056414 0.48385,-0.8126359 0.48385,-1.6787838 0,-2.0590244 -0.10243,-2.0940632 -6.3646,-2.1771688 l -5.40935,-0.071789 -0.0687,-12.4628779 c -0.0677,-12.272242 -0.0772,-12.470552 -0.62309,-12.964582 -0.39583,-0.358225 -0.95097,-0.501706 -1.94114,-0.501706 -2.4432,0 -2.26184,-1.210619 -2.26184,15.098643 v 14.3723913 l 0.58803,0.4118795 c 0.49755,0.3484959 1.70563,0.4118769 7.85052,0.4118769 6.38652,0 7.32085,-0.052816 7.74634,-0.4378828 z m 8.75208,-0.3910753 c 0.42806,-0.5108575 0.46302,-1.6001126 0.46302,-14.4259212 v -13.873339 l -0.64943,-0.649431 c -0.88907,-0.889074 -2.81119,-0.917392 -3.67329,-0.05412 l -0.5945,0.595312 -0.0658,13.714275 c -0.0362,7.542849 0.01,13.9529836 0.10262,14.2447422 0.40652,1.2808347 3.46011,1.5908575 4.41733,0.448482 z m 17.65075,0.4373509 c 0.88998,-0.4602268 0.61498,0.3200056 5.03755,-14.2927671 1.76167,-5.820833 3.26177,-10.761927 3.33355,-10.980208 0.0718,-0.218281 -1.30733,1.031875 -3.06467,2.778125 -3.6165,3.593661 -3.16268,2.677398 -5.43838,10.980208 -1.22856,4.4823588 -1.75856,5.6134631 -2.35215,5.019873 -0.15058,-0.150577 -0.63978,-1.550008 -1.08712,-3.109846 -0.62161,-2.167504 -0.91152,-2.819471 -1.22983,-2.765666 -0.54069,0.0914 -0.73689,-0.682373 -0.7414,-2.924034 -0.005,-2.245929 -3.14626,-13.85942 -3.90384,-14.430584 -1.09815,-0.827939 -3.82646,0.277802 -3.98696,1.615864 -0.0451,0.375914 0.89122,3.81695 2.08069,7.646749 1.18948,3.829798 2.80492,9.106394 3.58987,11.725769 2.33539,7.7932088 2.43567,8.0497038 3.36978,8.6192908 1.01531,0.6191038 3.30427,0.6801856 4.39291,0.1172263 z m 26.60081,-1.7250594 1.83789,-1.8520832 h -4.9322 c -2.71271,0 -5.12053,-0.072268 -5.35071,-0.1605995 -0.35006,-0.1343289 -0.41852,-0.6897687 -0.41852,-3.395485 0,-1.779188 -0.083,-3.317896 -0.18446,-3.419351 -0.10145,-0.101454 -1.11349,0.739111 -2.24896,1.867924 l -2.06449,2.052389 v 3.101914 c 0,2.6750776 0.0637,3.1390245 0.46302,3.3715985 0.27128,0.1580065 2.65727,0.2730182 5.76178,0.2777305 l 5.29876,0.00805 z m -8.86354,-19.4788697 c 0,-3.897268 0.0594,-4.564383 0.41852,-4.702196 0.23018,-0.08833 2.34033,-0.1606 4.68923,-0.1606 h 4.27072 l 1.66077,-1.646002 c 0.91342,-0.905301 1.66076,-1.738738 1.66076,-1.852083 0,-0.319548 -16.08449,-0.25418 -16.68614,0.06781 -0.48971,0.262083 -0.51177,0.641181 -0.51177,8.791556 v 8.51766 l 2.24895,-2.237275 2.24896,-2.237274 z m 7.67868,7.57262 c 0.46087,-0.729533 0.30664,-2.33704 -0.25295,-2.636525 -1.09406,-0.585523 -1.86536,-0.315293 -3.47078,1.216025 -0.85912,0.819454 -1.4911,1.604685 -1.4044,1.744954 0.26565,0.429842 4.83423,0.14079 5.12813,-0.324454 z m -19.06139,-16.09436 c -1.107,-0.1715 -1.39665,0.132736 -1.97214,2.071444 -0.16326,0.549979 0.0337,0.4385 1.1689,-0.661458 1.2023,-1.165019 1.29817,-1.333309 0.80324,-1.409986 z m 34.85895,-10.424276 c 1.20359,-1.197334 2.18834,-2.309317 2.18834,-2.471073 0,-0.449776 -1.22396,-0.908206 -2.42482,-0.908206 -0.8983,0 -1.24747,0.17045 -2.10422,1.027205 -0.8816,0.881602 -1.02721,1.192043 -1.02721,2.190089 0,1.05238 0.55098,2.338956 1.00167,2.338956 0.0978,0 1.16266,-0.979638 2.36624,-2.176971 z"
         id="path838"
         inkscape:connector-curvature="0" />
      <path
         style="fill:#e7b1c7;stroke-width:0.26458332"
         d="m -273.02525,29.076199 c -5.95661,-0.884465 -10.97487,-5.555352 -12.06573,-11.230514 -0.5237,-2.724557 -0.5237,-67.919189 0,-70.643746 0.96422,-5.016339 4.98537,-9.243838 10.359,-10.890592 1.51965,-0.465697 3.96803,-0.486491 57.28229,-0.486491 h 55.69479 l 1.77018,0.61164 c 5.01252,1.731947 8.75247,5.795018 9.6458,10.479166 0.5261,2.758551 0.5261,68.457749 0,71.2163 -0.86846,4.553735 -4.55797,8.619257 -9.50495,10.473636 l -1.64644,0.61717 -55.03334,0.03572 c -30.26833,0.01965 -55.69405,-0.06238 -56.5016,-0.182293 z m 60.72444,-31.6161797 c 0.47477,-0.2252953 0.98388,-0.6744493 1.13136,-0.9981194 0.66066,-1.4500065 8.29902,-26.9679879 8.22379,-27.4738029 -0.20304,-1.365202 -3.33801,-2.387835 -4.21251,-1.374127 -0.23251,0.269529 -1.8201,5.490676 -3.52796,11.60255 -1.70787,6.111875 -3.21397,11.2256093 -3.34689,11.3638541 -0.15258,0.1586997 -0.33567,0.157353 -0.49667,-0.00365 -0.2051,-0.2051024 -2.5361,-8.1890741 -6.27624,-21.4969131 -0.45299,-1.611773 -1.10039,-2.06774 -2.54979,-1.795831 -1.26987,0.238229 -2.29605,1.101302 -2.29605,1.931094 0,0.371673 0.9648,3.786076 2.14399,7.587567 1.1792,3.801488 3.01248,9.790717 4.07397,13.309398 1.06148,3.5186777 2.01598,6.5367638 2.1211,6.7068565 0.60457,0.9782095 3.51655,1.350711 5.0119,0.641125 z m -26.27023,-0.2928408 c 0.33773,-0.3056414 0.48385,-0.8126359 0.48385,-1.6787838 0,-2.0590244 -0.10243,-2.0940632 -6.3646,-2.1771688 l -5.40935,-0.071789 -0.0687,-12.4628779 c -0.0677,-12.272242 -0.0772,-12.470552 -0.62309,-12.964582 -0.39583,-0.358225 -0.95097,-0.501706 -1.94114,-0.501706 -2.4432,0 -2.26184,-1.210619 -2.26184,15.098643 v 14.3723913 l 0.58803,0.4118795 c 0.49755,0.3484959 1.70563,0.4118769 7.85052,0.4118769 6.38652,0 7.32085,-0.052816 7.74634,-0.4378828 z m 8.75208,-0.3910753 c 0.42806,-0.5108575 0.46302,-1.6001126 0.46302,-14.4259212 v -13.873339 l -0.64943,-0.649431 c -0.88907,-0.889074 -2.81119,-0.917392 -3.67329,-0.05412 l -0.5945,0.595312 -0.0658,13.714275 c -0.0362,7.542849 0.01,13.9529836 0.10262,14.2447422 0.40652,1.2808347 3.46011,1.5908575 4.41733,0.448482 z m 48.73448,0.240919 c 0.59034,-0.8428355 0.52911,-2.4697292 -0.11729,-3.1161274 -0.49901,-0.4990068 -0.88195,-0.5291667 -6.71857,-0.5291667 -5.39985,0 -6.20989,-0.053388 -6.35,-0.4185152 -0.31339,-0.8166841 -0.17768,-8.1898199 0.1569,-8.5244009 0.21369,-0.213686 1.41867,-0.3175 3.68527,-0.3175 3.74001,0 4.19932,-0.177604 4.19932,-1.623793 0,-1.729777 -0.18755,-1.81579 -3.95917,-1.81579 -2.74847,0 -3.49216,-0.08079 -3.82714,-0.415774 -0.34034,-0.340337 -0.41578,-1.122818 -0.41578,-4.312709 0,-2.67817 0.0993,-3.996232 0.3175,-4.214433 0.22838,-0.228378 2.01084,-0.3175 6.35,-0.3175 5.67972,0 6.06345,-0.03095 6.56167,-0.529167 0.67261,-0.672616 0.70811,-2.366883 0.0661,-3.15731 -0.45903,-0.5652 -0.53543,-0.569433 -8.88513,-0.492334 -7.98308,0.07372 -8.44168,0.104542 -8.7974,0.59136 -0.31283,0.428122 -0.37528,2.852361 -0.37528,14.567658 0,14.5415684 0.008,14.6545296 1.05834,15.0299257 0.21828,0.078012 4.05129,0.1512385 8.51781,0.1627267 8.10317,0.020849 8.12183,0.019606 8.53281,-0.5671502 z m 11.8138,-36.8633462 c 2.46648,-1.275469 2.36869,-5.29885 -0.15443,-6.353077 -1.8244,-0.762283 -3.59036,-0.177414 -4.63434,1.534859 -1.80834,2.965912 1.64726,6.442757 4.78877,4.818218 z"
         id="path836"
         inkscape:connector-curvature="0" />
      <path
         style="fill:#eb9da5;stroke-width:0.26458332"
         d="m -273.27677,28.821273 c -5.62606,-0.977955 -10.23902,-5.22674 -11.64554,-10.726168 -0.51042,-1.995733 -0.52529,-3.002399 -0.52529,-35.571293 0,-32.568894 0.0149,-33.57556 0.52529,-35.571293 1.22436,-4.787196 4.40569,-8.197512 9.49724,-10.180841 l 1.75143,-0.682239 55.37066,-0.07039 c 61.37074,-0.07802 57.0896,-0.195369 60.61915,1.661602 3.15728,1.661108 5.70758,4.627568 6.9603,8.096094 l 0.6103,1.68978 0.071,34.33379 c 0.0777,37.566108 0.13556,36.007646 -1.46014,39.299872 -1.04672,2.15959 -3.90348,5.07088 -6.11759,6.234361 -3.56694,1.874369 0.7203,1.751055 -59.8297,1.720901 -30.05005,-0.01498 -55.17223,-0.120344 -55.82708,-0.234173 z m 61.12171,-31.2224321 c 0.21991,-0.1151414 0.59632,-0.4287361 0.83648,-0.6968781 0.34444,-0.3845851 7.86958,-24.4479278 8.56719,-27.3955658 0.22045,-0.931455 -0.72771,-1.915041 -2.23813,-2.321753 -1.52828,-0.411522 -2.43527,0.04946 -2.85396,1.450541 -0.17362,0.580986 -1.58622,5.580711 -3.13912,11.110502 -1.5529,5.529792 -2.92889,10.167276 -3.05777,10.3055205 -0.53226,0.5709575 -0.61779,0.3042443 -5.28332,-16.4760425 -1.35359,-4.868373 -1.75003,-5.976678 -2.25658,-6.308582 -1.33627,-0.875556 -4.33608,0.470175 -4.33608,1.945188 0,0.365111 1.02323,3.956166 2.27385,7.980126 1.25061,4.023961 3.0415,9.861846 3.97974,12.9730839 1.95011,6.4666175 2.17825,6.9945273 3.19278,7.3879733 1.48896,0.5774293 3.26369,0.596302 4.31492,0.045887 z m -26.19671,-0.258363 c 0.783,-0.7829946 0.73863,-2.8859769 -0.0771,-3.6522684 -0.57275,-0.5380752 -0.89769,-0.5734791 -5.88698,-0.641432 l -5.28076,-0.071924 -0.13229,-12.4354165 c -0.0728,-6.839479 -0.22662,-12.581008 -0.3419,-12.758956 -0.30675,-0.473475 -2.2761,-0.938798 -3.19522,-0.754976 -0.43658,0.08732 -1.00996,0.354391 -1.27417,0.593498 -0.45286,0.409837 -0.48038,1.256112 -0.48038,14.772517 0,13.3249776 0.0327,14.366269 0.46302,14.7411333 0.25466,0.2218479 0.64162,0.4690269 0.8599,0.5492856 0.21828,0.080261 3.64133,0.1553289 7.60677,0.1668171 6.87202,0.019923 7.23469,-0.00392 7.73906,-0.5082778 z m 8.59896,-0.2833211 c 0.51355,-0.5093149 0.53132,-0.9268009 0.60227,-14.1460078 0.0402,-7.491664 -0.026,-14.007102 -0.14702,-14.478751 -0.17553,-0.683826 -0.43406,-0.932545 -1.27623,-1.22778 -1.15393,-0.404527 -2.59862,-0.257498 -3.42787,0.348863 -0.48302,0.353195 -0.50789,0.9544 -0.58865,14.231352 -0.0559,9.1890876 0.009,14.1073899 0.19176,14.5887464 0.55706,1.465183 3.43121,1.8880903 4.64574,0.6835774 z m 48.81562,0.1291379 c 0.58103,-0.5766435 0.51547,-2.5696306 -0.10715,-3.2576213 -0.48386,-0.5346541 -0.74331,-0.5571067 -6.48229,-0.560996 -3.28805,-0.00212 -6.13022,-0.1004861 -6.31595,-0.2183501 -0.25594,-0.1624277 -0.31999,-1.2341647 -0.26458,-4.4277203 l 0.0731,-4.21342 3.49249,-0.07373 c 3.40855,-0.07196 3.50553,-0.09031 4.0349,-0.763286 0.61832,-0.786064 0.67548,-1.359535 0.23245,-2.331873 -0.38891,-0.853575 -0.69348,-0.919972 -4.58484,-0.99953 l -3.175,-0.06491 -0.0734,-4.099298 c -0.0649,-3.622683 -0.0205,-4.137954 0.3813,-4.431771 0.33275,-0.243308 2.03258,-0.332472 6.33834,-0.332472 6.4243,0 6.50274,-0.01786 6.84088,-1.55737 0.0999,-0.45484 0.01,-1.149691 -0.22033,-1.700646 -0.36033,-0.862407 -0.49639,-0.944973 -1.83222,-1.111872 -2.46422,-0.307885 -15.32276,-0.03227 -15.98726,0.342673 -0.33658,0.189912 -0.65001,0.692367 -0.73993,1.186159 -0.30593,1.680045 -0.0204,28.1933737 0.30716,28.520867 0.65294,0.6528303 2.3429,0.7600606 9.88024,0.6269223 6.42488,-0.1134878 7.87539,-0.207526 8.20208,-0.5317516 z m 12.03495,-37.1248687 c 0.49523,-0.281741 0.98107,-0.91018 1.30163,-1.683652 0.44787,-1.080675 0.47046,-1.370952 0.18172,-2.334707 -0.87988,-2.936774 -4.33939,-3.710294 -6.35038,-1.4199 -0.69939,0.796568 -0.81792,1.139765 -0.81792,2.368355 0,1.229614 0.11833,1.571569 0.82063,2.371444 1.30116,1.481939 3.04665,1.732571 4.86432,0.69846 z"
         id="path834"
         inkscape:connector-curvature="0" />
      <path
         style="fill:#eb6193;stroke-width:0.26458332"
         d="m -245.62781,28.831095 c -26.54309,-0.130128 -28.11672,-0.16397 -29.36875,-0.631635 -4.8568,-1.814134 -7.58985,-4.443229 -9.50173,-9.1403 l -0.81702,-2.007225 v -34.528123 -34.528123 l 0.82933,-2.040229 c 2.06742,-5.086076 6.1935,-8.594729 11.0906,-9.431011 1.00627,-0.171843 21.03817,-0.331651 55.54882,-0.44315 60.00681,-0.193874 56.00177,-0.299674 59.79583,1.579617 3.38147,1.674927 5.71952,4.269806 7.21876,8.011713 l 0.71874,1.793893 v 35.05729 35.05729 l -0.72844,1.819651 c -1.95312,4.87895 -5.88959,8.223921 -10.93639,9.293081 -1.96381,0.416031 -20.72294,0.446739 -83.84975,0.137261 z m 7.42036,-31.3463001 c 0.51943,-0.51943 0.64943,-0.9190619 0.64943,-1.9964002 0,-1.0773383 -0.13,-1.4769702 -0.64943,-1.9964002 -0.64632,-0.6463242 -0.67482,-0.649433 -5.95313,-0.649433 h -5.30369 V -19.40169 c 0,-13.659956 0.0696,-13.140431 -1.83613,-13.711396 -1.2504,-0.374626 -2.77602,-0.123865 -3.47029,0.570407 -0.49686,0.496861 -0.51441,1.004597 -0.51441,14.88363 0,15.1275085 -0.0234,14.8237616 1.19062,15.4877546 0.3461,0.1892988 3.07343,0.2922138 7.88338,0.2974763 l 7.35422,0.00804 0.64943,-0.649433 z m 8.50382,-0.020373 c 0.38282,-0.250526 0.63379,-0.7603569 0.74233,-1.5079821 0.0902,-0.6212231 0.12759,-7.1825108 0.0831,-14.5806418 l -0.0809,-13.451154 -0.61419,-0.497176 c -1.35579,-1.097486 -4.30874,-0.834411 -4.9411,0.440195 -0.4168,0.840127 -0.51471,27.9627214 -0.10376,28.7455361 0.76069,1.4490462 3.32284,1.8928238 4.91448,0.8512149 z m 17.35567,0.3139228 c 0.46827,-0.1957387 1.00582,-0.5421021 1.19456,-0.7696967 0.29096,-0.3508533 7.43815,-23.263147 8.29256,-26.584091 0.41265,-1.603891 0.13907,-2.352363 -1.08879,-2.978769 -1.13784,-0.580485 -2.40165,-0.685062 -3.18867,-0.263858 -0.55963,0.299503 -0.42546,-0.124336 -4.10277,12.96064 -2.44009,8.682545 -2.93641,10.2395676 -3.18483,9.9911503 -0.1954,-0.1954053 -2.76782,-9.1869523 -3.42961,-11.9877573 -0.62946,-2.66397 -2.54657,-9.599067 -2.89725,-10.48073 -0.26025,-0.654293 -1.55181,-1.095703 -2.56643,-0.877114 -1.88796,0.406736 -2.86175,1.257572 -2.86175,2.50042 0,0.306814 1.0179,3.856749 2.26199,7.888748 1.24409,4.032001 3.02591,9.846349 3.9596,12.9207754 0.93369,3.0744265 1.83815,5.8983057 2.00991,6.275284 0.66147,1.4517661 3.67895,2.2086305 5.60148,1.4049983 z m 31.41077,-0.4378669 c 0.79579,-0.7957872 0.73079,-2.732852 -0.12026,-3.5839001 l -0.64944,-0.649433 h -6.06913 c -5.29018,0 -6.08975,-0.053716 -6.22974,-0.4185152 -0.31183,-0.8126254 -0.17744,-7.6608935 0.15691,-7.9952345 0.21372,-0.213725 1.41953,-0.3175 3.68916,-0.3175 3.18424,0 3.39456,-0.03269 3.78354,-0.588039 0.56161,-0.801801 0.51781,-2.133208 -0.095,-2.888379 -0.4877,-0.600999 -0.62222,-0.621459 -3.5565,-0.540943 -4.32833,0.118766 -4.1387,0.309938 -4.1387,-4.172392 0,-2.020268 0.0723,-3.861549 0.16059,-4.091731 0.13999,-0.364799 0.93956,-0.418515 6.22974,-0.418515 h 6.06913 l 0.64944,-0.649433 c 0.95802,-0.958019 0.81467,-3.199627 -0.25008,-3.910579 -0.16011,-0.106912 -3.99576,-0.196209 -8.52366,-0.198437 -7.93123,-0.0039 -8.25807,0.01603 -8.92969,0.544319 l -0.69714,0.54837 v 14.381384 14.3813843 l 0.69714,0.5483701 c 0.67162,0.5282988 1.0009,0.5483701 8.99583,0.5483701 7.94592,0 8.32119,-0.02249 8.82786,-0.5291667 z m 11.88994,-36.9959628 c 3.25326,-1.74474 1.86367,-7.185742 -1.83577,-7.188052 -2.02422,-0.0013 -3.67668,1.47833 -3.87999,3.474103 -0.31281,3.070707 2.95543,5.194329 5.71576,3.713949 z"
         id="path832"
         inkscape:connector-curvature="0" />
      <path
         style="fill:#fb5959;stroke-width:0.26458332"
         d="m -269.83718,28.54159 c -3.01182,-0.10487 -4.69967,-0.280664 -5.44281,-0.566888 -4.52948,-1.744535 -7.64849,-4.807201 -8.98077,-8.818525 -0.28772,-0.866291 -0.6427,-1.66003 -0.78884,-1.763863 -0.37343,-0.265322 -0.36739,-69.477588 0.006,-69.737004 0.14949,-0.103833 0.48033,-0.864957 0.73521,-1.691383 0.93842,-3.042737 3.81525,-6.38449 6.78766,-7.884618 3.37906,-1.705364 -1.10176,-1.573114 59.11939,-1.744883 60.85959,-0.173589 56.86399,-0.278994 60.41728,1.593826 3.26215,1.719365 5.57441,4.260555 6.72899,7.395193 0.27335,0.74213 0.64207,1.635252 0.81938,1.984716 0.44555,0.878155 0.47167,69.871856 0.0267,70.430725 -0.16265,0.204261 -0.49646,0.986885 -0.7418,1.739165 -0.99526,3.051701 -3.89347,6.197708 -7.26349,7.88454 -3.1619,1.582658 -0.43919,1.513851 -56.12503,1.418355 -28.01276,-0.04804 -52.89682,-0.15575 -55.29791,-0.239356 z m 57.90215,-30.6507232 c 0.5476,-0.2793709 1.12233,-0.7859818 1.27717,-1.1258073 0.63237,-1.3879062 8.28942,-26.9338255 8.28942,-27.6556775 0,-1.964568 -3.87109,-3.352101 -5.20389,-1.865257 -0.3568,0.398039 -1.53196,4.168159 -3.54628,11.377083 -1.65695,5.929974 -3.08484,10.78177 -3.17308,10.78177 -0.14376,0 -1.58909,-4.974304 -5.09435,-17.532878 -0.64036,-2.294279 -1.37807,-4.407638 -1.63935,-4.696354 -0.65558,-0.724408 -2.51771,-0.703003 -3.84722,0.04422 -1.9848,1.115525 -2.08679,0.488746 2.54023,15.611461 2.28609,7.4717531 4.30967,13.8330611 4.49683,14.1362366 0.8605,1.3938963 4.0129,1.8881909 5.90052,0.9252002 z m -26.16691,-0.2710471 c 0.28292,-0.2829269 0.59237,-0.9300104 0.68767,-1.4379627 0.1844,-0.9829456 -0.24118,-2.6692144 -0.75837,-3.0048807 -0.17128,-0.1111673 -2.7522,-0.2616544 -5.73538,-0.3344148 l -5.42396,-0.1322917 -0.13878,-12.5677078 c -0.0763,-6.912239 -0.16563,-12.594415 -0.19844,-12.627059 -0.44425,-0.441986 -1.90321,-0.86669 -2.97728,-0.86669 -1.14641,0 -1.47615,0.119737 -2.12981,0.773398 l -0.77339,0.773396 v 14.195913 14.1959141 l 0.77339,0.7733956 0.7734,0.7733982 h 7.69327 c 7.26692,0 7.72178,-0.028509 8.20768,-0.5144082 z m 8.19791,0.1273202 c 0.41171,-0.2128997 0.82251,-0.5798265 0.91291,-0.8153903 0.21469,-0.5594905 0.21469,-28.5209676 0,-29.0804586 -0.6007,-1.565399 -5.15601,-1.565399 -5.75671,0 -0.0904,0.235567 -0.16436,6.837354 -0.16436,14.67064 v 14.24234 l 0.81406,0.6849798 c 0.63694,0.5359558 1.10029,0.6849771 2.1298,0.6849771 0.72367,0 1.6526,-0.1741911 2.0643,-0.387088 z m 49.11116,-0.262345 c 0.84004,-0.8400414 0.91754,-2.9292866 0.14411,-3.8853187 -0.49954,-0.6174925 -0.57733,-0.6261338 -6.81302,-0.7569147 l -6.3077,-0.1322917 -0.0739,-3.6831768 c -0.0454,-2.262984 0.0306,-3.787714 0.19721,-3.954285 0.15754,-0.157544 1.30863,-0.240909 2.74795,-0.199015 2.79631,0.08139 4.53277,-0.277444 4.92946,-1.018656 0.34134,-0.637804 0.34803,-2.276935 0.0119,-2.90509 -0.4147,-0.774878 -1.01351,-0.916329 -4.50527,-1.064252 l -3.30729,-0.140108 -0.0765,-3.307291 c -0.0421,-1.819011 -0.01,-3.575182 0.0712,-3.902604 l 0.14766,-0.595313 h 6.09241 6.0924 l 0.64943,-0.649433 c 0.92985,-0.929846 0.92985,-3.062954 0,-3.9928 l -0.64943,-0.649433 h -8.22725 c -8.61494,0 -9.46703,0.103616 -9.8887,1.202478 -0.0904,0.235567 -0.16435,6.825181 -0.16435,14.643591 0,14.964288 -0.0228,14.6701084 1.19062,15.3338236 0.35024,0.1915636 3.32899,0.2921503 8.80942,0.2974763 l 8.28026,0.00804 0.64943,-0.649433 z m 11.96279,-36.9199699 c 2.68023,-1.634159 2.56849,-5.715 -0.19673,-7.18444 -1.94034,-1.031099 -4.1457,-0.385704 -5.48794,1.60604 -1.18298,1.755428 -0.47643,4.402206 1.47763,5.5353 1.24881,0.724138 3.05962,0.74269 4.20704,0.0431 z"
         id="path830"
         inkscape:connector-curvature="0" />
      <path
         style="fill:#fb0157;stroke-width:0.26458332"
         d="m -217.52865,28.658729 c -0.25102,-0.25101 -0.23829,-31.0561575 0.0128,-31.0442909 0.10914,0.00516 0.49609,0.1795304 0.85989,0.3874981 0.85629,0.4895003 3.46955,0.5020046 4.61813,0.022093 0.49333,-0.2061289 1.06913,-0.6526132 1.27954,-0.9921874 0.21043,-0.3395768 2.25659,-6.7802042 4.54703,-14.3125058 4.04555,-13.304109 4.15188,-13.714255 3.72466,-14.366276 -1.03788,-1.584005 -4.03733,-2.312437 -5.10738,-1.240356 -0.28198,0.282517 -1.64621,4.679209 -3.48908,11.244791 -1.66435,5.929498 -3.10618,10.7809 -3.20409,10.7809 -0.0979,0 -0.87929,-2.411015 -1.73643,-5.357812 l -1.55843,-5.357812 v -21.034374 -21.034374 h 27.38438 c 21.24043,0 27.70517,0.07554 28.81423,0.336686 4.5846,1.079525 8.84319,4.883482 10.2311,9.138873 0.24618,0.754795 0.58067,1.539483 0.74332,1.74375 0.2145,0.269393 0.29572,9.868418 0.29572,34.95048 0,25.0820625 -0.0812,34.681087 -0.29572,34.95048 -0.16265,0.204267 -0.49714,0.988955 -0.74332,1.74375 -1.34516,4.124314 -5.40782,7.846859 -9.94853,9.115655 -0.90175,0.251973 -7.73292,0.352049 -28.71275,0.420642 -15.14122,0.0495 -27.61302,0.0065 -27.7151,-0.09561 z m 36.78136,-31.1198136 c 1.13085,-1.2313522 0.89799,-3.70795 -0.41469,-4.4104743 -0.33737,-0.1805569 -2.7338,-0.2858796 -6.50469,-0.2858796 h -5.97052 v -3.9687495 -3.96875 h 3.02549 c 1.66401,0 3.33665,-0.118306 3.71696,-0.262901 0.9954,-0.378452 1.5783,-1.883134 1.18783,-3.066258 -0.49673,-1.505128 -1.02835,-1.697924 -4.68186,-1.697924 h -3.24842 v -3.96875 -3.96875 h 6.02655 c 6.70824,0 6.91544,-0.04794 7.47008,-1.728515 0.34137,-1.034351 0.0676,-2.225151 -0.70865,-3.082951 -0.40267,-0.444944 -1.06026,-0.4802 -8.95685,-0.4802 -8.22112,0 -8.5469,0.01937 -9.2194,0.54837 l -0.69714,0.54837 v 14.645967 14.6459677 l 0.69714,0.5483701 c 0.67248,0.5289761 0.99835,0.5483701 9.21429,0.5483701 8.49423,0 8.51863,-0.00159 9.06388,-0.5953125 z m 11.75098,-36.8655904 c 0.38285,-0.195529 0.99676,-0.712837 1.36425,-1.149577 2.09175,-2.485901 0.10102,-6.633268 -3.18396,-6.633268 -2.20565,0 -3.89672,1.31949 -4.21649,3.289993 -0.58306,3.592973 2.82757,6.131565 6.0362,4.492852 z"
         id="path828"
         inkscape:connector-curvature="0" />
    </g>
  </g>
</svg>
