<svg width="29" height="29" viewBox="0 0 29 29" fill="none" xmlns="http://www.w3.org/2000/svg">
<g clip-path="url(#clip0)">
<path d="M14.4997 24.1668C19.8385 24.1668 24.1663 19.839 24.1663 14.5002C24.1663 9.16131 19.8385 4.8335 14.4997 4.8335C9.16082 4.8335 4.83301 9.16131 4.83301 14.5002C4.83914 19.8364 9.16342 24.1607 14.4997 24.1668ZM5.79967 14.5002C5.80227 13.808 5.88794 13.1186 6.05456 12.4467L10.0678 15.8267L8.38957 20.6844C6.73188 19.0536 5.79897 16.8255 5.79967 14.5002ZM16.4453 11.0819C16.5137 11.2417 16.6626 11.3524 16.8354 11.3717L22.0282 11.9549L18.0551 15.3014C17.9021 15.4302 17.8443 15.6398 17.9094 15.8289L19.5515 20.5815L14.617 19.3479C14.54 19.3288 14.4593 19.3288 14.3824 19.3479L9.4478 20.5815L11.0899 15.8289C11.155 15.6398 11.0972 15.4302 10.9443 15.3014L6.97119 11.9549L12.164 11.3717C12.3367 11.3524 12.4856 11.2417 12.5541 11.0819L14.4997 6.54357L16.4453 11.0819ZM9.45653 21.5758L14.4997 20.315L19.5428 21.5758C16.5295 23.7416 12.4698 23.7416 9.45653 21.5758ZM20.6098 20.6844L18.9316 15.8267L22.9448 12.4467C23.6828 15.4123 22.7942 18.5471 20.6098 20.6844ZM22.4742 11.0323L17.2229 10.4426L15.249 5.83816C18.4265 6.11641 21.1981 8.10898 22.4742 11.0323ZM13.7504 5.83816L11.7764 10.4426L6.52515 11.0323C7.80121 8.10898 10.5728 6.11641 13.7504 5.83816Z" fill="black"/>
<path d="M2.4165 14.5003C2.4165 21.1738 7.82639 26.5837 14.4998 26.5837C21.1733 26.5837 26.5832 21.1738 26.5832 14.5003C26.5832 7.82688 21.1733 2.41699 14.4998 2.41699C7.82946 2.42454 2.42406 7.82995 2.4165 14.5003ZM14.4998 3.38366C20.6394 3.38366 25.6165 8.36072 25.6165 14.5003C25.6165 20.6399 20.6394 25.617 14.4998 25.617C8.36023 25.617 3.38317 20.6399 3.38317 14.5003C3.39025 8.36355 8.36306 3.39074 14.4998 3.38366Z" fill="black"/>
<path d="M12.8968 17.3752L14.0419 17.7568C14.0277 17.7976 14.019 17.8401 14.0164 17.8833V18.3666C14.0164 18.6336 14.2328 18.85 14.4997 18.85C14.7667 18.85 14.9831 18.6336 14.9831 18.3666V18.0707L15.7968 18.3419C15.9443 18.3909 16.1062 18.3662 16.2322 18.2753C16.3583 18.1844 16.4331 18.0386 16.4331 17.8833V15.4666C16.4331 15.2587 16.3 15.0739 16.1027 15.0081L13.5331 14.1516V12.2705L15.4664 12.915V13.5333C15.4664 13.8002 15.6828 14.0166 15.9497 14.0166C16.2167 14.0166 16.4331 13.8002 16.4331 13.5333V12.5666C16.4331 12.3587 16.3 12.1739 16.1027 12.1081L14.9831 11.735V11.1166C14.9831 10.8497 14.7667 10.6333 14.4997 10.6333C14.2328 10.6333 14.0164 10.8497 14.0164 11.1166V11.4126L13.2027 11.1414C13.0552 11.0923 12.8933 11.1171 12.7672 11.208C12.6412 11.2988 12.5664 11.4447 12.5664 11.6V14.5C12.5664 14.7079 12.6995 14.8927 12.8968 14.9585L15.4664 15.815V17.2128L13.5331 16.5683V16.4333C13.5331 16.1664 13.3167 15.95 13.0497 15.95C12.7828 15.95 12.5664 16.1664 12.5664 16.4333V16.9166C12.5664 17.1246 12.6995 17.3093 12.8968 17.3752Z" fill="black"/>
<path d="M0.483333 3.86667C1.81746 3.86832 2.89835 4.94921 2.9 6.28333C2.9 6.55025 3.11641 6.76667 3.38333 6.76667C3.65025 6.76667 3.86667 6.55025 3.86667 6.28333C3.86832 4.94921 4.94921 3.86832 6.28333 3.86667C6.55025 3.86667 6.76667 3.65025 6.76667 3.38333C6.76667 3.11641 6.55025 2.9 6.28333 2.9C4.94921 2.89835 3.86832 1.81746 3.86667 0.483333C3.86667 0.216414 3.65025 0 3.38333 0C3.11641 0 2.9 0.216414 2.9 0.483333C2.89835 1.81746 1.81746 2.89835 0.483333 2.9C0.216414 2.9 0 3.11641 0 3.38333C0 3.65025 0.216414 3.86667 0.483333 3.86667ZM3.38333 2.22456C3.6696 2.69916 4.0675 3.09706 4.54211 3.38333C4.0675 3.6696 3.6696 4.0675 3.38333 4.54211C3.09706 4.0675 2.69916 3.6696 2.22456 3.38333C2.69916 3.09706 3.09706 2.69916 3.38333 2.22456Z" fill="black"/>
<path d="M25.6167 22.2334C25.3498 22.2334 25.1334 22.4498 25.1334 22.7167C25.1317 24.0509 24.0509 25.1317 22.7167 25.1334C22.4498 25.1334 22.2334 25.3498 22.2334 25.6167C22.2334 25.8837 22.4498 26.1001 22.7167 26.1001C24.0509 26.1017 25.1317 27.1826 25.1334 28.5167C25.1334 28.7837 25.3498 29.0001 25.6167 29.0001C25.8836 29.0001 26.1001 28.7837 26.1001 28.5167C26.1017 27.1826 27.1826 26.1017 28.5167 26.1001C28.7836 26.1001 29.0001 25.8837 29.0001 25.6167C29.0001 25.3498 28.7836 25.1334 28.5167 25.1334C27.1826 25.1317 26.1017 24.0509 26.1001 22.7167C26.1001 22.4498 25.8836 22.2334 25.6167 22.2334ZM26.7755 25.6167C26.3009 25.903 25.903 26.3009 25.6167 26.7755C25.3305 26.3009 24.9326 25.903 24.458 25.6167C24.9326 25.3305 25.3305 24.9326 25.6167 24.458C25.903 24.9326 26.3009 25.3305 26.7755 25.6167Z" fill="black"/>
</g>
<defs>
<clipPath id="clip0">
<rect width="29" height="29" fill="white"/>
</clipPath>
</defs>
</svg>
