<svg width="31" height="31" viewBox="0 0 31 31" fill="none" xmlns="http://www.w3.org/2000/svg">
<g clip-path="url(#clip0)">
<path d="M21.918 9.99023C22.4196 9.99023 22.8262 9.58362 22.8262 9.08203C22.8262 8.58044 22.4196 8.17383 21.918 8.17383C21.4164 8.17383 21.0098 8.58044 21.0098 9.08203C21.0098 9.58362 21.4164 9.99023 21.918 9.99023Z" fill="black"/>
<path d="M18.4106 6.48291C18.9122 6.48291 19.3188 6.07629 19.3188 5.57471C19.3188 5.07312 18.9122 4.6665 18.4106 4.6665C17.9091 4.6665 17.5024 5.07312 17.5024 5.57471C17.5024 6.07629 17.9091 6.48291 18.4106 6.48291Z" fill="black"/>
<path d="M25.4253 13.4976C25.9269 13.4976 26.3335 13.0909 26.3335 12.5894C26.3335 12.0878 25.9269 11.6812 25.4253 11.6812C24.9237 11.6812 24.5171 12.0878 24.5171 12.5894C24.5171 13.0909 24.9237 13.4976 25.4253 13.4976Z" fill="black"/>
<path d="M28.2763 0H15.5615C14.0591 0 12.8369 1.22226 12.8369 2.72461V7.81012C12.4888 7.6527 12.1084 7.56921 11.715 7.56921C10.9872 7.56921 10.303 7.85263 9.78838 8.36728L0.797652 17.3581C-0.264582 18.4204 -0.264582 20.1489 0.797652 21.2113L9.78844 30.202C10.303 30.7166 10.9873 31.0001 11.715 31.0001C12.4428 31.0001 13.127 30.7166 13.6416 30.202L22.6324 21.2113C23.4548 20.3887 23.64 19.167 23.1887 18.1641H28.2763C29.7787 18.1641 31.0009 16.9419 31.0009 15.4395V2.72461C31.0009 1.22226 29.7787 0 28.2763 0V0ZM21.3479 19.9268L12.3572 28.9175C12.1857 29.0891 11.9576 29.1836 11.715 29.1836C11.4724 29.1836 11.2444 29.0891 11.0728 28.9175L2.08203 19.9268C1.72789 19.5727 1.72789 18.9965 2.08203 18.6424L11.0728 9.65166C11.2444 9.48013 11.4724 9.38561 11.715 9.38561C11.9576 9.38561 12.1857 9.48013 12.3572 9.65166L21.3479 18.6424C21.7021 18.9965 21.7021 19.5727 21.3479 19.9268ZM29.1845 15.4395C29.1845 15.9402 28.7771 16.3477 28.2763 16.3477H21.622L14.6533 9.37901V2.72461C14.6533 2.22383 15.0607 1.81641 15.5615 1.81641H28.2763C28.7771 1.81641 29.1845 2.22383 29.1845 2.72461V15.4395Z" fill="black"/>
<path d="M12.3564 15.6978C12.858 15.6978 13.2646 15.2911 13.2646 14.7895C13.2646 14.288 12.858 13.8813 12.3564 13.8813C11.8549 13.8813 11.4482 14.288 11.4482 14.7895C11.4482 15.2911 11.8549 15.6978 12.3564 15.6978Z" fill="black"/>
<path d="M7.21875 20.835C7.72034 20.835 8.12696 20.4283 8.12696 19.9268C8.12696 19.4252 7.72034 19.0186 7.21875 19.0186C6.71716 19.0186 6.31055 19.4252 6.31055 19.9268C6.31055 20.4283 6.71716 20.835 7.21875 20.835Z" fill="black"/>
<path d="M9.78711 18.2661C10.2887 18.2661 10.6953 17.8595 10.6953 17.3579C10.6953 16.8563 10.2887 16.4497 9.78711 16.4497C9.28552 16.4497 8.87891 16.8563 8.87891 17.3579C8.87891 17.8595 9.28552 18.2661 9.78711 18.2661Z" fill="black"/>
<path d="M16.2095 19.5508C16.7111 19.5508 17.1177 19.1442 17.1177 18.6426C17.1177 18.141 16.7111 17.7344 16.2095 17.7344C15.7079 17.7344 15.3013 18.141 15.3013 18.6426C15.3013 19.1442 15.7079 19.5508 16.2095 19.5508Z" fill="black"/>
<path d="M11.0723 24.688C11.5739 24.688 11.9805 24.2814 11.9805 23.7798C11.9805 23.2782 11.5739 22.8716 11.0723 22.8716C10.5707 22.8716 10.1641 23.2782 10.1641 23.7798C10.1641 24.2814 10.5707 24.688 11.0723 24.688Z" fill="black"/>
<path d="M13.6406 22.1191C14.1422 22.1191 14.5488 21.7125 14.5488 21.2109C14.5488 20.7094 14.1422 20.3027 13.6406 20.3027C13.139 20.3027 12.7324 20.7094 12.7324 21.2109C12.7324 21.7125 13.139 22.1191 13.6406 22.1191Z" fill="black"/>
</g>
<defs>
<clipPath id="clip0">
<rect width="31" height="31" fill="white"/>
</clipPath>
</defs>
</svg>
