<svg width="23" height="23" viewBox="0 0 23 23" fill="none" xmlns="http://www.w3.org/2000/svg">
<g clip-path="url(#clip0)">
<path d="M5.63348 22.1047C5.3973 22.1047 5.16277 22.0311 4.96261 21.8863C4.58976 21.6161 4.41558 21.1516 4.51706 20.7034L5.90387 14.5945L1.20068 10.4699C0.854965 10.1681 0.722896 9.69019 0.864834 9.25287C1.00677 8.81636 1.39295 8.50732 1.85017 8.46506L8.07307 7.9001L10.5334 2.14249C10.7148 1.71947 11.1279 1.44629 11.587 1.44629C12.046 1.44629 12.4592 1.71947 12.6406 2.1415L15.1009 7.9001L21.3228 8.46506C21.781 8.50634 22.1672 8.81636 22.3091 9.25287C22.4511 9.68937 22.3198 10.1681 21.9741 10.4699L17.2709 14.5937L18.6577 20.7025C18.7594 21.1516 18.585 21.6161 18.2123 21.8855C17.8405 22.1549 17.3446 22.1756 16.953 21.9403L11.587 18.7336L6.22097 21.9421C6.03956 22.0498 5.83743 22.1047 5.63348 22.1047ZM11.587 17.3522C11.7909 17.3522 11.9929 17.407 12.1745 17.5147L17.2387 20.5436L15.9298 14.7778C15.8364 14.3674 15.9757 13.939 16.2928 13.6613L20.7337 9.76667L14.8583 9.23313C14.4353 9.19448 14.0715 8.92853 13.9062 8.53874L11.587 3.1053L9.26499 8.53956C9.1015 8.92672 8.73769 9.19267 8.31566 9.23132L2.43947 9.76486L6.88017 13.6595C7.19825 13.938 7.33739 14.3656 7.24315 14.7769L5.93529 20.5426L10.9995 17.5147C11.1809 17.407 11.383 17.3522 11.587 17.3522ZM8.02554 8.01145C8.02554 8.01145 8.02554 8.01243 8.02455 8.01326L8.02554 8.01145ZM15.1466 8.00881L15.1476 8.01062C15.1476 8.00964 15.1476 8.00964 15.1466 8.00881Z" fill="white"/>
</g>
<defs>
<clipPath id="clip0">
<rect width="21.5569" height="21.5569" fill="white" transform="translate(0.808594 0.982422)"/>
</clipPath>
</defs>
</svg>
