<svg width="30" height="30" viewBox="0 0 30 30" fill="none" xmlns="http://www.w3.org/2000/svg">
<path d="M27.0596 17.7804C26.8254 17.1998 26.1659 16.9191 25.5866 17.154C25.0073 17.3888 24.7275 18.0498 24.9617 18.6305L26.2942 21.9345L22.3368 20.1857C22.0503 20.0592 21.7243 20.0572 21.4364 20.1804C20.084 20.7588 18.6351 21.0521 17.1302 21.0521C11.0733 21.0521 7.00448 16.2982 7.00448 11.8581C7.00448 6.78859 11.5469 2.6642 17.1302 2.6642C22.7135 2.6642 27.2559 6.78859 27.2559 11.8581C27.2559 12.2537 27.2191 12.7273 27.1552 13.1574C27.063 13.7769 27.4892 14.354 28.1072 14.4465C28.7253 14.5391 29.301 14.1116 29.3931 13.4921C29.4741 12.9483 29.5186 12.368 29.5186 11.8581C29.5186 8.77735 28.2172 5.88664 25.854 3.71852C23.5187 1.57597 20.4205 0.395996 17.1302 0.395996C13.8398 0.395996 10.7417 1.57597 8.40641 3.71846C6.29461 5.65596 5.03155 8.17072 4.78655 10.8823C2.13028 12.6456 0.555702 15.4712 0.555702 18.5147C0.555702 20.4159 1.15323 22.2198 2.29065 23.7722L0.638178 27.8699C0.465589 28.2978 0.568939 28.7879 0.89958 29.1091C1.11505 29.3186 1.39896 29.4291 1.68729 29.4291C1.84133 29.429 1.99666 29.3976 2.1434 29.3327L6.90809 27.2272C8.10666 27.6745 9.37361 27.9009 10.6814 27.9009C10.7096 27.9009 10.7374 27.8987 10.7652 27.8966C12.6567 27.8823 14.4955 27.3836 16.0882 26.4502C17.5147 25.6142 18.6881 24.4657 19.5108 23.1093C20.314 22.9648 21.0991 22.7463 21.8611 22.4543L27.9309 25.1365C28.0777 25.2013 28.233 25.2329 28.387 25.2329C28.6753 25.2328 28.9593 25.1224 29.1748 24.913C29.5054 24.5917 29.6088 24.1016 29.4362 23.6737L27.0596 17.7804ZM10.6815 25.6298C10.666 25.6298 10.651 25.6315 10.6357 25.6321C9.48042 25.6262 8.36851 25.3986 7.33009 24.9545C7.04221 24.8313 6.71621 24.8332 6.42975 24.9599L3.78026 26.1306L4.63495 24.0112C4.79295 23.6195 4.72048 23.1721 4.44703 22.8505C3.38157 21.5975 2.81843 20.0982 2.81843 18.5147C2.81843 16.7023 3.57899 14.9851 4.9097 13.6831C5.32401 15.947 6.49299 18.1127 8.25639 19.814C10.4507 21.931 13.3532 23.1574 16.4874 23.305C15.016 24.757 12.9103 25.6298 10.6815 25.6298Z" fill="white"/>
</svg>
