<svg width="27" height="27" viewBox="0 0 27 27" fill="none" xmlns="http://www.w3.org/2000/svg">
<g clip-path="url(#clip0)">
<path d="M13.313 4.61523C7.44002 4.61523 2.37827 8.07885 0.0530713 13.0771C-0.0183415 13.2285 -0.0183415 13.4057 0.0530713 13.56C2.37827 18.5583 7.44004 22.0219 13.313 22.0219C19.186 22.0219 24.2477 18.5583 26.5729 13.56C26.6444 13.4086 26.6444 13.2314 26.5729 13.0771C24.2477 8.07885 19.186 4.61523 13.313 4.61523ZM13.313 19.3242C9.9966 19.3242 7.31147 16.635 7.31147 13.32C7.31147 10.0021 9.99945 7.31582 13.313 7.31582C16.6294 7.31582 19.3145 10.005 19.3145 13.32C19.3145 16.635 16.6266 19.3242 13.313 19.3242Z" fill="#ACACAC"/>
<path d="M13.3103 17.161C15.4322 17.161 17.1523 15.4402 17.1523 13.3173C17.1523 11.1945 15.4322 9.47363 13.3103 9.47363C11.1884 9.47363 9.46826 11.1945 9.46826 13.3173C9.46826 15.4402 11.1884 17.161 13.3103 17.161Z" fill="#ACACAC"/>
</g>
<defs>
<clipPath id="clip0">
<rect width="26.627" height="26.6387" fill="white"/>
</clipPath>
</defs>
</svg>
