<svg width="25" height="27" viewBox="0 0 25 27" fill="none" xmlns="http://www.w3.org/2000/svg">
<rect width="25" height="27" rx="4" fill="#E7E7E7"/>
<path d="M20.4453 18.3398C20.2296 18.3398 20.0547 18.5235 20.0547 18.75V22.7695C20.0547 22.9957 19.8794 23.1797 19.6641 23.1797H6.22754C6.01215 23.1797 5.83692 22.9957 5.83692 22.7695V15.3457C5.83692 15.1192 5.66203 14.9355 5.44629 14.9355C5.23055 14.9355 5.05566 15.1192 5.05566 15.3457V22.7695C5.05566 23.448 5.58137 24 6.22754 24H19.6641C20.3102 24 20.8359 23.448 20.8359 22.7695V18.75C20.8359 18.5235 20.661 18.3398 20.4453 18.3398Z" fill="black"/>
<path d="M21.9787 10.676C21.6432 10.3237 21.2526 10.0641 20.836 9.8954V7.42924C20.8357 7.4292 20.8353 7.42916 20.835 7.42916C20.835 7.32248 20.7962 7.21764 20.7216 7.13922L16.8939 3.12018C16.8192 3.04175 16.7193 3.00111 16.6177 3.00107C16.6177 3.0007 16.6177 3.00037 16.6177 3H6.22754C5.58137 3 5.05566 3.55199 5.05566 4.23047V11.873C5.05566 12.0996 5.23055 12.2832 5.44629 12.2832C5.66203 12.2832 5.83692 12.0996 5.83692 11.873V4.23043C5.83692 4.00427 6.01215 3.82027 6.22754 3.82027H16.2271V6.60893C16.2271 7.28741 16.7528 7.8394 17.3989 7.8394H20.0547V9.68978C19.078 9.56227 18.0572 9.89035 17.3089 10.676L11.7417 16.5216C11.5892 16.6817 11.5892 16.9414 11.7417 17.1017C11.8942 17.2618 12.1416 17.2618 12.2942 17.1017L17.8614 11.2561C18.8442 10.2241 20.4435 10.2241 21.4263 11.2561C22.4092 12.288 22.4092 13.9672 21.4263 14.9992L16.205 20.4816C15.5921 21.1251 14.5949 21.1251 13.982 20.4816C13.6851 20.1699 13.5216 19.7554 13.5216 19.3145C13.5216 18.8737 13.6851 18.4592 13.982 18.1475L19.2287 12.6384C19.3444 12.517 19.4981 12.4501 19.6616 12.4501C19.8251 12.4501 19.9789 12.517 20.0945 12.6384C20.2101 12.7598 20.2738 12.9212 20.2738 13.0929C20.2738 13.2646 20.2101 13.4261 20.0945 13.5475L15.3658 18.5125C15.2133 18.6727 15.2133 18.9324 15.3658 19.0926C15.5184 19.2527 15.7657 19.2527 15.9183 19.0926L20.6469 14.1275C20.9101 13.8512 21.0551 13.4837 21.0551 13.0929C21.0551 12.7021 20.9101 12.3347 20.6469 12.0584C20.3838 11.782 20.0338 11.6298 19.6616 11.6298C19.2894 11.6298 18.9395 11.782 18.6763 12.0583L13.4296 17.5674C12.5121 18.5308 12.5121 20.0983 13.4296 21.0616C13.8884 21.5434 14.4908 21.7842 15.0935 21.7841C15.696 21.7841 16.2987 21.5432 16.7574 21.0616L21.9787 15.5792C23.2662 14.2274 23.2662 12.0278 21.9787 10.676ZM17.3989 7.01909C17.1835 7.01909 17.0083 6.83509 17.0083 6.60893V4.4004L19.5023 7.01909H17.3989Z" fill="black"/>
<path d="M5.72246 13.3414C5.64981 13.2651 5.54902 13.2212 5.44629 13.2212C5.34316 13.2212 5.24277 13.2651 5.16973 13.3414C5.09707 13.4177 5.05566 13.5235 5.05566 13.6313C5.05566 13.7392 5.09707 13.845 5.16973 13.9213C5.24277 13.998 5.34316 14.0415 5.44629 14.0415C5.54902 14.0415 5.64981 13.998 5.72246 13.9213C5.79512 13.845 5.83692 13.7392 5.83692 13.6313C5.83692 13.5235 5.79512 13.4177 5.72246 13.3414Z" fill="black"/>
<path d="M11.1465 17.9445L11.1388 17.9194C11.0722 17.704 10.8518 17.586 10.6466 17.6559C10.4414 17.7258 10.329 17.9572 10.3956 18.1726L10.4034 18.1977C10.457 18.3711 10.6101 18.4814 10.7749 18.4814C10.8148 18.4814 10.8555 18.4748 10.8955 18.4612C11.1007 18.3913 11.2131 18.1599 11.1465 17.9445Z" fill="black"/>
</svg>
