<svg width="25" height="27" viewBox="0 0 25 27" fill="none" xmlns="http://www.w3.org/2000/svg">
<rect width="25" height="27" rx="4" fill="#E7E7E7"/>
<g clip-path="url(#clip0)">
<path d="M13.0001 7.44448C14.2274 7.44448 15.2223 6.44955 15.2223 5.22224C15.2223 3.99493 14.2274 3 13.0001 3C11.7728 3 10.7778 3.99493 10.7778 5.22224C10.7778 6.44955 11.7728 7.44448 13.0001 7.44448Z" fill="black"/>
<path d="M13.0001 15.2223C14.2274 15.2223 15.2223 14.2274 15.2223 13.0001C15.2223 11.7728 14.2274 10.7778 13.0001 10.7778C11.7728 10.7778 10.7778 11.7728 10.7778 13.0001C10.7778 14.2274 11.7728 15.2223 13.0001 15.2223Z" fill="black"/>
<path d="M13.0001 23.0001C14.2274 23.0001 15.2223 22.0052 15.2223 20.7779C15.2223 19.5506 14.2274 18.5557 13.0001 18.5557C11.7728 18.5557 10.7778 19.5506 10.7778 20.7779C10.7778 22.0052 11.7728 23.0001 13.0001 23.0001Z" fill="black"/>
</g>
<defs>
<clipPath id="clip0">
<rect width="20" height="20" fill="white" transform="translate(3 3)"/>
</clipPath>
</defs>
</svg>
