<svg width="23" height="23" viewBox="0 0 23 23" fill="none" xmlns="http://www.w3.org/2000/svg">
<path d="M19.6317 3.36827C17.4596 1.19619 14.5717 0 11.5 0C8.42828 0 5.54034 1.19619 3.36827 3.36827C1.19619 5.54034 0 8.42823 0 11.5C0 14.5718 1.19619 17.4597 3.36827 19.6317C5.54034 21.8038 8.42823 23 11.5 23C14.5718 23 17.4597 21.8038 19.6317 19.6317C21.8038 17.4597 23 14.5718 23 11.5C23 8.42823 21.8038 5.54034 19.6317 3.36827ZM18.6787 18.6787C16.7612 20.5963 14.2117 21.6522 11.5 21.6522C8.78825 21.6522 6.23877 20.5962 4.32128 18.6787C2.40375 16.7612 1.34772 14.2118 1.34772 11.5C1.34772 8.78825 2.40375 6.23877 4.32124 4.32128C6.23873 2.40379 8.78825 1.34772 11.5 1.34772C14.2118 1.34772 16.7612 2.40375 18.6787 4.32124C20.5962 6.23873 21.6522 8.78821 21.6522 11.5C21.6523 14.2118 20.5963 16.7612 18.6787 18.6787Z" fill="black"/>
<path d="M7.23204 9.05915C7.75226 9.05915 8.17544 9.48233 8.17544 10.0026H9.52316C9.52316 8.7392 8.49539 7.71143 7.23204 7.71143C5.96869 7.71143 4.94092 8.7392 4.94092 10.0026H6.28864C6.28864 9.48233 6.71182 9.05915 7.23204 9.05915Z" fill="black"/>
<path d="M15.7682 7.71143C14.5049 7.71143 13.4771 8.7392 13.4771 10.0026H14.8248C14.8248 9.48233 15.248 9.05915 15.7682 9.05915C16.2883 9.05915 16.7116 9.48233 16.7116 10.0026H18.0593C18.0593 8.7392 17.0315 7.71143 15.7682 7.71143Z" fill="black"/>
<path d="M5.5918 13.3936C5.5918 16.6517 8.24245 19.3023 11.5006 19.3023C14.7587 19.3023 17.4093 16.6517 17.4093 13.3936V12.7197H5.5918V13.3936ZM11.5006 17.9546C10.1598 17.9546 8.95283 17.3726 8.11756 16.4486H14.8835C14.0483 17.3726 12.8414 17.9546 11.5006 17.9546ZM16.012 14.0674C15.9585 14.4274 15.862 14.7733 15.7293 15.1008H7.27186C7.13916 14.7733 7.04271 14.4273 6.98916 14.0674H16.012Z" fill="black"/>
</svg>
