<svg width="121" height="121" viewBox="0 0 121 121" fill="none" xmlns="http://www.w3.org/2000/svg">
<path d="M43.1689 94.8862L46.2516 92.7385L48.4134 95.8414L45.3307 97.9891L43.1689 94.8862Z" fill="#F0F0F0"/>
<path d="M50.0293 90.1055L75.7695 72.172L77.9313 75.2748L52.1911 93.2083L50.0293 90.1055Z" fill="#F0F0F0"/>
<path d="M114.128 27.5804C113.5 25.3892 112.625 23.2793 111.517 21.2809L114.213 16.9268L104.073 6.78734L99.7191 9.48337C97.7207 8.37547 95.6108 7.50011 93.4196 6.87242L92.2474 1.89062H77.9089L76.7367 6.87242C74.5455 7.50011 72.4355 8.37547 70.4371 9.48337L66.083 6.78734L55.9436 16.9268L58.6396 21.2809C57.5317 23.2793 56.6564 25.3892 56.0287 27.5804L51.0469 28.7526V32.3751C50.1526 32.6 49.298 32.9801 48.5588 33.5359L35.7952 43.1062C35.47 43.3501 35.0673 43.4844 34.6608 43.4844H30.0401C32.4998 41.0795 34.0312 37.7331 34.0312 34.0312C34.0312 26.7353 28.0928 20.7969 20.7969 20.7969C13.501 20.7969 7.5625 26.7353 7.5625 34.0312C7.5625 38.357 9.65731 42.1912 12.877 44.6074C6.46594 47.0482 1.89062 53.2419 1.89062 60.5V75.625V111.547C1.89062 115.718 5.28241 119.109 9.45312 119.109H119.109V43.0911V39.7031V28.7526L114.128 27.5804ZM11.3438 34.0312C11.3438 28.8188 15.5844 24.5781 20.7969 24.5781C26.0093 24.5781 30.25 28.8188 30.25 34.0312C30.25 39.2437 26.0093 43.4844 20.7969 43.4844C15.5844 43.4844 11.3438 39.2437 11.3438 34.0312ZM5.67188 60.5C5.67188 53.2041 11.6103 47.2656 18.9062 47.2656H34.6608C35.8822 47.2656 37.0903 46.861 38.064 46.1294L50.8257 36.559C51.3758 36.1488 52.0546 35.9219 52.7409 35.9219H53.5312C55.2875 35.9219 56.7188 37.3531 56.7188 39.1114C56.7188 40.102 56.2707 41.019 55.488 41.6278L43.5052 50.9486C41.8565 52.2304 39.7958 52.9375 37.701 52.9375H22.6875V73.7344H30.25C33.3771 73.7344 35.9219 76.2792 35.9219 79.4062V96.42C35.9219 98.5072 34.226 100.203 32.1387 100.203C31.1291 100.203 30.1782 99.8099 29.4635 99.0952C28.7507 98.3806 28.3575 97.4315 28.3575 96.4219L28.3594 85.0781C28.3594 82.9928 26.6635 81.2969 24.5781 81.2969H11.3438C8.21666 81.2969 5.67188 78.7521 5.67188 75.625V60.5ZM30.25 69.9531H26.4688V56.7188H37.701C40.6314 56.7188 43.5165 55.73 45.8269 53.9301L56.4767 45.6472C57.0534 47.345 57.7662 48.9918 58.6396 50.5629L55.9436 54.917L66.083 65.0564L70.4371 62.3604C71.6263 63.0202 72.8666 63.5685 74.1295 64.06L39.7031 88.0237V79.4062C39.7031 74.1938 35.4625 69.9531 30.25 69.9531ZM17.0156 85.0781H24.5781L24.5762 96.4181V96.42C24.5762 97.0779 24.6878 97.7113 24.8485 98.3314L17.0156 103.805V85.0781ZM5.67188 111.547V83.1383C7.25622 84.3389 9.20734 85.0781 11.3438 85.0781H13.2344V111.547C13.2344 113.632 11.5385 115.328 9.45312 115.328C7.36777 115.328 5.67188 113.632 5.67188 111.547ZM115.328 115.328H15.9644C16.6148 114.211 17.0156 112.931 17.0156 111.547V108.418L26.6956 101.653C26.7297 101.689 26.7542 101.733 26.7902 101.769C28.2195 103.198 30.1195 103.984 32.1387 103.984C36.3095 103.984 39.7031 100.591 39.7031 96.42V92.6293L77.1167 66.5878L77.9089 69.9531H92.2474L93.4196 64.9713C95.6108 64.3436 97.7207 63.4683 99.7191 62.3604L104.073 65.0564L114.213 54.917L111.517 50.5629C112.625 48.5645 113.5 46.4545 114.128 44.2633L115.328 43.9816V115.328ZM115.328 40.0964L111.031 41.1079L110.755 42.2347C110.119 44.8362 109.089 47.3167 107.698 49.6138L107.096 50.6026L109.42 54.3574L103.515 60.2618L99.7607 57.9382L98.7719 58.5394C96.4748 59.9309 93.9943 60.9613 91.3928 61.5966L90.266 61.8726L89.2526 66.1719H80.9036L79.8921 61.8745L78.7653 61.5985C76.1638 60.9632 73.6833 59.9328 71.3862 58.5413L70.3974 57.9401L66.6426 60.2637L60.7382 54.3593L63.0618 50.6045L62.4606 49.6157C61.1371 47.4339 60.154 45.082 59.5131 42.6204C60.1313 41.5673 60.5 40.3762 60.5 39.1114C60.5 35.712 58.0516 32.8836 54.8281 32.273V31.7493L59.1255 30.7378L59.4015 29.611C60.0368 27.0095 61.0672 24.529 62.4587 22.2319L63.0599 21.2431L60.7363 17.4883L66.6408 11.5839L70.3955 13.9074L71.3843 13.3062C73.6814 11.9147 76.1619 10.8843 78.7634 10.2491L79.8903 9.97305L80.9036 5.67188H89.2526L90.2641 9.96926L91.3909 10.2453C93.9924 10.8805 96.4729 11.9109 98.77 13.3024L99.7588 13.9037L103.514 11.5801L109.418 17.4845L107.094 21.2393L107.696 22.2281C109.087 24.5252 110.118 27.0057 110.753 29.6072L111.029 30.734L115.328 31.7474V39.7031V40.0964Z" fill="#F0F0F0"/>
<path d="M85.0781 13.2344C72.5679 13.2344 62.3906 23.4116 62.3906 35.9219C62.3906 48.4321 72.5679 58.6094 85.0781 58.6094C97.5884 58.6094 107.766 48.4321 107.766 35.9219C107.766 23.4116 97.5884 13.2344 85.0781 13.2344ZM85.0781 54.8281C74.6532 54.8281 66.1719 46.3468 66.1719 35.9219C66.1719 25.497 74.6532 17.0156 85.0781 17.0156C95.503 17.0156 103.984 25.497 103.984 35.9219C103.984 46.3468 95.503 54.8281 85.0781 54.8281Z" fill="#F0F0F0"/>
<path d="M85.0781 24.5781C78.822 24.5781 73.7344 29.6658 73.7344 35.9219C73.7344 42.178 78.822 47.2656 85.0781 47.2656C91.3342 47.2656 96.4219 42.178 96.4219 35.9219C96.4219 29.6658 91.3342 24.5781 85.0781 24.5781ZM85.0781 43.4844C80.9074 43.4844 77.5156 40.0926 77.5156 35.9219C77.5156 31.7512 80.9074 28.3594 85.0781 28.3594C89.2488 28.3594 92.6406 31.7512 92.6406 35.9219C92.6406 40.0926 89.2488 43.4844 85.0781 43.4844Z" fill="#F0F0F0"/>
<path d="M107.766 107.766H111.547V111.547H107.766V107.766Z" fill="#F0F0F0"/>
<path d="M107.766 100.203H111.547V103.984H107.766V100.203Z" fill="#F0F0F0"/>
<path d="M107.766 92.6406H111.547V96.4219H107.766V92.6406Z" fill="#F0F0F0"/>
<path d="M20.7969 107.766H24.5781V111.547H20.7969V107.766Z" fill="#F0F0F0"/>
<path d="M28.3594 107.766H32.1406V111.547H28.3594V107.766Z" fill="#F0F0F0"/>
<path d="M35.9219 107.766H39.7031V111.547H35.9219V107.766Z" fill="#F0F0F0"/>
</svg>
