<svg width="101" height="101" viewBox="0 0 101 101" fill="none" xmlns="http://www.w3.org/2000/svg">
<g clip-path="url(#clip0)">
<path d="M97.7262 3.19441C95.361 0.66667 91.8649 -0.47177 88.4645 0.179958C77.2118 2.7102 61.2345 8.29322 49.0592 20.471C44.5371 25.024 40.3108 29.8619 36.4063 34.9549C31.2158 31.5437 24.6727 30.9245 18.9347 33.3022C13.1966 35.68 9.00874 40.7454 7.75195 46.8277C7.62444 47.4569 7.85946 48.1045 8.36117 48.5045C8.86372 48.9037 9.54712 48.9879 10.1313 48.7229C15.4335 46.3618 21.6108 47.176 26.1195 50.8306C25.4486 52.1723 24.8394 53.4675 24.3652 54.6551C24.1102 55.2893 24.2577 56.0135 24.7402 56.4969L44.4129 76.1696C44.8921 76.6488 45.6088 76.7997 46.2397 76.5538C47.434 76.0896 48.7383 75.477 50.1401 74.7736C54.0663 79.2991 55.0114 85.6913 52.5637 91.1593C52.3236 91.6877 52.3686 92.3011 52.6828 92.7887C52.997 93.2762 53.5371 93.5704 54.1163 93.5712C54.2313 93.5721 54.3455 93.5604 54.458 93.5371C58.045 92.8078 61.3362 91.0335 63.9172 88.4383C70.3112 81.9918 71.2038 71.9042 66.0408 64.4352C71.1062 60.5565 75.9159 56.3544 80.4413 51.8565C92.6174 39.6795 98.2005 23.7072 100.742 12.4528C101.394 9.05329 100.256 5.55713 97.7262 3.19441ZM16.4061 43.9607C14.9418 43.9616 13.4833 44.1333 12.059 44.4725C13.8617 40.3771 17.3604 37.2709 21.6408 35.9675C25.9212 34.6632 30.5574 35.2899 34.3378 37.6843C33.9644 38.196 33.6111 38.7086 33.251 39.2203C33.0802 39.4662 32.896 39.7137 32.7251 39.9579C32.0067 40.9921 31.3183 42.0164 30.6583 43.0298C30.5283 43.2265 30.4124 43.4174 30.2874 43.614C29.7657 44.4266 29.2673 45.2267 28.7923 46.0151C28.6081 46.321 28.4306 46.6227 28.253 46.9252C28.0947 47.1969 27.9113 47.4744 27.768 47.7428C24.4894 45.2875 20.5023 43.9599 16.4061 43.9607ZM61.502 86.0197C60.1535 87.3698 58.5651 88.4549 56.8166 89.2183C58.1492 83.5861 56.8341 77.6531 53.2462 73.111C53.5138 72.9576 53.7921 72.7835 54.0638 72.6234C54.3655 72.4526 54.6664 72.2684 54.9714 72.0834C55.7531 71.6125 56.5449 71.1191 57.3458 70.6024C57.5591 70.4641 57.7675 70.3374 57.9825 70.1957C58.9859 69.5406 60.0002 68.8531 61.0261 68.1339C61.282 67.9638 61.5378 67.7655 61.7987 67.5813C62.3113 67.2213 62.8113 66.8662 63.3213 66.492C67.4617 72.5993 66.6992 80.7834 61.502 86.0197ZM78.0261 49.4379C73.2098 54.2342 68.0626 58.6863 62.6238 62.7625C61.1795 63.8518 59.746 64.8694 58.3242 65.8486C56.4465 67.1463 54.5864 68.3597 52.8037 69.4231C51.7628 70.044 50.746 70.6174 49.7609 71.1483C48.3949 71.8725 47.1598 72.4659 46.0231 72.9526L27.9647 54.8926C28.4764 53.73 29.0706 52.4857 29.7582 51.1823C32.2193 46.6985 35.0087 42.4031 38.1031 38.331L38.1406 38.2819L38.1681 38.2444C42.2427 32.8239 46.6864 27.6917 51.4677 22.8829C58.2309 16.3265 66.2575 11.2143 75.0591 7.85735L93.0525 25.844C89.6963 34.6465 84.5833 42.674 78.0261 49.4379ZM97.4187 11.696C96.6061 15.2955 95.5894 18.8459 94.3734 22.3295L78.5803 6.54472C82.0648 5.32961 85.6159 4.31368 89.2154 3.50194C91.4715 3.1294 93.7634 3.91781 95.3127 5.59963C96.997 7.14728 97.7888 9.43916 97.4187 11.696Z" fill="#EEEEEE"/>
<path d="M51.4728 27.7137C45.4739 33.7126 45.4739 43.4385 51.4728 49.4374C57.4717 55.4371 67.1985 55.4371 73.1974 49.4374C79.1963 43.4385 79.1963 33.7126 73.1974 27.7137C67.1935 21.7256 57.4767 21.7256 51.4728 27.7137ZM70.7921 47.0247C66.7618 51.0542 60.4453 51.6751 55.7065 48.5082C50.9669 45.3412 49.1259 39.2673 51.3078 34.0018C53.4897 28.7355 59.0869 25.7444 64.6774 26.857C70.2679 27.9696 74.2933 32.8759 74.2933 38.5756C74.2916 41.7442 73.0323 44.7828 70.7921 47.0247Z" fill="#EEEEEE"/>
<path d="M62.5684 45.3995C61.6492 45.4337 60.7324 45.2804 59.8748 44.947C59.3023 44.7103 58.6456 44.802 58.1605 45.1878C57.6746 45.5737 57.4371 46.1921 57.5388 46.8038C57.6405 47.4156 58.0655 47.9239 58.6497 48.1323C59.824 48.5848 61.0725 48.8165 62.3309 48.8148H62.6826C63.6252 48.7832 64.3636 47.9939 64.3319 47.0522C64.2786 46.1188 63.5027 45.392 62.5684 45.3995Z" fill="#EEEEEE"/>
<path d="M67.1635 31.3355C66.4976 32.0014 66.4976 33.0823 67.1635 33.7482C69.8288 36.4143 69.8288 40.7364 67.1635 43.4025C66.7201 43.8308 66.5418 44.4659 66.6985 45.0626C66.8543 45.6593 67.3202 46.1252 67.9169 46.2811C68.5136 46.4377 69.1487 46.2594 69.5771 45.816C73.5749 41.8165 73.5749 35.3342 69.5771 31.3355C68.9103 30.6688 67.8302 30.6688 67.1635 31.3355Z" fill="#EEEEEE"/>
<path d="M35.7833 53.0594C35.1132 52.4127 34.0489 52.4218 33.3905 53.0802C32.7321 53.7386 32.723 54.8037 33.3697 55.473L45.4383 67.5408C46.1084 68.1875 47.1727 68.1783 47.8311 67.5199C48.4895 66.8615 48.4986 65.7964 47.8519 65.1272L35.7833 53.0594Z" fill="#EEEEEE"/>
<path d="M83.0594 25.0916L75.8196 17.8509C75.3937 17.3967 74.7536 17.2109 74.1502 17.3651C73.5477 17.5201 73.076 17.991 72.9209 18.5935C72.7659 19.1969 72.9518 19.837 73.406 20.2628L80.6458 27.5035C81.3159 28.1503 82.3802 28.1411 83.0386 27.4827C83.697 26.8243 83.7061 25.7592 83.0594 25.09V25.0916Z" fill="#EEEEEE"/>
<path d="M36.2818 71.217C36.2968 70.7461 36.1168 70.2894 35.7835 69.9561L30.9563 65.1273C30.623 64.7939 30.1663 64.6131 29.6946 64.6281C29.2237 64.6439 28.7795 64.8531 28.4678 65.2073L10.9253 85.1758L0.665161 98.2346C0.120944 98.9221 0.186783 99.9106 0.816842 100.52C1.4469 101.13 2.43616 101.163 3.10622 100.596L15.7774 89.9513L15.8066 89.9271L35.7035 72.4446C36.0568 72.1329 36.2668 71.6887 36.2818 71.217ZM13.5672 87.3502L13.528 87.3844L29.8279 68.8293L32.0815 71.082L13.5672 87.3502Z" fill="#EEEEEE"/>
<path d="M8.83471 82.2208C9.29475 82.2217 9.73646 82.0375 10.0582 81.7083L27.354 63.9025C27.9998 63.2341 27.9923 62.1723 27.3365 61.5131L22.5077 56.6859C22.1285 56.3067 21.5926 56.1276 21.0617 56.2026C20.53 56.2784 20.0649 56.5984 19.8057 57.0685L7.34624 79.6981C7.05954 80.2248 7.07038 80.864 7.37541 81.3808C7.68043 81.8983 8.23465 82.2167 8.83471 82.2208ZM21.6993 60.6988L23.7336 62.7315L16.4521 70.2247L21.6993 60.6988Z" fill="#EEEEEE"/>
<path d="M39.4039 73.5751C38.7372 72.9092 37.6563 72.9092 36.9904 73.5751L19.5087 91.0584C19.0495 91.5176 18.8903 92.1977 19.0995 92.8127L19.1654 93.0094C19.3295 93.4936 19.7021 93.8787 20.1804 94.0587C20.6588 94.2387 21.193 94.1954 21.6356 93.9395L43.8785 81.0875C44.3377 80.8216 44.6469 80.3582 44.7161 79.8324C44.7853 79.3073 44.6069 78.7789 44.2319 78.4039L39.4039 73.5751ZM30.5431 84.8528L38.1921 77.1954L40.2398 79.244L30.5431 84.8528Z" fill="#EEEEEE"/>
<path d="M90.095 10.8174C89.4182 10.2216 88.3948 10.2549 87.7581 10.8933C87.1222 11.5325 87.0922 12.5559 87.6906 13.2302L91.3017 16.8488C91.9718 17.4956 93.0361 17.4864 93.6945 16.828C94.3529 16.1696 94.362 15.1053 93.7153 14.4353L90.095 10.8174Z" fill="#EEEEEE"/>
</g>
<defs>
<clipPath id="clip0">
<rect width="101" height="101" fill="white"/>
</clipPath>
</defs>
</svg>
