<svg width="111" height="111" viewBox="0 0 111 111" fill="none" xmlns="http://www.w3.org/2000/svg">
<g clip-path="url(#clip0)">
<path d="M2.72275 69.1734C3.33114 69.5967 3.97413 69.968 4.6449 70.2834C5.4441 70.6922 6.7835 71.3767 6.87785 71.8559C6.99424 72.4883 6.91819 73.1411 6.65955 73.7299C6.3839 74.3219 6.0953 74.8307 5.84555 75.2691C5.16845 76.4661 4.0344 78.4715 5.7438 79.8682C6.1434 80.2382 6.83345 80.7729 7.46245 81.2557C6.9994 82.0653 6.78996 82.9953 6.8612 83.9253C6.95899 84.6573 7.35629 85.3159 7.95825 85.7438C8.36895 86.0343 8.8074 86.2859 9.2403 86.5319C10.3336 87.1554 10.761 87.4458 10.9053 88.0249C11.0081 88.7695 10.9449 89.5276 10.7203 90.2449C10.6111 90.7388 10.5057 91.2346 10.4428 91.7249C10.2591 93.4109 10.4674 95.1165 11.0514 96.7088C11.8834 99.6475 14.5412 101.695 17.5949 101.75C18.1047 101.749 18.6131 101.695 19.1119 101.589C24.3969 100.336 29.6048 98.7778 34.7092 96.9215C38.8773 99.3672 41.5098 106.804 42.1962 109.596C42.4011 110.421 43.1422 111 43.9925 111L90.4276 110.871C91.016 110.869 91.5689 110.588 91.9165 110.114C92.2642 109.639 92.3653 109.027 92.1888 108.466C91.7314 107.212 91.1005 106.029 90.3147 104.951C89.8711 104.311 89.4712 103.642 89.1178 102.949C88.2804 101.254 87.5819 99.4948 87.0291 97.6874C85.987 94.1511 85.2602 90.5295 84.8572 86.8649C84.7966 86.1924 84.3743 85.6063 83.7556 85.3359C83.1368 85.0655 82.4199 85.1536 81.8851 85.5659C81.3503 85.9782 81.0827 86.6491 81.1868 87.3163C81.6146 91.2004 82.3866 95.0388 83.4938 98.7863C84.1025 100.775 84.8703 102.711 85.7896 104.577C86.2117 105.415 86.6907 106.222 87.2234 106.995L87.3473 107.18L45.3911 107.3C44.163 102.911 41.934 98.8675 38.8792 95.4859L40.5442 94.9032C41.7836 94.4703 42.7179 94.1447 43.197 93.9911C51.1224 91.4844 55.0851 87.875 54.9778 83.2611C54.9794 82.7681 54.7788 82.2961 54.423 81.9549C54.0671 81.6137 53.587 81.4332 53.0946 81.4555C52.0734 81.4797 51.2652 82.3269 51.289 83.3481C51.3334 85.2517 49.7738 88.0286 42.0833 90.4613C41.582 90.6223 40.6163 90.959 39.3342 91.4067C37.9597 91.8877 36.2114 92.4982 34.2837 93.1531H34.2708C29.0645 95.0615 23.7523 96.6675 18.3608 97.9631C16.6356 98.2955 14.9555 97.2073 14.5535 95.497C14.1583 94.4446 14.0095 93.3155 14.1187 92.1966C14.1668 91.8081 14.2556 91.4233 14.3407 91.0367C14.7177 89.757 14.773 88.4041 14.5017 87.098C13.9618 85.4011 12.7126 84.0216 11.0773 83.3166L10.6925 83.0965C10.8923 82.6932 11.1308 82.3102 11.4048 81.9532C11.7152 81.5599 11.8528 81.0576 11.7862 80.5611C11.7196 80.0646 11.4545 79.6163 11.0514 79.3188C10.6074 78.9932 9.56035 78.2088 8.79445 77.5909C8.88325 77.4299 8.97945 77.2523 9.07195 77.0914C9.3624 76.5826 9.69355 75.9906 10.0173 75.3061C10.6027 74.0093 10.7752 72.5639 10.5112 71.1658C10.0672 68.9088 7.90645 67.8025 6.3284 66.9959C5.79775 66.7447 5.28907 66.4496 4.8077 66.1135C4.41101 65.8469 4.03946 65.5447 3.6977 65.2107C3.6977 64.9313 3.9974 64.2542 5.4071 62.5356C8.72016 58.272 11.5594 53.6606 13.8745 48.7827C14.3114 48.0182 14.557 47.1595 14.5905 46.2796C14.3994 44.4201 13.414 42.7338 11.8876 41.6546C11.1384 40.9683 10.4335 40.3208 10.3521 39.7232C10.3645 39.2848 10.4626 38.853 10.6407 38.4523C10.9423 37.6586 11.2901 36.8816 11.6397 36.1028C12.3983 34.5386 13.0042 32.9049 13.449 31.2243L13.634 30.4362C14.0264 28.5866 14.5318 26.7628 15.1473 24.975C16.6057 20.9499 18.8636 17.2616 21.7851 14.1322C25.3242 10.3878 30.8945 7.73855 38.3685 6.253C44.0855 4.99796 49.8865 4.16201 55.7253 3.7518C58.6372 3.59414 61.5577 3.75981 64.4332 4.24575C65.4272 4.39474 66.3583 3.72288 66.5302 2.73262C66.7021 1.74237 66.0519 0.796001 65.0659 0.601251C61.9183 0.0663231 58.7209 -0.116103 55.5328 0.0573509C49.5131 0.474875 43.5321 1.33311 37.6378 2.62515C29.2961 4.29015 23.2337 7.215 19.0952 11.5884C15.8308 15.0815 13.3067 19.199 11.6749 23.693C11.0087 25.6267 10.4613 27.5994 10.0358 29.6L9.8508 30.3807C9.45595 31.8317 8.9264 33.2426 8.26905 34.595C7.89905 35.4386 7.51425 36.2822 7.1831 37.1554C6.75717 38.128 6.58835 39.1938 6.69285 40.2505C7.06617 41.9069 8.02373 43.3735 9.39015 44.3815C10.2948 45.2122 10.8886 45.7968 10.896 46.3055C10.8291 46.5873 10.7226 46.8583 10.5797 47.1103C8.3634 51.7795 5.64646 56.1942 2.4767 60.2767C1.13915 61.9066 -0.261301 63.8065 0.0365486 65.7065C0.428394 67.1768 1.3969 68.4267 2.72275 69.1734Z" fill="#F3F3F3"/>
<path d="M20.6581 32.917L20.8431 32.0938C21.1674 30.5557 21.5793 29.0375 22.077 27.5465C23.1912 24.4579 24.9179 21.6263 27.1534 19.2215C29.5511 16.9608 32.4858 15.3492 35.6801 14.5391C36.325 14.3574 36.8213 13.8411 36.9774 13.1895C37.1335 12.5379 36.9251 11.8528 36.4325 11.3985C35.94 10.9443 35.2403 10.7919 34.6034 11.0001C30.7913 11.9908 27.2989 13.9475 24.4635 16.6814C21.8872 19.451 19.8969 22.7124 18.612 26.27C18.0569 27.9121 17.5992 29.5856 17.2411 31.2816L17.0561 32.0827C16.8253 33.0772 17.4438 34.0708 18.4381 34.3027C18.5757 34.335 18.7167 34.3511 18.858 34.3508C19.7185 34.3496 20.4645 33.7554 20.6581 32.917Z" fill="#F3F3F3"/>
<path d="M16.6498 40.6995C17.6715 40.6995 18.4998 39.8712 18.4998 38.8495C18.4998 37.8278 17.6715 36.9995 16.6498 36.9995C15.6281 36.9995 14.7998 37.8278 14.7998 38.8495C14.7998 39.8712 15.6281 40.6995 16.6498 40.6995Z" fill="#F3F3F3"/>
<path d="M49.9495 37.3882C49.8227 43.6952 52.0516 49.8229 56.2006 54.5747C57.5066 55.9316 58.9305 57.1698 60.4556 58.2747C63.1622 60.3671 65.7263 62.3669 66.4071 65.1493C64.2935 65.9858 62.9036 68.0266 62.8995 70.2997V73.9997C62.9092 76.3433 64.3899 78.4281 66.5995 79.2093V79.5497C66.5995 83.6366 69.9125 86.9497 73.9994 86.9497C78.0864 86.9497 81.3994 83.6366 81.3994 79.5497V79.2093C83.609 78.4281 85.0897 76.3433 85.0994 73.9997V70.2997C85.0941 68.0248 83.701 65.9835 81.5844 65.1493C82.2634 62.3743 84.8293 60.3671 87.5359 58.2747C89.0606 57.1693 90.4845 55.9312 91.7909 54.5747C95.9415 49.8234 98.1729 43.696 98.0494 37.3882C97.9978 24.0634 87.3218 13.2148 73.9994 12.9497C60.6771 13.2148 50.0011 24.0634 49.9495 37.3882ZM68.4494 40.6997H66.5995C65.5777 40.6997 64.7495 39.8714 64.7495 38.8497C64.7495 37.828 65.5777 36.9997 66.5995 36.9997C67.6212 36.9997 68.4494 37.828 68.4494 38.8497V40.6997ZM75.8494 64.7497H72.1494V44.3997H75.8494V64.7497ZM73.9994 83.2497C71.956 83.2497 70.2994 81.5932 70.2994 79.5497H77.6994C77.6994 81.5932 76.0429 83.2497 73.9994 83.2497ZM81.3994 73.9997C81.3994 75.0214 80.5712 75.8497 79.5494 75.8497H68.4494C67.4277 75.8497 66.5995 75.0214 66.5995 73.9997V70.2997C66.5995 69.278 67.4277 68.4497 68.4494 68.4497H79.5494C80.5712 68.4497 81.3994 69.278 81.3994 70.2997V73.9997ZM94.3494 37.4456C94.4646 42.8173 92.5765 48.0396 89.0529 52.0957C87.8925 53.2855 86.6317 54.373 85.2844 55.3462C83.1032 56.8657 81.1688 58.7121 79.5494 60.8203V44.3997H81.3994C84.4646 44.3997 86.9494 41.9149 86.9494 38.8497C86.9494 35.7845 84.4646 33.2997 81.3994 33.2997C78.3343 33.2997 75.8494 35.7845 75.8494 38.8497V40.6997H72.1494V38.8497C72.1494 35.7845 69.6646 33.2997 66.5995 33.2997C63.5343 33.2997 61.0495 35.7845 61.0495 38.8497C61.0495 41.9149 63.5343 44.3997 66.5995 44.3997H68.4494V60.8203C66.8331 58.7131 64.9019 56.8674 62.7237 55.348C61.3759 54.3742 60.1145 53.286 58.9534 52.0957C55.4262 48.0412 53.5353 42.8184 53.6495 37.4456C53.8345 26.1717 63.1437 16.6497 73.9994 16.6497C84.8552 16.6497 94.1737 26.1717 94.3494 37.4456ZM79.5494 40.6997V38.8497C79.5494 37.828 80.3777 36.9997 81.3994 36.9997C82.4212 36.9997 83.2494 37.828 83.2494 38.8497C83.2494 39.8714 82.4212 40.6997 81.3994 40.6997H79.5494Z" fill="#F3F3F3"/>
<path d="M103.599 38.8504H109.149C110.171 38.8504 110.999 38.0221 110.999 37.0004C110.999 35.9787 110.171 35.1504 109.149 35.1504H103.599C102.577 35.1504 101.749 35.9787 101.749 37.0004C101.749 38.0221 102.577 38.8504 103.599 38.8504Z" fill="#F3F3F3"/>
<path d="M94.9287 17.9209C95.4199 17.9213 95.8911 17.7263 96.2385 17.3789L100.162 13.4532C100.643 12.9887 100.836 12.3009 100.667 11.6541C100.497 11.0072 99.9924 10.5021 99.3456 10.3328C98.6987 10.1635 98.0109 10.3564 97.5464 10.8373L93.6207 14.7611C93.0905 15.2901 92.9314 16.0865 93.2179 16.7785C93.5043 17.4705 94.1797 17.9215 94.9287 17.9209Z" fill="#F3F3F3"/>
<path d="M73.9994 9.24976C75.0211 9.24976 75.8494 8.42148 75.8494 7.39976V1.84976C75.8494 0.828029 75.0211 -0.000244141 73.9994 -0.000244141C72.9777 -0.000244141 72.1494 0.828029 72.1494 1.84976V7.39976C72.1494 8.42148 72.9777 9.24976 73.9994 9.24976Z" fill="#F3F3F3"/>
<path d="M54.3789 17.3789C54.7263 17.0319 54.9215 16.561 54.9215 16.07C54.9215 15.579 54.7263 15.1081 54.3789 14.7611L50.4532 10.8373C49.9887 10.3564 49.3009 10.1635 48.6541 10.3328C48.0072 10.5021 47.5021 11.0072 47.3328 11.6541C47.1635 12.3009 47.3564 12.9887 47.8373 13.4532L51.7611 17.3789C52.1081 17.7263 52.579 17.9215 53.07 17.9215C53.561 17.9215 54.0319 17.7263 54.3789 17.3789Z" fill="#F3F3F3"/>
<path d="M38.85 35.1504C37.8283 35.1504 37 35.9787 37 37.0004C37 38.0221 37.8283 38.8504 38.85 38.8504H44.4C45.4217 38.8504 46.25 38.0221 46.25 37.0004C46.25 35.9787 45.4217 35.1504 44.4 35.1504H38.85Z" fill="#F3F3F3"/>
</g>
<defs>
<clipPath id="clip0">
<rect width="111" height="111" fill="white"/>
</clipPath>
</defs>
</svg>
