<svg width="134" height="134" viewBox="0 0 134 134" fill="none" xmlns="http://www.w3.org/2000/svg">
<path d="M102.593 62.8122C105.925 62.8122 109.12 61.4886 111.476 59.1327C113.832 56.7768 115.156 53.5814 115.156 50.2497C115.156 46.9179 113.832 43.7226 111.476 41.3666C109.12 39.0107 105.925 37.6872 102.593 37.6872H102.154C103.83 34.4528 104.699 30.8612 104.687 27.2184C104.685 21.5994 102.629 16.175 98.9056 11.9665C95.1824 7.75804 90.0491 5.05584 84.4723 4.36871C78.8955 3.68158 73.2598 5.05691 68.6264 8.23576C63.993 11.4146 60.6816 16.1777 59.3156 21.6281C56.7929 19.2348 53.6236 17.6341 50.2001 17.0244C46.7767 16.4146 43.2496 16.8226 40.0557 18.1977C36.8619 19.5729 34.1416 21.8548 32.232 24.7608C30.3223 27.6668 29.3071 31.0692 29.3121 34.5465C29.3438 35.6642 29.6302 36.7599 30.1496 37.75C26.9426 38.0719 23.9819 39.6142 21.8801 42.0578C19.7783 44.5014 18.6962 47.6594 18.8576 50.8786C19.0189 54.0977 20.4114 57.1317 22.7471 59.3529C25.0827 61.5741 28.1827 62.8126 31.4059 62.8122H48.1559V66.9997H33.4996C31.8353 67.0046 30.2405 67.668 29.0636 68.8449C27.8867 70.0218 27.2234 71.6165 27.2184 73.2809V117.25H25.3759C25.0718 117.251 24.7717 117.319 24.4964 117.449C24.2212 117.578 23.9775 117.766 23.7822 117.999C23.5869 118.232 23.4448 118.505 23.3656 118.799C23.2865 119.092 23.2723 119.4 23.324 119.699L24.2871 125.059C24.289 125.138 24.3031 125.216 24.329 125.29C24.7158 126.591 25.5109 127.733 26.5968 128.547C27.6827 129.362 29.0017 129.805 30.359 129.812H103.64C104.998 129.805 106.317 129.362 107.402 128.547C108.488 127.733 109.283 126.591 109.67 125.29C109.696 125.216 109.71 125.138 109.712 125.059L110.675 119.699C110.727 119.4 110.713 119.092 110.634 118.799C110.554 118.505 110.412 118.232 110.217 117.999C110.022 117.766 109.778 117.578 109.503 117.449C109.228 117.319 108.927 117.251 108.623 117.25H106.781V73.2809C106.776 71.6165 106.113 70.0218 104.936 68.8449C103.759 67.668 102.164 67.0046 100.5 66.9997H85.8434V62.8122H102.593ZM106.111 121.437L105.629 124.201C105.485 124.614 105.217 124.973 104.86 125.228C104.504 125.483 104.078 125.621 103.64 125.625H30.359C29.9211 125.621 29.4949 125.483 29.1388 125.228C28.7827 124.973 28.5142 124.614 28.3699 124.201L27.8884 121.437H58.6246C58.6246 121.992 58.8452 122.525 59.2379 122.918C59.6305 123.31 60.1631 123.531 60.7184 123.531H73.2809C73.8362 123.531 74.3687 123.31 74.7614 122.918C75.154 122.525 75.3746 121.992 75.3746 121.437H106.111ZM100.5 71.1872C101.055 71.1872 101.587 71.4077 101.98 71.8004C102.373 72.1931 102.593 72.7256 102.593 73.2809V117.25H73.2809C72.7256 117.25 72.193 117.47 71.8004 117.863C71.4077 118.256 71.1871 118.788 71.1871 119.343H62.8121C62.8121 118.788 62.5915 118.256 62.1989 117.863C61.8062 117.47 61.2737 117.25 60.7184 117.25H31.4059V73.2809C31.4059 72.7256 31.6265 72.1931 32.0191 71.8004C32.4118 71.4077 32.9443 71.1872 33.4996 71.1872H49.9984L51.1499 71.4803L50.3962 72.7156C50.1567 73.1156 50.0575 73.584 50.1144 74.0467C50.1713 74.5094 50.381 74.9399 50.7103 75.27L56.6356 81.1953C56.9682 81.5201 57.3983 81.7267 57.8597 81.7835C58.3212 81.8402 58.7885 81.7439 59.1899 81.5093L60.4253 80.7556L60.7812 82.1584C60.8934 82.6123 61.1544 83.0156 61.5224 83.304C61.8905 83.5924 62.3445 83.7493 62.8121 83.7497H71.1871C71.6547 83.7493 72.1088 83.5924 72.4768 83.304C72.8449 83.0156 73.1059 82.6123 73.2181 82.1584L73.574 80.7556L74.8093 81.5093C75.2107 81.7439 75.6781 81.8402 76.1395 81.7835C76.601 81.7267 77.0311 81.5201 77.3637 81.1953L83.289 75.27C83.6183 74.9399 83.828 74.5094 83.8848 74.0467C83.9417 73.584 83.8426 73.1156 83.6031 72.7156L82.8493 71.4803L84.0009 71.1872H100.5ZM56.1749 58.6037L54.8349 56.3425L58.4362 52.7412L60.6974 54.0812C60.9774 54.2534 61.2943 54.3566 61.6219 54.382C61.9496 54.4075 62.2786 54.3546 62.5818 54.2278C62.8841 54.1026 63.153 53.9088 63.3674 53.6616C63.5818 53.4145 63.7358 53.1209 63.8171 52.804L64.4453 50.2497H69.554L70.1821 52.804C70.2635 53.1209 70.4174 53.4145 70.6318 53.6616C70.8462 53.9088 71.1152 54.1026 71.4174 54.2278C71.7206 54.3546 72.0497 54.4075 72.3773 54.382C72.705 54.3566 73.0219 54.2534 73.3018 54.0812L75.5631 52.7412L79.1643 56.3425L77.8243 58.6037C77.6521 58.8836 77.549 59.2005 77.5235 59.5282C77.498 59.8559 77.5509 60.1849 77.6778 60.4881C77.803 60.7903 77.9968 61.0593 78.2439 61.2737C78.491 61.4881 78.7846 61.6421 79.1015 61.7234L81.6559 62.3515V67.4603L79.1015 68.0884C78.7846 68.1697 78.491 68.3237 78.2439 68.5381C77.9968 68.7525 77.803 69.0215 77.6778 69.3237C77.5509 69.6269 77.498 69.9559 77.5235 70.2836C77.549 70.6113 77.6521 70.9282 77.8243 71.2081L79.1643 73.4693L75.5631 77.0706L73.3018 75.7097C73.0184 75.5455 72.7011 75.4488 72.3743 75.427C72.0475 75.4052 71.7201 75.4589 71.4174 75.584C71.1152 75.7092 70.8462 75.9031 70.6318 76.1502C70.4174 76.3973 70.2635 76.6909 70.1821 77.0078L69.554 79.5622H64.4453L63.8171 77.0078C63.7358 76.6909 63.5818 76.3973 63.3674 76.1502C63.153 75.9031 62.8841 75.7092 62.5818 75.584C62.2792 75.4589 61.9518 75.4052 61.625 75.427C61.2982 75.4488 60.9808 75.5455 60.6974 75.7097L58.4362 77.0706L54.8349 73.4693L56.1749 71.2081C56.3472 70.9282 56.4503 70.6113 56.4758 70.2836C56.5012 69.9559 56.4484 69.6269 56.3215 69.3237C56.1963 69.0215 56.0025 68.7525 55.7554 68.5381C55.5083 68.3237 55.2146 68.1697 54.8978 68.0884L52.3434 67.4603V62.3515L54.8978 61.7234C55.2146 61.6421 55.5083 61.4881 55.7554 61.2737C56.0025 61.0593 56.1963 60.7903 56.3215 60.4881C56.4484 60.1849 56.5012 59.8559 56.4758 59.5282C56.4503 59.2005 56.3472 58.8836 56.1749 58.6037ZM84.0009 58.6247L82.8493 58.3315L83.6031 57.0962C83.8426 56.6963 83.9417 56.2278 83.8848 55.7651C83.828 55.3024 83.6183 54.8719 83.289 54.5418L77.3637 48.6165C77.0337 48.2873 76.6032 48.0776 76.1405 48.0207C75.6777 47.9638 75.2093 48.063 74.8093 48.3025L73.574 49.0562L73.2181 47.6534C73.1059 47.1995 72.8449 46.7962 72.4768 46.5078C72.1088 46.2194 71.6547 46.0625 71.1871 46.0622H62.8121C62.3445 46.0625 61.8905 46.2194 61.5224 46.5078C61.1544 46.7962 60.8934 47.1995 60.7812 47.6534L60.4253 49.0562L59.1899 48.3025C58.7885 48.0679 58.3212 47.9716 57.8597 48.0283C57.3983 48.0851 56.9682 48.2917 56.6356 48.6165L50.7103 54.5418C50.381 54.8719 50.1713 55.3024 50.1144 55.7651C50.0575 56.2278 50.1567 56.6963 50.3962 57.0962L51.1499 58.3315L49.9984 58.6247H31.4059C29.1847 58.6247 27.0545 57.7423 25.4839 56.1717C23.9132 54.6011 23.0309 52.4708 23.0309 50.2497C23.0309 48.0285 23.9132 45.8983 25.4839 44.3276C27.0545 42.757 29.1847 41.8747 31.4059 41.8747H33.4996C33.8349 41.8741 34.1653 41.7941 34.4637 41.6412C34.7621 41.4884 35.0201 41.267 35.2165 40.9953C35.4054 40.7159 35.5264 40.3963 35.5701 40.0619C35.6137 39.7275 35.5786 39.3875 35.4678 39.069C35.1951 38.3531 34.8661 37.66 34.4837 36.9962C33.9896 36.2566 33.6545 35.4224 33.4996 34.5465C33.4954 31.5434 34.4859 28.6234 36.3164 26.2426C38.1468 23.8619 40.7142 22.1543 43.6176 21.3866C46.5209 20.6189 49.5968 20.8343 52.3647 21.9992C55.1327 23.1641 57.437 25.2129 58.9178 27.8256C59.1445 28.2259 59.4968 28.5403 59.9202 28.7204C60.3436 28.9004 60.8144 28.936 61.2601 28.8216C61.7057 28.7072 62.1012 28.4492 62.3855 28.0876C62.6698 27.7259 62.8271 27.2806 62.8331 26.8206C62.8877 23.8472 63.6454 20.9289 65.0441 18.3045C66.4427 15.68 68.4427 13.4239 70.8805 11.7205C73.3183 10.0171 76.1246 8.91492 79.07 8.50401C82.0153 8.09309 85.0162 8.38514 87.827 9.35627C90.6379 10.3274 93.179 11.95 95.2426 14.0915C97.3062 16.2329 98.8336 18.8324 99.7 21.6773C100.566 24.5222 100.747 27.5318 100.227 30.4599C99.7078 33.3881 98.5024 36.1516 96.7099 38.5247C96.4766 38.8357 96.3346 39.2056 96.2997 39.5929C96.2647 39.9801 96.3383 40.3695 96.5122 40.7173C96.6861 41.0651 96.9534 41.3575 97.2842 41.562C97.615 41.7664 97.9961 41.8747 98.3849 41.8747H102.593C104.815 41.8747 106.945 42.757 108.515 44.3276C110.086 45.8983 110.968 48.0285 110.968 50.2497C110.968 52.4708 110.086 54.6011 108.515 56.1717C106.945 57.7423 104.815 58.6247 102.593 58.6247H84.0009Z" fill="#EFEFEF"/>
<path d="M67 56.5312C65.3436 56.5312 63.7244 57.0224 62.3471 57.9427C60.9698 58.863 59.8964 60.1709 59.2625 61.7013C58.6286 63.2316 58.4628 64.9155 58.7859 66.5401C59.1091 68.1647 59.9067 69.657 61.078 70.8283C62.2493 71.9995 63.7415 72.7972 65.3661 73.1203C66.9907 73.4435 68.6747 73.2776 70.205 72.6438C71.7353 72.0099 73.0433 70.9364 73.9636 69.5592C74.8838 68.1819 75.375 66.5627 75.375 64.9063C75.375 62.6851 74.4927 60.5549 72.922 58.9842C71.3514 57.4136 69.2212 56.5312 67 56.5312ZM67 69.0938C66.1718 69.0938 65.3622 68.8482 64.6736 68.388C63.9849 67.9279 63.4482 67.2739 63.1313 66.5087C62.8143 65.7436 62.7314 64.9016 62.893 64.0893C63.0545 63.277 63.4534 62.5309 64.039 61.9452C64.6246 61.3596 65.3708 60.9608 66.1831 60.7992C66.9954 60.6376 67.8373 60.7206 68.6025 61.0375C69.3677 61.3544 70.0217 61.8912 70.4818 62.5798C70.9419 63.2684 71.1875 64.078 71.1875 64.9063C71.1875 66.0169 70.7463 67.082 69.961 67.8673C69.1757 68.6526 68.1106 69.0938 67 69.0938Z" fill="#EFEFEF"/>
<path d="M92.125 27.2188H96.3125C96.3081 23.333 94.7625 19.6077 92.0149 16.8601C89.2673 14.1125 85.542 12.5669 81.6562 12.5625V16.75C84.4317 16.7533 87.0925 17.8573 89.0551 19.8199C91.0177 21.7824 92.1217 24.4433 92.125 27.2188Z" fill="#EFEFEF"/>
<path d="M37.75 33.4498L41.9103 33.9355C42.0601 32.6619 42.6722 31.4875 43.6305 30.6354C44.5888 29.7832 45.8266 29.3124 47.1091 29.3125V25.125C44.8 25.1247 42.5712 25.9723 40.8459 27.507C39.1206 29.0416 38.0189 31.1564 37.75 33.4498Z" fill="#EFEFEF"/>
<path d="M127.719 50.25H119.344V54.4375H125.625V90.0312H110.969V94.2188H127.719C128.274 94.2188 128.807 93.9982 129.199 93.6055C129.592 93.2129 129.812 92.6803 129.812 92.125V52.3438C129.812 51.7885 129.592 51.2559 129.199 50.8632C128.807 50.4706 128.274 50.25 127.719 50.25Z" fill="#EFEFEF"/>
<path d="M8.375 54.4375H14.6562V50.25H6.28125C5.72595 50.25 5.1934 50.4706 4.80075 50.8632C4.40809 51.2559 4.1875 51.7885 4.1875 52.3438V92.125C4.1875 92.6803 4.40809 93.2129 4.80075 93.6055C5.1934 93.9982 5.72595 94.2188 6.28125 94.2188H23.0312V90.0312H8.375V54.4375Z" fill="#EFEFEF"/>
<path d="M74.2674 98.6466L65.5197 107.394L68.4803 110.355L77.228 101.607C78.746 103.726 79.5624 106.268 79.5625 108.875H83.75C83.7505 105.156 82.5063 101.544 80.2158 98.6152L89.4283 89.4132L86.4677 86.4526L77.2657 95.6651C74.7942 93.735 71.8298 92.5387 68.7109 92.2127C65.592 91.8868 62.4443 92.4444 59.6272 93.8219C56.81 95.1993 54.4369 97.3411 52.7788 100.003C51.1207 102.664 50.2445 105.739 50.25 108.875H54.4375C54.4336 106.569 55.0655 104.306 56.2638 102.336C57.4622 100.366 59.1805 98.7639 61.23 97.7068C63.2795 96.6497 65.5808 96.1781 67.8808 96.3439C70.1809 96.5097 72.3908 97.3065 74.2674 98.6466Z" fill="#EFEFEF"/>
<path d="M35.5938 75.375H48.1562V79.5625H35.5938V75.375Z" fill="#EFEFEF"/>
<path d="M35.5938 83.75H48.1562V87.9375H35.5938V83.75Z" fill="#EFEFEF"/>
<path d="M87.9375 100.5H100.5V104.688H87.9375V100.5Z" fill="#EFEFEF"/>
<path d="M87.9375 108.875H100.5V113.062H87.9375V108.875Z" fill="#EFEFEF"/>
</svg>
