<svg width="138" height="138" viewBox="0 0 138 138" fill="none" xmlns="http://www.w3.org/2000/svg">
<g clip-path="url(#clip0)">
<path d="M110.4 55.2C125.62 55.2 138 42.8195 138 27.6C138 12.3805 125.62 0 110.4 0C99.3481 0 89.819 6.54399 85.4156 15.9484L78.0248 13.2205C78.1124 12.6545 78.2 12.0885 78.2 11.5C78.2 5.15928 73.0407 0 66.7 0C60.3593 0 55.2 5.15928 55.2 11.5C55.2 17.8407 60.3593 23 66.7 23C70.8193 23 74.412 20.8033 76.4424 17.5397L83.8208 20.2631C83.1729 22.6047 82.8 25.0563 82.8 27.6C82.8 30.6131 83.3009 33.5061 84.1982 36.2228L58.9027 46.9434C54.2712 38.187 45.078 32.2 34.5 32.2C31.0725 32.2 27.8021 32.8581 24.771 34.0036L18.409 20.6337C21.1807 18.5314 23 15.2375 23 11.5C23 5.15928 17.8407 0 11.5 0C5.15928 0 0 5.15928 0 11.5C0 17.8407 5.15928 23 11.5 23C12.4568 23 13.3744 22.8484 14.2649 22.6249L20.6191 35.9813C12.4288 40.7745 6.9 49.6432 6.9 59.8C6.9 69.3403 11.7673 77.7609 19.1457 82.7191L14.9388 90.2817C13.8438 89.937 12.705 89.7 11.5 89.7C5.15928 89.7 0 94.8593 0 101.2C0 107.541 5.15928 112.7 11.5 112.7C17.8407 112.7 23 107.541 23 101.2C23 97.7174 21.4109 94.6291 18.9593 92.52L23.1752 84.9417C26.6342 86.5072 30.4615 87.4 34.5 87.4C40.8115 87.4 46.6166 85.2471 51.2716 81.668L60.3245 91.6271C55.7334 96.5584 52.9 103.146 52.9 110.4C52.9 111.807 53.0404 113.178 53.2425 114.528L42.5916 117.056C40.7587 113.137 36.8045 110.4 32.2 110.4C25.8593 110.4 20.7 115.559 20.7 121.9C20.7 128.241 25.8593 133.4 32.2 133.4C38.5407 133.4 43.7 128.241 43.7 121.9C43.7 121.773 43.6652 121.654 43.6629 121.527L54.2937 119.007C57.9189 130.021 68.2869 138 80.5 138C95.7195 138 108.1 125.62 108.1 110.4C108.1 105.681 106.906 101.237 104.808 97.3502L118.319 88.5657C120.407 90.6815 123.3 92 126.5 92C132.841 92 138 86.8407 138 80.5C138 74.1593 132.841 69 126.5 69C120.159 69 115 74.1593 115 80.5C115 81.9858 115.305 83.3975 115.821 84.7024L102.279 93.506C99.5693 90.0223 96.0508 87.2091 92 85.3415L103.226 54.2207C105.517 54.8384 107.916 55.2 110.4 55.2ZM66.7 18.4C62.8962 18.4 59.8 15.3038 59.8 11.5C59.8 7.69624 62.8962 4.6 66.7 4.6C70.5038 4.6 73.6 7.69624 73.6 11.5C73.6 15.3038 70.5038 18.4 66.7 18.4ZM4.6 11.5C4.6 7.69624 7.69624 4.6 11.5 4.6C15.3038 4.6 18.4 7.69624 18.4 11.5C18.4 15.3038 15.3038 18.4 11.5 18.4C7.69624 18.4 4.6 15.3038 4.6 11.5ZM11.5 108.1C7.69624 108.1 4.6 105.004 4.6 101.2C4.6 97.3962 7.69624 94.3 11.5 94.3C15.3038 94.3 18.4 97.3962 18.4 101.2C18.4 105.004 15.3038 108.1 11.5 108.1ZM32.2 128.8C28.3962 128.8 25.3 125.704 25.3 121.9C25.3 118.096 28.3962 115 32.2 115C36.0038 115 39.1 118.096 39.1 121.9C39.1 125.704 36.0038 128.8 32.2 128.8ZM126.5 73.6C130.304 73.6 133.4 76.6962 133.4 80.5C133.4 84.3038 130.304 87.4 126.5 87.4C122.696 87.4 119.6 84.3038 119.6 80.5C119.6 76.6962 122.696 73.6 126.5 73.6ZM96.8549 46.1471C97.8814 40.8272 102.571 36.8 108.1 36.8H112.7C118.229 36.8 122.919 40.8272 123.945 46.1471C120.14 48.9323 115.467 50.6 110.4 50.6C105.333 50.6 100.66 48.9323 96.8549 46.1471ZM110.4 32.2C106.596 32.2 103.5 29.1038 103.5 25.3C103.5 21.4962 106.596 18.4 110.4 18.4C114.204 18.4 117.3 21.4962 117.3 25.3C117.3 29.1038 114.204 32.2 110.4 32.2ZM110.4 4.6C123.083 4.6 133.4 14.9174 133.4 27.6C133.4 33.35 131.263 38.6036 127.76 42.6398C126.148 38.3958 122.788 35.0087 118.602 33.3365C120.638 31.2611 121.9 28.4277 121.9 25.3C121.9 18.9593 116.741 13.8 110.4 13.8C104.059 13.8 98.9 18.9593 98.9 25.3C98.9 28.4277 100.162 31.2611 102.198 33.3365C98.0117 35.0087 94.6515 38.3958 93.0399 42.6398C89.5372 38.6036 87.4 33.35 87.4 27.6C87.4 14.9174 97.7174 4.6 110.4 4.6ZM11.5 59.8C11.5 47.1174 21.8174 36.8 34.5 36.8C47.1826 36.8 57.5 47.1174 57.5 59.8C57.5 65.568 55.3494 70.8351 51.8286 74.8769C50.2227 70.6172 46.8558 67.2132 42.6578 65.5365C44.6917 63.4611 45.954 60.6277 45.954 57.5C45.954 51.1593 40.7947 46 34.454 46C28.1132 46 22.954 51.1593 22.954 57.5C22.954 60.6277 24.2163 63.4611 26.2523 65.5365C22.078 67.2009 18.7223 70.5756 17.1051 74.8028C13.6226 70.771 11.5 65.5343 11.5 59.8ZM27.554 57.5C27.554 53.6962 30.6502 50.6 34.454 50.6C38.2577 50.6 41.354 53.6962 41.354 57.5C41.354 61.3038 38.2577 64.4 34.454 64.4C30.6502 64.4 27.554 61.3038 27.554 57.5ZM20.9167 78.3168C21.9533 73.0115 26.6364 69 32.154 69H36.754C42.2928 69 46.9916 73.0407 48.0035 78.3774C44.2065 81.1458 39.5481 82.8 34.5 82.8C29.4148 82.8 24.7272 81.121 20.9167 78.3168ZM66.9167 128.917C67.9533 123.612 72.6364 119.6 78.154 119.6H82.754C88.2928 119.6 92.9916 123.641 94.0035 128.977C90.2065 131.746 85.5481 133.4 80.5 133.4C75.4148 133.4 70.7272 131.721 66.9167 128.917ZM80.454 115C76.6502 115 73.554 111.904 73.554 108.1C73.554 104.296 76.6502 101.2 80.454 101.2C84.2577 101.2 87.354 104.296 87.354 108.1C87.354 111.904 84.2577 115 80.454 115ZM103.5 110.4C103.5 116.168 101.349 121.435 97.8286 125.477C96.2227 121.217 92.8558 117.813 88.6578 116.137C90.6917 114.061 91.954 111.228 91.954 108.1C91.954 101.759 86.7947 96.6 80.454 96.6C74.1132 96.6 68.954 101.759 68.954 108.1C68.954 111.228 70.2163 114.061 72.2523 116.137C68.078 117.801 64.7223 121.176 63.1051 125.403C59.6226 121.371 57.5 116.134 57.5 110.4C57.5 97.7174 67.8174 87.4 80.5 87.4C93.1826 87.4 103.5 97.7174 103.5 110.4ZM87.674 83.7793C85.383 83.1616 82.9842 82.8 80.5 82.8C74.1885 82.8 68.3834 84.9529 63.7284 88.532L54.6755 78.5729C59.2666 73.6415 62.1 67.0538 62.1 59.8C62.1 56.7869 61.5991 53.8939 60.7018 51.1772L85.9973 40.4566C88.8308 45.8136 93.378 50.1126 98.9022 52.6585L87.674 83.7793Z" fill="#F9F9F9"/>
</g>
<defs>
<clipPath id="clip0">
<rect width="138" height="138" fill="white"/>
</clipPath>
</defs>
</svg>
