<svg width="30" height="30" viewBox="0 0 30 30" fill="none" xmlns="http://www.w3.org/2000/svg">
<circle cx="15" cy="15" r="15" fill="#3687FF"/>
<path d="M15.6731 9.19615C15.7292 9.2004 15.7853 9.20465 15.8288 9.21173C18.9835 9.7191 20.4361 11.2781 20.8385 14.5972C20.8455 14.6539 20.8455 14.7219 20.8469 14.7956C20.8511 15.055 20.8595 15.5935 21.4148 15.6049H21.4316C21.5078 15.609 21.5841 15.5965 21.6551 15.5684C21.7262 15.5403 21.7906 15.4972 21.8438 15.4419C22.0163 15.2534 22.0051 14.9742 21.9952 14.7474C21.9924 14.6936 21.9896 14.6412 21.991 14.5958C22.0303 11.2015 19.2149 8.1233 15.9648 8.00992L15.9255 8.01134C15.913 8.0132 15.9003 8.01415 15.8877 8.01417C15.8554 8.01417 15.8147 8.01134 15.7727 8.0085C15.7167 8.00333 15.6606 8.0005 15.6044 8C15.087 8 14.9889 8.38265 14.9763 8.61225C14.9482 9.14087 15.4376 9.17914 15.6731 9.19615ZM20.6857 18.8858C20.6182 18.8323 20.5513 18.778 20.4852 18.7228C20.1403 18.4337 19.7729 18.1672 19.4196 17.9093C19.3456 17.8556 19.2718 17.8017 19.198 17.7477C18.7438 17.4161 18.3357 17.2531 17.9502 17.2531C17.4314 17.2531 16.9785 17.5536 16.6041 18.1446C16.4387 18.4053 16.2368 18.5329 15.99 18.5329C15.8177 18.5267 15.6488 18.4827 15.4951 18.4039C14.0299 17.7095 12.9825 16.6465 12.3838 15.2435C12.0949 14.5632 12.1875 14.121 12.6979 13.7596C12.9867 13.5556 13.5251 13.1743 13.4872 12.4444C13.4452 11.6154 11.6911 9.12103 10.9522 8.83759C10.637 8.71735 10.2894 8.71634 9.97355 8.83475C9.12528 9.13237 8.51536 9.65675 8.2111 10.3469C7.91666 11.0159 7.93068 11.7996 8.25036 12.6159C9.17155 14.977 10.4657 17.0349 12.1006 18.7327C13.699 20.3951 15.6647 21.7557 17.9417 22.7789C18.1465 22.871 18.3624 22.9206 18.5194 22.9575L18.6526 22.9915C18.6709 22.9968 18.6897 22.9997 18.7087 23H18.7269C19.7981 23 21.0839 21.9796 21.4793 20.8146C21.8256 19.7942 21.1932 19.2911 20.6857 18.8872V18.8858ZM16.147 11.8931C15.9648 11.8974 15.582 11.9073 15.4474 12.3126C15.3857 12.5026 15.3927 12.6669 15.4698 12.8016C15.5834 13 15.8021 13.0609 15.9998 13.0935C16.7177 13.214 17.0879 13.6293 17.1608 14.3974C17.1958 14.7574 17.4272 15.0068 17.7244 15.0068C17.7469 15.0073 17.7694 15.0063 17.7917 15.004C18.1493 14.9586 18.3217 14.6851 18.3063 14.1891C18.3119 13.6704 18.0525 13.0836 17.6108 12.6159C17.1678 12.1454 16.6336 11.8804 16.147 11.8931Z" fill="#1B0F1A"/>
</svg>
