<svg width="27" height="27" viewBox="0 0 27 27" fill="none" xmlns="http://www.w3.org/2000/svg">
<path d="M13.5 22.5C15.8869 22.5 18.1761 21.5518 19.864 19.864C21.5518 18.1761 22.5 15.8869 22.5 13.5C22.5 11.1131 21.5518 8.82387 19.864 7.13604C18.1761 5.44821 15.8869 4.5 13.5 4.5C11.1131 4.5 8.82387 5.44821 7.13604 7.13604C5.44821 8.82387 4.5 11.1131 4.5 13.5C4.5 15.8869 5.44821 18.1761 7.13604 19.864C8.82387 21.5518 11.1131 22.5 13.5 22.5ZM13.5 24.75C7.28663 24.75 2.25 19.7134 2.25 13.5C2.25 7.28663 7.28663 2.25 13.5 2.25C19.7134 2.25 24.75 7.28663 24.75 13.5C24.75 19.7134 19.7134 24.75 13.5 24.75Z" fill="#674079"/>
<path d="M17.5995 12.8293C17.613 11.1508 16.2282 9.61178 14.5125 9.39915L14.4 9.38228C14.314 9.36519 14.2267 9.35541 14.139 9.35303C13.7869 9.35303 13.6935 9.60728 13.6688 9.75915C13.6547 9.82223 13.6535 9.88748 13.6651 9.95105C13.6767 10.0146 13.7009 10.0752 13.7363 10.1293C13.8533 10.2924 14.058 10.3205 14.2223 10.3453C14.2707 10.352 14.3168 10.3577 14.3539 10.3678C15.8963 10.7222 16.416 11.2813 16.6692 12.8597C16.6759 12.899 16.6782 12.9463 16.6804 12.9969C16.6917 13.1848 16.7153 13.5774 17.1248 13.5774C17.1585 13.5774 17.1945 13.5752 17.2328 13.5684C17.6142 13.5088 17.6018 13.1499 17.5962 12.9778C17.5933 12.9362 17.5933 12.8945 17.5962 12.8529C17.5974 12.8455 17.5981 12.8379 17.5984 12.8304L17.5995 12.8293Z" fill="#674079"/>
<path d="M14.0401 8.783C14.0851 8.78637 14.1301 8.78975 14.1649 8.79537C16.6962 9.19812 17.8617 10.4356 18.1846 13.0704C18.1902 13.1154 18.1902 13.1694 18.1913 13.2279C18.1947 13.4337 18.2014 13.8612 18.6469 13.8702H18.6604C18.7216 13.8735 18.7828 13.8636 18.8398 13.8413C18.8968 13.819 18.9485 13.7848 18.9912 13.7409C19.1296 13.5912 19.1206 13.3696 19.1127 13.1896C19.1104 13.1469 19.1082 13.1052 19.1093 13.0692C19.1408 10.3749 16.8818 7.93137 14.2741 7.84137L14.2426 7.8425C14.2325 7.84398 14.2223 7.84473 14.2122 7.84475C14.1863 7.84475 14.1537 7.8425 14.1199 7.84025C14.075 7.83614 14.03 7.83389 13.9849 7.8335C13.5698 7.8335 13.4911 8.13725 13.4809 8.3195C13.4584 8.73912 13.8511 8.7695 14.0401 8.783ZM18.0619 16.4746C18.0078 16.4322 17.9541 16.3891 17.9011 16.3452C17.6243 16.1157 17.3296 15.9042 17.0461 15.6995C16.9867 15.6568 16.9275 15.6141 16.8683 15.5712C16.5038 15.308 16.1764 15.1786 15.8671 15.1786C15.4508 15.1786 15.0874 15.4171 14.7871 15.8862C14.6543 16.0932 14.4923 16.1945 14.2943 16.1945C14.1561 16.1896 14.0206 16.1546 13.8972 16.0921C12.7216 15.5409 11.8812 14.6971 11.4008 13.5834C11.1691 13.0434 11.2433 12.6924 11.6528 12.4055C11.8846 12.2435 12.3166 11.9409 12.2862 11.3615C12.2524 10.7034 10.8451 8.72337 10.2522 8.49837C9.99927 8.40292 9.72038 8.40213 9.46693 8.49612C8.7863 8.73237 8.29693 9.14862 8.0528 9.6965C7.81655 10.2275 7.8278 10.8496 8.0843 11.4976C8.82343 13.3719 9.8618 15.0054 11.1736 16.3531C12.4561 17.6727 14.0333 18.7527 15.8603 19.565C16.0246 19.6381 16.1978 19.6775 16.3238 19.7067L16.4307 19.7337C16.4453 19.738 16.4604 19.7402 16.4757 19.7405H16.4903C17.3498 19.7405 18.3814 18.9305 18.6987 18.0057C18.9766 17.1957 18.4692 16.7964 18.0619 16.4757V16.4746ZM14.4203 10.9239C14.2741 10.9272 13.9669 10.9351 13.8589 11.2569C13.8094 11.4076 13.8151 11.5381 13.8769 11.645C13.9681 11.8025 14.1436 11.8509 14.3022 11.8767C14.8782 11.9724 15.1752 12.302 15.2337 12.9117C15.2618 13.1975 15.4474 13.3955 15.6859 13.3955C15.704 13.3959 15.722 13.3951 15.7399 13.3932C16.0268 13.3572 16.1652 13.1401 16.1528 12.7464C16.1573 12.3346 15.9492 11.8689 15.5948 11.4976C15.2393 11.1241 14.8107 10.9137 14.4203 10.9239Z" fill="#674079"/>
</svg>
