<svg width="27" height="27" viewBox="0 0 27 27" fill="none" xmlns="http://www.w3.org/2000/svg">
<path d="M8.15964 20.8057L8.97414 21.2816C10.3477 22.0827 11.9099 22.5033 13.5 22.5C15.28 22.5 17.0201 21.9722 18.5001 20.9832C19.9802 19.9943 21.1337 18.5887 21.8149 16.9442C22.4961 15.2996 22.6744 13.49 22.3271 11.7442C21.9798 9.99836 21.1226 8.39471 19.864 7.13604C18.6053 5.87737 17.0017 5.0202 15.2558 4.67293C13.51 4.32567 11.7004 4.5039 10.0559 5.18508C8.41133 5.86627 7.00572 7.01983 6.01679 8.49987C5.02786 9.97991 4.50002 11.72 4.50002 13.5C4.49673 15.0906 4.9177 16.6533 5.71952 18.027L6.19427 18.8415L5.45964 21.5426L8.15964 20.8057ZM2.25452 24.75L3.77552 19.161C2.7733 17.443 2.24675 15.489 2.25002 13.5C2.25002 7.28663 7.28664 2.25 13.5 2.25C19.7134 2.25 24.75 7.28663 24.75 13.5C24.75 19.7134 19.7134 24.75 13.5 24.75C11.5119 24.7532 9.55875 24.2271 7.84126 23.2256L2.25452 24.75ZM9.43989 8.2215C9.59064 8.21025 9.74251 8.21025 9.89326 8.217C9.95401 8.2215 10.0148 8.22825 10.0755 8.235C10.2544 8.25525 10.4513 8.36437 10.5176 8.51512C10.8529 9.27562 11.1791 10.0418 11.4941 10.8101C11.5639 10.9811 11.5223 11.2005 11.3895 11.4142C11.2982 11.5588 11.1995 11.6985 11.0936 11.8327C10.9665 11.9959 10.6931 12.2951 10.6931 12.2951C10.6931 12.2951 10.5818 12.4279 10.6245 12.5933C10.6403 12.6562 10.692 12.7474 10.7393 12.8239L10.8056 12.9308C11.0936 13.4111 11.4806 13.8983 11.9531 14.3573C12.0881 14.4878 12.2198 14.6216 12.3615 14.7465C12.888 15.2111 13.4843 15.5903 14.1278 15.8715L14.1334 15.8737C14.229 15.9154 14.2774 15.9379 14.4169 15.9975C14.4866 16.0268 14.5586 16.0526 14.6318 16.0718C14.7073 16.091 14.7869 16.0874 14.8604 16.0613C14.9339 16.0353 14.998 15.988 15.0446 15.9255C15.8591 14.9389 15.9334 14.8748 15.9401 14.8748V14.877C15.9967 14.8242 16.0639 14.7842 16.1373 14.7595C16.2106 14.7349 16.2884 14.7262 16.3654 14.7341C16.4329 14.7386 16.5015 14.751 16.5645 14.7791C17.1619 15.0525 18.1395 15.4789 18.1395 15.4789L18.7943 15.7725C18.9045 15.8254 19.0046 15.9502 19.008 16.0706C19.0125 16.146 19.0193 16.2675 18.9934 16.4902C18.9574 16.7816 18.8696 17.1315 18.7819 17.3149C18.7218 17.44 18.642 17.5547 18.5456 17.6546C18.4321 17.7738 18.3078 17.8823 18.1744 17.9786C18.1282 18.0133 18.0813 18.0471 18.0338 18.0799C17.8938 18.1687 17.7501 18.2512 17.6029 18.3274C17.3132 18.4812 16.9933 18.5696 16.6658 18.5861C16.4576 18.5974 16.2495 18.6131 16.0403 18.6019C16.0313 18.6019 15.4013 18.504 15.4013 18.504C13.8018 18.0833 12.3226 17.2951 11.0813 16.2023C10.827 15.9784 10.5919 15.7376 10.3511 15.498C9.34989 14.5024 8.59389 13.428 8.13489 12.4132C7.89996 11.9152 7.77305 11.3731 7.76252 10.8225C7.75788 10.1395 7.98116 9.47438 8.39702 8.9325C8.47914 8.82675 8.55677 8.7165 8.69064 8.58938C8.83351 8.45438 8.92352 8.38238 9.02139 8.33288C9.15152 8.26766 9.29349 8.2294 9.43877 8.22038L9.43989 8.2215Z" fill="#17BC09"/>
</svg>
