<svg width="21" height="21" viewBox="0 0 21 21" fill="none" xmlns="http://www.w3.org/2000/svg">
<path d="M10.8101 14.1927V14.1108C10.392 14.1063 9.992 14.0836 9.60567 14.0518C9.3966 14.5926 9.10118 15.0971 8.73303 15.5471C9.42842 15.6607 10.1329 15.7243 10.8374 15.7334L10.8101 14.1927Z" fill="white"/>
<path d="M8.9694 11.1841C8.63307 9.57515 7.44682 8.26619 5.8697 7.77078C5.43338 7.63898 4.98343 7.5708 4.52893 7.5708C3.40177 7.57535 2.31097 7.99349 1.47923 8.74796C-0.370584 10.4296 -0.50239 13.2975 1.17926 15.1473C2.86091 16.9971 5.72881 17.1289 7.57863 15.4473C8.52399 14.5883 9.06484 13.3748 9.0603 12.0976C9.0603 11.7931 9.02848 11.484 8.9694 11.1841ZM4.52893 11.4886C5.29703 11.4886 5.97424 11.9976 6.18331 12.7385C6.43783 13.652 5.91061 14.5974 4.99252 14.8564V15.2564C4.99252 15.5064 4.78799 15.7109 4.53802 15.7109C4.28804 15.7109 4.08352 15.5064 4.08352 15.2564V14.861C3.33359 14.6565 2.81546 13.9793 2.81092 13.2021C2.81092 12.9521 3.01544 12.7476 3.26542 12.7476C3.51539 12.7476 3.71992 12.9521 3.71992 13.2021C3.71992 13.6475 4.08352 14.0065 4.52893 14.0065C4.97434 14.0065 5.33339 13.6429 5.33339 13.1975C5.33339 12.7521 4.96979 12.393 4.52438 12.393C3.74719 12.393 3.06998 11.8704 2.87 11.1204C2.62912 10.2114 3.17452 9.26609 4.08806 9.02066V8.82522C4.08806 8.57525 4.29259 8.37072 4.54256 8.37072C4.79254 8.37072 4.99706 8.57525 4.99706 8.82522V9.02975C5.7379 9.23882 6.24694 9.91602 6.24694 10.6841C6.24694 10.9341 6.04241 11.1386 5.79244 11.1386C5.54246 11.1386 5.33794 10.9341 5.33794 10.6841C5.33794 10.2387 4.97434 9.87512 4.52893 9.87512C4.08352 9.87512 3.72446 10.2342 3.71992 10.6841C3.71992 11.1295 4.08352 11.4886 4.52893 11.4886Z" fill="white"/>
<path d="M10.7965 13.1974L10.7692 11.5885C10.4874 11.5839 10.2102 11.5748 9.94656 11.5566C9.96019 11.7384 9.96928 11.9157 9.96928 12.093C9.96928 12.4475 9.93292 12.8065 9.86475 13.1565C10.1647 13.1838 10.4783 13.1974 10.7965 13.1974Z" fill="white"/>
<path d="M15.7733 5.67529C15.4597 5.83891 15.1279 5.97072 14.787 6.07071C13.7644 6.37977 12.4236 6.54793 11.0238 6.54793C9.683 6.54793 8.40585 6.3934 7.41959 6.10707C7.07871 6.01617 6.75147 5.88891 6.43787 5.72983L6.46968 7.01152C6.98327 7.20241 7.46049 7.47511 7.89227 7.81599C7.9059 7.82054 7.91499 7.82054 7.92863 7.82508C8.80127 8.04779 9.90116 8.16596 11.0238 8.16596C12.3236 8.16596 13.6008 8.00234 14.5234 7.72509C15.5097 7.42512 15.7278 7.11151 15.7278 7.05243C15.7278 6.9888 15.7233 6.92971 15.7733 6.86608V5.67529Z" fill="white"/>
<path d="M14.5188 3.87104C13.5962 3.58925 12.319 3.43018 11.0191 3.43018C9.71018 3.43018 8.48303 3.58925 7.56494 3.87104C6.60595 4.16192 6.39688 4.44826 6.39233 4.53916C6.39233 4.53916 6.39688 4.53916 6.39688 4.54825C6.4196 4.64824 6.6923 4.9573 7.66948 5.23909C8.57393 5.5027 9.76472 5.64814 11.0191 5.64814C12.319 5.64814 13.5916 5.48906 14.5143 5.21182C15.5005 4.91639 15.7232 4.60279 15.7232 4.53916C15.7232 4.48007 15.5051 4.17101 14.5188 3.87104Z" fill="white"/>
<path d="M20.9909 16.447V15.0835C20.6864 15.238 20.3683 15.3698 20.0365 15.4698C19.0184 15.7789 17.6867 15.947 16.2823 15.947C15.037 15.947 13.8235 15.8062 12.869 15.5562C12.4781 15.4562 12.1009 15.3198 11.7373 15.1426L11.76 16.4606C11.76 16.4652 11.76 16.4652 11.76 16.4697C11.76 16.5379 11.96 16.8424 12.919 17.1378C13.828 17.4151 15.0552 17.5696 16.3687 17.5696C17.6776 17.5696 18.9093 17.4105 19.8274 17.1242C20.7864 16.8242 20.9955 16.5106 20.9955 16.447H20.9909Z" fill="white"/>
<path d="M15.7642 8.21143C15.4506 8.3705 15.1234 8.50231 14.7825 8.6023C13.7599 8.91136 12.4191 9.07952 11.0147 9.07952C10.3239 9.07952 9.63756 9.03407 8.95581 8.94772C9.32396 9.45676 9.59666 10.0294 9.76937 10.6385C10.1602 10.6657 10.5829 10.6839 11.0192 10.6839C11.0329 10.6839 11.0511 10.6839 11.0647 10.6839C11.8101 9.86581 13.8144 9.45676 15.7642 9.40222V8.21143Z" fill="white"/>
<path d="M20.0047 12.9566C18.9911 13.2566 17.6731 13.4202 16.2914 13.4202C14.9506 13.4202 13.6735 13.2657 12.6872 12.9794C12.3463 12.8839 12.0146 12.7567 11.6964 12.5976L11.7146 13.6429L11.7191 14.0247C12.0736 14.4656 13.7689 15.0337 16.2869 15.0337C17.6004 15.0337 18.8412 14.8792 19.7729 14.5974C20.7546 14.2974 20.9682 13.9884 20.9682 13.9247C20.9682 13.8747 20.9955 13.8202 20.9955 13.7747H21V12.5703C20.6819 12.7294 20.3501 12.8657 20.0047 12.9566Z" fill="white"/>
<path d="M19.791 10.7521C18.8638 10.4703 17.5912 10.3203 16.2914 10.3203H16.2141C15.0051 10.3203 13.8552 10.4567 12.9735 10.7066C12.0327 10.9702 11.71 11.2702 11.6691 11.3929C11.6646 11.402 11.6646 11.4066 11.6646 11.4111C11.6646 11.4111 11.6646 11.4111 11.6736 11.4293C11.7009 11.5247 11.9691 11.8338 12.9462 12.1201C13.8507 12.3792 15.0415 12.5246 16.2959 12.5246C17.5912 12.5246 18.8184 12.3747 19.7501 12.0974C20.7591 11.7974 20.9864 11.4838 20.9909 11.4157V11.4111C20.9864 11.3429 20.7591 11.043 19.791 10.7521Z" fill="white"/>
</svg>
