<svg width="45" height="45" viewBox="0 0 45 45" fill="none" xmlns="http://www.w3.org/2000/svg">
<path d="M22.5004 29.9999C22.0623 30.0008 21.6377 29.8482 21.3004 29.5687L10.0504 20.1937C9.66749 19.8754 9.42669 19.4181 9.38098 18.9223C9.33527 18.4265 9.48839 17.9328 9.80664 17.5499C10.1249 17.167 10.5822 16.9262 11.078 16.8805C11.5738 16.8348 12.0675 16.9879 12.4504 17.3062L22.5004 25.7062L32.5504 17.6062C32.7422 17.4504 32.9629 17.3341 33.1998 17.2639C33.4366 17.1937 33.6851 17.1711 33.9307 17.1972C34.1764 17.2233 34.4145 17.2978 34.6313 17.4162C34.8481 17.5347 35.0394 17.6948 35.1941 17.8874C35.3659 18.0802 35.4959 18.3064 35.5761 18.5518C35.6564 18.7971 35.6851 19.0565 35.6604 19.3135C35.6358 19.5704 35.5583 19.8196 35.4329 20.0453C35.3075 20.2709 35.1369 20.4683 34.9316 20.6249L23.6816 29.6812C23.3346 29.9165 22.9187 30.0287 22.5004 29.9999Z" fill="white"/>
</svg>
