<svg width="33" height="33" viewBox="0 0 33 33" fill="none" xmlns="http://www.w3.org/2000/svg">
<path d="M25.7039 23.9282L17.3347 15.559C18.6334 13.88 19.3359 11.8271 19.3359 9.66797C19.3359 7.0834 18.3272 4.65996 16.5032 2.83271C14.6792 1.00547 12.2493 0 9.66797 0C7.08662 0 4.65674 1.00869 2.83271 2.83271C1.00547 4.65674 0 7.0834 0 9.66797C0 12.2493 1.00869 14.6792 2.83271 16.5032C4.65674 18.3305 7.0834 19.3359 9.66797 19.3359C11.8271 19.3359 13.8768 18.6334 15.5558 17.3379L23.925 25.7039C23.9495 25.7285 23.9787 25.7479 24.0107 25.7612C24.0428 25.7745 24.0772 25.7814 24.1119 25.7814C24.1466 25.7814 24.181 25.7745 24.2131 25.7612C24.2451 25.7479 24.2743 25.7285 24.2988 25.7039L25.7039 24.302C25.7285 24.2775 25.7479 24.2484 25.7612 24.2163C25.7745 24.1842 25.7814 24.1499 25.7814 24.1151C25.7814 24.0804 25.7745 24.046 25.7612 24.014C25.7479 23.9819 25.7285 23.9528 25.7039 23.9282ZM14.7727 14.7727C13.4063 16.1358 11.5951 16.8867 9.66797 16.8867C7.74082 16.8867 5.92969 16.1358 4.56328 14.7727C3.2001 13.4063 2.44922 11.5951 2.44922 9.66797C2.44922 7.74082 3.2001 5.92647 4.56328 4.56328C5.92969 3.2001 7.74082 2.44922 9.66797 2.44922C11.5951 2.44922 13.4095 3.19688 14.7727 4.56328C16.1358 5.92969 16.8867 7.74082 16.8867 9.66797C16.8867 11.5951 16.1358 13.4095 14.7727 14.7727Z" fill="black"/>
</svg>
