<svg width="7" height="5" viewBox="0 0 7 5" fill="none" xmlns="http://www.w3.org/2000/svg">
<path d="M0.124816 1.03556C0.124616 0.916108 0.160273 0.80035 0.225599 0.708376C0.262384 0.65661 0.307562 0.613821 0.358544 0.582456C0.409526 0.551092 0.465309 0.53177 0.522702 0.525597C0.580094 0.519423 0.637966 0.52652 0.693004 0.54648C0.748042 0.56644 0.799164 0.598872 0.843442 0.641917L3.19212 2.93217L5.54519 0.723713C5.59001 0.681248 5.64158 0.649536 5.69694 0.6304C5.7523 0.611265 5.81036 0.605082 5.86777 0.612208C5.92519 0.619334 5.98083 0.639628 6.0315 0.671923C6.08217 0.704219 6.12687 0.74788 6.16303 0.800395C6.20292 0.853289 6.23301 0.915231 6.25141 0.982335C6.26981 1.04944 6.27612 1.12025 6.26995 1.19034C6.26378 1.26042 6.24525 1.32826 6.21554 1.3896C6.18583 1.45094 6.14558 1.50445 6.0973 1.54677L3.46818 4.01596C3.38978 4.09115 3.29143 4.13225 3.18993 4.13225C3.08844 4.13225 2.99009 4.09115 2.91168 4.01596L0.282563 1.45987C0.229535 1.40858 0.187617 1.34344 0.160208 1.26971C0.132801 1.19599 0.120675 1.11577 0.124816 1.03556Z" fill="#8F8F8F"/>
</svg>
