<svg width="12" height="6" viewBox="0 0 12 6" fill="none" xmlns="http://www.w3.org/2000/svg">
<path d="M0.00143334 0.850867C0.0010452 0.652409 0.0701628 0.460081 0.196789 0.307268C0.268092 0.221262 0.355664 0.150168 0.454487 0.0980575C0.553308 0.0459468 0.661439 0.0138437 0.772687 0.00358677C0.883935 -0.00667013 0.996114 0.00512088 1.1028 0.0382842C1.20948 0.0714475 1.30858 0.125331 1.3944 0.19685L5.94704 4.00204L10.5082 0.33275C10.5951 0.262197 10.695 0.209508 10.8023 0.177715C10.9096 0.145922 11.0222 0.135649 11.1335 0.147489C11.2448 0.159328 11.3526 0.193046 11.4508 0.246704C11.549 0.300362 11.6357 0.372903 11.7058 0.460156C11.7831 0.548037 11.8414 0.650952 11.8771 0.762443C11.9128 0.873933 11.925 0.991593 11.913 1.10804C11.9011 1.22448 11.8652 1.33719 11.8076 1.4391C11.75 1.54101 11.672 1.62992 11.5784 1.70024L6.48214 5.80271C6.33016 5.92764 6.13953 5.99593 5.94279 5.99593C5.74606 5.99593 5.55542 5.92764 5.40344 5.80271L0.307208 1.55585C0.204419 1.47064 0.123165 1.3624 0.0700378 1.23991C0.0169105 1.11743 -0.00659375 0.984139 0.00143334 0.850867Z" fill="#929292"/>
</svg>
