<svg width="19" height="19" viewBox="0 0 19 19" fill="none" xmlns="http://www.w3.org/2000/svg">
<g clip-path="url(#clip0)">
<path d="M6.5879 19.0004C6.26648 19.0004 5.94507 18.9379 5.64344 18.8128C5.01407 18.5524 4.51532 18.037 4.27623 17.3989L3.68803 15.8314C3.59778 15.5923 3.40857 15.4031 3.16948 15.3137L1.60278 14.7254C0.964693 14.4864 0.449318 13.9876 0.18886 13.3582C-0.07239 12.7289 -0.0597233 12.0124 0.22211 11.3925L0.914818 9.86857C1.0209 9.63582 1.0209 9.36903 0.914818 9.13628L0.22211 7.61074C-0.0589316 6.99086 -0.0715983 6.27441 0.18886 5.64503C0.449318 5.01566 0.964693 4.5169 1.60278 4.27782L3.17028 3.68961C3.40936 3.59936 3.59857 3.41016 3.68803 3.17107L4.27623 1.60436C4.51532 0.96628 5.01407 0.450905 5.64344 0.190447C6.27282 -0.0708031 6.98928 -0.0581364 7.60915 0.223697L9.13311 0.916405C9.36665 1.02328 9.63344 1.02249 9.8654 0.916405H9.86619L11.3902 0.223697C12.01 -0.0565531 12.7265 -0.0708031 13.3559 0.190447C13.9852 0.450905 14.484 0.96628 14.7231 1.60436L15.3113 3.17186C15.4015 3.41095 15.5907 3.60016 15.8298 3.68961L17.3965 4.27782C18.0346 4.5169 18.55 5.01566 18.8104 5.64503C19.0717 6.27441 19.059 6.99086 18.7772 7.61074L18.0845 9.1347C17.9784 9.36745 17.9784 9.63424 18.0845 9.86699L18.7772 11.3917C19.0582 12.0116 19.0709 12.7281 18.8104 13.3574C18.55 13.9868 18.0346 14.4856 17.3965 14.7247L15.829 15.3129C15.5899 15.4031 15.4007 15.5923 15.3113 15.8314L14.7231 17.3981C14.484 18.0362 13.9852 18.5516 13.3559 18.812C12.7265 19.0733 12.0092 19.0598 11.3902 18.7788L9.86619 18.0861C9.63265 17.9792 9.36586 17.98 9.1339 18.0861L7.60994 18.7796C7.28694 18.926 6.93782 19.0004 6.5879 19.0004ZM6.58869 1.58457C6.4739 1.58457 6.35911 1.60753 6.24907 1.65266C6.01948 1.74766 5.84532 1.92816 5.75823 2.16011L5.17082 3.72682C4.92065 4.3942 4.3934 4.92145 3.72603 5.17161L2.15932 5.75903C1.92736 5.84611 1.74686 6.02107 1.65186 6.24986C1.55686 6.47945 1.56082 6.7304 1.66374 6.95603L2.35644 8.47999C2.65173 9.12836 2.65173 9.87411 2.35644 10.5233L1.66453 12.0464C1.56161 12.2721 1.55765 12.523 1.65265 12.7518C1.74765 12.9814 1.92815 13.1556 2.16011 13.2427L3.72682 13.8309C4.39419 14.081 4.92144 14.6075 5.17161 15.2757L5.75903 16.8424C5.84611 17.0743 6.02107 17.2548 6.24986 17.3498C6.47944 17.4456 6.72961 17.4401 6.95523 17.3379L8.47919 16.6452C9.12757 16.3499 9.87173 16.3492 10.5225 16.6452L12.0457 17.3372C12.2721 17.4393 12.5222 17.4448 12.751 17.349C12.9806 17.254 13.1548 17.0735 13.2419 16.8416L13.8301 15.2749C14.0802 14.6075 14.6067 14.0802 15.2749 13.8301L16.8416 13.2427C17.0735 13.1556 17.254 12.9806 17.349 12.7518C17.444 12.5222 17.4401 12.2721 17.3372 12.0464L16.6444 10.5225C16.3491 9.87411 16.3491 9.12836 16.6444 8.4792L17.3364 6.95603C17.4393 6.7304 17.4432 6.47945 17.3482 6.25066C17.2532 6.02107 17.0727 5.84691 16.8408 5.75982L15.2741 5.17161C14.6067 4.92145 14.0794 4.39499 13.8293 3.72682L13.2419 2.16011C13.1548 1.92816 12.9798 1.74766 12.751 1.65266C12.5222 1.55766 12.2721 1.56161 12.0457 1.66453L10.5217 2.35724C9.87173 2.65253 9.12757 2.65174 8.4784 2.35724L6.95523 1.66453C6.83728 1.61149 6.71298 1.58457 6.58869 1.58457Z" fill="white"/>
<path d="M7.12484 8.70829C6.25163 8.70829 5.5415 7.99816 5.5415 7.12496C5.5415 6.25175 6.25163 5.54163 7.12484 5.54163C7.99804 5.54163 8.70817 6.25175 8.70817 7.12496C8.70817 7.99816 7.99804 8.70829 7.12484 8.70829Z" fill="white"/>
<path d="M11.8748 13.4583C11.0016 13.4583 10.2915 12.7482 10.2915 11.875C10.2915 11.0017 11.0016 10.2916 11.8748 10.2916C12.748 10.2916 13.4582 11.0017 13.4582 11.875C13.4582 12.7482 12.748 13.4583 11.8748 13.4583Z" fill="white"/>
<path d="M7.12433 13.4582C6.95967 13.4582 6.79262 13.4068 6.65012 13.2999C6.30021 13.0379 6.22975 12.5415 6.49179 12.1916L11.2418 5.85824C11.5046 5.50911 12.0002 5.43707 12.3501 5.6999C12.7 5.96195 12.7705 6.45832 12.5085 6.80824L7.75846 13.1416C7.60329 13.349 7.365 13.4582 7.12433 13.4582Z" fill="white"/>
</g>
<defs>
<clipPath id="clip0">
<rect width="19" height="19" fill="white"/>
</clipPath>
</defs>
</svg>
