<svg width="17" height="17" viewBox="0 0 17 17" fill="none" xmlns="http://www.w3.org/2000/svg">
<path d="M2.54856 8.13818H0.637197C0.285285 8.13818 0 8.4235 0 8.77538V16.0983C0 16.4502 0.285285 16.7355 0.637197 16.7355H2.54856C2.90044 16.7355 3.18573 16.4502 3.18573 16.0983V8.77519C3.18592 8.42327 2.90044 8.13818 2.54856 8.13818Z" fill="white"/>
<path d="M7.15156 5.3916H5.24023C4.88831 5.3916 4.60303 5.67689 4.60303 6.0288V16.0981C4.60303 16.45 4.88831 16.7353 5.24023 16.7353H7.15156C7.50347 16.7353 7.78876 16.45 7.78876 16.0981V6.0286C7.78872 5.67692 7.50344 5.3916 7.15156 5.3916Z" fill="white"/>
<path d="M11.7543 2.64551H9.84273C9.49085 2.64551 9.20557 2.93079 9.20557 3.28267V16.0983C9.20557 16.4502 9.49085 16.7355 9.84273 16.7355H11.7541C12.106 16.7355 12.3913 16.4502 12.3913 16.0983V3.28248C12.3913 2.9306 12.106 2.64551 11.7543 2.64551Z" fill="white"/>
<path d="M16.363 0.265137H14.4517C14.0997 0.265137 13.8145 0.550422 13.8145 0.902335V16.0982C13.8145 16.4501 14.0997 16.7353 14.4517 16.7353H16.363C16.7149 16.7353 17.0002 16.4501 17.0002 16.0982V0.90214C17.0002 0.550227 16.7149 0.265137 16.363 0.265137Z" fill="white"/>
</svg>
