<svg width="18" height="18" viewBox="0 0 18 18" fill="none" xmlns="http://www.w3.org/2000/svg">
<g clip-path="url(#clip0)">
<path d="M16.3828 3.09455H12.3026C12.8376 2.3273 12.7636 1.2614 12.0796 0.577437C11.312 -0.1902 10.063 -0.1902 9.29542 0.577437C9.20925 0.663605 9.10635 0.788374 9.00004 0.999417C8.89369 0.788374 8.79082 0.663605 8.70465 0.577437C7.93705 -0.1902 6.68806 -0.1902 5.92045 0.577437C5.23649 1.2614 5.16252 2.32727 5.69742 3.09455H1.61719C0.725484 3.09455 0 3.82004 0 4.71174V5.97737C0 6.69751 0.473238 7.30898 1.125 7.5177V16.3836C1.125 17.2753 1.85048 18.0008 2.74219 18.0008H7.875H10.125H15.2578C16.1495 18.0008 16.875 17.2753 16.875 16.3836V7.5177C17.5268 7.30894 18 6.69747 18 5.97737V4.71174C18 3.82004 17.2745 3.09455 16.3828 3.09455ZM9.5625 6.46955H8.4375V4.21955H9.5625V6.46955ZM9.69483 2.6184C9.86857 1.61908 10.0686 1.39517 10.0909 1.37292C10.2554 1.20842 10.4715 1.12619 10.6875 1.12619C10.9036 1.12619 11.1197 1.20842 11.2842 1.37292C11.6131 1.70191 11.6131 2.23716 11.2842 2.56616C11.2621 2.58827 11.0395 2.78722 10.0477 2.96064C9.90337 2.98589 9.7625 3.00702 9.63253 3.02449C9.64962 2.8975 9.67022 2.75987 9.69483 2.6184ZM6.71586 1.37292C6.88036 1.20842 7.09643 1.12619 7.3125 1.12619C7.52857 1.12619 7.74464 1.20842 7.90914 1.37292C7.93125 1.39503 8.1302 1.6176 8.30363 2.60933C8.32887 2.75368 8.35 2.89459 8.36747 3.02456C8.24048 3.00744 8.10281 2.98684 7.96138 2.96223C6.96206 2.78848 6.73815 2.58841 6.7159 2.56616C6.38691 2.2372 6.38691 1.70191 6.71586 1.37292ZM1.125 4.71174C1.125 4.44034 1.34578 4.21955 1.61719 4.21955H7.3125V6.46955H1.6875H1.61719C1.34578 6.46955 1.125 6.24877 1.125 5.97737V4.71174ZM2.25 16.3836V7.59455H7.3125V16.8758H2.74219C2.47078 16.8758 2.25 16.655 2.25 16.3836ZM8.4375 16.8758V7.59455H9.5625V16.8758H8.4375ZM15.75 16.3836C15.75 16.655 15.5292 16.8758 15.2578 16.8758H10.6875V7.59455H15.75V16.3836ZM16.875 5.97737C16.875 6.24877 16.6542 6.46955 16.3828 6.46955H16.3125H10.6875V4.21955H16.3828C16.6542 4.21955 16.875 4.44034 16.875 4.71174V5.97737Z" fill="white"/>
</g>
<defs>
<clipPath id="clip0">
<rect width="18" height="18" fill="white"/>
</clipPath>
</defs>
</svg>
