<svg width="20" height="20" viewBox="0 0 20 20" fill="none" xmlns="http://www.w3.org/2000/svg">
<g clip-path="url(#clip0)">
<path d="M7.8689 10C6.49058 10 5.3689 11.1217 5.3689 12.5C5.3689 13.8783 6.49058 15 7.8689 15C9.24721 15 10.3689 13.8783 10.3689 12.5C10.3689 11.1217 9.24725 10 7.8689 10ZM7.8689 14.1667C6.94972 14.1667 6.20222 13.4192 6.20222 12.5C6.20222 11.5808 6.94972 10.8333 7.8689 10.8333C8.78807 10.8333 9.53557 11.5808 9.53557 12.5C9.53557 13.4192 8.78807 14.1667 7.8689 14.1667Z" fill="#707070"/>
<path d="M14.8856 14.0342L13.5723 13.005C13.5881 12.8392 13.5981 12.67 13.5981 12.5008C13.5981 12.3291 13.5881 12.1583 13.5714 11.9866L14.8973 10.9466C15.1906 10.6983 15.2614 10.2833 15.0698 9.96414L13.6498 7.50996C13.4564 7.18914 13.0631 7.05078 12.7014 7.18578L11.1573 7.8066C10.8798 7.60828 10.5906 7.43992 10.2823 7.29492L10.0481 5.63242C9.97979 5.2725 9.6523 5 9.28479 5H6.45148C6.08148 5 5.75316 5.27832 5.68398 5.66168L5.45316 7.30668C5.14234 7.45418 4.84984 7.625 4.57898 7.81668L3.02566 7.19168C2.67566 7.06086 2.28066 7.1975 2.08398 7.525L0.671477 9.96918C0.476477 10.2934 0.547298 10.7092 0.852298 10.9667L2.16562 11.9959C2.1498 12.1617 2.1398 12.3309 2.1398 12.5C2.1398 12.6717 2.1498 12.8425 2.16648 13.0142L0.839798 14.0534C0.546477 14.3017 0.475618 14.7167 0.667298 15.0359L2.0873 17.4901C2.28062 17.8118 2.67398 17.9493 3.03562 17.8143L4.5798 17.1934C4.8573 17.3918 5.14648 17.5601 5.4548 17.7051L5.68898 19.3676C5.7573 19.7276 6.0848 20.0001 6.4523 20.0001H9.28562C9.65562 20.0001 9.98394 19.7218 10.0531 19.3384L10.2839 17.6934C10.5948 17.5459 10.8873 17.3751 11.1581 17.1834L12.7114 17.8084C13.0623 17.9401 13.4573 17.8026 13.6531 17.4751L15.0664 15.0318C15.2614 14.7075 15.1906 14.2917 14.8856 14.0342ZM12.9598 17.0092L11.2523 16.3225C11.1148 16.2658 10.9581 16.2892 10.8406 16.38C10.5148 16.6342 10.1439 16.8508 9.73894 17.0242C9.60562 17.0817 9.51062 17.205 9.49062 17.3492L9.28562 19.1667H6.50144L6.24812 17.3592C6.2273 17.2142 6.1323 17.09 5.99644 17.0334C5.59726 16.8667 5.23812 16.6559 4.89726 16.3909C4.78058 16.3 4.62308 16.2775 4.48558 16.3334L2.77808 17.0209L1.4139 14.6634L2.8639 13.5267C2.97972 13.4359 3.0389 13.2909 3.02058 13.145C2.99226 12.93 2.97308 12.715 2.97308 12.5C2.97308 12.2858 2.99226 12.0725 3.01976 11.8675C3.03894 11.7217 2.98058 11.575 2.86394 11.4842L1.41394 10.3475L2.77812 7.99L4.48562 8.67668C4.62144 8.7325 4.7798 8.71 4.8973 8.61918C5.22312 8.365 5.59398 8.14836 5.99898 7.975C6.1323 7.9175 6.22648 7.795 6.2473 7.65082L6.45148 5.83332H9.23647L9.48979 7.64082C9.51062 7.78582 9.60562 7.91 9.74148 7.96664C10.1407 8.13332 10.4998 8.34414 10.8407 8.60914C10.959 8.70082 11.1165 8.72332 11.2523 8.66664L12.9598 7.97832L14.324 10.3358L12.874 11.4725C12.7582 11.5633 12.699 11.7083 12.7173 11.8542C12.7457 12.0692 12.7648 12.2842 12.7648 12.4992C12.7648 12.7134 12.7457 12.9267 12.7182 13.1317C12.699 13.2775 12.7573 13.4242 12.874 13.515L14.324 14.6517L12.9598 17.0092Z" fill="#707070"/>
<path d="M15.3691 2.5C14.4499 2.5 13.7024 3.2475 13.7024 4.16668C13.7024 5.08586 14.4499 5.83336 15.3691 5.83336C16.2882 5.83336 17.0357 5.08586 17.0357 4.16668C17.0357 3.2475 16.2882 2.5 15.3691 2.5ZM15.3691 5C14.9099 5 14.5358 4.62582 14.5358 4.16668C14.5358 3.7075 14.9099 3.33336 15.3691 3.33336C15.8282 3.33336 16.2024 3.70754 16.2024 4.16668C16.2024 4.62582 15.8282 5 15.3691 5Z" fill="#707070"/>
<path d="M19.2308 4.845C19.2241 4.83918 19.2166 4.83332 19.2099 4.8275L18.5908 4.3475C18.5958 4.28832 18.5983 4.22832 18.5983 4.16668C18.5983 4.10418 18.5966 4.04336 18.5933 3.98168L19.2241 3.48668C19.4391 3.295 19.4941 2.98668 19.3524 2.7275L18.6074 1.43918C18.4682 1.18336 18.1607 1.06668 17.8532 1.17L17.1349 1.45918C17.0307 1.39 16.9266 1.32918 16.8207 1.27668L16.714 0.54C16.6899 0.2375 16.4283 0 16.1191 0H14.6191C14.3258 0 14.0691 0.2175 14.0183 0.51582L13.9083 1.28332C13.7983 1.33914 13.6941 1.39832 13.5966 1.46164L12.8633 1.16664C12.5916 1.06832 12.2941 1.16996 12.1274 1.43164L11.3733 2.7375C11.2291 3.00082 11.2899 3.315 11.5266 3.505L12.1441 3.98832C12.1416 4.04664 12.1399 4.10582 12.1399 4.16664C12.1399 4.22746 12.1416 4.28664 12.1441 4.34582L11.5074 4.845C11.2916 5.03668 11.2366 5.34582 11.3782 5.60582L12.1232 6.89414C12.2632 7.14996 12.5715 7.26746 12.8774 7.16332L13.5957 6.87414C13.6999 6.94332 13.804 7.00414 13.9099 7.05664L14.0207 7.82832C14.0699 8.12082 14.3215 8.33332 14.619 8.33332H16.119C16.4115 8.33332 16.669 8.11582 16.7199 7.81832L16.8299 7.05C16.9399 6.995 17.0424 6.93582 17.1374 6.87332L17.874 7.16832C18.144 7.26582 18.444 7.16414 18.6107 6.90332L19.3657 5.59582C19.5016 5.345 19.4466 5.03582 19.2308 4.845ZM17.9866 6.31582L17.2333 6.015C17.0941 5.96 16.9366 5.9825 16.8183 6.07668C16.6758 6.19086 16.4958 6.295 16.2824 6.3875C16.1499 6.445 16.0566 6.56668 16.0358 6.71L15.9224 7.5H14.8149L14.7024 6.70918C14.6808 6.56 14.5799 6.43418 14.4399 6.38C14.2616 6.31168 14.0866 6.21 13.9058 6.07082C13.7883 5.98082 13.6333 5.96 13.4958 6.015L12.7516 6.31582L12.1991 5.36082L12.8358 4.8625C12.9516 4.77168 13.0108 4.6275 12.9924 4.4825C12.9791 4.37918 12.9733 4.27582 12.9733 4.16668C12.9733 4.05754 12.9791 3.95418 12.9916 3.85086C13.0099 3.70504 12.9508 3.56086 12.8349 3.47086L12.1982 2.97254L12.7499 2.01754L13.4949 2.31754C13.6316 2.37336 13.7874 2.35086 13.9049 2.26172C14.0582 2.14422 14.2432 2.03754 14.4549 1.9459C14.5874 1.8884 14.6807 1.76672 14.7016 1.6234L14.8149 0.833398H15.9149L16.0291 1.62508C16.0499 1.77426 16.1508 1.90008 16.2908 1.95426C16.4691 2.02258 16.6441 2.12426 16.8249 2.26344C16.9416 2.35344 17.0966 2.37512 17.2349 2.31926L17.9791 2.01844L18.5316 2.97344L17.8949 3.47176C17.7724 3.56676 17.7133 3.72258 17.7416 3.87594C17.7599 3.97094 17.7649 4.06594 17.7649 4.16676C17.7649 4.27594 17.7508 4.37926 17.7374 4.48176C17.7191 4.62758 17.7791 4.77258 17.8949 4.86258L18.5374 5.3609L17.9866 6.31582Z" fill="#707070"/>
</g>
<defs>
<clipPath id="clip0">
<rect width="20" height="20" fill="white"/>
</clipPath>
</defs>
</svg>
