<svg width="25" height="25" viewBox="0 0 25 25" fill="none" xmlns="http://www.w3.org/2000/svg">
<path d="M5.20848 10.4165C5.208 10.1732 5.29277 9.93729 5.44806 9.74988C5.53551 9.6444 5.6429 9.55721 5.7641 9.4933C5.88529 9.4294 6.01791 9.39002 6.15434 9.37745C6.29077 9.36487 6.42835 9.37933 6.55919 9.42C6.69002 9.46067 6.81155 9.52675 6.91681 9.61446L12.5001 14.2811L18.0939 9.78113C18.2004 9.6946 18.323 9.62999 18.4546 9.591C18.5863 9.552 18.7243 9.53941 18.8608 9.55393C18.9972 9.56845 19.1295 9.6098 19.25 9.6756C19.3704 9.74141 19.4767 9.83037 19.5626 9.93738C19.6575 10.0452 19.729 10.1714 19.7727 10.3081C19.8165 10.4448 19.8315 10.5891 19.8168 10.7319C19.8021 10.8747 19.7581 11.013 19.6875 11.138C19.6169 11.2629 19.5212 11.372 19.4064 11.4582L13.1564 16.4895C12.97 16.6427 12.7362 16.7264 12.4949 16.7264C12.2537 16.7264 12.0199 16.6427 11.8335 16.4895L5.58348 11.2811C5.45742 11.1766 5.35777 11.0439 5.29261 10.8937C5.22746 10.7435 5.19863 10.58 5.20848 10.4165Z" fill="white"/>
</svg>
