<svg width="19" height="19" viewBox="0 0 19 19" fill="none" xmlns="http://www.w3.org/2000/svg">
<g clip-path="url(#clip0)">
<path d="M6.58802 19.0003C6.26661 19.0003 5.94519 18.9378 5.64357 18.8127C5.01419 18.5522 4.51544 18.0369 4.27636 17.3988L3.68815 15.8313C3.5979 15.5922 3.40869 15.403 3.16961 15.3135L1.6029 14.7253C0.964815 14.4862 0.44944 13.9875 0.188982 13.3581C-0.0722679 12.7287 -0.0596013 12.0123 0.222232 11.3924L0.91494 9.86845C1.02102 9.6357 1.02102 9.36891 0.91494 9.13616L0.222232 7.61062C-0.0588096 6.99074 -0.0714762 6.27428 0.188982 5.64491C0.44944 5.01553 0.964815 4.51678 1.6029 4.2777L3.1704 3.68949C3.40948 3.59924 3.59869 3.41003 3.68815 3.17095L4.27636 1.60424C4.51544 0.966158 5.01419 0.450783 5.64357 0.190325C6.27294 -0.0709252 6.9894 -0.0582585 7.60927 0.223575L9.13323 0.916283C9.36677 1.02316 9.63356 1.02237 9.86552 0.916283H9.86631L11.3903 0.223575C12.0101 -0.0566751 12.7266 -0.0709252 13.356 0.190325C13.9854 0.450783 14.4841 0.966158 14.7232 1.60424L15.3114 3.17174C15.4016 3.41082 15.5909 3.60003 15.8299 3.68949L17.3966 4.2777C18.0347 4.51678 18.5501 5.01553 18.8106 5.64491C19.0718 6.27428 19.0591 6.99074 18.7773 7.61062L18.0846 9.13457C17.9785 9.36732 17.9785 9.63412 18.0846 9.86687L18.7773 11.3916C19.0584 12.0115 19.071 12.7279 18.8106 13.3573C18.5501 13.9867 18.0347 14.4854 17.3966 14.7245L15.8291 15.3127C15.5901 15.403 15.4009 15.5922 15.3114 15.8313L14.7232 17.398C14.4841 18.0361 13.9854 18.5514 13.356 18.8119C12.7266 19.0732 12.0094 19.0597 11.3903 18.7787L9.86631 18.0859C9.63277 17.9791 9.36598 17.9799 9.13402 18.0859L7.61007 18.7794C7.28707 18.9259 6.93794 19.0003 6.58802 19.0003ZM6.58881 1.58445C6.47402 1.58445 6.35923 1.60741 6.24919 1.65253C6.01961 1.74753 5.84544 1.92803 5.75836 2.15999L5.17094 3.7267C4.92077 4.39407 4.39352 4.92132 3.72615 5.17149L2.15944 5.75891C1.92748 5.84599 1.74698 6.02095 1.65198 6.24974C1.55698 6.47932 1.56094 6.73028 1.66386 6.95591L2.35657 8.47987C2.65186 9.12824 2.65186 9.87399 2.35657 10.5232L1.66465 12.0463C1.56173 12.2719 1.55777 12.5229 1.65277 12.7517C1.74777 12.9813 1.92827 13.1554 2.16023 13.2425L3.72694 13.8307C4.39432 14.0809 4.92157 14.6074 5.17173 15.2755L5.75915 16.8422C5.84623 17.0742 6.02119 17.2547 6.24998 17.3497C6.47957 17.4455 6.72973 17.4399 6.95536 17.3378L8.47931 16.6451C9.12769 16.3498 9.87186 16.349 10.5226 16.6451L12.0458 17.337C12.2722 17.4392 12.5224 17.4447 12.7511 17.3489C12.9807 17.2539 13.1549 17.0734 13.242 16.8414L13.8302 15.2747C14.0804 14.6074 14.6068 14.0801 15.275 13.8299L16.8417 13.2425C17.0736 13.1554 17.2541 12.9805 17.3491 12.7517C17.4441 12.5221 17.4402 12.2719 17.3373 12.0463L16.6446 10.5224C16.3493 9.87399 16.3493 9.12824 16.6446 8.47907L17.3365 6.95591C17.4394 6.73028 17.4434 6.47932 17.3484 6.25053C17.2534 6.02095 17.0729 5.84678 16.8409 5.7597L15.2742 5.17149C14.6068 4.92132 14.0796 4.39487 13.8294 3.7267L13.242 2.15999C13.1549 1.92803 12.9799 1.74753 12.7511 1.65253C12.5224 1.55753 12.2722 1.56149 12.0458 1.66441L10.5218 2.35712C9.87186 2.65241 9.12769 2.65162 8.47852 2.35712L6.95536 1.66441C6.8374 1.61137 6.71311 1.58445 6.58881 1.58445Z" fill="#707070"/>
<path d="M7.12508 8.70817C6.25187 8.70817 5.54175 7.99804 5.54175 7.12484C5.54175 6.25163 6.25187 5.5415 7.12508 5.5415C7.99829 5.5415 8.70841 6.25163 8.70841 7.12484C8.70841 7.99804 7.99829 8.70817 7.12508 8.70817Z" fill="#707070"/>
<path d="M11.8751 13.4582C11.0019 13.4582 10.2917 12.748 10.2917 11.8748C10.2917 11.0016 11.0019 10.2915 11.8751 10.2915C12.7483 10.2915 13.4584 11.0016 13.4584 11.8748C13.4584 12.748 12.7483 13.4582 11.8751 13.4582Z" fill="#707070"/>
<path d="M7.12421 13.4582C6.95954 13.4582 6.7925 13.4068 6.65 13.2999C6.30008 13.0379 6.22963 12.5415 6.49167 12.1916L11.2417 5.85824C11.5045 5.50911 12.0001 5.43707 12.35 5.6999C12.6999 5.96195 12.7704 6.45832 12.5083 6.80824L7.75834 13.1416C7.60317 13.349 7.36488 13.4582 7.12421 13.4582Z" fill="#707070"/>
</g>
<defs>
<clipPath id="clip0">
<rect width="19" height="19" fill="white"/>
</clipPath>
</defs>
</svg>
