<svg width="20" height="20" viewBox="0 0 20 20" fill="none" xmlns="http://www.w3.org/2000/svg">
<path d="M13.3577 12.8266C12.8838 12.8266 12.4983 12.4929 12.4983 12.0828C12.4983 11.6726 12.8838 11.3389 13.3577 11.3389C13.8315 11.3389 14.217 11.6726 14.217 12.0828C14.217 12.2985 14.392 12.4734 14.6077 12.4734C14.8234 12.4734 14.9983 12.2985 14.9983 12.0828C14.9983 11.367 14.4649 10.7651 13.7483 10.6017V10.3986C13.7483 10.1829 13.5734 10.0079 13.3577 10.0079C13.142 10.0079 12.967 10.1829 12.967 10.3986V10.6017C12.2504 10.7651 11.717 11.367 11.717 12.0828C11.717 12.9237 12.453 13.6078 13.3577 13.6078C13.8315 13.6078 14.217 13.9415 14.217 14.3516C14.217 14.7618 13.8315 15.0955 13.3577 15.0955C12.8838 15.0955 12.4983 14.7618 12.4983 14.3516C12.4983 14.1359 12.3234 13.961 12.1077 13.961C11.892 13.961 11.717 14.1359 11.717 14.3516C11.717 15.0675 12.2504 15.6693 12.967 15.8327V16.0014C12.967 16.2171 13.142 16.3921 13.3577 16.3921C13.5734 16.3921 13.7483 16.2171 13.7483 16.0014V15.8327C14.4649 15.6693 14.9983 15.0675 14.9983 14.3516C14.9983 13.5107 14.2623 12.8266 13.3577 12.8266Z" fill="white"/>
<path d="M17.636 10.5031C17.1258 9.70796 16.4069 9.07171 15.5571 8.66319C15.3626 8.56968 15.1292 8.65155 15.0357 8.846C14.9423 9.04046 15.0241 9.27382 15.2185 9.36729C16.6994 10.0792 17.6563 11.6002 17.6563 13.2423C17.6563 13.945 17.4831 14.6418 17.1555 15.2576C17.0541 15.448 17.1264 15.6846 17.3168 15.7859C17.3753 15.817 17.4381 15.8318 17.4999 15.8318C17.6397 15.8318 17.7749 15.7565 17.8451 15.6245C18.2327 14.8963 18.4375 14.0725 18.4375 13.2423C18.4375 12.2673 18.1604 11.3201 17.636 10.5031Z" fill="white"/>
<path d="M13.9716 8.16398L13.9453 8.16394C13.7296 8.16394 13.5547 8.33882 13.5547 8.55456C13.5547 8.77031 13.7296 8.94519 13.9453 8.94519L13.9679 8.94523C13.9686 8.94523 13.9691 8.94523 13.9698 8.94523C14.1847 8.94523 14.3594 8.77156 14.3604 8.55644C14.3614 8.3407 14.1873 8.16499 13.9716 8.16398Z" fill="white"/>
<path d="M11.5002 17.1171C10.0193 16.4051 9.0625 14.8841 9.0625 13.242C9.0625 12.5394 9.2357 11.8425 9.56332 11.2268C9.66464 11.0363 9.59242 10.7998 9.40195 10.6984C9.21156 10.5971 8.97492 10.6693 8.87363 10.8598C8.48609 11.5881 8.28125 12.4119 8.28125 13.242C8.28125 14.217 8.5584 15.1642 9.08273 15.9813C9.593 16.7764 10.3119 17.4126 11.1617 17.8212C11.2163 17.8474 11.2739 17.8598 11.3307 17.8598C11.4762 17.8598 11.6158 17.7782 11.683 17.6384C11.7764 17.4439 11.6946 17.2105 11.5002 17.1171Z" fill="white"/>
<path d="M12.7734 17.5391L12.7508 17.5391C12.5341 17.5387 12.3594 17.7121 12.3584 17.9279C12.3574 18.1436 12.5315 18.3193 12.7472 18.3203L12.7734 18.3204C12.9891 18.3204 13.164 18.1455 13.164 17.9298C13.164 17.7141 12.9891 17.5391 12.7734 17.5391Z" fill="white"/>
<path d="M15.1331 6.84249C15.0856 6.72921 15.0274 6.62245 14.9596 6.52343H15.9765C16.9673 6.52343 17.7734 5.71733 17.7734 4.72655C17.7734 3.73577 16.9673 2.92968 15.9765 2.92968H12.8484C13.0473 2.64054 13.164 2.29074 13.164 1.91406C13.164 0.92328 12.3579 0.117188 11.3672 0.117188H1.79687C0.806092 0.117188 0 0.92328 0 1.91406C0 2.90484 0.806092 3.71093 1.79687 3.71093H4.92499C4.72612 4.00007 4.60937 4.34987 4.60937 4.72655C4.60937 5.10323 4.72608 5.45304 4.92499 5.74218H3.90624C2.91546 5.74218 2.10937 6.54827 2.10937 7.53905C2.10937 8.10807 2.37554 8.61584 2.78964 8.9453C2.37554 9.27475 2.10937 9.78252 2.10937 10.3515C2.10937 10.9206 2.37554 11.4283 2.78964 11.7578C2.37554 12.0872 2.10937 12.595 2.10937 13.164C2.10937 13.7331 2.37554 14.2408 2.78964 14.5703C2.37554 14.8997 2.10937 15.4075 2.10937 15.9765C2.10937 16.9673 2.91546 17.7734 3.90624 17.7734H8.50975C9.72248 19.0705 11.4477 19.8828 13.3594 19.8828C17.021 19.8828 20 16.9038 20 13.2422C20 10.1947 17.9363 7.62042 15.1331 6.84249ZM15.9765 3.71093C16.5366 3.71093 16.9922 4.16655 16.9922 4.72655C16.9922 5.28655 16.5366 5.74218 15.9765 5.74218H13.4765H6.40624C5.8462 5.74218 5.39061 5.28655 5.39061 4.72655C5.39061 4.16655 5.8462 3.71093 6.40624 3.71093H15.9765ZM1.79687 2.92968C1.23683 2.92968 0.781249 2.47406 0.781249 1.91406C0.781249 1.35406 1.23683 0.898436 1.79687 0.898436H11.3672C11.9272 0.898436 12.3828 1.35406 12.3828 1.91406C12.3828 2.47406 11.9272 2.92968 11.3672 2.92968H1.79687ZM3.90624 6.52343H13.4765C13.6339 6.52343 13.7845 6.55999 13.9197 6.62546C13.7349 6.60995 13.5481 6.60159 13.3594 6.60159C11.5256 6.60159 9.86311 7.34881 8.66022 8.55467H3.90624C3.34624 8.55467 2.89062 8.09905 2.89062 7.53905C2.89062 6.97905 3.34624 6.52343 3.90624 6.52343ZM3.90624 9.33592H7.99276C7.54932 9.94346 7.20647 10.6287 6.98874 11.3672H3.90624C3.3462 11.3672 2.89062 10.9116 2.89062 10.3515C2.89062 9.79154 3.3462 9.33592 3.90624 9.33592ZM3.90624 12.1484H6.80936C6.7501 12.5044 6.71878 12.8697 6.71878 13.2422C6.71878 13.5604 6.74178 13.8733 6.78526 14.1797H3.90624C3.3462 14.1797 2.89062 13.7241 2.89062 13.164C2.89062 12.604 3.3462 12.1484 3.90624 12.1484ZM3.90624 16.9922C3.3462 16.9922 2.89062 16.5366 2.89062 15.9765C2.89062 15.4165 3.3462 14.9609 3.90624 14.9609H6.94475C7.14186 15.6958 7.46206 16.3807 7.88198 16.9922H3.90624ZM13.3594 19.1016C10.1285 19.1016 7.50002 16.4731 7.50002 13.2422C7.50002 10.0113 10.1285 7.38284 13.3594 7.38284C16.5902 7.38284 19.2188 10.0113 19.2188 13.2422C19.2188 16.4731 16.5902 19.1016 13.3594 19.1016Z" fill="white"/>
</svg>
