<svg width="20" height="20" viewBox="0 0 20 20" fill="none" xmlns="http://www.w3.org/2000/svg">
<g clip-path="url(#clip0)">
<path d="M7.86914 10C6.49082 10 5.36914 11.1217 5.36914 12.5C5.36914 13.8783 6.49082 15 7.86914 15C9.24746 15 10.3691 13.8783 10.3691 12.5C10.3691 11.1217 9.2475 10 7.86914 10ZM7.86914 14.1667C6.94996 14.1667 6.20246 13.4192 6.20246 12.5C6.20246 11.5808 6.94996 10.8333 7.86914 10.8333C8.78832 10.8333 9.53582 11.5808 9.53582 12.5C9.53582 13.4192 8.78832 14.1667 7.86914 14.1667Z" fill="white"/>
<path d="M14.8859 14.0342L13.5725 13.005C13.5884 12.8392 13.5984 12.67 13.5984 12.5008C13.5984 12.3291 13.5884 12.1583 13.5717 11.9866L14.8975 10.9466C15.1908 10.6983 15.2617 10.2833 15.07 9.96414L13.65 7.50996C13.4567 7.18914 13.0633 7.05078 12.7017 7.18578L11.1575 7.8066C10.88 7.60828 10.5908 7.43992 10.2825 7.29492L10.0483 5.63242C9.98004 5.2725 9.65254 5 9.28504 5H6.45172C6.08172 5 5.7534 5.27832 5.68422 5.66168L5.4534 7.30668C5.14258 7.45418 4.85008 7.625 4.57922 7.81668L3.0259 7.19168C2.6759 7.06086 2.2809 7.1975 2.08422 7.525L0.671722 9.96918C0.476722 10.2934 0.547542 10.7092 0.852542 10.9667L2.16586 11.9959C2.15004 12.1617 2.14004 12.3309 2.14004 12.5C2.14004 12.6717 2.15004 12.8425 2.16672 13.0142L0.840042 14.0534C0.546722 14.3017 0.475862 14.7167 0.667542 15.0359L2.08754 17.4901C2.28086 17.8118 2.67422 17.9493 3.03586 17.8143L4.58004 17.1934C4.85754 17.3918 5.14672 17.5601 5.45504 17.7051L5.68922 19.3676C5.75754 19.7276 6.08504 20.0001 6.45254 20.0001H9.28586C9.65586 20.0001 9.98418 19.7218 10.0534 19.3384L10.2842 17.6934C10.595 17.5459 10.8875 17.3751 11.1584 17.1834L12.7117 17.8084C13.0625 17.9401 13.4575 17.8026 13.6534 17.4751L15.0667 15.0318C15.2617 14.7075 15.1909 14.2917 14.8859 14.0342ZM12.96 17.0092L11.2525 16.3225C11.115 16.2658 10.9584 16.2892 10.8409 16.38C10.515 16.6342 10.1442 16.8508 9.73918 17.0242C9.60586 17.0817 9.51086 17.205 9.49086 17.3492L9.28586 19.1667H6.50168L6.24836 17.3592C6.22754 17.2142 6.13254 17.09 5.99668 17.0334C5.5975 16.8667 5.23836 16.6559 4.8975 16.3909C4.78082 16.3 4.62332 16.2775 4.48582 16.3334L2.77832 17.0209L1.41414 14.6634L2.86414 13.5267C2.97996 13.4359 3.03914 13.2909 3.02082 13.145C2.9925 12.93 2.97332 12.715 2.97332 12.5C2.97332 12.2858 2.9925 12.0725 3.02 11.8675C3.03918 11.7217 2.98082 11.575 2.86418 11.4842L1.41418 10.3475L2.77836 7.99L4.48586 8.67668C4.62168 8.7325 4.78004 8.71 4.89754 8.61918C5.22336 8.365 5.59422 8.14836 5.99922 7.975C6.13254 7.9175 6.22672 7.795 6.24754 7.65082L6.45172 5.83332H9.23672L9.49004 7.64082C9.51086 7.78582 9.60586 7.91 9.74172 7.96664C10.1409 8.13332 10.5 8.34414 10.8409 8.60914C10.9592 8.70082 11.1167 8.72332 11.2526 8.66664L12.9601 7.97832L14.3243 10.3358L12.8743 11.4725C12.7584 11.5633 12.6993 11.7083 12.7176 11.8542C12.7459 12.0692 12.7651 12.2842 12.7651 12.4992C12.7651 12.7134 12.7459 12.9267 12.7184 13.1317C12.6992 13.2775 12.7576 13.4242 12.8742 13.515L14.3242 14.6517L12.96 17.0092Z" fill="white"/>
<path d="M15.3688 2.5C14.4496 2.5 13.7021 3.2475 13.7021 4.16668C13.7021 5.08586 14.4496 5.83336 15.3688 5.83336C16.288 5.83336 17.0355 5.08586 17.0355 4.16668C17.0355 3.2475 16.288 2.5 15.3688 2.5ZM15.3688 5C14.9096 5 14.5355 4.62582 14.5355 4.16668C14.5355 3.7075 14.9097 3.33336 15.3688 3.33336C15.828 3.33336 16.2021 3.70754 16.2021 4.16668C16.2022 4.62582 15.828 5 15.3688 5Z" fill="white"/>
<path d="M19.2308 4.845C19.2241 4.83918 19.2166 4.83332 19.2099 4.8275L18.5908 4.3475C18.5958 4.28832 18.5983 4.22832 18.5983 4.16668C18.5983 4.10418 18.5966 4.04336 18.5933 3.98168L19.2241 3.48668C19.4391 3.295 19.4941 2.98668 19.3524 2.7275L18.6074 1.43918C18.4682 1.18336 18.1607 1.06668 17.8532 1.17L17.1349 1.45918C17.0307 1.39 16.9266 1.32918 16.8207 1.27668L16.714 0.54C16.6899 0.2375 16.4283 0 16.1191 0H14.6191C14.3258 0 14.0691 0.2175 14.0183 0.51582L13.9083 1.28332C13.7983 1.33914 13.6941 1.39832 13.5966 1.46164L12.8633 1.16664C12.5916 1.06832 12.2941 1.16996 12.1274 1.43164L11.3733 2.7375C11.2291 3.00082 11.2899 3.315 11.5266 3.505L12.1441 3.98832C12.1416 4.04664 12.1399 4.10582 12.1399 4.16664C12.1399 4.22746 12.1416 4.28664 12.1441 4.34582L11.5074 4.845C11.2916 5.03668 11.2366 5.34582 11.3782 5.60582L12.1232 6.89414C12.2632 7.14996 12.5715 7.26746 12.8774 7.16332L13.5957 6.87414C13.6999 6.94332 13.804 7.00414 13.9099 7.05664L14.0207 7.82832C14.0699 8.12082 14.3215 8.33332 14.619 8.33332H16.119C16.4115 8.33332 16.669 8.11582 16.7199 7.81832L16.8299 7.05C16.9399 6.995 17.0424 6.93582 17.1374 6.87332L17.874 7.16832C18.144 7.26582 18.444 7.16414 18.6107 6.90332L19.3657 5.59582C19.5016 5.345 19.4466 5.03582 19.2308 4.845ZM17.9866 6.31582L17.2333 6.015C17.0941 5.96 16.9366 5.9825 16.8183 6.07668C16.6758 6.19086 16.4958 6.295 16.2824 6.3875C16.1499 6.445 16.0566 6.56668 16.0358 6.71L15.9224 7.5H14.8149L14.7024 6.70918C14.6808 6.56 14.5799 6.43418 14.4399 6.38C14.2616 6.31168 14.0866 6.21 13.9058 6.07082C13.7883 5.98082 13.6333 5.96 13.4958 6.015L12.7516 6.31582L12.1991 5.36082L12.8358 4.8625C12.9516 4.77168 13.0108 4.6275 12.9924 4.4825C12.9791 4.37918 12.9733 4.27582 12.9733 4.16668C12.9733 4.05754 12.9791 3.95418 12.9916 3.85086C13.0099 3.70504 12.9508 3.56086 12.8349 3.47086L12.1982 2.97254L12.7499 2.01754L13.4949 2.31754C13.6316 2.37336 13.7874 2.35086 13.9049 2.26172C14.0582 2.14422 14.2432 2.03754 14.4549 1.9459C14.5874 1.8884 14.6807 1.76672 14.7016 1.6234L14.8149 0.833398H15.9149L16.0291 1.62508C16.0499 1.77426 16.1508 1.90008 16.2908 1.95426C16.4691 2.02258 16.6441 2.12426 16.8249 2.26344C16.9416 2.35344 17.0966 2.37512 17.2349 2.31926L17.9791 2.01844L18.5316 2.97344L17.8949 3.47176C17.7724 3.56676 17.7133 3.72258 17.7416 3.87594C17.7599 3.97094 17.7649 4.06594 17.7649 4.16676C17.7649 4.27594 17.7508 4.37926 17.7374 4.48176C17.7191 4.62758 17.7791 4.77258 17.8949 4.86258L18.5374 5.3609L17.9866 6.31582Z" fill="white"/>
</g>
<defs>
<clipPath id="clip0">
<rect width="20" height="20" fill="white"/>
</clipPath>
</defs>
</svg>
