<svg width="17" height="17" viewBox="0 0 17 17" fill="none" xmlns="http://www.w3.org/2000/svg">
<path d="M2.54856 8.13782H0.637197C0.285285 8.13782 0 8.42314 0 8.77501V16.098C0 16.4499 0.285285 16.7352 0.637197 16.7352H2.54856C2.90044 16.7352 3.18573 16.4499 3.18573 16.098V8.77482C3.18592 8.42291 2.90044 8.13782 2.54856 8.13782Z" fill="#707070"/>
<path d="M7.15131 5.39136H5.23998C4.88807 5.39136 4.60278 5.67664 4.60278 6.02855V16.0978C4.60278 16.4497 4.88807 16.735 5.23998 16.735H7.15131C7.50323 16.735 7.78851 16.4497 7.78851 16.0978V6.02836C7.78848 5.67668 7.50319 5.39136 7.15131 5.39136Z" fill="#707070"/>
<path d="M11.7543 2.64514H9.84273C9.49085 2.64514 9.20557 2.93043 9.20557 3.28231V16.098C9.20557 16.4499 9.49085 16.7351 9.84273 16.7351H11.7541C12.106 16.7351 12.3913 16.4499 12.3913 16.098V3.28211C12.3913 2.93023 12.106 2.64514 11.7543 2.64514Z" fill="#707070"/>
<path d="M16.3628 0.264893H14.4514C14.0995 0.264893 13.8142 0.550178 13.8142 0.902091V16.0979C13.8142 16.4498 14.0995 16.7351 14.4514 16.7351H16.3628C16.7147 16.7351 16.9999 16.4498 16.9999 16.0979V0.901896C16.9999 0.549983 16.7147 0.264893 16.3628 0.264893Z" fill="#707070"/>
</svg>
