<svg width="39" height="39" viewBox="0 0 39 39" fill="none" xmlns="http://www.w3.org/2000/svg">
<path d="M16.249 30.8747C15.8693 30.8754 15.5013 30.7432 15.209 30.5009C15.0444 30.3645 14.9084 30.197 14.8087 30.0079C14.709 29.8188 14.6476 29.612 14.628 29.3991C14.6083 29.1863 14.6309 28.9717 14.6943 28.7676C14.7578 28.5634 14.8609 28.3739 14.9977 28.2097L22.2777 19.4997L15.2577 10.7734C15.1227 10.6072 15.0219 10.4159 14.9611 10.2106C14.9003 10.0053 14.8806 9.79003 14.9033 9.57711C14.9259 9.36419 14.9904 9.15785 15.0931 8.96994C15.1957 8.78203 15.3345 8.61626 15.5015 8.48216C15.6696 8.33422 15.8665 8.22264 16.0798 8.15441C16.2931 8.08618 16.5182 8.06277 16.741 8.08566C16.9637 8.10855 17.1794 8.17723 17.3744 8.28741C17.5693 8.39759 17.7394 8.54688 17.874 8.72591L25.7227 18.4759C25.9617 18.7667 26.0924 19.1314 26.0924 19.5078C26.0924 19.8842 25.9617 20.2489 25.7227 20.5397L17.5977 30.2897C17.4347 30.4863 17.2276 30.6418 16.9933 30.7434C16.7589 30.845 16.5039 30.89 16.249 30.8747Z" fill="white"/>
</svg>
