<svg width="39" height="39" viewBox="0 0 39 39" fill="none" xmlns="http://www.w3.org/2000/svg">
<path d="M22.4742 30.8751C22.2314 30.8759 21.9916 30.8223 21.7722 30.7183C21.5529 30.6142 21.3596 30.4624 21.2067 30.2738L13.3579 20.5238C13.1189 20.2331 12.9883 19.8683 12.9883 19.492C12.9883 19.1156 13.1189 18.7508 13.3579 18.4601L21.483 8.71008C21.7588 8.37823 22.1551 8.16954 22.5848 8.12992C23.0145 8.09031 23.4423 8.22301 23.7742 8.49883C24.1061 8.77466 24.3147 9.17101 24.3544 9.60071C24.394 10.0304 24.2613 10.4582 23.9855 10.7901L16.7217 19.5001L23.7417 28.2101C23.9404 28.4486 24.0666 28.7391 24.1054 29.0471C24.1442 29.3551 24.094 29.6678 23.9607 29.9481C23.8273 30.2285 23.6165 30.4648 23.353 30.6291C23.0896 30.7933 22.7846 30.8787 22.4742 30.8751Z" fill="white"/>
</svg>
