<svg width="24" height="24" viewBox="0 0 24 24" fill="none" xmlns="http://www.w3.org/2000/svg">
<path d="M15.8946 12.099C15.8946 13.0762 15.5064 14.0133 14.8155 14.7042C14.1246 15.3951 13.1875 15.7833 12.2104 15.7833C11.2333 15.7833 10.2962 15.3951 9.60524 14.7042C8.91432 14.0133 8.52616 13.0762 8.52616 12.099C8.52616 11.889 8.54827 11.684 8.58634 11.485H7.29809V16.3936C7.29809 16.735 7.57441 17.0113 7.91581 17.0113H16.5062C16.6698 17.011 16.8266 16.9458 16.9422 16.83C17.0577 16.7142 17.1227 16.5572 17.1227 16.3936V11.485H15.8344C15.8725 11.684 15.8946 11.889 15.8946 12.099ZM12.2104 14.5552C12.533 14.5551 12.8524 14.4915 13.1505 14.3679C13.4485 14.2444 13.7193 14.0634 13.9474 13.8352C14.1755 13.607 14.3564 13.3361 14.4797 13.038C14.6031 12.7399 14.6666 12.4204 14.6665 12.0978C14.6664 11.7752 14.6028 11.4557 14.4793 11.1577C14.3557 10.8597 14.1747 10.5889 13.9465 10.3608C13.7183 10.1327 13.4474 9.95184 13.1494 9.82845C12.8513 9.70506 12.5318 9.6416 12.2091 9.64168C11.5576 9.64184 10.9328 9.90083 10.4721 10.3617C10.0115 10.8225 9.75284 11.4475 9.753 12.099C9.75317 12.7506 10.0122 13.3754 10.473 13.8361C10.9339 14.2967 11.5588 14.5553 12.2104 14.5552ZM15.1577 9.5201H16.6302C16.728 9.5201 16.8219 9.48132 16.8911 9.41226C16.9604 9.34321 16.9995 9.2495 16.9998 9.15168V7.67922C16.9998 7.58118 16.9609 7.48716 16.8916 7.41784C16.8223 7.34852 16.7282 7.30957 16.6302 7.30957H15.1577C15.0597 7.30957 14.9657 7.34852 14.8964 7.41784C14.827 7.48716 14.7881 7.58118 14.7881 7.67922V9.15168C14.7893 9.35431 14.9551 9.5201 15.1577 9.5201ZM12.2104 0.30957C9.08361 0.30957 6.08491 1.55167 3.87396 3.76263C1.663 5.97358 0.420898 8.97228 0.420898 12.099C0.420898 15.2258 1.663 18.2245 3.87396 20.4355C6.08491 22.6464 9.08361 23.8885 12.2104 23.8885C13.7586 23.8885 15.2916 23.5836 16.722 22.9911C18.1524 22.3986 19.452 21.5302 20.5468 20.4355C21.6415 19.3407 22.51 18.041 23.1024 16.6107C23.6949 15.1803 23.9998 13.6473 23.9998 12.099C23.9998 10.5508 23.6949 9.01777 23.1024 7.58741C22.51 6.15704 21.6415 4.85738 20.5468 3.76263C19.452 2.66787 18.1524 1.79947 16.722 1.20699C15.2916 0.614514 13.7586 0.30957 12.2104 0.30957ZM18.3507 16.875C18.3507 17.6254 17.7367 18.2394 16.9863 18.2394H7.43441C6.68406 18.2394 6.07002 17.6254 6.07002 16.875V7.32308C6.07002 6.57273 6.68406 5.95869 7.43441 5.95869H16.9863C17.7367 5.95869 18.3507 6.57273 18.3507 7.32308V16.875Z" fill="#1F3968"/>
</svg>
