<svg width="24" height="24" viewBox="0 0 24 24" fill="none" xmlns="http://www.w3.org/2000/svg">
<circle cx="12" cy="12" r="12" fill="#1F3968"/>
<path d="M15.9477 11.3543C15.9607 9.738 14.6271 8.256 12.975 8.05125L12.8667 8.035C12.7838 8.01855 12.6997 8.00913 12.6153 8.00684C12.2762 8.00684 12.1863 8.25167 12.1625 8.39792C12.149 8.45866 12.1478 8.52149 12.1589 8.5827C12.1701 8.64392 12.1934 8.70228 12.2275 8.75434C12.3402 8.91142 12.5373 8.9385 12.6955 8.96234C12.7421 8.96884 12.7865 8.97425 12.8222 8.984C14.3075 9.32525 14.808 9.86367 15.0517 11.3836C15.0582 11.4215 15.0604 11.467 15.0626 11.5158C15.0734 11.6967 15.0962 12.0748 15.4905 12.0748C15.523 12.0748 15.5577 12.0726 15.5945 12.0661C15.9617 12.0087 15.9498 11.6631 15.9444 11.4973C15.9417 11.4573 15.9417 11.4171 15.9444 11.3771C15.9456 11.3699 15.9463 11.3627 15.9466 11.3554L15.9477 11.3543Z" fill="white"/>
<path d="M12.5204 7.4573C12.5637 7.46055 12.6071 7.4638 12.6407 7.46922C15.0782 7.85705 16.2005 9.04872 16.5114 11.5859C16.5168 11.6292 16.5168 11.6812 16.5179 11.7376C16.5212 11.9358 16.5277 12.3475 16.9567 12.3561H16.9697C17.0286 12.3593 17.0874 12.3498 17.1424 12.3283C17.1973 12.3068 17.247 12.2738 17.2882 12.2316C17.4214 12.0875 17.4127 11.8741 17.4052 11.7007C17.403 11.6596 17.4008 11.6195 17.4019 11.5848C17.4322 8.99022 15.2569 6.63722 12.7457 6.55055L12.7154 6.55164C12.7057 6.55306 12.6959 6.55378 12.6862 6.5538C12.6612 6.5538 12.6298 6.55164 12.5973 6.54947C12.5541 6.54552 12.5107 6.54335 12.4673 6.54297C12.0676 6.54297 11.9917 6.83547 11.982 7.01097C11.9603 7.41505 12.3384 7.4443 12.5204 7.4573ZM16.3933 14.8641C16.3412 14.8232 16.2895 14.7817 16.2384 14.7395C15.9719 14.5185 15.6881 14.3148 15.4151 14.1176C15.3579 14.0766 15.3009 14.0354 15.2439 13.9941C14.8929 13.7406 14.5777 13.6161 14.2797 13.6161C13.8789 13.6161 13.529 13.8457 13.2397 14.2975C13.1119 14.4968 12.9559 14.5943 12.7652 14.5943C12.6321 14.5896 12.5016 14.5559 12.3828 14.4957C11.2507 13.9649 10.4415 13.1524 9.9789 12.0799C9.75574 11.5599 9.82724 11.2219 10.2216 10.9456C10.4447 10.7896 10.8607 10.4982 10.8315 9.9403C10.799 9.30655 9.44374 7.39989 8.87282 7.18322C8.62928 7.09131 8.36072 7.09054 8.11665 7.18105C7.46124 7.40855 6.98999 7.80939 6.7549 8.33697C6.5274 8.8483 6.53824 9.44739 6.78524 10.0714C7.49699 11.8762 8.4969 13.4492 9.76007 14.7471C10.9951 16.0178 12.5139 17.0578 14.2732 17.84C14.4314 17.9104 14.5982 17.9483 14.7196 17.9765L14.8225 18.0025C14.8366 18.0065 14.8512 18.0087 14.8658 18.009H14.8799C15.7076 18.009 16.701 17.229 17.0065 16.3385C17.2741 15.5585 16.7855 15.1739 16.3933 14.8651V14.8641ZM12.8866 9.51889C12.7457 9.52214 12.45 9.52972 12.346 9.83955C12.2983 9.98472 12.3037 10.1104 12.3633 10.2133C12.4511 10.365 12.6201 10.4116 12.7728 10.4365C13.3275 10.5286 13.6135 10.846 13.6698 11.4331C13.6969 11.7083 13.8757 11.899 14.1053 11.899C14.1227 11.8993 14.14 11.8986 14.1573 11.8968C14.4336 11.8621 14.5668 11.6531 14.5549 11.2739C14.5592 10.8774 14.3588 10.4289 14.0176 10.0714C13.6752 9.71172 13.2625 9.50914 12.8866 9.51889Z" fill="white"/>
</svg>
