<svg width="26" height="25" viewBox="0 0 26 25" fill="none" xmlns="http://www.w3.org/2000/svg">
<path d="M14.7874 12.0671L11.9142 10.7264C11.6635 10.61 11.4575 10.7405 11.4575 11.0181V13.5433C11.4575 13.8209 11.6635 13.9514 11.9142 13.835L14.7861 12.4943C15.0381 12.3766 15.0381 12.1848 14.7874 12.0671ZM12.7368 0C5.95423 0 0.456055 5.49817 0.456055 12.2807C0.456055 19.0632 5.95423 24.5614 12.7368 24.5614C19.5193 24.5614 25.0175 19.0632 25.0175 12.2807C25.0175 5.49817 19.5193 0 12.7368 0ZM12.7368 17.2697C6.45057 17.2697 6.34056 16.703 6.34056 12.2807C6.34056 7.85837 6.45057 7.29167 12.7368 7.29167C19.0229 7.29167 19.133 7.85837 19.133 12.2807C19.133 16.703 19.0229 17.2697 12.7368 17.2697Z" fill="#1F3968"/>
</svg>
