<svg width="25" height="25" viewBox="0 0 25 25" fill="none" xmlns="http://www.w3.org/2000/svg">
<path d="M23.0713 10.0586H16.8213C16.7139 10.0586 16.626 10.1465 16.626 10.2539V11.4258C16.626 11.5332 16.7139 11.6211 16.8213 11.6211H23.0713C23.1787 11.6211 23.2666 11.5332 23.2666 11.4258V10.2539C23.2666 10.1465 23.1787 10.0586 23.0713 10.0586ZM19.7998 13.3789H16.8213C16.7139 13.3789 16.626 13.4668 16.626 13.5742V14.7461C16.626 14.8535 16.7139 14.9414 16.8213 14.9414H19.7998C19.9072 14.9414 19.9951 14.8535 19.9951 14.7461V13.5742C19.9951 13.4668 19.9072 13.3789 19.7998 13.3789ZM11.6528 7.87354H10.5957C10.4443 7.87354 10.3223 7.99561 10.3223 8.14697V14.2017C10.3223 14.2896 10.3638 14.3701 10.4346 14.4214L14.0698 17.0728C14.1919 17.1606 14.3628 17.1362 14.4507 17.0142L15.0781 16.1572V16.1548C15.166 16.0327 15.1392 15.8618 15.0171 15.7739L11.9238 13.5376V8.14697C11.9263 7.99561 11.8018 7.87354 11.6528 7.87354Z" fill="#CDCDCD"/>
<path d="M19.6485 16.4529H18.2373C18.1006 16.4529 17.9712 16.5237 17.898 16.6409C17.5879 17.1316 17.2266 17.5857 16.8115 18.0007C16.0962 18.7161 15.2637 19.2776 14.3384 19.6682C13.3789 20.0735 12.3609 20.2786 11.3111 20.2786C10.2588 20.2786 9.24074 20.0735 8.28371 19.6682C7.35841 19.2776 6.5259 18.7161 5.81056 18.0007C5.09523 17.2854 4.53371 16.4529 4.14308 15.5276C3.73781 14.5706 3.53273 13.5525 3.53273 12.5003C3.53273 11.448 3.73781 10.4324 4.14308 9.47291C4.53371 8.54762 5.09523 7.7151 5.81056 6.99977C6.5259 6.28444 7.35841 5.72291 8.28371 5.33229C9.24074 4.92701 10.2612 4.72194 11.3111 4.72194C12.3633 4.72194 13.3814 4.92701 14.3384 5.33229C15.2637 5.72291 16.0962 6.28444 16.8115 6.99977C17.2266 7.41481 17.5879 7.86891 17.898 8.35963C17.9712 8.47682 18.1006 8.54762 18.2373 8.54762H19.6485C19.8169 8.54762 19.9243 8.37184 19.8486 8.22291C18.2569 5.05641 15.0293 2.9983 11.4258 2.9568C6.14992 2.89088 1.76759 7.20973 1.75783 12.4807C1.74806 17.7615 6.02785 22.0462 11.3086 22.0462C14.9585 22.0462 18.2398 19.9807 19.8486 16.7776C19.9243 16.6287 19.8145 16.4529 19.6485 16.4529Z" fill="#CDCDCD"/>
</svg>
