<svg width="38" height="38" viewBox="0 0 38 38" fill="none" xmlns="http://www.w3.org/2000/svg">
<path d="M8.91816 30.8749C8.34067 30.8759 7.76562 30.8 7.20816 30.6493C5.53486 30.1721 4.11524 29.0581 3.25386 27.5462C2.39249 26.0344 2.15798 24.2452 2.60066 22.5624L5.36753 12.0649C5.58302 11.2153 5.96609 10.4174 6.49425 9.71793C7.02242 9.01847 7.68503 8.4316 8.44316 7.99179C9.18134 7.56423 9.99703 7.28739 10.843 7.17732C11.6889 7.06724 12.5483 7.12612 13.3713 7.35054C14.2462 7.59348 15.061 8.01554 15.7642 8.58996C16.4674 9.16437 17.0436 9.87862 17.4563 10.6874H20.5438C20.9547 9.87732 21.5303 9.16203 22.2337 8.58739C22.9372 8.01276 23.753 7.59147 24.6288 7.35054C25.4518 7.12612 26.3112 7.06724 27.1571 7.17732C28.003 7.28739 28.8187 7.56423 29.5569 7.99179C30.3114 8.43047 30.9715 9.01412 31.4994 9.70911C32.0273 10.4041 32.4124 11.1967 32.6325 12.0412L35.3994 22.5624C35.8487 24.2501 35.6161 26.0467 34.7517 27.5643C33.8874 29.0819 32.4608 30.1985 30.78 30.673C29.957 30.8975 29.0976 30.9563 28.2517 30.8463C27.4058 30.7362 26.5901 30.4593 25.8519 30.0318C25.0962 29.5947 24.4351 29.0115 23.907 28.3163C23.379 27.621 22.9946 26.8277 22.7763 25.9824L22.5625 24.9374H15.4375L15.1644 25.9587C14.9461 26.8039 14.5617 27.5973 14.0336 28.2925C13.5056 28.9877 12.8445 29.5709 12.0888 30.008C11.1239 30.5645 10.032 30.8631 8.91816 30.8749ZM11.6732 9.49991C10.9565 9.50234 10.2528 9.69055 9.63066 10.0462C8.65555 10.6183 7.94677 11.5534 7.65941 12.6468L4.89253 23.1443C4.60301 24.2258 4.7493 25.3777 5.29999 26.3525C5.85067 27.3273 6.76179 28.0472 7.83753 28.3574C8.35707 28.4991 8.89955 28.5364 9.43359 28.4671C9.96763 28.3978 10.4826 28.2233 10.9488 27.9537C11.4341 27.6735 11.8585 27.299 12.1971 26.8524C12.5356 26.4058 12.7814 25.896 12.92 25.353L13.6563 22.5624H24.3438L25.0682 25.353C25.2092 25.895 25.456 26.4037 25.7943 26.85C26.1326 27.2963 26.5557 27.6714 27.0394 27.9537C27.5079 28.223 28.0248 28.3973 28.5608 28.4666C29.0967 28.5359 29.641 28.4988 30.1625 28.3574C31.2396 28.0501 32.1518 27.3301 32.701 26.354C33.2503 25.3778 33.3921 24.2244 33.0957 23.1443L30.3288 12.6468C30.1909 12.105 29.9467 11.5961 29.6103 11.1497C29.2739 10.7032 28.8521 10.3281 28.3694 10.0462C27.901 9.7768 27.384 9.60248 26.8481 9.5332C26.3121 9.46392 25.7678 9.50103 25.2463 9.64241C24.6013 9.82627 24.0095 10.1614 23.52 10.6199C23.0305 11.0784 22.6575 11.647 22.4319 12.2787L22.1469 13.0624H15.8532L15.5682 12.2787C15.3406 11.6462 14.9655 11.0771 14.4739 10.6187C13.9824 10.1602 13.3887 9.8255 12.7419 9.64241C12.3934 9.54844 12.0341 9.50053 11.6732 9.49991Z" fill="#FEFEFE"/>
<path d="M11.875 19C11.4053 19 10.9461 18.8607 10.5555 18.5997C10.165 18.3388 9.86055 17.9678 9.68079 17.5339C9.50103 17.0999 9.454 16.6224 9.54564 16.1617C9.63728 15.701 9.86347 15.2778 10.1956 14.9456C10.5278 14.6135 10.951 14.3873 11.4117 14.2956C11.8724 14.204 12.3499 14.251 12.7839 14.4308C13.2178 14.6105 13.5888 14.915 13.8497 15.3055C14.1107 15.6961 14.25 16.1553 14.25 16.625C14.25 17.2549 13.9998 17.859 13.5544 18.3044C13.109 18.7498 12.5049 19 11.875 19Z" fill="#FEFEFE"/>
<path d="M26.125 15.4375C26.7808 15.4375 27.3125 14.9058 27.3125 14.25C27.3125 13.5942 26.7808 13.0625 26.125 13.0625C25.4692 13.0625 24.9375 13.5942 24.9375 14.25C24.9375 14.9058 25.4692 15.4375 26.125 15.4375Z" fill="#FEFEFE"/>
<path d="M26.125 20.1875C26.7808 20.1875 27.3125 19.6558 27.3125 19C27.3125 18.3442 26.7808 17.8125 26.125 17.8125C25.4692 17.8125 24.9375 18.3442 24.9375 19C24.9375 19.6558 25.4692 20.1875 26.125 20.1875Z" fill="#FEFEFE"/>
<path d="M23.75 17.8125C24.4058 17.8125 24.9375 17.2808 24.9375 16.625C24.9375 15.9692 24.4058 15.4375 23.75 15.4375C23.0942 15.4375 22.5625 15.9692 22.5625 16.625C22.5625 17.2808 23.0942 17.8125 23.75 17.8125Z" fill="#FEFEFE"/>
<path d="M28.5 17.8125C29.1558 17.8125 29.6875 17.2808 29.6875 16.625C29.6875 15.9692 29.1558 15.4375 28.5 15.4375C27.8442 15.4375 27.3125 15.9692 27.3125 16.625C27.3125 17.2808 27.8442 17.8125 28.5 17.8125Z" fill="#FEFEFE"/>
</svg>
