<svg width="41" height="41" viewBox="0 0 41 41" fill="none" xmlns="http://www.w3.org/2000/svg">
<path d="M27.0429 17.5787L23.4212 13.957C23.1018 13.6376 22.9223 13.2044 22.9223 12.7526C22.9223 12.529 22.9664 12.3075 23.052 12.1008C23.1376 11.8942 23.263 11.7064 23.4212 11.5483C23.5794 11.3901 23.7671 11.2646 23.9738 11.179C24.1804 11.0935 24.4019 11.0494 24.6256 11.0494C25.0773 11.0494 25.5105 11.2288 25.83 11.5483L28.2387 13.957L34.2862 7.90951C34.6056 7.59009 35.0389 7.41064 35.4906 7.41064C35.9423 7.41064 36.3755 7.59009 36.695 7.90951C37.0144 8.22893 37.1938 8.66216 37.1938 9.11389C37.1938 9.56562 37.0144 9.99884 36.695 10.3183L29.4516 17.5616C28.7854 18.2449 27.7091 18.2449 27.0429 17.5787ZM17.0833 11.9583H5.12496C4.18538 11.9583 3.41663 12.727 3.41663 13.6666C3.41663 14.6062 4.18538 15.3749 5.12496 15.3749H17.0833C18.0229 15.3749 18.7916 14.6062 18.7916 13.6666C18.7916 12.727 18.0229 11.9583 17.0833 11.9583ZM34.662 21.7128C34.504 21.5545 34.3163 21.4288 34.1096 21.3431C33.9029 21.2574 33.6814 21.2133 33.4577 21.2133C33.2339 21.2133 33.0124 21.2574 32.8057 21.3431C32.5991 21.4288 32.4113 21.5545 32.2533 21.7128L29.0416 24.9245L25.83 21.7128C25.5105 21.3934 25.0773 21.214 24.6256 21.214C24.1739 21.214 23.7406 21.3934 23.4212 21.7128C23.1018 22.0323 22.9223 22.4655 22.9223 22.9172C22.9223 23.3689 23.1018 23.8022 23.4212 24.1216L26.6329 27.3333L23.4212 30.5449C23.263 30.7031 23.1376 30.8909 23.052 31.0975C22.9664 31.3041 22.9223 31.5256 22.9223 31.7493C22.9223 31.973 22.9664 32.1945 23.052 32.4011C23.1376 32.6078 23.263 32.7955 23.4212 32.9537C23.7406 33.2731 24.1739 33.4525 24.6256 33.4525C24.8493 33.4525 25.0707 33.4085 25.2774 33.3229C25.484 33.2373 25.6718 33.1118 25.83 32.9537L29.0416 29.742L32.2533 32.9537C32.5727 33.2731 33.0059 33.4525 33.4577 33.4525C33.9094 33.4525 34.3426 33.2731 34.662 32.9537C34.9815 32.6343 35.1609 32.201 35.1609 31.7493C35.1609 31.2976 34.9815 30.8643 34.662 30.5449L31.4504 27.3333L34.662 24.1216C34.8204 23.9636 34.9461 23.7758 35.0318 23.5692C35.1175 23.3625 35.1616 23.141 35.1616 22.9172C35.1616 22.6935 35.1175 22.4719 35.0318 22.2653C34.9461 22.0586 34.8204 21.8709 34.662 21.7128ZM17.0833 25.6249H5.12496C4.18538 25.6249 3.41663 26.3937 3.41663 27.3333C3.41663 28.2728 4.18538 29.0416 5.12496 29.0416H17.0833C18.0229 29.0416 18.7916 28.2728 18.7916 27.3333C18.7916 26.3937 18.0229 25.6249 17.0833 25.6249Z" fill="white"/>
</svg>
