<svg width="36" height="33" viewBox="0 0 36 33" fill="none" xmlns="http://www.w3.org/2000/svg">
<g clip-path="url(#clip0)">
<path fill-rule="evenodd" clip-rule="evenodd" d="M25.3461 2.0625H6.52656V4.18894H-0.0169678V14.1632C-0.0169678 18.018 4.40044 21.1901 8.73527 21.5201C10.1583 23.0051 12.6614 24.0838 14.8892 24.5437V27.1507C12.7588 27.7881 8.95339 29.2854 8.73527 30.9169H23.3555C23.1353 29.2854 18.9423 27.786 16.8077 27.1507V24.5437C19.044 24.0838 21.6593 23.0051 23.0844 21.5201C27.4172 21.1901 31.6397 18.018 31.6397 14.1632V4.18894H25.3461V2.0625ZM1.99268 6.07819H6.37409V14.6706C6.37409 16.3659 6.82303 17.9788 7.61292 19.4308C4.3348 18.414 1.99268 15.7946 1.99268 12.7297V6.07819ZM19.1541 16.5577L15.8844 14.8026L12.6106 16.5577L13.2353 12.8453L10.5882 10.2176L14.2454 9.67519L15.8844 6.30094L17.5193 9.67519L21.1764 10.2176L18.5294 12.8453L19.1541 16.5577ZM24.0141 19.7051C24.8082 18.1871 25.2635 16.5083 25.2635 14.7324V6.13387H29.6555V12.705C29.6555 15.9081 27.3028 18.6429 24.0141 19.7051Z" fill="#FEFEFE"/>
</g>
<defs>
<clipPath id="clip0">
<rect width="36" height="33" fill="white"/>
</clipPath>
</defs>
</svg>
