<svg width="41" height="41" viewBox="0 0 41 41" fill="none" xmlns="http://www.w3.org/2000/svg">
<path d="M20.5 0C9.19561 0 0 9.19649 0 20.5C0 31.8035 9.19561 41 20.5 41C31.8044 41 41 31.8035 41 20.5C41 9.19649 31.8044 0 20.5 0ZM20.5 39.2917C10.1382 39.2917 1.70831 30.8618 1.70831 20.5C1.70831 10.1382 10.1382 1.70831 20.5 1.70831C30.8618 1.70831 39.2917 10.1382 39.2917 20.5C39.2917 30.8618 30.8618 39.2917 20.5 39.2917Z" fill="black"/>
<path d="M28.6496 19.7821L16.6913 12.0946C16.4294 11.9237 16.0907 11.9145 15.8205 12.0629C15.5452 12.2131 15.375 12.5001 15.375 12.8129V28.1879C15.375 28.5006 15.5452 28.7876 15.8205 28.9378C15.9472 29.007 16.0891 29.042 16.2292 29.042C16.3894 29.042 16.5512 28.997 16.6913 28.9061L28.6496 21.2186C28.8932 21.0618 29.0417 20.7906 29.0417 20.5004C29.0417 20.2101 28.8932 19.939 28.6496 19.7821ZM17.0833 26.623V14.3777L26.6076 20.5004L17.0833 26.623Z" fill="black"/>
</svg>
