<svg width="30" height="30" viewBox="0 0 30 30" fill="none" xmlns="http://www.w3.org/2000/svg">
<path d="M15.0001 0.599854C7.0471 0.599854 0.600098 7.04685 0.600098 14.9999C0.600098 22.9529 7.0471 29.3999 15.0001 29.3999C22.9531 29.3999 29.4001 22.9529 29.4001 14.9999C29.4001 7.04685 22.9531 0.599854 15.0001 0.599854ZM20.5381 16.8464C20.5381 16.8464 21.8116 18.1034 22.1251 18.6869C22.1341 18.6989 22.1386 18.7109 22.1416 18.7169C22.2691 18.9314 22.2991 19.0979 22.2361 19.2224C22.1311 19.4294 21.7711 19.5314 21.6481 19.5404H19.3981C19.2421 19.5404 18.9151 19.4999 18.5191 19.2269C18.2146 19.0139 17.9146 18.6644 17.6221 18.3239C17.1856 17.8169 16.8076 17.3789 16.4266 17.3789C16.3782 17.3788 16.3301 17.3864 16.2841 17.4014C15.9961 17.4944 15.6271 17.9054 15.6271 19.0004C15.6271 19.3424 15.3571 19.5389 15.1666 19.5389H14.1361C13.7851 19.5389 11.9566 19.4159 10.3366 17.7074C8.3536 15.6149 6.5686 11.4179 6.5536 11.3789C6.4411 11.1074 6.6736 10.9619 6.9271 10.9619H9.1996C9.5026 10.9619 9.6016 11.1464 9.6706 11.3099C9.7516 11.5004 10.0486 12.2579 10.5361 13.1099C11.3266 14.4989 11.8111 15.0629 12.1996 15.0629C12.2724 15.062 12.344 15.0435 12.4081 15.0089C12.9151 14.7269 12.8206 12.9194 12.7981 12.5444C12.7981 12.4739 12.7966 11.7359 12.5371 11.3819C12.3511 11.1254 12.0346 11.0279 11.8426 10.9919C11.9203 10.8846 12.0227 10.7977 12.1411 10.7384C12.4891 10.5644 13.1161 10.5389 13.7386 10.5389H14.0851C14.7601 10.5479 14.9341 10.5914 15.1786 10.6529C15.6736 10.7714 15.6841 11.0909 15.6406 12.1844C15.6271 12.4949 15.6136 12.8459 15.6136 13.2599C15.6136 13.3499 15.6091 13.4459 15.6091 13.5479C15.5941 14.1044 15.5761 14.7359 15.9691 14.9954C16.0204 15.0275 16.0796 15.0446 16.1401 15.0449C16.2766 15.0449 16.6876 15.0449 17.8006 13.1354C18.1439 12.5207 18.4421 11.8821 18.6931 11.2244C18.7156 11.1854 18.7816 11.0654 18.8596 11.0189C18.9172 10.9895 18.981 10.9746 19.0456 10.9754H21.7171C22.0081 10.9754 22.2076 11.0189 22.2451 11.1314C22.3111 11.3099 22.2331 11.8544 21.0136 13.5059L20.4691 14.2244C19.3636 15.6734 19.3636 15.7469 20.5381 16.8464Z" fill="#7893FF"/>
</svg>
