<svg width="19" height="11" viewBox="0 0 19 11" fill="none" xmlns="http://www.w3.org/2000/svg">
<path d="M0.445767 11C0.366519 11 0.292225 10.9703 0.222883 10.9108C0.163448 10.8415 0.13373 10.7672 0.13373 10.688C0.13373 10.6285 0.138683 10.584 0.148589 10.5542L3.64043 1.01482C3.67015 0.895952 3.73454 0.796893 3.83359 0.717645C3.93265 0.638398 4.06143 0.598774 4.21993 0.598774H6.41904C6.57754 0.598774 6.70631 0.638398 6.80537 0.717645C6.90443 0.796893 6.96882 0.895952 6.99854 1.01482L10.4755 10.5542L10.5052 10.688C10.5052 10.7672 10.4706 10.8415 10.4012 10.9108C10.3418 10.9703 10.2675 11 10.1783 11H8.3507C8.11296 11 7.95446 10.896 7.87521 10.688L7.29572 9.17236H3.32839L2.76375 10.688C2.68451 10.896 2.52106 11 2.27341 11H0.445767ZM6.70136 7.03268L5.31948 3.10993L3.93761 7.03268H6.70136ZM11.8844 11C11.7854 11 11.6962 10.9653 11.617 10.896C11.5476 10.8167 11.513 10.7276 11.513 10.6285V0.821657C11.513 0.712692 11.5476 0.623539 11.617 0.554198C11.6962 0.484856 11.7854 0.450185 11.8844 0.450185H13.6378C13.7468 0.450185 13.8359 0.484856 13.9053 0.554198C13.9746 0.623539 14.0093 0.712692 14.0093 0.821657V10.6285C14.0093 10.7375 13.9746 10.8266 13.9053 10.896C13.8359 10.9653 13.7468 11 13.6378 11H11.8844ZM16.1361 11C16.037 11 15.9478 10.9653 15.8686 10.896C15.7993 10.8167 15.7646 10.7276 15.7646 10.6285V0.821657C15.7646 0.712692 15.7993 0.623539 15.8686 0.554198C15.9478 0.484856 16.037 0.450185 16.1361 0.450185H17.8894C17.9984 0.450185 18.0875 0.484856 18.1569 0.554198C18.2262 0.623539 18.2609 0.712692 18.2609 0.821657V10.6285C18.2609 10.7375 18.2262 10.8266 18.1569 10.896C18.0875 10.9653 17.9984 11 17.8894 11H16.1361Z" fill="#2A0B6D"/>
</svg>
