<svg width="17" height="17" viewBox="0 0 17 17" fill="none" xmlns="http://www.w3.org/2000/svg">
<g clip-path="url(#clip0)">
<path d="M15.5566 10.1792C15.4192 9.83926 15.0321 9.67494 14.6921 9.81247C14.352 9.94993 14.1878 10.337 14.3253 10.677L15.1074 12.6116L12.7846 11.5877C12.6164 11.5136 12.4251 11.5124 12.2561 11.5845C11.4622 11.9232 10.6119 12.0949 9.72852 12.0949C6.17337 12.0949 3.78517 9.31137 3.78517 6.71153C3.78517 3.74311 6.45134 1.32812 9.72852 1.32812C13.0057 1.32812 15.6719 3.74311 15.6719 6.71153C15.6719 6.94313 15.6503 7.22044 15.6127 7.47232C15.5586 7.83506 15.8088 8.17297 16.1715 8.22709C16.5343 8.28134 16.8722 8.03102 16.9263 7.66828C16.9738 7.34986 17 7.01006 17 6.71153C17 4.90761 16.2361 3.21499 14.849 1.94547C13.4783 0.690922 11.6598 0 9.72852 0C7.79723 0 5.97876 0.690922 4.60804 1.94543C3.36851 3.07992 2.62715 4.55241 2.48335 6.14014C0.924229 7.17263 2.21402e-05 8.8271 2.21402e-05 10.6092C2.21402e-05 11.7224 0.350746 12.7787 1.01836 13.6877L0.0484322 16.087C-0.0528703 16.3376 0.00779166 16.6245 0.201864 16.8127C0.328334 16.9353 0.49498 17 0.664216 17C0.754628 17 0.845804 16.9815 0.931932 16.9436L3.72859 15.7107C4.4321 15.9726 5.17575 16.1052 5.94334 16.1052C5.95994 16.1052 5.97624 16.1039 5.99254 16.1027C7.10275 16.0943 8.18209 15.8023 9.11689 15.2558C9.9542 14.7662 10.643 14.0937 11.1258 13.2996C11.5973 13.2149 12.0581 13.087 12.5053 12.916L16.068 14.4865C16.1542 14.5245 16.2453 14.543 16.3358 14.543C16.505 14.5429 16.6717 14.4783 16.7981 14.3556C16.9922 14.1675 17.0529 13.8806 16.9516 13.63L15.5566 10.1792ZM5.9434 14.7754C5.93434 14.7754 5.92551 14.7764 5.91651 14.7767C5.23844 14.7733 4.5858 14.64 3.97629 14.3799C3.80732 14.3078 3.61597 14.309 3.44783 14.3831L1.8927 15.0686L2.39436 13.8276C2.4871 13.5982 2.44456 13.3363 2.28406 13.148C1.65868 12.4143 1.32814 11.5364 1.32814 10.6092C1.32814 9.54801 1.77456 8.54252 2.55563 7.78011C2.79881 9.10574 3.48495 10.3738 4.51999 11.37C5.80797 12.6096 7.51162 13.3277 9.35123 13.4141C8.48755 14.2643 7.2516 14.7754 5.9434 14.7754Z" fill="white"/>
<path d="M9.69531 7.40429C10.0621 7.40429 10.3594 7.10698 10.3594 6.74023C10.3594 6.37348 10.0621 6.07617 9.69531 6.07617C9.32856 6.07617 9.03125 6.37348 9.03125 6.74023C9.03125 7.10698 9.32856 7.40429 9.69531 7.40429Z" fill="white"/>
<path d="M12.3516 7.40429C12.7183 7.40429 13.0156 7.10698 13.0156 6.74023C13.0156 6.37348 12.7183 6.07617 12.3516 6.07617C11.9848 6.07617 11.6875 6.37348 11.6875 6.74023C11.6875 7.10698 11.9848 7.40429 12.3516 7.40429Z" fill="white"/>
<path d="M7.03906 7.40429C7.40581 7.40429 7.70312 7.10698 7.70312 6.74023C7.70312 6.37348 7.40581 6.07617 7.03906 6.07617C6.67231 6.07617 6.375 6.37348 6.375 6.74023C6.375 7.10698 6.67231 7.40429 7.03906 7.40429Z" fill="white"/>
</g>
<defs>
<clipPath id="clip0">
<rect width="17" height="17" fill="white"/>
</clipPath>
</defs>
</svg>
