<svg width="17" height="17" viewBox="0 0 17 17" fill="none" xmlns="http://www.w3.org/2000/svg">
<g clip-path="url(#clip0)">
<path d="M14.6414 2.61714C13.0369 0.942371 10.8169 -0.00278834 8.49755 0.00147923C3.81041 -0.00442424 0.0059102 3.79048 6.72891e-06 8.47765C-0.00290944 10.7953 0.942144 13.0133 2.61567 14.6167C2.62054 14.6215 2.62236 14.6288 2.62719 14.6331C2.67634 14.6804 2.72976 14.7205 2.77954 14.766C2.91611 14.8874 3.05267 15.013 3.19652 15.1302C3.27359 15.1909 3.35371 15.2515 3.43263 15.3074C3.56858 15.4087 3.70454 15.5101 3.84654 15.6036C3.94306 15.6643 4.0426 15.7249 4.1415 15.7857C4.27259 15.8646 4.40311 15.944 4.53846 16.0163C4.65318 16.077 4.77029 16.1292 4.88683 16.1844C5.01429 16.2451 5.13994 16.3058 5.27042 16.3604C5.4009 16.415 5.53202 16.4575 5.66431 16.5048C5.79661 16.5522 5.91073 16.5959 6.03758 16.6347C6.18083 16.6778 6.32771 16.7112 6.47337 16.747C6.59475 16.7767 6.7125 16.8107 6.83754 16.835C7.00504 16.8684 7.175 16.8896 7.34495 16.9127C7.44997 16.9273 7.55254 16.9479 7.65873 16.9582C7.93672 16.9855 8.2171 17.0007 8.49994 17.0007C8.78277 17.0007 9.06318 16.9855 9.34114 16.9582C9.44737 16.9479 9.54993 16.9273 9.65492 16.9127C9.82487 16.8896 9.99479 16.8684 10.1623 16.835C10.2837 16.8107 10.4051 16.7743 10.5265 16.747C10.6722 16.7112 10.819 16.6778 10.9623 16.6347C11.0891 16.5959 11.2117 16.5486 11.3356 16.5048C11.4594 16.4611 11.6002 16.4138 11.7295 16.3604C11.8587 16.307 11.9856 16.2445 12.113 16.1844C12.2296 16.1292 12.3467 16.077 12.4614 16.0163C12.5968 15.944 12.7272 15.8645 12.8584 15.7857C12.9573 15.7249 13.0568 15.6697 13.1533 15.6036C13.2954 15.5101 13.4313 15.4088 13.5672 15.3074C13.6462 15.2467 13.7262 15.192 13.8033 15.1302C13.9472 15.0148 14.0838 14.8922 14.2203 14.766C14.2701 14.7205 14.3235 14.6804 14.3727 14.6331C14.3775 14.6288 14.3794 14.6215 14.3842 14.6167C17.7689 11.3741 17.884 6.00172 14.6414 2.61714ZM13.2773 13.9812C13.1668 14.0783 13.0527 14.1706 12.9374 14.2598C12.8694 14.312 12.8014 14.3636 12.7316 14.4133C12.6218 14.4929 12.5101 14.5681 12.3966 14.6403C12.314 14.6932 12.2297 14.7441 12.1447 14.7939C12.0379 14.8546 11.9292 14.9153 11.8194 14.976C11.7222 15.0257 11.6233 15.0725 11.5238 15.1186C11.4243 15.1648 11.3144 15.2139 11.207 15.257C11.0995 15.3001 10.9854 15.3408 10.8731 15.3784C10.7706 15.4136 10.668 15.45 10.5642 15.4809C10.4428 15.5174 10.316 15.5471 10.1903 15.5775C10.092 15.6005 9.9949 15.6266 9.89536 15.6461C9.75151 15.674 9.60463 15.6934 9.45715 15.7134C9.3734 15.7243 9.29025 15.7395 9.20586 15.748C8.97278 15.7705 8.73668 15.7838 8.49816 15.7838C8.25964 15.7838 8.02353 15.7705 7.79045 15.748C7.7061 15.7395 7.62295 15.7243 7.53916 15.7134C7.39168 15.6934 7.24481 15.674 7.10096 15.6461C7.00141 15.6266 6.90429 15.6005 6.806 15.5775C6.68035 15.5471 6.55531 15.5168 6.43212 15.4809C6.32835 15.45 6.22575 15.4136 6.12318 15.3784C6.01091 15.3395 5.8986 15.3001 5.78935 15.257C5.6801 15.2139 5.57694 15.1666 5.47252 15.1186C5.36811 15.0707 5.27404 15.0258 5.17696 14.976C5.0671 14.9189 4.95846 14.8588 4.85163 14.7939C4.76667 14.7442 4.68228 14.6932 4.59973 14.6403C4.48625 14.5681 4.37455 14.4929 4.26469 14.4133C4.19488 14.3636 4.12692 14.312 4.05893 14.2598C3.9436 14.1706 3.82951 14.0777 3.71905 13.9812C3.69234 13.9612 3.66805 13.9357 3.64198 13.9126C3.66912 11.8479 4.99551 10.0248 6.95166 9.36353C7.92975 9.8288 9.06535 9.8288 10.0434 9.36353C11.9996 10.0248 13.3259 11.8479 13.3531 13.9126C13.3276 13.9357 13.3033 13.9587 13.2773 13.9812ZM6.38109 4.86786C7.03826 3.69911 8.51843 3.28441 9.68717 3.94158C10.8559 4.59875 11.2706 6.07892 10.6134 7.24767C10.3954 7.63545 10.075 7.95587 9.68717 8.17395C9.68415 8.17395 9.68049 8.17394 9.67686 8.17757C9.5159 8.26716 9.3458 8.33921 9.16945 8.39244C9.1379 8.40155 9.10874 8.41368 9.07538 8.42157C9.01468 8.43736 8.95095 8.44828 8.88843 8.4592C8.77071 8.47979 8.65161 8.49174 8.53216 8.49501H8.46295C8.34349 8.49174 8.22439 8.47979 8.10668 8.4592C8.04597 8.44828 7.98164 8.43736 7.91976 8.42157C7.88757 8.41368 7.85905 8.40155 7.82569 8.39244C7.64934 8.33921 7.47924 8.26719 7.31828 8.17757L7.30736 8.17395C6.13862 7.51678 5.72392 6.0366 6.38109 4.86786ZM14.4298 12.7091C14.0403 10.8924 12.8441 9.35226 11.1803 8.52541C12.5404 7.04382 12.4419 4.74015 10.9603 3.38004C9.47867 2.01993 7.175 2.11844 5.81489 3.60004C4.53625 4.9929 4.53625 7.13259 5.81489 8.52541C4.15107 9.35229 2.9548 10.8924 2.56531 12.7091C0.237924 9.43074 1.00879 4.88642 4.2871 2.55903C7.56541 0.231643 12.1097 1.00251 14.4371 4.28082C15.312 5.51319 15.7817 6.98731 15.7809 8.49867C15.7809 10.0087 15.3085 11.4809 14.4298 12.7091Z" fill="#2A0B6D"/>
</g>
<defs>
<clipPath id="clip0">
<rect width="17" height="17" fill="white"/>
</clipPath>
</defs>
</svg>
