<svg width="17" height="17" viewBox="0 0 17 17" fill="none" xmlns="http://www.w3.org/2000/svg">
<g clip-path="url(#clip0)">
<path d="M9.03344 17H7.96653C7.10361 17 6.40153 16.298 6.40153 15.435V15.0741C6.03467 14.9569 5.67823 14.8089 5.33581 14.6317L5.08001 14.8875C4.46047 15.5078 3.46807 15.4896 2.86653 14.8873L2.11245 14.1332C1.50985 13.5313 1.49251 12.5392 2.11265 11.9198L2.36825 11.6642C2.19104 11.3217 2.04312 10.9654 1.92588 10.5984H1.56496C0.70208 10.5984 0 9.89639 0 9.03347V7.96653C0 7.10361 0.70208 6.40156 1.565 6.40156H1.92591C2.04315 6.03467 2.19107 5.67827 2.36828 5.33584L2.11248 5.08008C1.49271 4.46097 1.50981 3.4688 2.11268 2.86659L2.86682 2.11248C3.46976 1.50872 4.46194 1.49364 5.08028 2.11268L5.33584 2.36825C5.67827 2.19107 6.0347 2.04312 6.40156 1.92588V1.56496C6.40156 0.702047 7.10361 0 7.96656 0H9.03347C9.89639 0 10.5984 0.702047 10.5984 1.56496V1.92591C10.9653 2.04312 11.3217 2.19107 11.6642 2.36828L11.92 2.11248C12.5395 1.49218 13.5319 1.51038 14.1334 2.11271L14.8875 2.86676C15.4901 3.4687 15.5075 4.46077 14.8873 5.08024L14.6317 5.33584C14.8089 5.67827 14.9568 6.03464 15.0741 6.40156H15.435C16.2979 6.40156 17 7.10361 17 7.96653V9.03347C17 9.89639 16.2979 10.5984 15.435 10.5984H15.0741C14.9568 10.9653 14.8089 11.3217 14.6317 11.6642L14.8875 11.92C15.5073 12.5391 15.4902 13.5312 14.8873 14.1334L14.1332 14.8876C13.5302 15.4913 12.5381 15.5064 11.9197 14.8874L11.6642 14.6318C11.3217 14.809 10.9653 14.9569 10.5984 15.0742V15.4351C10.5984 16.298 9.89639 17 9.03344 17ZM5.50232 13.5857C5.97802 13.8671 6.49002 14.0796 7.02406 14.2174C7.24399 14.2742 7.39766 14.4725 7.39766 14.6997V15.435C7.39766 15.7487 7.65289 16.0039 7.96656 16.0039H9.03347C9.34714 16.0039 9.60238 15.7487 9.60238 15.435V14.6997C9.60238 14.4725 9.75604 14.2742 9.97598 14.2174C10.51 14.0796 11.022 13.8671 11.4977 13.5857C11.6934 13.47 11.9426 13.5015 12.1034 13.6623L12.6243 14.1832C12.8489 14.408 13.2096 14.4028 13.4286 14.1834L14.1832 13.4288C14.4018 13.2106 14.4091 12.8498 14.1834 12.6245L13.6623 12.1034C13.5016 11.9426 13.4701 11.6934 13.5858 11.4977C13.8671 11.022 14.0796 10.51 14.2174 9.97595C14.2742 9.75601 14.4726 9.60238 14.6997 9.60238H15.435C15.7487 9.60238 16.0039 9.34718 16.0039 9.03351V7.96656C16.0039 7.65289 15.7487 7.39769 15.435 7.39769H14.6997C14.4725 7.39769 14.2742 7.24403 14.2174 7.02412C14.0796 6.49005 13.8671 5.97806 13.5858 5.50239C13.4701 5.30669 13.5016 5.05747 13.6623 4.8967L14.1832 4.37577C14.4084 4.15086 14.4026 3.79027 14.1834 3.57143L13.4289 2.81689C13.2102 2.59788 12.8495 2.59147 12.6246 2.81669L12.1035 3.33781C11.9427 3.49861 11.6934 3.53009 11.4977 3.41434C11.022 3.13301 10.5101 2.92048 9.97601 2.78265C9.75607 2.72591 9.60241 2.52755 9.60241 2.30041V1.56496C9.60241 1.25129 9.34718 0.996094 9.03351 0.996094H7.96659C7.65292 0.996094 7.39769 1.25129 7.39769 1.56496V2.30035C7.39769 2.52749 7.24403 2.72584 7.02409 2.78259C6.49005 2.92041 5.97806 3.13295 5.50236 3.41428C5.30659 3.52999 5.0574 3.49851 4.89663 3.33774L4.37574 2.81682C4.15115 2.59197 3.79047 2.59718 3.57143 2.81659L2.81682 3.57116C2.59828 3.78944 2.59097 4.15013 2.81662 4.37551L3.33774 4.89663C3.49851 5.0574 3.52999 5.30662 3.41428 5.50232C3.13295 5.97799 2.92045 6.48998 2.78262 7.02406C2.72584 7.24399 2.52749 7.39762 2.30038 7.39762H1.565C1.25133 7.39766 0.996094 7.65286 0.996094 7.96653V9.03347C0.996094 9.34714 1.25133 9.60234 1.565 9.60234H2.30035C2.52749 9.60234 2.72581 9.75601 2.78259 9.97591C2.92041 10.51 3.13295 11.022 3.41424 11.4976C3.52996 11.6933 3.49848 11.9426 3.33771 12.1033L2.81679 12.6243C2.5916 12.8492 2.59748 13.2098 2.81659 13.4286L3.57113 14.1831C3.78984 14.4022 4.15056 14.4086 4.37547 14.1833L4.89656 13.6622C5.01503 13.5438 5.2615 13.4433 5.50232 13.5857Z" fill="#2A0B6D"/>
<path d="M8.49961 12.1989C6.46004 12.1989 4.80078 10.5396 4.80078 8.5001C4.80078 6.46056 6.46004 4.80127 8.49961 4.80127C10.5392 4.80127 12.1984 6.46056 12.1984 8.5001C12.1984 10.5396 10.5392 12.1989 8.49961 12.1989ZM8.49961 5.79736C7.00929 5.79736 5.79688 7.00981 5.79688 8.5001C5.79688 9.99039 7.00932 11.2028 8.49961 11.2028C9.9899 11.2028 11.2023 9.99039 11.2023 8.5001C11.2023 7.00981 9.98993 5.79736 8.49961 5.79736Z" fill="#2A0B6D"/>
</g>
<defs>
<clipPath id="clip0">
<rect width="17" height="17" fill="white"/>
</clipPath>
</defs>
</svg>
