<svg width="17" height="17" viewBox="0 0 17 17" fill="none" xmlns="http://www.w3.org/2000/svg">
<path d="M3.51953 17H13.4805C14.3044 17 14.9746 16.3298 14.9746 15.5059V4.98047H11.4883C10.6644 4.98047 9.99414 4.31023 9.99414 3.48633V0H3.51953C2.69563 0 2.02539 0.670238 2.02539 1.49414V15.5059C2.02539 16.3298 2.69563 17 3.51953 17ZM5.51172 7.00586H11.4883C11.7636 7.00586 11.9863 7.22862 11.9863 7.50391C11.9863 7.77919 11.7636 8.00195 11.4883 8.00195H5.51172C5.23643 8.00195 5.01367 7.77919 5.01367 7.50391C5.01367 7.22862 5.23643 7.00586 5.51172 7.00586ZM5.51172 8.99805H11.4883C11.7636 8.99805 11.9863 9.22081 11.9863 9.49609C11.9863 9.77138 11.7636 9.99414 11.4883 9.99414H5.51172C5.23643 9.99414 5.01367 9.77138 5.01367 9.49609C5.01367 9.22081 5.23643 8.99805 5.51172 8.99805ZM5.51172 10.9902H11.4883C11.7636 10.9902 11.9863 11.213 11.9863 11.4883C11.9863 11.7636 11.7636 11.9863 11.4883 11.9863H5.51172C5.23643 11.9863 5.01367 11.7636 5.01367 11.4883C5.01367 11.213 5.23643 10.9902 5.51172 10.9902ZM5.51172 12.9824H9.49609C9.77138 12.9824 9.99414 13.2052 9.99414 13.4805C9.99414 13.7558 9.77138 13.9785 9.49609 13.9785H5.51172C5.23643 13.9785 5.01367 13.7558 5.01367 13.4805C5.01367 13.2052 5.23643 12.9824 5.51172 12.9824Z" fill="#2A0B6D"/>
<path d="M11.4883 3.98454H14.6828L10.9902 0.291992V3.4865C10.9902 3.76129 11.2135 3.98454 11.4883 3.98454Z" fill="#2A0B6D"/>
</svg>
