<svg width="19" height="19" viewBox="0 0 19 19" fill="none" xmlns="http://www.w3.org/2000/svg">
<path d="M12.0562 6.20714L12.6597 9.72566L9.49972 8.06439L6.33975 9.72566L6.94322 6.20714L4.38672 3.71487L7.91972 3.20154L9.49972 0L11.0797 3.20154L14.6127 3.71487L12.0562 6.20714Z" fill="#532EA0"/>
<path d="M15.2126 9.40576V12.6592L9.53327 14.9663L9.49988 14.953L3.78711 12.6611V9.40576L9.49988 11.6976L15.2126 9.40576Z" fill="#532EA0"/>
<path d="M15.2126 13.4395V16.6929L9.53327 19L9.49988 18.9867L3.78711 16.6948V13.4395L9.49988 15.7313L15.2126 13.4395Z" fill="#532EA0"/>
<path d="M12.66 9.72566L9.5 8.06439V0L11.08 3.20154L14.613 3.71487L12.0565 6.20714L12.66 9.72566Z" fill="#2A0B6D"/>
<path d="M15.2128 9.40576V12.6592L9.5334 14.9663L9.5 14.953V11.6976L15.2128 9.40576Z" fill="#2A0B6D"/>
<path d="M9.5 15.7313L15.2128 13.4395V16.6929L9.5334 19L9.5 18.9867V15.7313Z" fill="#2A0B6D"/>
</svg>
