<svg width="17" height="17" viewBox="0 0 17 17" fill="none" xmlns="http://www.w3.org/2000/svg">
<g clip-path="url(#clip0)">
<path d="M10.6249 9.20918C10.2332 9.20918 9.91661 9.52655 9.91661 9.91746V12.7509C9.91661 13.1411 9.59923 13.4591 9.20819 13.4591H7.08322V2.83424C7.08322 2.22933 6.69788 1.68887 6.11852 1.48771L5.9088 1.41754H9.20819C9.59923 1.41754 9.91661 1.73556 9.91661 2.12596V4.25094C9.91661 4.64185 10.2332 4.95922 10.6249 4.95922C11.0166 4.95922 11.3332 4.64185 11.3332 4.25094V2.12596C11.3332 0.95439 10.3798 0.000976562 9.20819 0.000976562H1.59373C1.56676 0.000976562 1.54419 0.0130385 1.51799 0.0165404C1.48388 0.013687 1.45132 0.000976562 1.4167 0.000976562C0.635392 0.000976562 0 0.63624 0 1.41754V14.1674C0 14.7723 0.385334 15.3128 0.964696 15.514L5.22749 16.9349C5.37198 16.9795 5.51568 17.0008 5.66665 17.0008C6.44795 17.0008 7.08322 16.3654 7.08322 15.5841V14.8758H9.20819C10.3798 14.8758 11.3332 13.9224 11.3332 12.7509V9.91746C11.3332 9.52655 11.0166 9.20918 10.6249 9.20918Z" fill="#2A0B6D"/>
<path d="M16.7921 6.5825L13.9587 3.74924C13.7563 3.54665 13.4516 3.48569 13.1868 3.59541C12.9226 3.70527 12.7497 3.96376 12.7497 4.25V6.37498H9.91642C9.52538 6.37498 9.20801 6.69222 9.20801 7.08326C9.20801 7.4743 9.52538 7.79154 9.91642 7.79154H12.7497V9.91652C12.7497 10.2028 12.9226 10.4613 13.1868 10.5711C13.4516 10.6808 13.7563 10.6199 13.9587 10.4174L16.7921 7.58403C17.069 7.30712 17.069 6.8594 16.7921 6.5825Z" fill="#2A0B6D"/>
</g>
<defs>
<clipPath id="clip0">
<rect width="17" height="17" fill="white"/>
</clipPath>
</defs>
</svg>
