<svg width="31" height="31" viewBox="0 0 31 31" fill="none" xmlns="http://www.w3.org/2000/svg">
<path d="M21.917 9.99023C22.4186 9.99023 22.8252 9.58362 22.8252 9.08203C22.8252 8.58044 22.4186 8.17383 21.917 8.17383C21.4154 8.17383 21.0088 8.58044 21.0088 9.08203C21.0088 9.58362 21.4154 9.99023 21.917 9.99023Z" fill="black"/>
<path d="M18.4092 6.48291C18.9108 6.48291 19.3174 6.07629 19.3174 5.57471C19.3174 5.07312 18.9108 4.6665 18.4092 4.6665C17.9076 4.6665 17.501 5.07312 17.501 5.57471C17.501 6.07629 17.9076 6.48291 18.4092 6.48291Z" fill="black"/>
<path d="M25.4248 13.4976C25.9264 13.4976 26.333 13.0909 26.333 12.5894C26.333 12.0878 25.9264 11.6812 25.4248 11.6812C24.9232 11.6812 24.5166 12.0878 24.5166 12.5894C24.5166 13.0909 24.9232 13.4976 25.4248 13.4976Z" fill="black"/>
<path d="M28.2753 0H15.5605C14.0581 0 12.8359 1.22226 12.8359 2.72461V7.81012C12.4879 7.6527 12.1074 7.56921 11.714 7.56921C10.9862 7.56921 10.302 7.85263 9.7874 8.36728L0.796676 17.3581C-0.265559 18.4204 -0.265559 20.1489 0.796676 21.2113L9.78746 30.202C10.3021 30.7166 10.9863 31.0001 11.7141 31.0001C12.4418 31.0001 13.126 30.7166 13.6406 30.202L22.6314 21.2113C23.4539 20.3887 23.639 19.167 23.1878 18.1641H28.2753C29.7777 18.1641 30.9999 16.9419 30.9999 15.4395V2.72461C30.9999 1.22226 29.7777 0 28.2753 0V0ZM21.347 19.9268L12.3562 28.9175C12.1847 29.0891 11.9566 29.1836 11.7141 29.1836C11.4715 29.1836 11.2434 29.0891 11.0718 28.9175L2.08106 19.9268C1.72692 19.5727 1.72692 18.9965 2.08106 18.6424L11.0718 9.65166C11.2434 9.48013 11.4715 9.38561 11.7141 9.38561C11.9566 9.38561 12.1847 9.48013 12.3562 9.65166L21.347 18.6424C21.7011 18.9965 21.7011 19.5727 21.347 19.9268ZM29.1835 15.4395C29.1835 15.9402 28.7761 16.3477 28.2753 16.3477H21.621L14.6523 9.37901V2.72461C14.6523 2.22383 15.0597 1.81641 15.5605 1.81641H28.2753C28.7761 1.81641 29.1835 2.22383 29.1835 2.72461V15.4395Z" fill="black"/>
<path d="M12.3555 15.6978C12.8571 15.6978 13.2637 15.2911 13.2637 14.7895C13.2637 14.288 12.8571 13.8813 12.3555 13.8813C11.8539 13.8813 11.4473 14.288 11.4473 14.7895C11.4473 15.2911 11.8539 15.6978 12.3555 15.6978Z" fill="black"/>
<path d="M9.78613 18.2661C10.2877 18.2661 10.6943 17.8595 10.6943 17.3579C10.6943 16.8563 10.2877 16.4497 9.78613 16.4497C9.28455 16.4497 8.87793 16.8563 8.87793 17.3579C8.87793 17.8595 9.28455 18.2661 9.78613 18.2661Z" fill="black"/>
<path d="M16.209 19.5508C16.7106 19.5508 17.1172 19.1442 17.1172 18.6426C17.1172 18.141 16.7106 17.7344 16.209 17.7344C15.7074 17.7344 15.3008 18.141 15.3008 18.6426C15.3008 19.1442 15.7074 19.5508 16.209 19.5508Z" fill="black"/>
</svg>
