<svg width="27" height="27" viewBox="0 0 27 27" fill="none" xmlns="http://www.w3.org/2000/svg">
<path d="M14.4987 24.1668C19.8375 24.1668 24.1654 19.839 24.1654 14.5002C24.1654 9.16131 19.8375 4.8335 14.4987 4.8335C9.15985 4.8335 4.83203 9.16131 4.83203 14.5002C4.83817 19.8364 9.16244 24.1607 14.4987 24.1668ZM5.7987 14.5002C5.80129 13.808 5.88696 13.1186 6.05358 12.4467L10.0668 15.8267L8.38859 20.6844C6.73091 19.0536 5.79799 16.8255 5.7987 14.5002ZM16.4443 11.0819C16.5127 11.2417 16.6617 11.3524 16.8344 11.3717L22.0272 11.9549L18.0541 15.3014C17.9011 15.4302 17.8433 15.6398 17.9085 15.8289L19.5506 20.5815L14.616 19.3479C14.5391 19.3288 14.4583 19.3288 14.3814 19.3479L9.44683 20.5815L11.0889 15.8289C11.1541 15.6398 11.0962 15.4302 10.9433 15.3014L6.97021 11.9549L12.163 11.3717C12.3357 11.3524 12.4847 11.2417 12.5531 11.0819L14.4987 6.54357L16.4443 11.0819ZM9.45556 21.5758L14.4987 20.315L19.5418 21.5758C16.5286 23.7416 12.4688 23.7416 9.45556 21.5758ZM20.6088 20.6844L18.9306 15.8267L22.9438 12.4467C23.6818 15.4123 22.7932 18.5471 20.6088 20.6844ZM22.4732 11.0323L17.2219 10.4426L15.248 5.83816C18.4255 6.11641 21.1972 8.10898 22.4732 11.0323ZM13.7494 5.83816L11.7755 10.4426L6.52417 11.0323C7.80024 8.10898 10.5719 6.11641 13.7494 5.83816Z" fill="black"/>
<path d="M2.41602 14.5003C2.41602 21.1738 7.8259 26.5837 14.4993 26.5837C21.1728 26.5837 26.5827 21.1738 26.5827 14.5003C26.5827 7.82688 21.1728 2.41699 14.4993 2.41699C7.82897 2.42454 2.42357 7.82995 2.41602 14.5003ZM14.4993 3.38366C20.639 3.38366 25.616 8.36072 25.616 14.5003C25.616 20.6399 20.639 25.617 14.4993 25.617C8.35974 25.617 3.38268 20.6399 3.38268 14.5003C3.38976 8.36355 8.36257 3.39074 14.4993 3.38366Z" fill="black"/>
<path d="M12.8958 17.3752L14.0409 17.7568C14.0268 17.7976 14.018 17.8401 14.0154 17.8833V18.3666C14.0154 18.6336 14.2318 18.85 14.4988 18.85C14.7657 18.85 14.9821 18.6336 14.9821 18.3666V18.0707L15.7958 18.3419C15.9433 18.3909 16.1052 18.3662 16.2313 18.2753C16.3573 18.1844 16.4321 18.0386 16.4321 17.8833V15.4666C16.4321 15.2587 16.299 15.0739 16.1017 15.0081L13.5321 14.1516V12.2705L15.4654 12.915V13.5333C15.4654 13.8002 15.6818 14.0166 15.9488 14.0166C16.2157 14.0166 16.4321 13.8002 16.4321 13.5333V12.5666C16.4321 12.3587 16.299 12.1739 16.1017 12.1081L14.9821 11.735V11.1166C14.9821 10.8497 14.7657 10.6333 14.4988 10.6333C14.2318 10.6333 14.0154 10.8497 14.0154 11.1166V11.4126L13.2017 11.1414C13.0542 11.0923 12.8923 11.1171 12.7663 11.208C12.6402 11.2988 12.5654 11.4447 12.5654 11.6V14.5C12.5654 14.7079 12.6985 14.8927 12.8958 14.9585L15.4654 15.815V17.2128L13.5321 16.5683V16.4333C13.5321 16.1664 13.3157 15.95 13.0488 15.95C12.7818 15.95 12.5654 16.1664 12.5654 16.4333V16.9166C12.5654 17.1246 12.6985 17.3093 12.8958 17.3752Z" fill="black"/>
<path d="M0.482357 3.86667C1.81648 3.86832 2.89737 4.94921 2.89902 6.28333C2.89902 6.55025 3.11544 6.76667 3.38236 6.76667C3.64928 6.76667 3.86569 6.55025 3.86569 6.28333C3.86734 4.94921 4.94823 3.86832 6.28236 3.86667C6.54928 3.86667 6.76569 3.65025 6.76569 3.38333C6.76569 3.11641 6.54928 2.9 6.28236 2.9C4.94823 2.89835 3.86734 1.81746 3.86569 0.483333C3.86569 0.216414 3.64928 0 3.38236 0C3.11544 0 2.89902 0.216414 2.89902 0.483333C2.89737 1.81746 1.81648 2.89835 0.482357 2.9C0.215438 2.9 -0.000976562 3.11641 -0.000976562 3.38333C-0.000976562 3.65025 0.215438 3.86667 0.482357 3.86667ZM3.38236 2.22456C3.66863 2.69916 4.06653 3.09706 4.54113 3.38333C4.06653 3.6696 3.66863 4.0675 3.38236 4.54211C3.09609 4.0675 2.69819 3.6696 2.22358 3.38333C2.69819 3.09706 3.09609 2.69916 3.38236 2.22456Z" fill="black"/>
</svg>
