<svg width="27" height="27" viewBox="0 0 27 27" fill="none" xmlns="http://www.w3.org/2000/svg">
<g clip-path="url(#clip0)">
<path d="M26.209 6.35474H19.0569V4.78283C19.0569 3.02166 17.624 1.58887 15.8629 1.58887H11.1371C9.37601 1.58887 7.94317 3.02166 7.94317 4.78283V6.35474H0.791016C0.354164 6.35474 0 6.7089 0 7.14575V21.5159C0 23.664 1.74767 25.4116 3.89575 25.4116H23.1042C25.2523 25.4116 27 23.664 27 21.5159V7.14575C27 6.7089 26.6458 6.35474 26.209 6.35474ZM15.2948 16.6775C15.2948 17.6672 14.4896 18.4723 13.5 18.4723C12.5104 18.4723 11.7052 17.6672 11.7052 16.6775V14.8827H15.2948V16.6775ZM16.0858 13.3006H10.9142C10.4773 13.3006 10.1232 13.6548 10.1232 14.0917V15.5285C5.52324 14.5301 2.07499 11.5465 1.63134 7.93677H25.3686C24.925 11.5465 21.4768 14.5301 16.8768 15.5286V14.0917C16.8768 13.6548 16.5227 13.3006 16.0858 13.3006ZM9.52515 4.78283C9.52515 3.89399 10.2483 3.1709 11.1371 3.1709H15.8629C16.7517 3.1709 17.4748 3.89399 17.4748 4.78283V6.35474H9.52509V4.78283H9.52515ZM25.418 21.5159C25.418 22.7917 24.38 23.8296 23.1042 23.8296H3.89575C2.62 23.8296 1.58203 22.7917 1.58203 21.5159V12.016C2.22064 12.9292 3.04404 13.7725 4.03877 14.5185C5.7625 15.8113 7.86686 16.7088 10.1571 17.1516C10.3884 18.7898 11.7989 20.0543 13.5 20.0543C15.2011 20.0543 16.6116 18.7898 16.8429 17.1516C19.1331 16.7088 21.2375 15.8113 22.9612 14.5185C23.956 13.7725 24.7794 12.9291 25.418 12.016V21.5159Z" fill="#2C2C2C"/>
</g>
<defs>
<clipPath id="clip0">
<rect width="27" height="27" fill="white"/>
</clipPath>
</defs>
</svg>
