<svg width="20" height="20" viewBox="0 0 20 20" fill="none" xmlns="http://www.w3.org/2000/svg">
<path d="M14.5462 8.38702H2.28809V2.58057H14.5462V8.38702Z" fill="#F3F3F3"/>
<path d="M18.3871 4.83871V6.2993C18.3871 6.66835 18.1819 7.00006 17.8522 7.16482L17.3433 7.41935C16.7933 7.69452 16.4516 8.24707 16.4516 8.86199V10H15.8065V1.93548H16.129C16.4848 1.93548 16.7742 1.64614 16.7742 1.29032V0.645161C16.7742 0.289346 16.4848 0 16.129 0H0.645161C0.289346 0 0 0.289346 0 0.645161V1.29032C0 1.64614 0.289346 1.93548 0.645161 1.93548H0.967742V19.0323C0.967742 19.5657 1.402 20 1.93548 20H14.8387C15.3722 20 15.8065 19.5657 15.8065 19.0323V15.1613H16.7742C17.6635 15.1613 18.3871 14.4377 18.3871 13.5484V11.6129C18.3871 10.8342 17.8319 10.1826 17.0968 10.0326V8.86199C17.0968 8.49294 17.302 8.16123 17.6317 7.99647L18.1406 7.74194C18.6906 7.46676 19.0323 6.91422 19.0323 6.2993V4.83871H18.3871ZM15.8065 11.9355H16.4516V13.2258H15.8065V11.9355ZM0.645161 0.645161H16.129L16.1293 1.29032H0.645161V0.645161ZM15.1613 1.93548V9.03226H1.6129V1.93548H15.1613ZM14.8387 19.3548H1.93548C1.7575 19.3548 1.6129 19.2099 1.6129 19.0323V9.67742H15.1613V19.0323C15.1613 19.2099 15.0167 19.3548 14.8387 19.3548ZM17.7419 11.6129V13.5484C17.7419 14.0819 17.3077 14.5161 16.7742 14.5161H15.8065V13.871H16.4516C16.8074 13.871 17.0968 13.5816 17.0968 13.2258V11.9355C17.0968 11.5797 16.8074 11.2903 16.4516 11.2903H15.8065V10.6452H16.7742C17.3077 10.6452 17.7419 11.0794 17.7419 11.6129Z" fill="#2A0B6D"/>
<path d="M10 2.59082H10.6452V8.37743H10V2.59082Z" fill="#2A0B6D"/>
<path d="M6.12891 2.5874H6.77407V8.37716H6.12891V2.5874Z" fill="#2A0B6D"/>
<path d="M4.19399 4.83884V4.51625H4.81726L3.89173 6.98365L4.49625 7.21015L5.48431 4.57469V3.87109H3.54883V4.83884H4.19399Z" fill="#2A0B6D"/>
<path d="M8.06411 4.51625H8.68737L7.76184 6.98365L8.36637 7.21015L9.35443 4.57469V3.87109H7.41895V4.83884H8.06411V4.51625Z" fill="#2A0B6D"/>
<path d="M11.9352 4.51625H12.5585L11.6329 6.98365L12.2375 7.21015L13.2255 4.57469V3.87109H11.29V4.83884H11.9352V4.51625Z" fill="#2A0B6D"/>
<path d="M2.25781 18.7098H14.5159V12.9033H2.25781V18.7098ZM8.38685 14.8388C9.74395 14.8388 10.7281 14.2244 11.1094 13.5485H11.8191C11.4206 14.6726 10.0234 15.484 8.38685 15.484C6.74465 15.484 5.35131 14.6739 4.95423 13.5485H5.66302C6.08421 14.3174 7.16142 14.8388 8.38685 14.8388ZM6.48428 13.5485H10.2866C9.89516 13.9078 9.21519 14.1936 8.38685 14.1936C7.53787 14.1936 6.86813 13.9046 6.48428 13.5485ZM6.12878 15.621V16.1827C5.51433 15.813 5.07362 15.2962 4.90949 14.7068C5.23066 15.0733 5.64617 15.3839 6.12878 15.621ZM6.77394 15.8798C7.17717 16.0088 7.61079 16.091 8.06426 16.1175V16.7623C7.60292 16.7321 7.16787 16.6362 6.77394 16.4895V15.8798ZM8.70943 16.1175C9.16227 16.0907 9.59589 16.0078 9.99975 15.8782V16.4895C9.60582 16.6366 9.17077 16.7321 8.70943 16.7623V16.1175ZM10.6449 15.6185C11.1269 15.3811 11.5433 15.0708 11.8645 14.7049C11.7007 15.295 11.2601 15.8127 10.6449 16.1827V15.6185ZM2.90297 13.5485H4.1933V14.1936C4.1933 15.9724 6.0746 17.4194 8.38685 17.4194C10.6991 17.4194 12.5804 15.9724 12.5804 14.1936V13.5485H13.8707V18.0646H2.90297V13.5485Z" fill="#2A0B6D"/>
<path d="M13.5488 10.3228C13.0153 10.3228 12.5811 10.757 12.5811 11.2905C12.5811 11.824 13.0153 12.2582 13.5488 12.2582C14.0823 12.2582 14.5165 11.824 14.5165 11.2905C14.5165 10.757 14.0823 10.3228 13.5488 10.3228ZM13.5488 11.6131C13.3708 11.6131 13.2262 11.4682 13.2262 11.2905C13.2262 11.1128 13.3708 10.9679 13.5488 10.9679C13.7268 10.9679 13.8714 11.1128 13.8714 11.2905C13.8714 11.4682 13.7268 11.6131 13.5488 11.6131Z" fill="#2A0B6D"/>
<path d="M10.9677 12.2582C11.5012 12.2582 11.9355 11.824 11.9355 11.2905C11.9355 10.757 11.5012 10.3228 10.9677 10.3228C10.4343 10.3228 10 10.757 10 11.2905C10 11.824 10.4343 12.2582 10.9677 12.2582ZM10.9677 10.9679C11.1457 10.9679 11.2903 11.1128 11.2903 11.2905C11.2903 11.4682 11.1457 11.6131 10.9677 11.6131C10.7898 11.6131 10.6452 11.4682 10.6452 11.2905C10.6452 11.1128 10.7898 10.9679 10.9677 10.9679Z" fill="#2A0B6D"/>
<path d="M6.77394 10.3228H2.25781V12.2582H6.77394V10.3228ZM4.83846 10.9679V11.6131H4.1933V10.9679H4.83846ZM2.90297 10.9679H3.54813V11.6131H2.90297V10.9679ZM6.12878 11.6131H5.48362V10.9679H6.12878V11.6131Z" fill="#2A0B6D"/>
<path d="M9.35443 10.3228H7.41895V12.2582H9.35443V10.3228ZM8.70927 11.6131H8.06411V10.9679H8.70927V11.6131Z" fill="#2A0B6D"/>
<path d="M18.7093 5.16121C17.9976 5.16121 17.4189 4.58252 17.4189 3.87089C17.4189 3.15926 17.9976 2.58057 18.7093 2.58057C19.4209 2.58057 19.9996 3.15926 19.9996 3.87089C19.9996 4.58252 19.4209 5.16121 18.7093 5.16121Z" fill="#F3F3F3"/>
</svg>
