<svg width="29" height="29" viewBox="0 0 29 29" fill="none" xmlns="http://www.w3.org/2000/svg">
<path d="M28.9593 16.1416C28.9592 16.1414 28.9592 16.1414 28.9592 16.1412L23.4838 2.39316C23.3676 2.10105 23.0365 1.95844 22.7444 2.07465C22.7442 2.07472 22.744 2.07479 22.7438 2.07493L0.531136 10.9198C0.44055 10.9589 0.361989 11.0214 0.303425 11.1008C0.118694 11.1968 0.00199247 11.3868 0 11.595V26.3962C0 26.7106 0.254894 26.9655 0.569278 26.9655H24.4789C24.7933 26.9655 25.0482 26.7106 25.0482 26.3962V18.3124L28.6415 16.8813C28.9335 16.7648 29.0758 16.4336 28.9593 16.1416ZM23.9097 25.8269H1.13856V12.1642H23.9097V25.8269ZM9.4984 11.0285L19.0304 7.23031C19.8811 8.1245 21.0599 8.63272 22.2941 8.63756L23.2447 11.0285H9.4984ZM25.0482 17.0896V11.595C25.0482 11.2806 24.7933 11.0257 24.4789 11.0257H24.4698L23.2635 7.99599C23.2502 7.97073 23.2346 7.94667 23.2169 7.92426C23.1558 7.65008 22.9019 7.463 22.622 7.48591C21.4736 7.59059 20.3502 7.10685 19.6372 6.20048C19.4598 5.98153 19.148 5.92709 18.9069 6.07297C18.8798 6.07617 18.853 6.08115 18.8266 6.08777L7.18941 10.7217C7.04858 10.7769 6.93594 10.8864 6.87687 11.0257H3.3428L22.6368 3.34328L27.6914 16.0353L25.0482 17.0896Z" fill="#2C2C2C"/>
<path d="M2.68381 21.9836C3.78906 22.3103 4.65394 23.1741 4.98198 24.279C5.05392 24.5201 5.27573 24.6854 5.52735 24.6854C5.55688 24.6836 5.5862 24.6792 5.61502 24.6723C5.64056 24.6796 5.66668 24.6849 5.69301 24.6883H19.3557C19.3792 24.6852 19.4024 24.6804 19.4251 24.674C19.7096 24.7432 19.9962 24.5688 20.0654 24.2844C20.0656 24.2833 20.0659 24.2823 20.0661 24.2812C20.3933 23.1753 21.2583 22.3103 22.3643 21.9831C22.6325 21.9011 22.7992 21.6338 22.7548 21.3569C22.7624 21.3293 22.7679 21.3011 22.7713 21.2726V16.7184C22.768 16.6899 22.7623 16.6617 22.7543 16.6341C22.7989 16.3571 22.6322 16.0897 22.3637 16.0079C21.2578 15.6808 20.393 14.8154 20.0667 13.7092C19.9843 13.4391 19.7144 13.2721 19.4359 13.3187C19.4096 13.3113 19.3828 13.306 19.3557 13.3027H5.69301C5.66433 13.3062 5.63594 13.3118 5.60819 13.3198C5.3313 13.2757 5.06417 13.4423 4.98198 13.7103C4.65458 14.8161 3.78963 15.6808 2.68381 16.0079C2.41561 16.0899 2.24895 16.3572 2.29328 16.6341C2.28588 16.6618 2.28055 16.6899 2.27734 16.7184V21.2726C2.28062 21.2994 2.28595 21.3258 2.29328 21.3517C2.2466 21.6305 2.41361 21.9007 2.68381 21.9836ZM3.4159 16.9495C4.55901 16.4904 5.46501 15.5844 5.92414 14.4413H19.124C19.5833 15.5844 20.4895 16.4904 21.6328 16.9495V21.0415C20.49 21.5011 19.5842 22.407 19.1245 23.5497H5.92414C5.46452 22.407 4.55865 21.5011 3.4159 21.0415V16.9495Z" fill="#2C2C2C"/>
<path d="M12.5241 22.4114C14.4105 22.4114 15.9397 20.8822 15.9397 18.9957C15.9397 17.1093 14.4105 15.5801 12.5241 15.5801C10.6376 15.5801 9.1084 17.1093 9.1084 18.9957C9.11025 20.8814 10.6384 22.4095 12.5241 22.4114ZM12.5241 16.7186C13.7817 16.7186 14.8012 17.7381 14.8012 18.9957C14.8012 20.2533 13.7817 21.2728 12.5241 21.2728C11.2665 21.2728 10.247 20.2533 10.247 18.9957C10.247 17.7381 11.2665 16.7186 12.5241 16.7186Z" fill="#2C2C2C"/>
<path d="M6.26212 19.8494C6.73369 19.8494 7.11604 19.4671 7.11604 18.9955C7.11604 18.5239 6.73369 18.1416 6.26212 18.1416C5.79054 18.1416 5.4082 18.5239 5.4082 18.9955C5.4082 19.4672 5.79054 19.8494 6.26212 19.8494ZM6.26212 18.7109C6.41931 18.7109 6.54676 18.8383 6.54676 18.9955C6.54676 19.1527 6.41931 19.2802 6.26212 19.2802C6.10493 19.2802 5.97748 19.1527 5.97748 18.9955C5.97748 18.8383 6.10493 18.7109 6.26212 18.7109Z" fill="#2C2C2C"/>
<path d="M18.7865 19.8494C19.2581 19.8494 19.6404 19.4671 19.6404 18.9955C19.6404 18.5239 19.2581 18.1416 18.7865 18.1416C18.315 18.1416 17.9326 18.5239 17.9326 18.9955C17.9326 19.4672 18.315 19.8494 18.7865 19.8494ZM18.7865 18.7109C18.9437 18.7109 19.0712 18.8383 19.0712 18.9955C19.0712 19.1527 18.9437 19.2802 18.7865 19.2802C18.6293 19.2802 18.5019 19.1527 18.5019 18.9955C18.5019 18.8383 18.6293 18.7109 18.7865 18.7109Z" fill="#2C2C2C"/>
</svg>
