<svg width="27" height="27" viewBox="0 0 27 27" fill="none" xmlns="http://www.w3.org/2000/svg">
<g clip-path="url(#clip0)">
<path d="M26.155 12.6567H15.4677C15.002 12.6567 14.624 12.2787 14.624 11.813C14.624 11.3472 15.002 10.9692 15.4677 10.9692H26.155C26.6207 10.9692 26.9987 11.3472 26.9987 11.813C26.9987 12.2787 26.6207 12.6567 26.155 12.6567Z" fill="#2C2C2C"/>
<path d="M21.9373 16.8752C21.7212 16.8752 21.5053 16.793 21.3409 16.6278C21.0114 16.298 21.0114 15.7637 21.3409 15.4341L24.9634 11.8119L21.3409 8.18936C21.0114 7.85978 21.0114 7.32545 21.3409 6.99587C21.6707 6.66609 22.2051 6.66609 22.5346 6.99587L26.7533 11.2145C27.0828 11.5441 27.0828 12.0784 26.7533 12.408L22.5346 16.6266C22.3692 16.793 22.1533 16.8752 21.9373 16.8752Z" fill="#2C2C2C"/>
<path d="M8.99979 27.0001C8.75899 27.0001 8.53055 26.9664 8.30231 26.8955L1.53213 24.6399C0.610958 24.3182 0 23.4598 0 22.5003V2.25098C0 1.01011 1.00913 0.000976562 2.25 0.000976562C2.49059 0.000976562 2.71903 0.0347585 2.94747 0.105618L9.71745 2.36118C10.6388 2.68293 11.2496 3.54128 11.2496 4.50077V24.7501C11.2496 25.991 10.2407 27.0001 8.99979 27.0001ZM2.25 1.68842C1.94061 1.68842 1.68745 1.94158 1.68745 2.25098V22.5003C1.68745 22.7399 1.84832 22.9626 2.07779 23.0425L8.81625 25.288C8.86466 25.3036 8.92769 25.3127 8.99979 25.3127C9.30918 25.3127 9.56213 25.0595 9.56213 24.7501V4.50077C9.56213 4.2612 9.40126 4.03853 9.17179 3.95861L2.43333 1.71314C2.38492 1.69749 2.32189 1.68842 2.25 1.68842Z" fill="#2C2C2C"/>
<path d="M17.1556 9.00076C16.6899 9.00076 16.3119 8.62278 16.3119 8.15704V3.0947C16.3119 2.31957 15.681 1.68842 14.9058 1.68842H2.24997C1.78424 1.68842 1.40625 1.31044 1.40625 0.8447C1.40625 0.378963 1.78424 0.000976562 2.24997 0.000976562H14.9058C16.6124 0.000976562 17.9993 1.38809 17.9993 3.0947V8.15704C17.9993 8.62278 17.6214 9.00076 17.1556 9.00076Z" fill="#2C2C2C"/>
<path d="M14.9062 23.6253H10.4062C9.94049 23.6253 9.5625 23.2473 9.5625 22.7815C9.5625 22.3158 9.94049 21.9378 10.4062 21.9378H14.9062C15.6813 21.9378 16.3123 21.3067 16.3123 20.5315V15.4692C16.3123 15.0035 16.6903 14.6255 17.156 14.6255C17.6217 14.6255 17.9997 15.0035 17.9997 15.4692V20.5315C17.9997 22.2382 16.6128 23.6253 14.9062 23.6253Z" fill="#2C2C2C"/>
</g>
<defs>
<clipPath id="clip0">
<rect width="27" height="27" fill="white"/>
</clipPath>
</defs>
</svg>
