<svg width="19" height="15" viewBox="0 0 19 15" fill="none" xmlns="http://www.w3.org/2000/svg">
<path d="M16.058 5.75063H15.3021C15.3793 5.55343 15.4222 5.33913 15.4222 5.11484C15.4222 4.1504 14.6375 3.36572 13.6731 3.36572C13.2126 3.36572 12.7933 3.54492 12.4806 3.83686C12.1679 3.54489 11.7487 3.36572 11.2882 3.36572C10.3238 3.36572 9.53908 4.1504 9.53908 5.11484C9.53908 5.33909 9.58198 5.55339 9.65924 5.75063H8.90332C8.59591 5.75063 8.34668 5.99986 8.34668 6.30727V8.69222C8.34668 8.99963 8.59591 9.24886 8.90332 9.24886H8.94292V11.0771C8.94292 11.3845 9.19214 11.6337 9.49956 11.6337H15.4618C15.7692 11.6337 16.0184 11.3845 16.0184 11.0771V9.24882H16.058C16.3654 9.24882 16.6146 8.99959 16.6146 8.69218V6.30724C16.6146 5.99986 16.3655 5.75063 16.058 5.75063ZM11.924 10.5204H10.0562V9.24882H11.924V10.5204ZM11.924 8.13558H9.46V6.86391H11.924V8.13558ZM11.924 5.75063H11.2882C10.9377 5.75063 10.6524 5.46541 10.6524 5.11484C10.6524 4.76426 10.9377 4.47904 11.2882 4.47904C11.6388 4.47904 11.924 4.7643 11.924 5.11487V5.75063ZM13.0373 5.11484C13.0373 4.76426 13.3226 4.479 13.6731 4.479C14.0237 4.479 14.3089 4.76426 14.3089 5.11484C14.3089 5.46541 14.0237 5.75063 13.6731 5.75063H13.0373V5.11484ZM14.9052 10.5204H13.0373V9.24882H14.9052V10.5204ZM15.5014 8.13558H13.0373V6.86391H15.5014V8.13558Z" fill="#2A0B6D"/>
<path d="M16.6547 0.980957H2.34531C1.05209 0.980957 0 2.03308 0 3.32627V11.6734C0 12.9667 1.05213 14.0187 2.34531 14.0187H16.6547C17.9479 14.0187 19 12.9666 19 11.6734V3.32627C19 2.03308 17.9479 0.980957 16.6547 0.980957ZM17.8867 11.6734C17.8867 12.3528 17.334 12.9055 16.6547 12.9055H2.34531C1.66595 12.9055 1.11328 12.3528 1.11328 11.6734V3.32627C1.11328 2.64691 1.66599 2.09424 2.34531 2.09424H16.6547C17.334 2.09424 17.8867 2.64695 17.8867 3.32627V11.6734Z" fill="#2A0B6D"/>
<path d="M4.73008 10.5205H2.94141C2.63399 10.5205 2.38477 10.7697 2.38477 11.0771C2.38477 11.3846 2.63399 11.6338 2.94141 11.6338H4.73008C5.03749 11.6338 5.28672 11.3846 5.28672 11.0771C5.28672 10.7697 5.03749 10.5205 4.73008 10.5205Z" fill="#2A0B6D"/>
<path d="M2.94141 4.479H4.73008C5.03749 4.479 5.28672 4.22978 5.28672 3.92236C5.28672 3.61495 5.03749 3.36572 4.73008 3.36572H2.94141C2.63399 3.36572 2.38477 3.61495 2.38477 3.92236C2.38477 4.22978 2.63396 4.479 2.94141 4.479Z" fill="#2A0B6D"/>
<path d="M6.51875 8.13574H2.94141C2.63399 8.13574 2.38477 8.38497 2.38477 8.69238C2.38477 8.9998 2.63399 9.24902 2.94141 9.24902H6.51875C6.82617 9.24902 7.07539 8.9998 7.07539 8.69238C7.07539 8.38497 6.82617 8.13574 6.51875 8.13574Z" fill="#2A0B6D"/>
</svg>
