<svg width="16" height="16" viewBox="0 0 16 16" fill="none" xmlns="http://www.w3.org/2000/svg">
<g clip-path="url(#clip0)">
<path d="M8.71393 4.39221C8.31708 4.78821 7.67389 4.78821 7.27704 4.39221C6.88031 3.99622 6.88031 3.35413 7.27704 2.95813C7.67389 2.56213 8.31708 2.56213 8.71393 2.95813C9.11066 3.35413 9.11066 3.99622 8.71393 4.39221Z" fill="#2A0B6D"/>
<path d="M10.1021 5.92899C9.9783 5.92899 9.85452 5.88174 9.76028 5.78714C9.57181 5.59842 9.57217 5.29263 9.7609 5.10428C10.1433 4.72256 10.3539 4.21512 10.3539 3.67545C10.3539 3.13577 10.1433 2.62833 9.7609 2.24661C9.57217 2.05814 9.57181 1.75247 9.76028 1.56363C9.94864 1.37491 10.2544 1.37454 10.4431 1.56302C11.0085 2.12723 11.3197 2.87735 11.3197 3.67545C11.3197 4.47342 11.0085 5.22366 10.4431 5.78787C10.3489 5.88199 10.2255 5.92899 10.1021 5.92899Z" fill="#2A0B6D"/>
<path d="M11.1939 7.35062C11.0701 7.35062 10.9463 7.30338 10.8521 7.20889C10.6636 7.02005 10.664 6.71439 10.8527 6.52591C11.6156 5.76444 12.0359 4.75211 12.0359 3.67532C12.0359 2.59854 11.6156 1.58621 10.8527 0.824738C10.664 0.636261 10.6636 0.330597 10.8521 0.141754C11.0406 -0.0469663 11.3462 -0.0473325 11.5349 0.141144C12.4807 1.08511 13.0017 2.34024 13.0016 3.67532C13.0016 5.01041 12.4807 6.26566 11.5349 7.20963C11.4407 7.30362 11.3173 7.35062 11.1939 7.35062Z" fill="#2A0B6D"/>
<path d="M5.88672 5.92903C5.76331 5.92903 5.63989 5.88203 5.54553 5.78792C4.98023 5.22371 4.66895 4.47347 4.66895 3.67549C4.66895 2.8774 4.98023 2.12727 5.54553 1.56306C5.73425 1.37459 6.04004 1.37483 6.2284 1.56368C6.41687 1.7524 6.41651 2.05818 6.22779 2.24666C5.84534 2.62837 5.63477 3.13582 5.63477 3.67549C5.63477 4.21516 5.84534 4.72261 6.22779 5.10432C6.41651 5.29268 6.41687 5.59846 6.2284 5.78719C6.13416 5.88167 6.01038 5.92903 5.88672 5.92903Z" fill="#2A0B6D"/>
<path d="M4.79419 7.35068C4.67066 7.35068 4.54724 7.30368 4.453 7.20956C3.5072 6.26559 2.98633 5.01047 2.98633 3.67538C2.98633 2.34018 3.5072 1.08505 4.453 0.141083C4.64173 -0.0472715 4.94751 -0.0470273 5.13587 0.141815C5.32434 0.330536 5.32398 0.6362 5.13526 0.824677C4.37232 1.58615 3.95203 2.59848 3.95203 3.67526C3.95203 4.75204 4.37232 5.7645 5.13526 6.52597C5.32398 6.71445 5.32434 7.02011 5.13587 7.20895C5.04163 7.30344 4.91785 7.35068 4.79419 7.35068Z" fill="#2A0B6D"/>
<path d="M14.3587 8.18555H1.62964C1.00574 8.18555 0.5 8.69128 0.5 9.31506V14.8703C0.5 15.4942 1.00574 16 1.62964 16H14.3586C14.9825 16 15.4882 15.4942 15.4882 14.8703V9.31506C15.4882 8.69128 14.9825 8.18555 14.3587 8.18555ZM4.21471 14.5506H2.43554C2.16894 14.5506 1.95276 14.3345 1.95276 14.0677V10.1178C1.95276 9.85119 2.16894 9.63488 2.43554 9.63488C2.70227 9.63488 2.91845 9.85107 2.91845 10.1178V13.5848H4.21471C4.48144 13.5848 4.69762 13.801 4.69762 14.0677C4.69762 14.3345 4.48144 14.5506 4.21471 14.5506ZM6.19371 14.0677C6.19371 14.3345 5.97753 14.5506 5.7108 14.5506C5.44408 14.5506 5.22789 14.3345 5.22789 14.0677V10.1178C5.22789 9.85119 5.44408 9.63488 5.7108 9.63488C5.97753 9.63488 6.19371 9.85107 6.19371 10.1178V14.0677ZM10.2567 10.2574L9.06419 14.2073C9.06407 14.2076 9.06395 14.208 9.06382 14.2084C8.93431 14.6504 8.27403 14.6395 8.14 14.2084C8.13988 14.208 8.13975 14.2076 8.13963 14.2073L6.94713 10.2574C6.8701 10.0021 7.01451 9.73266 7.26988 9.65551C7.52501 9.57849 7.79466 9.7229 7.87169 9.97827L8.60191 12.3968L9.33213 9.97827C9.40928 9.7229 9.67869 9.57837 9.93406 9.65551C10.1893 9.73266 10.3338 10.0021 10.2567 10.2574ZM13.2275 11.3612C13.4942 11.3612 13.7104 11.5774 13.7104 11.8441C13.7104 12.1107 13.4942 12.327 13.2275 12.327H11.8572V13.5848H13.4876C13.7544 13.5848 13.9706 13.801 13.9706 14.0677C13.9706 14.3345 13.7544 14.5506 13.4876 14.5506H11.3742C11.1075 14.5506 10.8913 14.3345 10.8913 14.0677V10.1178C10.8913 9.85119 11.1075 9.63488 11.3742 9.63488H13.5527C13.8193 9.63488 14.0356 9.85107 14.0356 10.1178C14.0356 10.3845 13.8193 10.6007 13.5527 10.6007H11.857V11.3612H13.2275Z" fill="#2A0B6D"/>
</g>
<defs>
<clipPath id="clip0">
<rect width="16" height="16" fill="white"/>
</clipPath>
</defs>
</svg>
