<svg width="17" height="17" viewBox="0 0 17 17" fill="none" xmlns="http://www.w3.org/2000/svg">
<g clip-path="url(#clip0)">
<path d="M10.1419 6.375C10.0378 6.375 9.93363 6.34454 9.84296 6.28292L8.49996 5.36917L7.15696 6.28292C6.97492 6.40758 6.73408 6.40617 6.55346 6.27867C6.37283 6.15258 6.28854 5.92733 6.34308 5.71271L6.76596 4.046L5.49875 2.96437C5.33371 2.82271 5.27067 2.59604 5.34079 2.39062C5.41021 2.1845 5.59721 2.04212 5.81396 2.02937L7.41833 1.93871L8.002 0.3485C8.07779 0.138833 8.27754 0 8.49996 0C8.72238 0 8.92213 0.138833 8.99863 0.3485L9.58229 1.93871L11.1867 2.02937C11.4034 2.04212 11.5904 2.1845 11.6598 2.39062C11.7293 2.59604 11.6669 2.82271 11.5019 2.96437L10.2347 4.04671L10.6575 5.71342C10.7121 5.92804 10.6278 6.15258 10.4472 6.27937C10.3551 6.34312 10.2481 6.375 10.1419 6.375Z" fill="#2A0B6D"/>
<path d="M16.4684 13.4585H13.1038V16.4689C13.1038 16.6531 13.0684 16.8372 13.0117 17.0002H16.4684C16.7588 17.0002 16.9996 16.7593 16.9996 16.4689V13.9897C16.9996 13.6993 16.7588 13.4585 16.4684 13.4585Z" fill="#2A0B6D"/>
<path d="M3.89583 12.0415H0.53125C0.240833 12.0415 0 12.2823 0 12.5728V16.4686C0 16.759 0.240833 16.9998 0.53125 16.9998H3.98792C3.93125 16.8369 3.89583 16.6528 3.89583 16.4686V12.0415Z" fill="#2A0B6D"/>
<path d="M11.5101 7.7915H5.48926C5.19601 7.7915 4.95801 8.0295 4.95801 8.32275V16.4686C4.95801 16.7618 5.19601 16.9998 5.48926 16.9998H11.5101C11.8033 16.9998 12.0413 16.7618 12.0413 16.4686V8.32275C12.0413 8.0295 11.8033 7.7915 11.5101 7.7915ZM9.03092 13.6352C9.03092 13.9285 8.79292 14.1665 8.49967 14.1665C8.20642 14.1665 7.96842 13.9285 7.96842 13.6352V11.552C7.86005 11.455 7.79134 11.3133 7.79134 11.1561C7.79134 10.8628 8.02934 10.6248 8.32259 10.6248H8.49967C8.79292 10.6248 9.03092 10.8628 9.03092 11.1561V13.6352Z" fill="#2A0B6D"/>
</g>
<defs>
<clipPath id="clip0">
<rect width="17" height="17" fill="white"/>
</clipPath>
</defs>
</svg>
