<svg width="17" height="17" viewBox="0 0 17 17" fill="none" xmlns="http://www.w3.org/2000/svg">
<path d="M11.4883 0C8.46743 0 6.00977 2.49087 6.00977 5.51172C6.00977 8.53257 8.46743 10.9902 11.4883 10.9902C14.5091 10.9902 17 8.53257 17 5.51172C17 2.49087 14.5091 0 11.4883 0ZM13.1886 6.50781L12.4844 7.21208L11.4883 6.21599L10.4922 7.21208L9.78792 6.50781L10.784 5.51172L9.78792 4.51562L10.4922 3.81135L11.4883 4.80745L12.4844 3.81135L13.1886 4.51562L12.1926 5.51172L13.1886 6.50781Z" fill="#2A0B6D"/>
<path d="M5.01367 13.1887L3.31331 11.4883L4.01758 10.784L5.01367 11.7801L6.82152 9.97228C5.82346 8.92841 5.16275 7.55888 5.0401 6.03369C2.23965 6.27408 0 8.62659 0 11.4883C0 14.5092 2.49087 17 5.51172 17C8.37343 17 10.7259 14.7604 10.9663 11.9599C9.69007 11.8573 8.52905 11.3703 7.56872 10.6336L5.01367 13.1887Z" fill="#2A0B6D"/>
</svg>
