<svg width="16" height="17" viewBox="0 0 16 17" fill="none" xmlns="http://www.w3.org/2000/svg">
<path d="M14.4451 0.638698C13.5665 0.226845 12.4087 0 11.1849 0C9.96113 0 8.80332 0.226845 7.92472 0.638698C6.92418 1.10773 6.37315 1.78082 6.37315 2.53397V6.82612C5.90918 6.6709 5.41571 6.58699 4.90414 6.58699C2.20213 6.58699 0.00390625 8.92261 0.00390625 11.7935C0.00390625 14.6644 2.20213 17 4.90414 17C6.76303 17 8.38341 15.8945 9.21369 14.2699C9.82794 14.4077 10.5015 14.48 11.1849 14.48C12.4087 14.48 13.5665 14.2532 14.4451 13.8413C15.4457 13.3723 15.9967 12.6992 15.9967 11.946V2.53397C15.9967 1.78082 15.4457 1.10773 14.4451 0.638698ZM8.30316 1.55003C9.06513 1.19283 10.0886 0.996098 11.1849 0.996098C12.2813 0.996098 13.3047 1.19283 14.0667 1.55003C14.6789 1.837 15.0592 2.21406 15.0592 2.53397C15.0592 2.85389 14.6789 3.23091 14.0667 3.51792C13.3047 3.87512 12.2813 4.07185 11.1849 4.07185C10.0886 4.07185 9.06513 3.87512 8.30316 3.51792C7.69097 3.23091 7.31065 2.85392 7.31065 2.53397C7.31065 2.21403 7.69097 1.837 8.30316 1.55003ZM4.90411 16.0039C2.71904 16.0039 0.941379 14.1151 0.941379 11.7935C0.941379 9.47186 2.71904 7.58309 4.90411 7.58309C7.08915 7.58309 8.86685 9.47186 8.86685 11.7935C8.86685 14.1151 7.08918 16.0039 4.90411 16.0039ZM14.0667 12.9299C13.3047 13.2871 12.2813 13.4839 11.1849 13.4839C10.6316 13.4839 10.0878 13.4321 9.58566 13.333C9.7071 12.917 9.78045 12.4788 9.79926 12.0258C10.2444 12.0925 10.7081 12.127 11.1849 12.127C12.4087 12.127 13.5666 11.9001 14.4452 11.4883C14.6738 11.381 14.8787 11.2631 15.0592 11.1361V11.946C15.0592 12.2659 14.6789 12.643 14.0667 12.9299ZM14.0667 10.5769C13.3047 10.9341 12.2813 11.1309 11.1849 11.1309C10.6861 11.1309 10.2049 11.0899 9.74891 11.0101C9.67769 10.5108 9.53926 10.0346 9.3441 9.59209C9.9206 9.71109 10.5463 9.77394 11.1849 9.77394C12.4087 9.77394 13.5665 9.54713 14.4451 9.13528C14.6738 9.02806 14.8787 8.91009 15.0592 8.78306V9.59299C15.0592 9.91293 14.6789 10.29 14.0667 10.5769ZM14.0667 8.22395C13.3047 8.58115 12.2813 8.77788 11.1849 8.77788C10.2156 8.77788 9.29041 8.62089 8.56378 8.33525C8.20563 7.90785 7.78241 7.54338 7.31065 7.25959V6.43008C7.49115 6.55711 7.69606 6.67508 7.92472 6.78226C8.80332 7.19412 9.96113 7.42096 11.1849 7.42096C12.4087 7.42096 13.5665 7.19412 14.4451 6.78226C14.6738 6.67505 14.8787 6.55711 15.0592 6.43008V7.24C15.0592 7.55992 14.6789 7.93694 14.0667 8.22395ZM14.0667 5.8709C13.3047 6.2281 12.2813 6.42483 11.1849 6.42483C10.0886 6.42483 9.06513 6.2281 8.30316 5.8709C7.69097 5.58392 7.31065 5.2069 7.31065 4.88695V4.07703C7.49115 4.20406 7.69606 4.32203 7.92472 4.42925C8.80332 4.8411 9.96113 5.06791 11.1849 5.06791C12.4087 5.06791 13.5665 4.8411 14.4451 4.42925C14.6738 4.32203 14.8787 4.20406 15.0592 4.07703V4.88695C15.0592 5.2069 14.6789 5.58392 14.0667 5.8709Z" fill="#1AB417"/>
<path d="M5.53023 11.2572H4.52476C4.29841 11.2572 4.11426 11.0615 4.11426 10.8211C4.11426 10.5806 4.29841 10.3849 4.52476 10.3849H6.22235V9.3888H5.37307V8.7168H4.43557V9.39228C3.73376 9.44129 3.17676 10.0632 3.17676 10.8211C3.17676 11.6108 3.78148 12.2533 4.52476 12.2533H5.53023C5.7762 12.2533 5.97629 12.4659 5.97629 12.7273C5.97629 12.9886 5.7762 13.2012 5.53023 13.2012H3.36357V14.1973H4.43557V14.8693H5.37307V14.1973H5.53023C6.29313 14.1973 6.91379 13.5379 6.91379 12.7273C6.91379 11.9167 6.29313 11.2572 5.53023 11.2572Z" fill="#1AB417"/>
</svg>
