<svg width="17" height="17" viewBox="0 0 17 17" fill="none" xmlns="http://www.w3.org/2000/svg">
<path d="M5.8941 16.9991C5.60652 16.9991 5.31894 16.9432 5.04906 16.8313C4.48594 16.5982 4.03969 16.1371 3.82577 15.5662L3.29948 14.1637C3.21873 13.9498 3.04944 13.7805 2.83552 13.7004L1.43373 13.1741C0.862813 12.9602 0.401688 12.514 0.168646 11.9508C-0.0651041 11.3877 -0.0537708 10.7467 0.198396 10.192L0.818188 8.82851C0.913104 8.62026 0.913104 8.38155 0.818188 8.1733L0.198396 6.80834C-0.0530624 6.25372 -0.0643957 5.61268 0.168646 5.04955C0.401688 4.48643 0.862813 4.04018 1.43373 3.82626L2.83623 3.29997C3.05015 3.21922 3.21944 3.04993 3.29948 2.83601L3.82577 1.43422C4.03969 0.863301 4.48594 0.402176 5.04906 0.169134C5.61219 -0.0646158 6.25323 -0.0532825 6.80785 0.198884L8.1714 0.818676C8.38035 0.914301 8.61906 0.913593 8.8266 0.818676H8.82731L10.1909 0.198884C10.7455 -0.0518658 11.3865 -0.0646158 11.9496 0.169134C12.5128 0.402176 12.959 0.863301 13.1729 1.43422L13.6992 2.83672C13.78 3.05063 13.9493 3.21993 14.1632 3.29997L15.565 3.82626C16.1359 4.04018 16.597 4.48643 16.8301 5.04955C17.0638 5.61268 17.0525 6.25372 16.8003 6.80834L16.1805 8.17188C16.0856 8.38013 16.0856 8.61884 16.1805 8.82709L16.8003 10.1913C17.0518 10.746 17.0631 11.387 16.8301 11.9501C16.597 12.5133 16.1359 12.9595 15.565 13.1734L14.1625 13.6997C13.9486 13.7805 13.7793 13.9498 13.6992 14.1637L13.1729 15.5655C12.959 16.1364 12.5128 16.5975 11.9496 16.8305C11.3865 17.0643 10.7448 17.0523 10.1909 16.8008L8.82731 16.181C8.61835 16.0854 8.37965 16.0861 8.1721 16.181L6.80856 16.8015C6.51956 16.9326 6.20719 16.9991 5.8941 16.9991ZM5.89481 1.41651C5.7921 1.41651 5.6894 1.43705 5.59094 1.47743C5.38552 1.56243 5.22969 1.72393 5.15177 1.93147L4.62619 3.33326C4.40235 3.93038 3.9306 4.40213 3.33348 4.62597L1.93169 5.15155C1.72415 5.22947 1.56265 5.38601 1.47765 5.59072C1.39265 5.79613 1.39619 6.02068 1.48827 6.22255L2.10806 7.58609C2.37227 8.16622 2.37227 8.83347 2.10806 9.4143L1.48898 10.7771C1.3969 10.979 1.39335 11.2036 1.47835 11.4083C1.56335 11.6137 1.72485 11.7695 1.9324 11.8474L3.33419 12.3737C3.93131 12.5976 4.40306 13.0686 4.6269 13.6664L5.15248 15.0682C5.2304 15.2758 5.38694 15.4373 5.59165 15.5223C5.79706 15.608 6.0209 15.603 6.22277 15.5116L7.58631 14.8918C8.16644 14.6276 8.83227 14.6269 9.41452 14.8918L10.7774 15.5109C10.9799 15.6023 11.2038 15.6073 11.4085 15.5216C11.6139 15.4366 11.7697 15.2751 11.8476 15.0675L12.3739 13.6657C12.5978 13.0686 13.0688 12.5968 13.6666 12.373L15.0684 11.8474C15.276 11.7695 15.4375 11.613 15.5225 11.4083C15.6075 11.2028 15.6039 10.979 15.5119 10.7771L14.8921 9.41359C14.6279 8.83347 14.6279 8.16622 14.8921 7.58538L15.5111 6.22255C15.6032 6.02068 15.6068 5.79613 15.5218 5.59143C15.4368 5.38601 15.2753 5.23018 15.0677 5.15226L13.6659 4.62597C13.0688 4.40213 12.5971 3.93109 12.3732 3.33326L11.8476 1.93147C11.7697 1.72393 11.6132 1.56243 11.4085 1.47743C11.2038 1.39243 10.9799 1.39597 10.7774 1.48805L9.41381 2.10784C8.83227 2.37205 8.16644 2.37134 7.5856 2.10784L6.22277 1.48805C6.11723 1.44059 6.00602 1.41651 5.89481 1.41651Z" fill="#2A0B6D"/>
<path d="M6.37467 7.79183C5.59338 7.79183 4.95801 7.15645 4.95801 6.37516C4.95801 5.59387 5.59338 4.9585 6.37467 4.9585C7.15596 4.9585 7.79134 5.59387 7.79134 6.37516C7.79134 7.15645 7.15596 7.79183 6.37467 7.79183Z" fill="#2A0B6D"/>
<path d="M10.6247 12.0418C9.84338 12.0418 9.20801 11.4065 9.20801 10.6252C9.20801 9.84387 9.84338 9.2085 10.6247 9.2085C11.406 9.2085 12.0413 9.84387 12.0413 10.6252C12.0413 11.4065 11.406 12.0418 10.6247 12.0418Z" fill="#2A0B6D"/>
<path d="M6.37458 12.0414C6.22725 12.0414 6.07779 11.9954 5.95029 11.8997C5.63721 11.6653 5.57417 11.2211 5.80862 10.9081L10.0586 5.2414C10.2938 4.92903 10.7372 4.86457 11.0503 5.09973C11.3634 5.33419 11.4264 5.77832 11.192 6.0914L6.94196 11.7581C6.80313 11.9437 6.58992 12.0414 6.37458 12.0414Z" fill="#2A0B6D"/>
</svg>
