<svg width="17" height="17" viewBox="0 0 17 17" fill="none" xmlns="http://www.w3.org/2000/svg">
<path d="M8.49988 6.06885C8.0776 6.06885 7.77734 6.24715 7.77734 6.50989V10.085C7.77734 10.3102 8.07763 10.5354 8.49988 10.5354C8.90336 10.5354 9.23177 10.3102 9.23177 10.085V6.50989C9.23177 6.24715 8.90336 6.06885 8.49988 6.06885Z" fill="white"/>
<path d="M8.49992 3.86377C8.06828 3.86377 7.73047 4.17342 7.73047 4.52999C7.73047 4.88656 8.06828 5.20561 8.49992 5.20561C8.9222 5.20561 9.26 4.88656 9.26 4.52999C9.26 4.17346 8.92216 3.86377 8.49992 3.86377Z" fill="white"/>
<path d="M8.5 0C4.46243 0 1.19531 3.26546 1.19531 7.30047C1.19531 10.5953 3.36457 13.331 6.28924 14.2601L7.95046 16.7088C8.07404 16.8909 8.27986 17 8.5 17C8.72014 17 8.92596 16.8909 9.04954 16.7088L10.7108 14.2601C13.6367 13.3306 15.8047 10.5938 15.8047 7.30047C15.8047 3.2629 12.5349 0 8.5 0ZM10.1152 13.0521C9.96393 13.0944 9.83261 13.1889 9.74445 13.3188L8.5 15.1531L7.25558 13.3189C7.16739 13.1889 7.03607 13.0944 6.88483 13.0521C4.39533 12.356 2.52344 10.0666 2.52344 7.30047C2.52344 4.00729 5.20452 1.32812 8.5 1.32812C11.7955 1.32812 14.4766 4.00729 14.4766 7.30047C14.4766 10.0693 12.6019 12.3568 10.1152 13.0521Z" fill="white"/>
</svg>
